<svg width="118" height="83" viewBox="0 0 118 83" fill="none" xmlns="http://www.w3.org/2000/svg">
<path d="M115.394 12.9457C114.717 10.4435 113.397 8.16233 111.565 6.32934C109.732 4.49635 107.452 3.17549 104.951 2.4983C95.794 0 58.9402 0 58.9402 0C58.9402 0 22.0845 0.075622 12.9275 2.57392C10.4263 3.25116 8.14598 4.57208 6.31375 6.40516C4.48153 8.23823 3.1613 10.5195 2.48454 13.0218C-0.285232 29.2981 -1.35968 54.0994 2.5606 69.7246C3.23742 72.2268 4.55768 74.508 6.3899 76.341C8.22212 78.174 10.5024 79.4948 13.0036 80.172C22.1606 82.6703 59.0153 82.6703 59.0153 82.6703C59.0153 82.6703 95.8696 82.6703 105.026 80.172C107.527 79.4949 109.808 78.1741 111.64 76.3411C113.472 74.5081 114.793 72.2269 115.47 69.7246C118.391 53.4253 119.291 28.6392 115.394 12.9457Z" fill="#FF0000"/>
</svg>
