<svg width="107" height="108" viewBox="0 0 107 108" fill="none" xmlns="http://www.w3.org/2000/svg">
<g opacity="0.5">
<path d="M30.5171 80.2466L30.5477 80.7091L30.5943 81.1714L30.2929 81.0482L29.988 80.9367L29.679 80.8411L29.365 80.7659L29.0476 80.7113L28.7271 80.6802L28.4038 80.6759L28.08 80.6987L27.7578 80.7465L27.4396 80.8168L27.1268 80.906L26.8189 81.0102L26.5158 81.1262L26.2173 81.2534L25.9223 81.3892L25.63 81.5312L25.7717 81.2381L25.9071 80.9424L26.0339 80.6431L26.1497 80.3392L26.2535 80.0305L26.3425 79.7169L26.4127 79.3978L26.4604 79.0748L26.4831 78.7501L26.4788 78.426L26.4477 78.1047L26.3934 77.7864L26.3183 77.4716L26.2229 77.1618L26.1117 76.8561L25.9888 76.5539L26.45 76.6006L26.9113 76.6313L27.3715 76.6407L27.829 76.6185L28.2807 76.5601L28.7238 76.4612L29.1557 76.3178L29.5744 76.1295L29.9788 75.9019L30.3694 75.6436L30.7484 75.3639L31.1186 75.0709L31.4831 74.7711L31.8447 74.4683L32.2046 74.1644L32.5635 73.8594L32.9207 73.5525L33.2754 73.2426L33.627 72.9289L33.9751 72.6112L34.3197 72.2897L34.6611 71.9649L35.6697 70.9945L35.9563 70.7152L36.1737 70.4979L36.3278 70.3406L36.4395 70.2259L36.5301 70.1331L36.6298 70.0315L36.7869 69.8723L37.0286 69.6296L37.3199 69.3403L37.6119 69.0538L38.1563 68.5248L38.4147 68.2697L38.6672 68.0101L38.9153 67.7381L39.1605 67.4479L39.4031 67.1363L39.6418 66.8017L39.8739 66.4452L40.1006 66.0718L40.3209 65.6875L41.4304 65.6893L41.4322 66.8018L41.0489 67.0227L40.6766 67.2499L40.321 67.4826L39.9873 67.722L39.6765 67.9653L39.387 68.211L39.1157 68.4599L38.8568 68.713L38.6023 68.9721L38.0747 69.5179L37.789 69.8106L37.5005 70.1028L37.2585 70.345L37.0996 70.5026L36.9983 70.6025L36.9057 70.6933L36.7913 70.8054L36.6345 70.9599L36.4177 71.1778L36.1391 71.4651L35.1713 72.4765L34.8473 72.8188L34.5267 73.1643L34.2098 73.5133L33.8969 73.8657L33.5878 74.2214L33.2817 74.5795L32.9775 74.9393L32.6744 75.3002L32.3725 75.6627L32.0734 76.0283L31.7812 76.3994L31.5022 76.7794L31.2446 77.171L31.0176 77.5765L30.8298 77.9963L30.6867 78.4293L30.5881 78.8736L30.5299 79.3264L30.5077 79.7851L30.517 80.242L30.5171 80.2466Z" fill="black"/>
<path d="M15.2628 92.4028L14.1777 93.0133L14.7866 91.9254L15.3834 90.8374L15.9609 89.752L16.5097 88.6708L17.023 87.5972L17.4924 86.5326L17.9092 85.4793L18.2686 84.4404L18.5683 83.4204L18.8082 82.4237L18.9893 81.4553L19.1147 80.518L19.1884 79.6147L19.2164 78.7451L19.2068 77.9086L19.169 77.1015L19.1109 76.3198L19.0371 75.5582L18.9533 74.8107L18.8624 74.0707L24.6983 73.4933L24.8241 73.9177L24.9458 74.3437L25.0615 74.772L25.1687 75.2033L25.2658 75.6377L25.3503 76.0759L25.4194 76.5179L25.4715 76.9634L25.5063 77.4118L25.5236 77.8618L25.5235 78.3123L25.506 78.7623L25.4714 79.2107L25.4201 79.6568L25.3536 80.1002L25.2745 80.5414L25.1854 80.9803L25.0876 81.4173L24.9838 81.8527L24.8759 82.287L25.3091 82.1788L25.7434 82.0748L26.1792 81.9768L26.617 81.8874L27.057 81.8081L27.4993 81.7414L27.9442 81.69L28.3914 81.6553L28.8402 81.6378L29.2896 81.6377L29.7384 81.655L30.1856 81.6899L30.63 81.7422L31.0708 81.8114L31.5078 81.8961L31.9412 81.9935L32.3713 82.1009L32.7984 82.217L33.2233 82.339L33.6467 82.4651L33.0708 88.3162L32.3327 88.2252L31.5872 88.1411L30.8276 88.0671L30.0479 88.0089L29.2429 87.9711L28.4086 87.9614L27.5413 87.9894L26.6403 88.0634L25.7054 88.189L24.7396 88.3707L23.7455 88.6112L22.7282 88.9117L21.692 89.272L20.6414 89.69L19.5797 90.1606L18.5088 90.6752L17.4305 91.2255L16.3479 91.8045L15.2628 92.4028Z" fill="black"/>
<path d="M80.0365 30.5972L80.4978 30.6279L80.9589 30.6746L80.836 30.3725L80.7248 30.0668L80.6294 29.7569L80.5544 29.4421L80.5 29.1238L80.4689 28.8025L80.4646 28.4784L80.4874 28.1537L80.5351 27.8307L80.6052 27.5117L80.6942 27.198L80.798 26.8894L80.9138 26.5854L81.0406 26.2862L81.176 25.9905L81.3177 25.6974L81.0254 25.8394L80.7304 25.9751L80.4319 26.1023L80.1288 26.2184L79.8209 26.3225L79.5081 26.4118L79.1899 26.482L78.8678 26.5299L78.5439 26.5527L78.2206 26.5483L77.9002 26.5172L77.5827 26.4627L77.2687 26.3875L76.9597 26.2918L76.6548 26.1803L76.3534 26.0571L76.4 26.5194L76.4307 26.982L76.44 27.4434L76.4178 27.9021L76.3596 28.355L76.261 28.7992L76.1179 29.2323L75.9302 29.6521L75.7031 30.0576L75.4455 30.4492L75.1665 30.8291L74.8743 31.2003L74.5752 31.5658L74.2733 31.9283L73.9702 32.2892L73.666 32.649L73.3599 33.0072L73.0508 33.3628L72.7379 33.7153L72.4211 34.0643L72.1004 34.4098L71.7764 34.7521L70.8086 35.7634L70.53 36.0508L70.3132 36.2687L70.1564 36.4231L70.042 36.5352L69.9495 36.626L69.8481 36.726L69.6892 36.8835L69.4472 37.1258L69.1587 37.4179L68.873 37.7107L68.3454 38.2565L68.091 38.5155L67.832 38.7687L67.5607 39.0175L67.2712 39.2633L66.9604 39.5066L66.6268 39.7459L66.2711 39.9787L65.8988 40.2059L65.5155 40.4268L65.5173 41.5392L66.6268 41.541L66.8471 41.1567L67.0738 40.7834L67.3059 40.4268L67.5446 40.0923L67.7872 39.7807L68.0324 39.4905L68.2805 39.2185L68.5331 38.9588L68.7914 38.7037L69.3358 38.1747L69.6278 37.8883L69.9192 37.599L70.1608 37.3563L70.3179 37.1971L70.4176 37.0954L70.5082 37.0027L70.62 36.8879L70.774 36.7307L70.9914 36.5133L71.278 36.234L72.2867 35.2637L72.6281 34.9388L72.9727 34.6173L73.3207 34.2997L73.6723 33.9859L74.027 33.676L74.3842 33.3691L74.7431 33.0641L75.1031 32.7602L75.4646 32.4575L75.8292 32.1576L76.1994 31.8646L76.5783 31.5849L76.9689 31.3267L77.3733 31.099L77.792 30.9108L78.2239 30.7673L78.667 30.6685L79.1187 30.6101L79.5762 30.5878L80.0318 30.5971L80.0365 30.5972Z" fill="black"/>
<path d="M92.1609 15.3031L92.7698 14.2151L91.6848 14.8256L90.5996 15.424L89.517 16.003L88.4387 16.5533L87.3678 17.0679L86.3061 17.5385L85.2555 17.9564L84.2193 18.3168L83.202 18.6173L82.208 18.8577L81.2421 19.0394L80.3072 19.165L79.4063 19.239L78.539 19.2671L77.7046 19.2574L76.8996 19.2195L76.1199 19.1613L75.3603 19.0873L74.6149 19.0033L73.8767 18.9122L73.3008 24.7634L73.7242 24.8895L74.1491 25.0115L74.5762 25.1275L75.0064 25.2349L75.4397 25.3323L75.8767 25.417L76.3175 25.4863L76.7619 25.5386L77.2091 25.5734L77.6579 25.5908L78.1073 25.5907L78.5561 25.5732L79.0033 25.5385L79.4482 25.487L79.8906 25.4203L80.3305 25.341L80.7683 25.2517L81.2042 25.1536L81.6384 25.0496L82.0716 24.9414L81.9637 25.3757L81.86 25.8111L81.7622 26.2481L81.673 26.6871L81.594 27.1282L81.5274 27.5717L81.4761 28.0178L81.4415 28.4661L81.424 28.9161L81.424 29.3667L81.4413 29.8167L81.476 30.2651L81.5282 30.7106L81.5973 31.1526L81.6817 31.5907L81.7789 32.0252L81.886 32.4565L82.0017 32.8847L82.1234 33.3107L82.2492 33.7352L88.0851 33.1578L87.9942 32.4177L87.9104 31.6703L87.8366 30.9087L87.7786 30.127L87.7408 29.3199L87.7311 28.4833L87.7591 27.6137L87.8329 26.7104L87.9582 25.7731L88.1394 24.8047L88.3792 23.8081L88.6789 22.7881L89.0383 21.7491L89.4552 20.6958L89.9245 19.6313L90.4378 18.5576L90.9867 17.4765L91.5641 16.391L92.1609 15.3031Z" fill="black"/>
<path d="M80.0362 76.631L80.4975 76.6003L80.9586 76.5536L80.8358 76.8558L80.7246 77.1615L80.6292 77.4713L80.5541 77.7861L80.4998 78.1044L80.4687 78.4257L80.4644 78.7498L80.4871 79.0745L80.5348 79.3976L80.6049 79.7166L80.694 80.0302L80.7978 80.3389L80.9135 80.6428L81.0404 80.9421L81.1758 81.2378L81.3174 81.5309L81.0251 81.3889L80.7302 81.2531L80.4317 81.1259L80.1285 81.0099L79.8207 80.9058L79.5079 80.8165L79.1897 80.7463L78.8675 80.6984L78.5436 80.6756L78.2204 80.6799L77.8999 80.7111L77.5825 80.7656L77.2685 80.8408L76.9595 80.9364L76.6545 81.048L76.3532 81.1712L76.3998 80.7088L76.4304 80.2463L76.4398 79.7848L76.4176 79.3262L76.3593 78.8733L76.2608 78.4291L76.1177 77.996L75.9299 77.5762L75.7029 77.1707L75.4453 76.7791L75.1663 76.3992L74.8741 76.028L74.575 75.6625L74.2731 75.3L73.97 74.9391L73.6658 74.5793L73.3597 74.2211L73.0506 73.8655L72.7377 73.513L72.4209 73.164L72.1002 72.8185L71.7762 72.4762L70.8084 71.4649L70.5298 71.1776L70.3131 70.9596L70.1562 70.8052L69.9493 70.6023L69.8479 70.5023L69.6891 70.3448L69.447 70.1026L69.1585 69.8104L68.8728 69.5177L68.3452 68.9719L68.0908 68.7129L67.8318 68.4597L67.5605 68.2108L67.2711 67.9651L66.9603 67.7218L66.6266 67.4825L66.271 67.2497L65.8986 67.0224L65.5154 66.8016L65.5171 65.6892L66.6267 65.6874L66.847 66.0716L67.0736 66.445L67.3057 66.8015L67.5444 67.1361L67.7871 67.4477L68.0322 67.7379L68.2804 68.0099L68.5329 68.2696L68.7913 68.5247L69.3356 69.0536L69.6276 69.3401L69.919 69.6293L70.1606 69.872L70.3178 70.0312L70.4174 70.1329L70.6198 70.3404L70.7739 70.4976L70.9912 70.715L71.2778 70.9943L72.2865 71.9646L72.6279 72.2895L72.9724 72.611L73.3206 72.9286L73.6721 73.2423L74.0268 73.5523L74.384 73.8592L74.7429 74.1641L75.1028 74.4681L75.4644 74.7708L75.8289 75.0707L76.1992 75.3637L76.5781 75.6434L76.9687 75.9016L77.3731 76.1293L77.7918 76.3175L78.2237 76.461L78.6668 76.5598L79.1185 76.6182L79.576 76.6404L80.0362 76.631Z" fill="black"/>
<path d="M92.1604 91.9251L92.7693 93.013L91.6842 92.4025L90.5991 91.8042L89.5165 91.2252L88.4382 90.6749L87.3673 90.1603L86.3056 89.6898L85.2551 89.2718L84.2188 88.9115L83.2015 88.6109L82.2075 88.3705L81.2416 88.1889L80.3067 88.0632L79.4057 87.9893L78.5385 87.9612L77.7041 87.9709L76.8991 88.0088L76.1195 88.067L75.3598 88.141L74.6144 88.225L73.8763 88.3161L73.3004 82.4649L73.7238 82.3388L74.1486 82.2169L74.5758 82.1008L75.0059 81.9933L75.4392 81.896L75.8762 81.8113L76.3171 81.742L76.7615 81.6897L77.2087 81.6549L77.6575 81.6375L78.1068 81.6376L78.5557 81.6551L79.0028 81.6898L79.4478 81.7413L79.8901 81.8079L80.33 81.8872L80.7679 81.9766L81.2037 82.0746L81.638 82.1786L82.0712 82.2869L81.9633 81.8525L81.8595 81.4171L81.7617 80.9801L81.6726 80.5412L81.5935 80.1001L81.527 79.6566L81.4757 79.2105L81.4411 78.7622L81.4236 78.3121L81.4236 77.8616L81.4409 77.4116L81.4756 76.9632L81.5278 76.5177L81.5969 76.0757L81.6813 75.6375L81.7784 75.203L81.8856 74.7718L82.0014 74.3436L82.123 73.9176L82.2488 73.493L88.0847 74.0704L87.9938 74.8105L87.91 75.5579L87.8362 76.3195L87.7781 77.1012L87.7404 77.9083L87.7307 78.7449L87.7587 79.6144L87.8324 80.5178L87.9577 81.4551L88.1389 82.4235L88.3787 83.4201L88.6784 84.4401L89.0379 85.4791L89.4547 86.5324L89.9241 87.5969L90.4373 88.6706L90.9862 89.7517L91.5636 90.8371L92.1545 91.9142L92.1604 91.9251Z" fill="black"/>
<path fill-rule="evenodd" clip-rule="evenodd" d="M54.6684 35.1069L53.4738 35.116L52.2792 35.1069L52.2795 34.7367L52.2785 34.3468L52.2699 33.9293L52.243 33.4923L52.1865 33.0507L52.0924 32.6159L51.9545 32.1958L51.7668 31.7983L51.525 31.4319L51.2303 31.1043L50.89 30.8208L50.5144 30.5828L50.1139 30.387L49.6977 30.2262L49.2738 30.093L48.8479 29.9832L48.4186 29.8936L47.9782 29.8141L47.5263 29.7196L47.0785 29.5771L46.6545 29.3666L46.2672 29.0927L45.924 28.7733L45.6285 28.4228L45.3797 28.0472L45.1714 27.6506L44.9961 27.2396L44.8465 26.821L44.7129 26.3996L44.5921 25.9757L48.1903 25.1222L48.1848 25.365L48.1828 25.6101L48.188 25.8584L48.2084 26.1081L48.2528 26.3549L48.3292 26.5923L48.4422 26.8134L48.5922 27.0128L48.7757 27.1855L48.9865 27.3269L49.2177 27.432L49.463 27.4966L49.717 27.5178L49.975 27.4959L50.2319 27.4339L50.4816 27.3375L50.7185 27.2118L50.9374 27.0601L51.1341 26.8836L51.3049 26.6836L51.4484 26.4624L51.5653 26.2234L51.6583 25.97L51.7316 25.7065L51.7887 25.4434L51.8331 25.1984L51.8689 24.9823L51.8999 24.7874L51.876 24.7484L51.8256 24.6739L51.7184 24.5265L51.5261 24.2951L51.2486 24.0019L50.9042 23.6823L50.4993 23.3676L50.0299 23.0761L49.4945 22.8142L48.896 22.5823L48.2379 22.38L47.5227 22.2068L46.7539 22.0613L45.9389 21.9424L45.0857 21.8494L44.2019 21.7794L43.2972 21.7241L42.3828 21.6779L42.7562 21.5232L43.0949 21.3618L43.3884 21.2005L43.6476 21.0354L43.8922 20.8631L44.1327 20.6814L44.3686 20.4876L44.5954 20.2781L44.8079 20.0514L45.002 19.8091L45.175 19.5548L45.3245 19.2927L45.4497 19.0274L45.5503 18.7632L45.6273 18.5034L45.6819 18.2504L45.7159 18.0055L45.7313 17.7695L45.7298 17.5421L45.7132 17.323L45.6826 17.1115L45.6389 16.9069L45.5826 16.7087L45.5137 16.5166L45.4321 16.3304L45.3377 16.1504L45.2305 15.9768L45.1104 15.8102L44.9778 15.6514L44.8331 15.5009L44.677 15.3598L44.5104 15.2287L44.3342 15.1085L44.1494 14.9995L43.9573 14.9019L43.7591 14.8158L43.5558 14.7408L43.3486 14.6766L43.1386 14.6227L42.9267 14.5791L42.7139 14.546L42.5012 14.5243L42.2894 14.515L42.08 14.5192L41.874 14.5382L41.6731 14.5727L41.4786 14.6232L41.2922 14.6897L41.1154 14.772L40.9502 14.8693L40.7977 14.9806L40.6596 15.1047L40.5369 15.2399L40.4303 15.3848L40.3405 15.5376L40.2675 15.6968L40.2115 15.8603L40.1725 16.0265L40.1505 16.1935L40.1457 16.3595L40.1583 16.5227L40.1881 16.6812L40.2355 16.8333L40.3002 16.9773L40.3824 17.1115L40.4814 17.2341L40.5968 17.3429L40.7276 17.4352L40.8721 17.5076L41.0275 17.5565L41.1896 17.5784L41.3529 17.5703L41.5108 17.5312L41.6564 17.4614L41.7832 17.3634L41.8865 17.2412L41.9644 17.0997L42.0182 16.9441L42.0519 16.7789L42.068 16.608L42.0654 16.4351L42.0424 16.2629L42.0034 16.0915L41.9511 15.9221L42.2444 16.0499L42.5305 16.2011L42.8064 16.3808L43.0632 16.5979L43.2955 16.848L43.4981 17.1245L43.6611 17.4274L43.7704 17.7592L43.8113 18.1182L43.7724 18.4952L43.6479 18.875L43.4383 19.2397L43.1493 19.5716L42.791 19.856L42.3761 20.0816L41.9185 20.2416L41.4319 20.3323L40.9287 20.3525L40.4207 20.3015L39.9191 20.1795L39.4352 19.9873L38.9799 19.7271L38.5641 19.403L38.1976 19.0205L37.8885 18.5874L37.6434 18.1123L37.467 17.6051L37.3613 17.0761L37.3268 16.5352L37.3621 15.992L37.4643 15.4552L37.6297 14.9326L37.854 14.4308L38.1325 13.9558L38.4603 13.513L38.8327 13.1074L39.2446 12.7436L39.6906 12.4259L40.1651 12.1584L40.6614 11.9445L41.1728 11.7867L41.6917 11.6862L42.2107 11.6425L42.7227 11.6536L43.2211 11.7159L43.7007 11.8246L44.1572 11.9742L44.5877 12.159L44.9903 12.3737L45.3636 12.6138L45.7068 12.8755L46.0193 13.1558L46.3005 13.4525L46.5499 13.7634L46.7674 14.0869L46.9532 14.4211L47.108 14.7643L47.2331 15.1149L47.3301 15.4711L47.401 15.8316L47.4475 16.1951L47.4707 16.5604L47.4713 16.9263L47.4502 17.2919L47.4075 17.6562L47.3413 18.0175L47.2473 18.373L47.1246 18.7213L46.9807 19.0647L46.8208 19.403L47.2518 19.0918L47.6884 18.7499L48.1487 18.3444L48.6315 17.8421L49.1158 17.249L49.5788 16.5921L50.0067 15.8838L50.3931 15.1269L50.7378 14.3261L51.0442 13.4871L51.3164 12.6157L51.5589 11.7173L51.7769 10.7961L51.9761 9.85623L52.1612 8.9016L52.3362 7.93421L52.505 6.95687L52.6739 5.97227L52.8459 4.98209L53.0134 3.98788L53.1611 2.99167L53.2814 1.99471L53.382 0.997412L53.4739 0L53.5657 0.997385L53.6663 1.99469L53.7867 2.99171L53.9343 3.98787L54.1018 4.98206L54.2738 5.97228L54.4427 6.95683L54.6115 7.93424L54.7865 8.90158L54.9717 9.85622L55.1708 10.796L55.3889 11.7173L55.6313 12.6156L55.9034 13.4871L56.2099 14.3262L56.5545 15.1269L56.9409 15.8838L57.3688 16.5921L57.8319 17.249L58.3162 17.842L58.799 18.3444L59.2592 18.7498L59.6958 19.0917L60.1268 19.403L59.967 19.0647L59.8231 18.7213L59.7003 18.373L59.6063 18.0175L59.5401 17.6562L59.4975 17.2918L59.4763 16.9263L59.4769 16.5604L59.5001 16.195L59.5467 15.8315L59.6175 15.471L59.7145 15.1148L59.8396 14.7643L59.9945 14.421L60.1803 14.0868L60.3978 13.7634L60.6472 13.4524L60.9283 13.1558L61.2408 12.8754L61.5841 12.6137L61.9574 12.3737L62.36 12.1589L62.7905 11.9741L63.247 11.8245L63.7266 11.7159L64.225 11.6536L64.737 11.6424L65.256 11.6861L65.7749 11.7867L66.2863 11.9444L66.7826 12.1583L67.257 12.4258L67.7031 12.7434L68.115 13.1073L68.4874 13.5129L68.8152 13.9557L69.0937 14.4307L69.3179 14.9324L69.4833 15.4551L69.5855 15.9919L69.6208 16.5351L69.5864 17.0759L69.4807 17.605L69.3042 18.1121L69.0591 18.5873L68.7501 19.0205L68.3835 19.4029L67.9677 19.727L67.5125 19.9872L67.0285 20.1794L66.5269 20.3014L66.0189 20.3524L65.5157 20.3322L65.0291 20.2415L64.5716 20.0816L64.1567 19.856L63.7983 19.5716L63.5094 19.2396L63.2998 18.8749L63.1752 18.4952L63.1363 18.1181L63.1772 17.7592L63.2866 17.4274L63.4496 17.1245L63.6521 16.8479L63.8845 16.5978L64.1412 16.3807L64.4172 16.201L64.7033 16.0498L64.9966 15.9221L64.9442 16.0914L64.9053 16.2628L64.8822 16.4351L64.8796 16.6079L64.8958 16.7788L64.9295 16.944L64.9833 17.0996L65.0611 17.2411L65.1644 17.3633L65.2913 17.4613L65.4369 17.5311L65.5947 17.5702L65.758 17.5783L65.9201 17.5564L66.0755 17.5075L66.22 17.4351L66.3508 17.3429L66.4663 17.2341L66.5653 17.1115L66.6474 16.9772L66.7122 16.8332L66.7595 16.6811L66.7894 16.5226L66.8019 16.3595L66.7971 16.1934L66.7752 16.0264L66.7362 15.8602L66.6802 15.6967L66.6072 15.5376L66.5173 15.3847L66.4108 15.2398L66.2881 15.1046L66.1499 14.9806L65.9975 14.8693L65.8322 14.7719L65.6555 14.6897L65.4691 14.6231L65.2746 14.5726L65.0736 14.5381L64.8677 14.5192L64.6582 14.5149L64.4465 14.5242L64.2338 14.5459L64.021 14.579L63.8091 14.6226L63.599 14.6765L63.3919 14.7408L63.1886 14.8158L62.9903 14.9019L62.7982 14.9994L62.6135 15.1084L62.4373 15.2287L62.2707 15.3597L62.1146 15.5009L61.9699 15.6513L61.8372 15.8102L61.7172 15.9767L61.6099 16.1503L61.5156 16.3303L61.434 16.5165L61.3651 16.7086L61.3087 16.9068L61.265 17.1114L61.2345 17.323L61.2178 17.5421L61.2164 17.7694L61.2317 18.0055L61.2658 18.2503L61.3203 18.5033L61.3973 18.7631L61.498 19.0273L61.6231 19.2926L61.7727 19.5547L61.9456 19.8091L62.1398 20.0513L62.3523 20.278L62.579 20.4875L62.815 20.6813L63.0554 20.863L63.3001 21.0354L63.5592 21.2005L63.8527 21.3617L64.1914 21.5231L64.5648 21.6778L63.6504 21.724L62.7457 21.7793L61.8619 21.8494L61.0088 21.9423L60.1937 22.0613L59.4249 22.2068L58.7097 22.38L58.0517 22.5823L57.4531 22.8142L56.9177 23.0762L56.4483 23.3676L56.0434 23.6823L55.699 24.0019L55.4216 24.2951L55.2292 24.5265L55.1219 24.6739L55.0716 24.7484L55.0477 24.7874L55.0787 24.9823L55.1145 25.1984L55.1589 25.4435L55.2161 25.7065L55.2893 25.97L55.3823 26.2234L55.4991 26.4624L55.6426 26.6836L55.8135 26.8836L56.0101 27.0601L56.2291 27.2118L56.4659 27.3374L56.7157 27.4339L56.9725 27.4958L57.2306 27.5178L57.4846 27.4966L57.7299 27.432L57.9611 27.3268L58.1719 27.1855L58.3554 27.0128L58.5054 26.8134L58.6184 26.5923L58.6948 26.3549L58.7392 26.1081L58.7595 25.8584L58.7648 25.6101L58.7628 25.365L58.7573 25.1222L62.3555 25.9756L62.2347 26.3995L62.1011 26.821L61.9514 27.2395L61.7762 27.6505L61.5679 28.0471L61.319 28.4228L61.0236 28.7733L60.6804 29.0926L60.293 29.3666L59.869 29.5771L59.4213 29.7196L58.9694 29.814L58.529 29.8935L58.0997 29.9832L57.6738 30.093L57.2499 30.2262L56.8337 30.3869L56.4332 30.5827L56.0576 30.8207L55.7172 31.1043L55.4226 31.4319L55.1808 31.7983L54.993 32.1958L54.8551 32.6159L54.7611 33.0507L54.7046 33.4923L54.6776 33.9294L54.669 34.3468L54.668 34.7367L54.6684 35.1069ZM53.5584 13.03L53.4742 12.2309L53.4733 12.2389L53.3898 13.03L53.3106 13.7585L53.2393 14.3924L53.1668 14.9999L53.0784 15.6426L52.9633 16.2764L52.8232 16.8384L52.6625 17.3304L52.4802 17.7819L52.2717 18.2146L52.0343 18.64L51.7742 19.0544L51.4966 19.4479L51.197 19.814L50.8689 20.1502L50.5129 20.4579L50.1349 20.7417L49.7415 21.0071L49.3393 21.2614L48.931 21.5078L49.4003 21.6927L49.8632 21.891L50.3174 22.1068L50.7591 22.3493L51.1855 22.6236L51.5914 22.9366L51.968 23.2965L52.3055 23.7073L52.5972 24.1661L52.8414 24.6646L53.0413 25.1924L53.2049 25.7401L53.3465 26.2992L53.4741 26.8642L53.6017 26.2992L53.7433 25.7401L53.9069 25.1924L54.1068 24.6645L54.351 24.1661L54.6427 23.7073L54.9801 23.2964L55.3568 22.9365L55.7627 22.6235L56.1891 22.3492L56.6308 22.1068L57.085 21.8909L57.5479 21.6927L58.0171 21.5078L57.6089 21.2614L57.2067 21.0071L56.8133 20.7417L56.4353 20.4579L56.0793 20.1502L55.7512 19.8141L55.4516 19.4479L55.174 19.0544L54.9139 18.64L54.6766 18.2146L54.468 17.7819L54.2857 17.3304L54.1251 16.8383L53.9848 16.2764L53.8698 15.6426L53.7814 14.9999L53.709 14.3924L53.6377 13.7585L53.5584 13.03Z" fill="black"/>
<path fill-rule="evenodd" clip-rule="evenodd" d="M71.9327 52.4165L71.9236 53.6142L71.9327 54.812L72.302 54.8116L72.6908 54.8126L73.1072 54.8212L73.5431 54.8483L73.9836 54.9049L74.4173 54.9992L74.8363 55.1374L75.2327 55.3257L75.5981 55.5682L75.9249 55.8635L76.2076 56.2048L76.4451 56.5814L76.6404 56.9829L76.8007 57.4002L76.9335 57.8252L77.0431 58.2522L77.1324 58.6826L77.2117 59.1242L77.3059 59.5773L77.4481 60.0262L77.658 60.4513L77.9312 60.8397L78.2498 61.1838L78.5993 61.4801L78.974 61.7296L79.3696 61.9384L79.7795 62.1141L80.197 62.2642L80.6173 62.3981L81.0401 62.5192L81.8913 58.9116L81.6492 58.917L81.4047 58.9191L81.1571 58.9139L80.908 58.8934L80.6618 58.8489L80.4251 58.7723L80.2045 58.659L80.0057 58.5086L79.8334 58.3246L79.6924 58.1133L79.5876 57.8815L79.5232 57.6356L79.502 57.3808L79.5239 57.1221L79.5857 56.8646L79.6819 56.6142L79.8072 56.3767L79.9585 56.1572L80.1346 55.9601L80.334 55.7888L80.5546 55.6449L80.793 55.5277L81.0457 55.4344L81.3086 55.361L81.5709 55.3038L81.8153 55.2592L82.0309 55.2233L82.2252 55.1922L82.2641 55.2162L82.3385 55.2667L82.4855 55.3742L82.7163 55.5671L83.0087 55.8453L83.3275 56.1905L83.6413 56.5965L83.932 57.0671L84.1933 57.604L84.4246 58.204L84.6264 58.8638L84.7991 59.5809L84.9442 60.3517L85.0628 61.1689L85.1556 62.0243L85.2254 62.9105L85.2806 63.8175L85.3266 64.7343L85.4809 64.3599L85.6419 64.0204L85.8028 63.7261L85.9674 63.4662L86.1393 63.2209L86.3205 62.9799L86.5138 62.7433L86.7227 62.5159L86.9489 62.3029L87.1905 62.1082L87.4442 61.9348L87.7056 61.7849L87.9702 61.6594L88.2337 61.5584L88.4929 61.4813L88.7452 61.4266L88.9894 61.3924L89.2248 61.377L89.4516 61.3785L89.6701 61.3952L89.8811 61.4258L90.0851 61.4696L90.2829 61.5261L90.4745 61.5952L90.6602 61.677L90.8397 61.7716L91.0128 61.8792L91.1789 61.9995L91.3374 62.1325L91.4874 62.2775L91.6282 62.4341L91.7589 62.6011L91.8788 62.7778L91.9876 62.963L92.0848 63.1556L92.1707 63.3544L92.2455 63.5582L92.3096 63.7659L92.3634 63.9765L92.4069 64.189L92.4399 64.4023L92.4615 64.6156L92.4708 64.8279L92.4666 65.0379L92.4477 65.2444L92.4133 65.4459L92.3629 65.6409L92.2965 65.8278L92.2144 66.005L92.1174 66.1707L92.0064 66.3235L91.8827 66.462L91.7478 66.5851L91.6032 66.6919L91.4508 66.782L91.2921 66.8552L91.129 66.9113L90.9632 66.9504L90.7966 66.9724L90.6311 66.9772L90.4683 66.9647L90.3102 66.9347L90.1586 66.8873L90.0149 66.8223L89.881 66.74L89.7588 66.6407L89.6502 66.525L89.5582 66.3938L89.486 66.2489L89.4372 66.0931L89.4154 65.9306L89.4235 65.7669L89.4625 65.6086L89.5321 65.4626L89.6298 65.3355L89.7517 65.2318L89.8929 65.1538L90.0481 65.0999L90.2128 65.0661L90.3833 65.0499L90.5557 65.0525L90.7275 65.0756L90.8984 65.1146L91.0673 65.1671L90.9399 64.8731L90.7891 64.5862L90.6099 64.3096L90.3933 64.0521L90.1439 63.8192L89.8681 63.6161L89.566 63.4527L89.235 63.343L88.877 63.302L88.501 63.341L88.1222 63.4659L87.7585 63.6761L87.4274 63.9658L87.1437 64.325L86.9187 64.7411L86.7592 65.1998L86.6687 65.6877L86.6486 66.1922L86.6994 66.7015L86.8211 67.2044L87.0128 67.6897L87.2723 68.1461L87.5956 68.563L87.977 68.9305L88.4091 69.2404L88.8829 69.4861L89.3888 69.663L89.9164 69.769L90.4559 69.8036L90.9976 69.7682L91.533 69.6657L92.0543 69.4998L92.5548 69.275L93.0285 68.9958L93.4701 68.6671L93.8747 68.2937L94.2376 67.8808L94.5544 67.4335L94.8212 66.9579L95.0346 66.4602L95.1919 65.9475L95.2922 65.4272L95.3357 64.9068L95.3247 64.3935L95.2625 63.8938L95.1541 63.413L95.005 62.9553L94.8206 62.5237L94.6065 62.12L94.367 61.7457L94.106 61.4016L93.8264 61.0882L93.5305 60.8063L93.2205 60.5563L92.8978 60.3382L92.5645 60.1519L92.2221 59.9967L91.8725 59.8713L91.5172 59.774L91.1577 59.7029L90.7951 59.6563L90.4307 59.633L90.0658 59.6324L89.7011 59.6536L89.3378 59.6964L88.9774 59.7628L88.6228 59.857L88.2754 59.9801L87.933 60.1244L87.5955 60.2846L87.906 59.8525L88.247 59.4148L88.6514 58.9533L89.1524 58.4692L89.7439 57.9837L90.3991 57.5194L91.1056 57.0904L91.8605 56.703L92.6591 56.3574L93.496 56.0502L94.3652 55.7772L95.2612 55.5342L96.18 55.3156L97.1174 55.1158L98.0695 54.9302L99.0344 54.7548L100.009 54.5856L100.991 54.4162L101.979 54.2437L102.97 54.0758L103.964 53.9277L104.958 53.8071L105.953 53.7062L106.948 53.6141L105.953 53.5221L104.958 53.4211L103.964 53.3005L102.97 53.1525L101.979 52.9846L100.991 52.812L100.009 52.6427L99.0344 52.4734L98.0695 52.2981L97.1174 52.1124L96.18 51.9128L95.2612 51.6941L94.3652 51.4511L93.496 51.1781L92.6591 50.8709L91.8605 50.5254L91.1056 50.138L90.3992 49.7089L89.7439 49.2447L89.1525 48.7591L88.6514 48.2751L88.2471 47.8136L87.9061 47.3758L87.5956 46.9437L87.933 47.104L88.2755 47.2482L88.6229 47.3713L88.9775 47.4656L89.3378 47.532L89.7012 47.5747L90.0658 47.596L90.4308 47.5953L90.7951 47.572L91.1577 47.5254L91.5172 47.4543L91.8726 47.357L92.2222 47.2317L92.5645 47.0764L92.8978 46.8901L93.2204 46.6721L93.5306 46.422L93.8265 46.1401L94.106 45.8268L94.3671 45.4826L94.6066 45.1083L94.8207 44.7047L95.005 44.273L95.1542 43.8153L95.2626 43.3345L95.3247 42.8348L95.3358 42.3215L95.2922 41.8011L95.192 41.2808L95.0346 40.7681L94.8213 40.2704L94.5545 39.7948L94.2377 39.3475L93.8748 38.9346L93.4702 38.5612L93.0286 38.2325L92.5549 37.9534L92.0544 37.7285L91.5331 37.5626L90.9978 37.4601L90.456 37.4248L89.9166 37.4594L89.3889 37.5653L88.883 37.7423L88.4092 37.988L87.9771 38.2978L87.5957 38.6654L87.2724 39.0822L87.0129 39.5387L86.8212 40.0239L86.6995 40.5269L86.6486 41.0362L86.6688 41.5407L86.7592 42.0286L86.9188 42.4873L87.1438 42.9033L87.4274 43.2626L87.7585 43.5523L88.1222 43.7625L88.501 43.8873L88.8771 43.9263L89.2351 43.8853L89.566 43.7757L89.8681 43.6122L90.1439 43.4092L90.3934 43.1762L90.6099 42.9188L90.7892 42.6421L90.94 42.3552L91.0674 42.0612L90.8985 42.1137L90.7275 42.1527L90.5557 42.1758L90.3833 42.1785L90.2129 42.1623L90.0481 42.1285L89.8929 42.0745L89.7518 41.9965L89.6299 41.8929L89.5322 41.7657L89.4626 41.6198L89.4235 41.4615L89.4155 41.2978L89.4373 41.1352L89.4861 40.9795L89.5583 40.8345L89.6503 40.7034L89.7588 40.5876L89.8811 40.4883L90.015 40.406L90.1586 40.3411L90.3103 40.2936L90.4684 40.2636L90.6311 40.2511L90.7967 40.2559L90.9633 40.2779L91.1291 40.317L91.2922 40.3731L91.4509 40.4463L91.6033 40.5364L91.7479 40.6432L91.8828 40.7663L92.0064 40.9048L92.1174 41.0576L92.2145 41.2234L92.2966 41.4005L92.363 41.5874L92.4133 41.7824L92.4478 41.9839L92.4666 42.1904L92.4709 42.4004L92.4616 42.6127L92.4399 42.826L92.407 43.0393L92.3635 43.2518L92.3097 43.4624L92.2456 43.6701L92.1708 43.8739L92.0849 44.0727L91.9876 44.2653L91.8789 44.4505L91.7589 44.6272L91.6283 44.7943L91.4875 44.9508L91.3375 45.0959L91.179 45.2288L91.0129 45.3492L90.8398 45.4567L90.6602 45.5513L90.4745 45.6331L90.2829 45.7022L90.0852 45.7587L89.8811 45.8025L89.6702 45.8332L89.4516 45.8499L89.2249 45.8513L88.9894 45.8359L88.7453 45.8018L88.493 45.747L88.2338 45.6699L87.9702 45.569L87.7056 45.4435L87.4443 45.2936L87.1906 45.1202L86.9489 44.9255L86.7228 44.7124L86.5139 44.4851L86.3206 44.2485L86.1393 44.0074L85.9675 43.7621L85.8029 43.5023L85.642 43.208L85.481 42.8685L85.3267 42.494L85.2806 43.4109L85.2255 44.318L85.1556 45.204L85.0629 46.0595L84.9443 46.8767L84.7992 47.6475L84.6264 48.3646L84.4246 49.0243L84.1933 49.6244L83.932 50.1612L83.6413 50.6319L83.3275 51.0379L83.0087 51.3832L82.7162 51.6613L82.4855 51.8542L82.3385 51.9617L82.2641 52.0122L82.2252 52.0362L82.0309 52.0051L81.8153 51.9692L81.571 51.9246L81.3086 51.8674L81.0457 51.794L80.793 51.7007L80.5546 51.5835L80.334 51.4397L80.1346 51.2683L79.9585 51.0712L79.8072 50.8517L79.6819 50.6142L79.5857 50.3638L79.5239 50.1063L79.502 49.8476L79.5232 49.5929L79.5876 49.3469L79.6925 49.1151L79.8335 48.9038L80.0057 48.7198L80.2046 48.5694L80.4251 48.4561L80.6619 48.3795L80.908 48.335L81.1571 48.3145L81.4047 48.3093L81.6492 48.3113L81.8914 48.3168L81.0402 44.7092L80.6173 44.8303L80.197 44.9643L79.7795 45.1143L79.3697 45.29L78.9741 45.4989L78.5994 45.7484L78.2498 46.0446L77.9313 46.3887L77.658 46.7771L77.4481 47.2022L77.306 47.6511L77.2118 48.1042L77.1325 48.5458L77.0431 48.9762L76.9335 49.4032L76.8007 49.8282L76.6404 50.2455L76.4451 50.6471L76.2077 51.0237L75.9249 51.3649L75.5981 51.6603L75.2327 51.9027L74.8363 52.091L74.4172 52.2292L73.9836 52.3236L73.5432 52.3802L73.1072 52.4072L72.6908 52.4158L72.302 52.4169L71.9327 52.4165ZM93.9518 53.5295L94.7488 53.6141L94.7409 53.6149L93.9518 53.6986L93.2253 53.7781L92.593 53.8496L91.9871 53.9222L91.3461 54.0108L90.7139 54.1262L90.1535 54.2668L89.6627 54.4279L89.2124 54.6106L88.7808 54.8197L88.3566 55.0577L87.9432 55.3185L87.5507 55.5968L87.1855 55.8972L86.8502 56.2261L86.5434 56.5831L86.2603 56.9621L85.9956 57.3565L85.742 57.7598L85.4962 58.1691L85.3118 57.6986L85.114 57.2345L84.8988 56.7791L84.657 56.3362L84.3834 55.9088L84.0712 55.5018L83.7122 55.1241L83.3025 54.7857L82.8448 54.4933L82.3477 54.2485L81.8213 54.0481L81.275 53.884L80.7173 53.7421L80.1539 53.6141L80.7174 53.4861L81.275 53.3442L81.8213 53.1802L82.3477 52.9798L82.8448 52.7349L83.3025 52.4425L83.7123 52.1041L84.0712 51.7264L84.3834 51.3195L84.657 50.892L84.8988 50.4491L85.1141 49.9937L85.3118 49.5296L85.4962 49.0592L85.742 49.4684L85.9956 49.8717L86.2604 50.2661L86.5434 50.6452L86.8503 51.0021L87.1856 51.331L87.5507 51.6313L87.9432 51.9097L88.3565 52.1706L88.7808 52.4085L89.2124 52.6176L89.6627 52.8003L90.1535 52.9614L90.7139 53.102L91.3461 53.2173L91.9871 53.306L92.593 53.3786L93.2252 53.4501L93.9518 53.5295Z" fill="black"/>
<path fill-rule="evenodd" clip-rule="evenodd" d="M71.5867 37.9857L71.8803 37.8139L72.2022 37.6541L72.5437 37.5058L72.8966 37.3683L73.2535 37.2424L73.6055 37.1309L73.9373 37.0374L74.2291 36.9639L74.4637 36.9096L74.6398 36.8705L74.7783 36.8402L74.7782 37.0667L74.7814 37.2975L74.7889 37.5385L74.8037 37.7973L74.8289 38.0802L74.868 38.3894L74.9263 38.7227L75.0086 39.0755L75.1179 39.4414L75.255 39.8138L75.4191 40.1858L75.6087 40.5516L75.8216 40.9066L76.0554 41.2469L76.3081 41.5699L76.5774 41.8737L76.8619 42.157L77.1601 42.4186L77.4707 42.6573L77.7928 42.8722L78.1255 43.0617L78.4676 43.2243L78.8181 43.3585L79.1757 43.4622L79.5386 43.5336L79.9046 43.5712L80.2713 43.5735L80.6356 43.5398L80.9945 43.4696L81.3446 43.363L81.6825 43.2211L82.0048 43.0449L82.3086 42.8364L82.5906 42.5978L82.8483 42.3313L83.0789 42.0396L83.2802 41.7255L83.4499 41.3918L83.5861 41.0418L83.6872 40.6785L83.752 40.3054L83.7797 39.9259L83.7702 39.5435L83.7239 39.1616L83.6417 38.7834L83.5252 38.4116L83.3762 38.0487L83.1969 37.6966L82.9897 37.3567L82.7566 37.0304L82.4995 36.7187L82.2206 36.4223L81.9219 36.1413L81.6048 35.8762L81.2693 35.6301L80.9148 35.4069L80.5425 35.2085L80.1568 35.0326L79.7626 34.8757L79.3624 34.736L78.9563 34.6146L78.5475 34.5151L78.1568 34.4443L77.8238 34.4027L77.5717 34.3796L77.377 34.3673L77.6677 34.2666L77.9783 34.1652L78.3173 34.0636L78.6801 33.9702L79.0553 33.892L79.4352 33.8319L79.8172 33.79L80.2006 33.7652L80.5843 33.7565L80.968 33.7615L81.3515 33.7754L81.7348 33.7961L81.0357 31.5002L80.6416 31.4716L80.2471 31.4508L79.8527 31.4413L79.4591 31.4502L79.0678 31.4822L78.6811 31.5416L78.3014 31.6325L77.9312 31.757L77.5726 31.9139L77.2267 32.0994L76.8935 32.308L76.5713 32.5342L76.2579 32.7724L75.9505 33.0179L75.6465 33.267L74.4352 34.2687L74.1332 34.5208L73.833 34.7751L73.5354 35.0319L73.2408 35.2917L72.9492 35.5541L72.6602 35.819L72.3735 36.086L72.0885 36.3551L71.8049 36.6263L71.5224 36.8999L71.2408 37.1765L70.9601 37.4559L70.68 37.7383L70.4003 38.0231L70.1207 38.3097L69.8415 38.5978L69.5633 38.8871L69.2876 39.1782L69.0165 39.4722L68.7527 39.7707L68.4981 40.0751L68.2536 40.3857L68.0188 40.7026L67.7937 41.0255L67.5773 41.354L67.3669 41.6862L67.1611 42.0213L68.2069 43.4685L68.2914 43.0752L68.3841 42.6836L68.4894 42.2948L68.6151 41.9108L68.7645 41.5329L68.9382 41.1622L69.1356 40.7991L69.3557 40.4446L69.596 40.0993L69.8516 39.7643L70.1144 39.4414L70.374 39.1346L70.6218 38.8506L70.8566 38.596L71.086 38.3713L71.3244 38.1703L71.5867 37.9857ZM80.0527 39.8487L80.0127 39.8846L79.9564 39.9174L79.8691 39.9473L79.7386 39.9693L79.5595 39.9784L79.3306 39.9678L79.055 39.9224L78.7438 39.821L78.4152 39.6456L78.0897 39.3888L77.7864 39.054L77.5237 38.6544L77.3203 38.2152L77.1885 37.7719L77.1192 37.3594L77.085 36.9933L77.0692 36.6379L77.3341 36.6647L77.9168 36.7965L78.4509 36.991L78.9277 37.2392L79.3385 37.53L79.675 37.8508L79.9313 38.1862L80.107 38.5189L80.2079 38.831L80.2461 39.1063L80.2389 39.3342L80.2063 39.5118L80.1652 39.6438L80.1251 39.7381L80.0882 39.8032L80.0527 39.8487Z" fill="black"/>
<path fill-rule="evenodd" clip-rule="evenodd" d="M69.0614 35.4538L69.2328 35.1594L69.3922 34.8367L69.5401 34.4942L69.6773 34.1405L69.8028 33.7826L69.914 33.4297L70.0073 33.097L70.0806 32.8045L70.1347 32.5692L70.1738 32.3927L70.204 32.2538L69.9781 32.2539L69.7479 32.2507L69.5075 32.2432L69.2493 32.2283L68.9672 32.2031L68.6588 32.1638L68.3264 32.1054L67.9745 32.0229L67.6095 31.9133L67.2382 31.7759L66.8671 31.6113L66.5022 31.4212L66.1483 31.2078L65.8088 30.9733L65.4867 30.72L65.1836 30.45L64.9011 30.1647L64.6402 29.8658L64.402 29.5543L64.1878 29.2314L63.9988 28.8979L63.8365 28.5548L63.7028 28.2034L63.5993 27.8449L63.5281 27.481L63.4906 27.1141L63.4882 26.7465L63.5219 26.3811L63.592 26.0213L63.6982 25.6703L63.8398 25.3315L64.0155 25.0083L64.2234 24.7038L64.4615 24.421L64.7273 24.1627L65.0181 23.9314L65.3315 23.7296L65.6642 23.5595L66.0134 23.4229L66.3758 23.3215L66.7479 23.2566L67.1264 23.2288L67.5077 23.2383L67.8886 23.2848L68.2658 23.3672L68.6367 23.484L68.9986 23.6334L69.3498 23.8131L69.6888 24.0209L70.0143 24.2546L70.3251 24.5123L70.6207 24.792L70.9011 25.0914L71.1654 25.4094L71.4109 25.7458L71.6335 26.1012L71.8314 26.4745L72.0068 26.8612L72.1633 27.2564L72.3026 27.6576L72.4238 28.0649L72.5229 28.4747L72.5936 28.8664L72.6351 29.2003L72.6582 29.453L72.6704 29.6483L72.7708 29.3568L72.872 29.0454L72.9733 28.7055L73.0665 28.3417L73.1444 27.9655L73.2044 27.5847L73.2462 27.2016L73.2709 26.8173L73.2796 26.4325L73.2747 26.0478L73.2607 25.6633L73.2401 25.2791L75.5299 25.9799L75.5585 26.3751L75.5792 26.7707L75.5887 27.1661L75.5798 27.5608L75.5479 27.9531L75.4887 28.3408L75.3981 28.7215L75.2739 29.0926L75.1173 29.4522L74.9324 29.7989L74.7243 30.1331L74.4987 30.4561L74.2611 30.7703L74.0162 31.0785L73.7678 31.3833L72.7687 32.5978L72.5173 32.9005L72.2637 33.2015L72.0075 33.4999L71.7484 33.7953L71.4867 34.0877L71.2225 34.3774L70.9562 34.6649L70.6878 34.9506L70.4173 35.235L70.1444 35.5183L69.8686 35.8006L69.5899 36.082L69.3083 36.3628L69.0242 36.6433L68.7383 36.9236L68.451 37.2036L68.1624 37.4825L67.8721 37.7589L67.5789 38.0307L67.2811 38.2952L66.9776 38.5504L66.6678 38.7956L66.3517 39.031L66.0297 39.2568L65.702 39.4737L65.3707 39.6846L65.0364 39.891L63.593 38.8424L63.9853 38.7577L64.3759 38.6648L64.7636 38.5592L65.1467 38.4332L65.5235 38.2834L65.8933 38.1092L66.2554 37.9113L66.609 37.6906L66.9534 37.4497L67.2875 37.1934L67.6096 36.9299L67.9156 36.6697L68.1988 36.4212L68.4528 36.1858L68.6769 35.9558L68.8773 35.7167L69.0614 35.4538ZM67.2033 26.9655L67.1676 27.0057L67.1348 27.0621L67.105 27.1497L67.083 27.2805L67.074 27.46L67.0845 27.6896L67.1298 27.9659L67.231 28.2779L67.4059 28.6074L67.662 28.9337L67.9959 29.2378L68.3945 29.5013L68.8326 29.7051L69.2747 29.8373L69.6861 29.9068L70.0513 29.9411L70.4057 29.9569L70.379 29.6912L70.2476 29.1071L70.0535 28.5716L69.806 28.0935L69.516 27.6816L69.196 27.3443L68.8615 27.0872L68.5297 26.9112L68.2184 26.81L67.9438 26.7717L67.7165 26.7789L67.5394 26.8116L67.4077 26.8527L67.3137 26.893L67.2487 26.93L67.2033 26.9655Z" fill="black"/>
<path fill-rule="evenodd" clip-rule="evenodd" d="M35.015 52.4165L35.0241 53.6143L35.015 54.812L34.6458 54.8117L34.257 54.8127L33.8406 54.8213L33.4046 54.8483L32.9642 54.905L32.5306 54.9993L32.1115 55.1375L31.7151 55.3258L31.3496 55.5683L31.0229 55.8636L30.7401 56.2049L30.5027 56.5815L30.3074 56.983L30.1471 57.4003L30.0143 57.8254L29.9047 58.2523L29.8153 58.6827L29.736 59.1243L29.6418 59.5774L29.4996 60.0264L29.2897 60.4515L29.0165 60.8398L28.6979 61.184L28.3484 61.4802L27.9737 61.7296L27.5781 61.9385L27.1682 62.1142L26.7508 62.2643L26.3304 62.3982L25.9076 62.5193L25.0564 58.9117L25.2986 58.9172L25.5431 58.9192L25.7907 58.914L26.0398 58.8936L26.2859 58.849L26.5226 58.7724L26.7432 58.6592L26.9421 58.5087L27.1143 58.3248L27.2553 58.1134L27.3602 57.8817L27.4246 57.6357L27.4458 57.3809L27.4238 57.1223L27.3621 56.8647L27.2658 56.6143L27.1406 56.3769L26.9893 56.1573L26.8132 55.9602L26.6137 55.7889L26.3931 55.645L26.1548 55.5279L25.902 55.4346L25.6392 55.3611L25.3768 55.3039L25.1324 55.2593L24.9169 55.2234L24.7226 55.1923L24.6836 55.2163L24.6093 55.2668L24.4623 55.3744L24.2315 55.5672L23.939 55.8454L23.6203 56.1906L23.3064 56.5966L23.0157 57.0673L22.7545 57.6041L22.5232 58.2042L22.3214 58.8639L22.1486 59.5811L22.0035 60.3518L21.8849 61.169L21.7922 62.0245L21.7223 62.9106L21.6671 63.8176L21.621 64.7345L21.4668 64.3601L21.3058 64.0205L21.1449 63.7263L20.9803 63.4664L20.8084 63.2211L20.6272 62.98L20.4339 62.7435L20.225 62.5161L19.9988 62.3031L19.7572 62.1083L19.5035 61.935L19.2421 61.785L18.9776 61.6595L18.714 61.5586L18.4548 61.4815L18.2025 61.4267L17.9584 61.3926L17.7229 61.3772L17.4962 61.3787L17.2776 61.3953L17.0666 61.426L16.8626 61.4698L16.6649 61.5263L16.4733 61.5954L16.2876 61.6772L16.108 61.7718L15.9349 61.8793L15.7688 61.9997L15.6103 62.1327L15.4603 62.2778L15.3195 62.4343L15.1888 62.6013L15.0688 62.778L14.9601 62.9632L14.8629 63.1558L14.777 63.3546L14.7022 63.5584L14.6381 63.7661L14.5843 63.9767L14.5408 64.1892L14.5079 64.4025L14.4862 64.6159L14.4769 64.8281L14.4811 65.0381L14.5 65.2446L14.5345 65.4461L14.5848 65.6412L14.6512 65.828L14.7333 66.0052L14.8303 66.1709L14.9413 66.3237L15.065 66.4622L15.1999 66.5853L15.3444 66.6921L15.4969 66.7822L15.6555 66.8554L15.8187 66.9115L15.9844 66.9506L16.151 66.9726L16.3166 66.9774L16.4794 66.9649L16.6374 66.9349L16.7891 66.8874L16.9327 66.8225L17.0667 66.7402L17.189 66.6409L17.2975 66.5251L17.3895 66.394L17.4617 66.2491L17.5105 66.0933L17.5322 65.9308L17.5242 65.7671L17.4852 65.6088L17.4156 65.4628L17.3178 65.3356L17.1959 65.232L17.0549 65.154L16.8997 65.1001L16.7348 65.0663L16.5644 65.0501L16.392 65.0527L16.2203 65.0759L16.0493 65.1148L15.8804 65.1673L16.0078 64.8733L16.1586 64.5864L16.3378 64.3098L16.5544 64.0523L16.8038 63.8194L17.0796 63.6163L17.3818 63.4528L17.7127 63.3432L18.0707 63.3022L18.4467 63.3412L18.8255 63.4661L19.1892 63.6762L19.5204 63.9659L19.804 64.3252L20.029 64.7412L20.1885 65.2L20.279 65.6879L20.2991 66.1923L20.2483 66.7017L20.1266 67.2046L19.9349 67.6899L19.6754 68.1463L19.3521 68.5631L18.9707 68.9307L18.5386 69.2406L18.0647 69.4863L17.5589 69.6632L17.0312 69.7692L16.4918 69.8037L15.95 69.7684L15.4146 69.6659L14.8934 69.5L14.3929 69.2752L13.9192 68.996L13.4776 68.6673L13.073 68.2939L12.7101 67.881L12.3932 67.4337L12.1264 66.9581L11.9132 66.4604L11.7558 65.9477L11.6555 65.4274L11.612 64.9071L11.6231 64.3937L11.6852 63.894L11.7936 63.4132L11.9428 62.9555L12.1271 62.5239L12.3412 62.1203L12.5807 61.7459L12.8417 61.4018L13.1213 61.0885L13.4172 60.8066L13.7273 60.5565L14.0499 60.3384L14.3833 60.1521L14.7256 59.9969L15.0752 59.8715L15.4305 59.7742L15.7901 59.7031L16.1527 59.6565L16.517 59.6332L16.882 59.6326L17.2466 59.6538L17.6099 59.6966L17.9703 59.763L18.3249 59.8572L18.6723 59.9803L19.0148 60.1246L19.3522 60.2848L19.0417 59.8527L18.7007 59.415L18.2963 58.9535L17.7953 58.4694L17.2039 57.9839L16.5486 57.5196L15.8421 57.0906L15.0873 56.7032L14.2886 56.3576L13.4517 56.0504L12.5826 55.7775L11.6866 55.5344L10.7678 55.3158L9.83043 55.1161L8.87828 54.9304L7.91341 54.7551L6.93862 54.5858L5.95659 54.4165L4.96902 54.2439L3.97741 54.0761L2.98384 53.928L1.98946 53.8074L0.994734 53.7065L0 53.6144L0.994758 53.5223L1.98948 53.4214L2.98383 53.3008L3.97743 53.1527L4.96901 52.9848L5.9566 52.8123L6.93862 52.643L7.91343 52.4737L8.87827 52.2983L9.83043 52.1127L10.7678 51.913L11.6866 51.6944L12.5826 51.4513L13.4518 51.1784L14.2886 50.8711L15.0873 50.5256L15.8422 50.1382L16.5486 49.7091L17.2039 49.2449L17.7953 48.7593L18.2963 48.2752L18.7008 47.8137L19.0418 47.376L19.3523 46.9439L19.0148 47.1042L18.6723 47.2484L18.325 47.3715L17.9704 47.4658L17.61 47.5322L17.2467 47.5749L16.882 47.5961L16.5171 47.5955L16.1527 47.5723L15.7901 47.5256L15.4306 47.4545L15.0753 47.3573L14.7257 47.2319L14.3833 47.0766L14.05 46.8903L13.7273 46.6723L13.4172 46.4222L13.1214 46.1403L12.8418 45.827L12.5808 45.4828L12.3413 45.1085L12.1271 44.7049L11.9428 44.2733L11.7936 43.8156L11.6853 43.3348L11.6231 42.835L11.6121 42.3217L11.6556 41.8013L11.7559 41.281L11.9132 40.7684L12.1266 40.2707L12.3933 39.795L12.7102 39.3478L13.0731 38.9348L13.4776 38.5615L13.9193 38.2327L14.393 37.9535L14.8934 37.7287L15.4148 37.5628L15.9501 37.4603L16.4919 37.425L17.0314 37.4595L17.559 37.5655L18.0648 37.7425L18.5387 37.9881L18.9708 38.298L19.3522 38.6656L19.6755 39.0825L19.9349 39.5388L20.1267 40.0241L20.2484 40.527L20.2992 41.0364L20.2791 41.5409L20.1886 42.0287L20.029 42.4875L19.8041 42.9035L19.5204 43.2628L19.1893 43.5525L18.8256 43.7626L18.4468 43.8875L18.0708 43.9265L17.7127 43.8855L17.3818 43.7759L17.0797 43.6124L16.8039 43.4094L16.5544 43.1764L16.3379 42.919L16.1586 42.6424L16.0078 42.3554L15.8804 42.0614L16.0493 42.1139L16.2203 42.1529L16.3921 42.1761L16.5645 42.1787L16.7349 42.1625L16.8997 42.1287L17.0549 42.0747L17.196 41.9967L17.3179 41.8931L17.4156 41.7659L17.4852 41.6199L17.5243 41.4617L17.5323 41.2979L17.5105 41.1354L17.4618 40.9796L17.3895 40.8347L17.2976 40.7036L17.189 40.5878L17.0667 40.4885L16.9329 40.4062L16.7892 40.3413L16.6375 40.2938L16.4794 40.2638L16.3167 40.2513L16.1512 40.2561L15.9845 40.2781L15.8187 40.3172L15.6557 40.3734L15.497 40.4465L15.3445 40.5366L15.2 40.6435L15.0651 40.7665L14.9414 40.905L14.8304 41.0578L14.7334 41.2235L14.6513 41.4007L14.5849 41.5876L14.5345 41.7826L14.5001 41.9841L14.4812 42.1906L14.477 42.4006L14.4863 42.6129L14.5079 42.8262L14.5409 43.0396L14.5844 43.252L14.6381 43.4626L14.7022 43.6704L14.777 43.8741L14.8629 44.0729L14.9602 44.2655L15.0689 44.4507L15.1889 44.6274L15.3196 44.7945L15.4603 44.951L15.6104 45.0961L15.7688 45.229L15.935 45.3494L16.1081 45.4569L16.2876 45.5515L16.4733 45.6333L16.6649 45.7024L16.8626 45.7589L17.0667 45.8027L17.2777 45.8334L17.4962 45.8501L17.723 45.8515L17.9584 45.8361L18.2026 45.802L18.4549 45.7472L18.7141 45.6701L18.9776 45.5692L19.2422 45.4437L19.5036 45.2937L19.7573 45.1203L19.9989 44.9257L20.225 44.7126L20.434 44.4852L20.6273 44.2487L20.8085 44.0076L20.9803 43.7623L21.145 43.5024L21.3058 43.2082L21.4668 42.8686L21.6211 42.4942L21.6672 43.4111L21.7224 44.3181L21.7922 45.2042L21.885 46.0596L22.0036 46.8768L22.1487 47.6476L22.3214 48.3647L22.5232 49.0245L22.7545 49.6246L23.0157 50.1614L23.3065 50.632L23.6203 51.0381L23.9391 51.3833L24.2315 51.6615L24.4623 51.8543L24.6093 51.9619L24.6836 52.0124L24.7225 52.0363L24.9169 52.0052L25.1325 51.9693L25.3768 51.9248L25.6392 51.8676L25.902 51.7941L26.1548 51.7008L26.3932 51.5837L26.6137 51.4398L26.8132 51.2685L26.9892 51.0713L27.1406 50.8518L27.2659 50.6143L27.3621 50.364L27.4239 50.1064L27.4458 49.8477L27.4246 49.593L27.3602 49.347L27.2553 49.1152L27.1144 48.9039L26.9421 48.7199L26.7433 48.5695L26.5227 48.4562L26.2859 48.3796L26.0398 48.3351L25.7907 48.3147L25.5431 48.3094L25.2986 48.3115L25.0564 48.3169L25.9077 44.7094L26.3305 44.8304L26.7508 44.9644L27.1683 45.1144L27.5782 45.2902L27.9738 45.499L28.3484 45.7485L28.698 46.0447L29.0165 46.3888L29.2897 46.7772L29.4997 47.2023L29.6418 47.6513L29.736 48.1043L29.8153 48.5459L29.9047 48.9763L30.0143 49.4033L30.1471 49.8283L30.3074 50.2456L30.5027 50.6472L30.7401 51.0238L31.0229 51.365L31.3497 51.6604L31.7151 51.9028L32.1115 52.0911L32.5305 52.2293L32.9642 52.3236L33.4047 52.3803L33.8406 52.4073L34.2569 52.4159L34.6458 52.4169L35.015 52.4165ZM12.9958 53.5299L12.1988 53.6144L12.9958 53.6989L13.7224 53.7783L14.3546 53.8498L14.9606 53.9225L15.6016 54.0111L16.2337 54.1265L16.7941 54.267L17.2849 54.4281L17.7352 54.6109L18.1668 54.82L18.5911 55.0579L19.0044 55.3188L19.3969 55.5971L19.762 55.8975L20.0973 56.2263L20.4042 56.5833L20.6873 56.9623L20.952 57.3567L21.2056 57.7601L21.4514 58.1693L21.6358 57.6988L21.8335 57.2347L22.0488 56.7793L22.2906 56.3364L22.5642 55.909L22.8764 55.502L23.2353 55.1244L23.6451 54.786L24.1027 54.4936L24.5999 54.2487L25.1263 54.0483L25.6726 53.8843L26.2303 53.7423L26.7937 53.6144L26.2302 53.4864L25.6726 53.3444L25.1263 53.1804L24.5999 52.98L24.1028 52.7351L23.6451 52.4427L23.2354 52.1043L22.8764 51.7267L22.5642 51.3197L22.2906 50.8922L22.0488 50.4494L21.8336 49.994L21.6358 49.5299L21.4514 49.0594L21.2057 49.4687L20.952 49.872L20.6873 50.2664L20.4042 50.6454L20.0974 51.0023L19.762 51.3313L19.3969 51.6316L19.0044 51.91L18.591 52.1708L18.1668 52.4088L17.7353 52.6178L17.2849 52.8006L16.7942 52.9617L16.2337 53.1023L15.6016 53.2176L14.9606 53.3063L14.3546 53.3789L13.7224 53.4504L12.9958 53.5299Z" fill="black"/>
<path fill-rule="evenodd" clip-rule="evenodd" d="M54.6683 72.1216L53.4737 72.1125L52.2791 72.1216L52.2795 72.4919L52.2784 72.8817L52.2699 73.2992L52.2429 73.7362L52.1864 74.1778L52.0923 74.6126L51.9545 75.0328L51.7667 75.4302L51.5248 75.7966L51.2303 76.1242L50.8899 76.4078L50.5143 76.6458L50.1138 76.8416L49.6976 77.0023L49.2737 77.1355L48.8478 77.2454L48.4185 77.335L47.9781 77.4145L47.5262 77.509L47.0784 77.6515L46.6544 77.862L46.2671 78.1359L45.9239 78.4553L45.6284 78.8058L45.3796 79.1814L45.1713 79.578L44.996 79.989L44.8463 80.4076L44.7128 80.829L44.592 81.2529L48.1902 82.1064L48.1847 81.8635L48.1827 81.6184L48.1879 81.3702L48.2083 81.1204L48.2527 80.8737L48.3291 80.6363L48.442 80.4151L48.5921 80.2158L48.7755 80.0431L48.9864 79.9017L49.2176 79.7965L49.4629 79.7319L49.7169 79.7107L49.9749 79.7327L50.2318 79.7947L50.4815 79.8911L50.7184 80.0167L50.9373 80.1684L51.1339 80.345L51.3048 80.545L51.4483 80.7661L51.5651 81.0051L51.6582 81.2585L51.7314 81.5221L51.7885 81.7851L51.833 82.0301L51.8688 82.2462L51.8998 82.4411L51.8759 82.4801L51.8255 82.5546L51.7182 82.7021L51.5259 82.9334L51.2485 83.2267L50.9041 83.5462L50.4992 83.8609L50.0297 84.1524L49.4943 84.4143L48.8958 84.6463L48.2378 84.8485L47.5225 85.0218L46.7538 85.1673L45.9387 85.2862L45.0855 85.3792L44.2018 85.4492L43.2971 85.5045L42.3826 85.5508L42.7561 85.7054L43.0947 85.8668L43.3882 86.0281L43.6474 86.1932L43.892 86.3655L44.1325 86.5472L44.3684 86.741L44.5952 86.9505L44.8077 87.1772L45.0019 87.4195L45.1748 87.6738L45.3244 87.9359L45.4495 88.2012L45.5502 88.4654L45.6271 88.7252L45.6817 88.9782L45.7157 89.223L45.7311 89.4591L45.7297 89.6864L45.713 89.9055L45.6824 90.1171L45.6388 90.3217L45.5824 90.5199L45.5135 90.712L45.4319 90.8982L45.3375 91.0783L45.2303 91.2518L45.1102 91.4184L44.9776 91.5773L44.8329 91.7277L44.6768 91.8688L44.5102 91.9999L44.334 92.1201L44.1492 92.2291L43.9572 92.3267L43.7589 92.4128L43.5556 92.4878L43.3485 92.552L43.1384 92.606L42.9265 92.6496L42.7137 92.6826L42.5009 92.7043L42.2892 92.7136L42.0798 92.7094L41.8738 92.6904L41.6729 92.6559L41.4784 92.6054L41.2919 92.5389L41.1153 92.4566L40.9499 92.3593L40.7975 92.248L40.6594 92.124L40.5367 91.9887L40.4301 91.8438L40.3402 91.691L40.2673 91.5318L40.2113 91.3683L40.1723 91.2021L40.1504 91.0351L40.1456 90.8691L40.158 90.7059L40.1879 90.5474L40.2353 90.3953L40.3001 90.2513L40.3821 90.1171L40.4812 89.9945L40.5966 89.8857L40.7275 89.7934L40.872 89.721L41.0274 89.6721L41.1895 89.6503L41.3527 89.6583L41.5106 89.6974L41.6562 89.7672L41.783 89.8652L41.8864 89.9875L41.9642 90.1289L42.018 90.2845L42.0517 90.4498L42.0679 90.6206L42.0652 90.7935L42.0421 90.9657L42.0033 91.1371L41.9509 91.3065L42.2441 91.1788L42.5303 91.0275L42.8062 90.8478L43.063 90.6307L43.2953 90.3806L43.4979 90.1041L43.6609 89.8011L43.7702 89.4694L43.8112 89.1104L43.7722 88.7334L43.6477 88.3536L43.4381 87.9889L43.1492 87.6569L42.7908 87.3726L42.3759 87.147L41.9184 86.987L41.4317 86.8963L40.9286 86.8761L40.4206 86.9271L39.9189 87.0492L39.435 87.2413L38.9798 87.5015L38.564 87.8256L38.1974 88.2081L37.8883 88.6413L37.6433 89.1164L37.4668 89.6236L37.3611 90.1526L37.3266 90.6935L37.3619 91.2366L37.4641 91.7734L37.6295 92.2961L37.8538 92.7979L38.1322 93.2728L38.4601 93.7156L38.8325 94.1212L39.2444 94.4851L39.6904 94.8028L40.1648 95.0703L40.6612 95.2841L41.1726 95.4419L41.6915 95.5424L42.2105 95.5861L42.7225 95.575L43.2209 95.5127L43.7005 95.404L44.157 95.2544L44.5875 95.0696L44.99 94.8549L45.3634 94.6148L45.7066 94.3531L46.0191 94.0728L46.3002 93.7761L46.5497 93.4652L46.7672 93.1417L46.953 92.8075L47.1079 92.4643L47.2329 92.1137L47.3299 91.7575L47.4008 91.397L47.4473 91.0335L47.4706 90.6682L47.4712 90.3022L47.45 89.9367L47.4074 89.5724L47.3411 89.2111L47.2472 88.8555L47.1244 88.5072L46.9805 88.1639L46.8206 87.8255L47.2517 88.1368L47.6882 88.4787L48.1485 88.8842L48.6313 89.3865L49.1156 89.9795L49.5786 90.6365L50.0066 91.3447L50.3929 92.1016L50.7376 92.9024L51.044 93.7414L51.3162 94.6129L51.5586 95.5112L51.7767 96.4325L51.9758 97.3723L52.161 98.3269L52.3359 99.2943L52.5047 100.272L52.6736 101.256L52.8457 102.246L53.0131 103.241L53.1608 104.237L53.2811 105.234L53.3818 106.231L53.4736 107.229L53.5654 106.231L53.6661 105.234L53.7864 104.237L53.934 103.241L54.1015 102.246L54.2736 101.256L54.4425 100.272L54.6113 99.2943L54.7862 98.327L54.9714 97.3723L55.1706 96.4324L55.3886 95.5112L55.631 94.6129L55.9032 93.7414L56.2097 92.9024L56.5544 92.1016L56.9407 91.3448L57.3687 90.6364L57.8317 89.9795L58.316 89.3865L58.7988 88.8842L59.2591 88.4787L59.6956 88.1368L60.1266 87.8255L59.9668 88.1638L59.8229 88.5072L59.7001 88.8555L59.6062 89.211L59.5399 89.5723L59.4973 89.9366L59.4761 90.3022L59.4767 90.6681L59.4999 91.0334L59.5465 91.3969L59.6173 91.7574L59.7144 92.1137L59.8394 92.4642L59.9943 92.8075L60.1801 93.1417L60.3976 93.4651L60.647 93.7761L60.9282 94.0727L61.2406 94.3531L61.5839 94.6147L61.9572 94.8548L62.3598 95.0696L62.7903 95.2544L63.2468 95.4039L63.7263 95.5126L64.2248 95.5749L64.7368 95.586L65.2558 95.5423L65.7747 95.4418L66.286 95.284L66.7824 95.0701L67.2568 94.8027L67.7029 94.485L68.1148 94.1211L68.4871 93.7155L68.815 93.2727L69.0935 92.7977L69.3177 92.296L69.4832 91.7733L69.5854 91.2365L69.6206 90.6934L69.5862 90.1525L69.4805 89.6234L69.304 89.1163L69.059 88.6412L68.7499 88.208L68.3833 87.8256L67.9675 87.5014L67.5123 87.2412L67.0284 87.049L66.5267 86.927L66.0187 86.876L65.5156 86.8962L65.0289 86.987L64.5714 87.1469L64.1565 87.3725L63.7981 87.6569L63.5092 87.9889L63.2996 88.3535L63.175 88.7333L63.1361 89.1103L63.177 89.4693L63.2864 89.8011L63.4494 90.104L63.6519 90.3805L63.8843 90.6306L64.141 90.8478L64.4169 91.0275L64.7031 91.1787L64.9964 91.3064L64.944 91.1371L64.9051 90.9656L64.882 90.7934L64.8794 90.6206L64.8956 90.4497L64.9293 90.2844L64.9831 90.1288L65.0609 89.9874L65.1642 89.8651L65.2911 89.7672L65.4367 89.6974L65.5946 89.6582L65.7578 89.6502L65.9199 89.672L66.0753 89.7209L66.2198 89.7934L66.3507 89.8856L66.4661 89.9944L66.5651 90.117L66.6472 90.2512L66.712 90.3952L66.7594 90.5473L66.7892 90.7058L66.8017 90.869L66.7969 91.035L66.775 91.202L66.736 91.3683L66.68 91.5318L66.607 91.6909L66.5171 91.8437L66.4106 91.9886L66.2879 92.1239L66.1497 92.2479L65.9973 92.3592L65.832 92.4565L65.6553 92.5388L65.4689 92.6054L65.2744 92.6559L65.0734 92.6903L64.8675 92.7093L64.658 92.7135L64.4463 92.7042L64.2335 92.6825L64.0208 92.6495L63.8089 92.6059L63.5988 92.552L63.3916 92.4877L63.1884 92.4127L62.9901 92.3266L62.798 92.229L62.6133 92.12L62.4371 91.9998L62.2705 91.8687L62.1143 91.7276L61.9696 91.5772L61.837 91.4183L61.717 91.2517L61.6098 91.0782L61.5154 90.8981L61.4338 90.712L61.3649 90.5199L61.3085 90.3216L61.2649 90.117L61.2343 89.9055L61.2176 89.6864L61.2162 89.459L61.2316 89.223L61.2656 88.9782L61.3202 88.7252L61.3971 88.4654L61.4978 88.2011L61.6229 87.9358L61.7725 87.6738L61.9454 87.4194L62.1396 87.1771L62.3521 86.9504L62.5789 86.7409L62.8148 86.5471L63.0553 86.3654L63.2999 86.1931L63.5591 86.028L63.8526 85.8668L64.1912 85.7054L64.5647 85.5507L63.6502 85.5045L62.7456 85.4492L61.8618 85.3791L61.0086 85.2861L60.1935 85.1672L59.4248 85.0217L58.7096 84.8485L58.0515 84.6462L57.453 84.4143L56.9176 84.1524L56.4482 83.8609L56.0432 83.5462L55.6989 83.2266L55.4214 82.9334L55.2291 82.702L55.1218 82.5547L55.0714 82.4801L55.0475 82.4411L55.0786 82.2462L55.1144 82.0301L55.1588 81.7851L55.2159 81.5221L55.2891 81.2585L55.3822 81.0051L55.499 80.7661L55.6425 80.5449L55.8134 80.345L56.01 80.1685L56.229 80.0167L56.4658 79.8911L56.7155 79.7946L56.9724 79.7327L57.2304 79.7107L57.4845 79.732L57.7298 79.7965L57.961 79.9017L58.1718 80.043L58.3553 80.2158L58.5053 80.4151L58.6183 80.6363L58.6947 80.8736L58.7391 81.1204L58.7594 81.3701L58.7647 81.6184L58.7627 81.8635L58.7572 82.1064L62.3553 81.2529L62.2346 80.8289L62.101 80.4075L61.9513 79.9889L61.776 79.578L61.5678 79.1814L61.3189 78.8057L61.0235 78.4552L60.6803 78.1358L60.2929 77.8619L59.8689 77.6514L59.4211 77.5089L58.9693 77.4145L58.5288 77.335L58.0996 77.2453L57.6737 77.1355L57.2498 77.0023L56.8336 76.8416L56.4331 76.6458L56.0574 76.4078L55.7171 76.1242L55.4225 75.7966L55.1807 75.4302L54.9929 75.0328L54.855 74.6126L54.761 74.1778L54.7045 73.7362L54.6775 73.2992L54.669 72.8817L54.6679 72.4918L54.6683 72.1216ZM53.5581 94.1986L53.4738 94.9976L53.3894 94.1985L53.3102 93.4701L53.2389 92.8362L53.1665 92.2286L53.0781 91.5859L52.963 90.9522L52.8229 90.3902L52.6622 89.8981L52.4799 89.4467L52.2713 89.014L52.034 88.5886L51.7738 88.1742L51.4963 87.7806L51.1967 87.4145L50.8686 87.0784L50.5126 86.7707L50.1346 86.4869L49.7412 86.2215L49.3389 85.9672L48.9308 85.7208L49.4 85.5359L49.8629 85.3376L50.3171 85.1218L50.7588 84.8793L51.1852 84.605L51.5911 84.292L51.9677 83.9322L52.3052 83.5213L52.5969 83.0625L52.8411 82.5641L53.041 82.0362L53.2046 81.4885L53.3462 80.9294L53.4738 80.3644L53.6014 80.9294L53.743 81.4884L53.9066 82.0362L54.1065 82.564L54.3507 83.0624L54.6423 83.5213L54.9799 83.9321L55.3565 84.292L55.7625 84.605L56.1888 84.8793L56.6305 85.1218L57.0847 85.3376L57.5476 85.5359L58.0168 85.7207L57.6087 85.9671L57.2064 86.2214L56.813 86.4869L56.435 86.7707L56.079 87.0784L55.7509 87.4146L55.4513 87.7806L55.1737 88.1742L54.9136 88.5886L54.6762 89.014L54.4677 89.4467L54.2854 89.8981L54.1247 90.3902L53.9845 90.9522L53.8695 91.586L53.7811 92.2286L53.7086 92.8362L53.6373 93.4701L53.5581 94.1986Z" fill="black"/>
<path fill-rule="evenodd" clip-rule="evenodd" d="M69.0614 71.7747L69.2328 72.069L69.3922 72.3917L69.5401 72.7342L69.6773 73.0879L69.8027 73.4459L69.914 73.7987L70.0073 74.1315L70.0806 74.424L70.1347 74.6592L70.1737 74.8357L70.2039 74.9747L69.9781 74.9746L69.7478 74.9777L69.5075 74.9852L69.2493 75.0002L68.9671 75.0253L68.6588 75.0646L68.3264 75.123L67.9745 75.2055L67.6095 75.3151L67.2382 75.4526L66.8671 75.6171L66.5022 75.8072L66.1482 76.0206L65.8088 76.2551L65.4866 76.5084L65.1836 76.7785L64.9011 77.0637L64.6402 77.3627L64.402 77.6742L64.1878 77.9971L63.9987 78.3306L63.8365 78.6736L63.7027 79.0251L63.5993 79.3836L63.528 79.7474L63.4905 80.1144L63.4882 80.482L63.5219 80.8473L63.5919 81.2072L63.6982 81.5581L63.8397 81.8969L64.0154 82.2201L64.2233 82.5247L64.4614 82.8074L64.7271 83.0658L65.0181 83.297L65.3314 83.4988L65.6642 83.669L66.0133 83.8056L66.3757 83.907L66.7478 83.9719L67.1263 83.9997L67.5076 83.9901L67.8885 83.9436L68.2657 83.8613L68.6366 83.7445L68.9986 83.5951L69.3497 83.4154L69.6887 83.2075L70.0142 82.9738L70.3251 82.7161L70.6207 82.4364L70.901 82.137L71.1653 81.819L71.4108 81.4826L71.6335 81.1272L71.8314 80.754L72.0068 80.3672L72.1632 79.972L72.3026 79.5708L72.4237 79.1636L72.5229 78.7537L72.5936 78.362L72.6351 78.0281L72.6581 77.7754L72.6704 77.5801L72.7708 77.8716L72.8719 78.183L72.9733 78.5229L73.0665 78.8867L73.1444 79.2628L73.2043 79.6437L73.2461 80.0268L73.2708 80.4111L73.2796 80.7959L73.2746 81.1806L73.2606 81.5651L73.24 81.9493L75.5299 81.2484L75.5585 80.8532L75.5792 80.4577L75.5886 80.0623L75.5798 79.6676L75.5479 79.2753L75.4887 78.8876L75.3981 78.5069L75.2738 78.1358L75.1173 77.7762L74.9324 77.4295L74.7243 77.0953L74.4987 76.7723L74.261 76.4581L74.0162 76.1499L73.7678 75.8451L72.7687 74.6306L72.5172 74.3279L72.2637 74.0268L72.0075 73.7285L71.7484 73.4331L71.4867 73.1407L71.2225 72.851L70.9562 72.5636L70.6878 72.2778L70.4174 71.9934L70.1444 71.7101L69.8686 71.4278L69.5899 71.1464L69.3082 70.8656L69.0242 70.5851L68.7383 70.3048L68.451 70.0248L68.1624 69.7459L67.8721 69.4695L67.5788 69.1978L67.2812 68.9332L66.9776 68.678L66.6677 68.4328L66.3518 68.1974L66.0297 67.9717L65.7021 67.7548L65.3707 67.5438L65.0365 67.3375L63.5931 68.386L63.9853 68.4707L64.3759 68.5637L64.7637 68.6693L65.1467 68.7953L65.5235 68.9451L65.8933 69.1192L66.2554 69.3172L66.609 69.5378L66.9534 69.7788L67.2875 70.0351L67.6096 70.2986L67.9156 70.5588L68.1989 70.8073L68.4528 71.0427L68.6769 71.2727L68.8773 71.5117L69.0614 71.7747ZM67.2031 80.2629L67.1674 80.2227L67.1347 80.1663L67.1048 80.0787L67.0829 79.9479L67.0738 79.7684L67.0843 79.5388L67.1296 79.2625L67.2309 78.9505L67.4058 78.621L67.6619 78.2947L67.9958 77.9906L68.3944 77.7271L68.8324 77.5233L69.2745 77.391L69.686 77.3216L70.0511 77.2873L70.4056 77.2715L70.3789 77.5371L70.2474 78.1213L70.0534 78.6568L69.8058 79.1348L69.5158 79.5467L69.1959 79.8841L68.8613 80.1411L68.5295 80.3172L68.2183 80.4184L67.9436 80.4567L67.7164 80.4495L67.5392 80.4168L67.4075 80.3757L67.3135 80.3354L67.2485 80.2984L67.2031 80.2629Z" fill="black"/>
<path fill-rule="evenodd" clip-rule="evenodd" d="M71.5867 69.2426L71.8802 69.4144L72.2021 69.5742L72.5437 69.7225L72.8965 69.8601L73.2535 69.9858L73.6054 70.0974L73.9373 70.191L74.229 70.2644L74.4637 70.3187L74.6397 70.3578L74.7783 70.3881L74.7782 70.1616L74.7813 69.9308L74.7888 69.6898L74.8037 69.431L74.8288 69.1481L74.868 68.8389L74.9262 68.5056L75.0086 68.1528L75.1179 67.7869L75.2549 67.4146L75.4191 67.0425L75.6087 66.6766L75.8215 66.3217L76.0554 65.9814L76.3081 65.6584L76.5774 65.3546L76.8619 65.0713L77.1601 64.8097L77.4707 64.571L77.7928 64.3561L78.1254 64.1666L78.4675 64.0039L78.8181 63.8698L79.1757 63.7662L79.5386 63.6947L79.9046 63.6571L80.2712 63.6547L80.6356 63.6885L80.9945 63.7587L81.3446 63.8652L81.6824 64.0072L82.0048 64.1833L82.3085 64.3918L82.5906 64.6305L82.8482 64.897L83.0789 65.1886L83.2802 65.5028L83.4499 65.8364L83.5861 66.1865L83.6872 66.5498L83.752 66.9229L83.7797 67.3024L83.7702 67.6847L83.7238 68.0666L83.6417 68.4448L83.5251 68.8166L83.3761 69.1796L83.1969 69.5317L82.9896 69.8715L82.7565 70.1979L82.4994 70.5096L82.2206 70.8059L81.9219 71.087L81.6048 71.352L81.2693 71.5981L80.9147 71.8214L80.5425 72.0198L80.1567 72.1957L79.7625 72.3525L79.3623 72.4922L78.9562 72.6137L78.5474 72.7132L78.1568 72.7841L77.8237 72.8256L77.5717 72.8487L77.3769 72.861L77.6677 72.9617L77.9782 73.0631L78.3172 73.1647L78.6801 73.2581L79.0552 73.3363L79.4351 73.3963L79.8172 73.4383L80.2005 73.463L80.5843 73.4718L80.968 73.4668L81.3515 73.4528L81.7347 73.4321L81.0357 75.728L80.6415 75.7567L80.247 75.7775L79.8526 75.7869L79.459 75.7781L79.0677 75.7461L78.681 75.6867L78.3013 75.5958L77.9311 75.4713L77.5725 75.3144L77.2267 75.1289L76.8934 74.9203L76.5712 74.6941L76.2578 74.4558L75.9504 74.2104L75.6465 73.9613L74.4351 72.9596L74.1332 72.7075L73.833 72.4533L73.5354 72.1964L73.2408 71.9366L72.9491 71.6742L72.6602 71.4093L72.3735 71.1423L72.0885 70.8733L71.8048 70.6021L71.5223 70.3284L71.2407 70.0519L70.96 69.7724L70.68 69.49L70.4002 69.2053L70.1207 68.9186L69.8414 68.6306L69.5633 68.3412L69.2875 68.0502L69.0165 67.7561L68.7527 67.4576L68.4981 67.1533L68.2536 66.8427L68.0188 66.5258L67.7937 66.2029L67.5773 65.8745L67.3669 65.5422L67.1611 65.2071L68.2069 63.7599L68.2914 64.1532L68.3841 64.5448L68.4894 64.9336L68.6151 65.3176L68.7645 65.6954L68.9381 66.0662L69.1356 66.4292L69.3557 66.7838L69.596 67.1291L69.8516 67.464L70.1144 67.7869L70.374 68.0938L70.6218 68.3777L70.8566 68.6324L71.086 68.8571L71.3244 69.058L71.5867 69.2426ZM80.0528 67.3796L80.0127 67.3438L79.9564 67.311L79.8691 67.281L79.7386 67.2591L79.5595 67.2499L79.3306 67.2605L79.0549 67.3059L78.7438 67.4074L78.4152 67.5828L78.0897 67.8395L77.7864 68.1744L77.5236 68.574L77.3203 69.0132L77.1885 69.4564L77.1192 69.869L77.085 70.2351L77.0692 70.5905L77.3341 70.5637L77.9167 70.4319L78.4509 70.2373L78.9277 69.9891L79.3385 69.6983L79.675 69.3776L79.9313 69.0422L80.107 68.7095L80.2079 68.3974L80.2461 68.1221L80.2389 67.8942L80.2063 67.7165L80.1652 67.5846L80.1251 67.4903L80.0882 67.4251L80.0528 67.3796Z" fill="black"/>
<path fill-rule="evenodd" clip-rule="evenodd" d="M35.3605 69.2428L35.0669 69.4146L34.745 69.5744L34.4035 69.7228L34.0507 69.8602L33.6937 69.9861L33.3418 70.0976L33.0099 70.1911L32.7182 70.2646L32.4835 70.3189L32.3074 70.358L32.1689 70.3883L32.169 70.1618L32.1658 69.931L32.1583 69.69L32.1435 69.4312L32.1183 69.1483L32.0792 68.8391L32.0209 68.5058L31.9386 68.153L31.8293 67.787L31.6922 67.4147L31.5281 67.0427L31.3386 66.6768L31.1256 66.322L30.8918 65.9817L30.6392 65.6586L30.3697 65.3548L30.0853 65.0715L29.7871 64.81L29.4765 64.5712L29.1544 64.3564L28.8218 64.1668L28.4796 64.0042L28.1291 63.8701L27.7715 63.7664L27.4087 63.6949L27.0426 63.6573L26.676 63.655L26.3116 63.6887L25.9527 63.7589L25.6026 63.8655L25.2648 64.0075L24.9424 64.1836L24.6387 64.3921L24.3566 64.6307L24.099 64.8972L23.8684 65.1889L23.6671 65.503L23.4973 65.8367L23.3611 66.1867L23.26 66.55L23.1952 66.9231L23.1675 67.3027L23.177 67.685L23.2234 68.0668L23.3055 68.4451L23.422 68.8169L23.571 69.1798L23.7503 69.5319L23.9575 69.8718L24.1907 70.1981L24.4477 70.5098L24.7266 70.8062L25.0253 71.0872L25.3424 71.3523L25.6779 71.5984L26.0324 71.8216L26.4047 72.02L26.7904 72.1959L27.1846 72.3528L27.5848 72.4925L27.9909 72.6139L28.3998 72.7133L28.7904 72.7843L29.1234 72.8259L29.3755 72.8489L29.5702 72.8612L29.2795 72.9619L28.9689 73.0633L28.63 73.1649L28.2671 73.2583L27.8919 73.3365L27.512 73.3966L27.13 73.4385L26.7466 73.4633L26.3629 73.4721L25.9792 73.4671L25.5957 73.4531L25.2125 73.4324L25.9115 75.7282L26.3056 75.7569L26.7001 75.7777L27.0945 75.7872L27.4881 75.7783L27.8794 75.7463L28.2661 75.687L28.6458 75.5961L29.016 75.4715L29.3746 75.3146L29.7205 75.1291L30.0537 74.9205L30.376 74.6943L30.6893 74.4561L30.9967 74.2106L31.3007 73.9615L32.512 72.9598L32.814 72.7077L33.1142 72.4534L33.4118 72.1966L33.7064 71.9369L33.998 71.6744L34.287 71.4095L34.5737 71.1425L34.8587 70.8735L35.1423 70.6022L35.4249 70.3286L35.7064 70.052L35.9871 69.7726L36.2672 69.4902L36.5469 69.2055L36.8265 68.9188L37.1058 68.6307L37.3839 68.3414L37.6597 68.0503L37.9307 67.7563L38.1945 67.4578L38.4491 67.1534L38.6936 66.8428L38.9284 66.526L39.1536 66.203L39.3699 65.8746L39.5803 65.5423L39.7861 65.2072L38.7403 63.76L38.6558 64.1533L38.5631 64.5449L38.4578 64.9337L38.3321 65.3177L38.1827 65.6956L38.009 66.0663L37.8116 66.4294L37.5915 66.784L37.3512 67.1293L37.0956 67.4642L36.8328 67.7871L36.5732 68.0939L36.3254 68.3779L36.0906 68.6326L35.8612 68.8572L35.6228 69.0582L35.3605 69.2428ZM26.895 67.3798L26.935 67.344L26.9913 67.3112L27.0787 67.2813L27.2091 67.2593L27.3882 67.2502L27.6171 67.2607L27.8927 67.3061L28.2039 67.4076L28.5325 67.583L28.858 67.8397L29.1613 68.1746L29.4241 68.5742L29.6274 69.0134L29.7592 69.4566L29.8286 69.8691L29.8627 70.2353L29.8786 70.5907L29.6136 70.5639L29.031 70.4321L28.4968 70.2375L28.0201 69.9894L27.6092 69.6986L27.2727 69.3778L27.0164 69.0424L26.8407 68.7097L26.7398 68.3976L26.7016 68.1223L26.7088 67.8944L26.7415 67.7168L26.7825 67.5848L26.8226 67.4905L26.8595 67.4254L26.895 67.3798Z" fill="black"/>
<path fill-rule="evenodd" clip-rule="evenodd" d="M37.8861 71.7747L37.7147 72.069L37.5554 72.3918L37.4074 72.7343L37.2702 73.088L37.1447 73.4459L37.0335 73.7987L36.9402 74.1315L36.8669 74.424L36.8128 74.6592L36.7738 74.8358L36.7436 74.9747L36.9695 74.9746L37.1996 74.9778L37.44 74.9853L37.6982 75.0002L37.9803 75.0254L38.2887 75.0646L38.6211 75.1231L38.973 75.2056L39.338 75.3152L39.7093 75.4526L40.0804 75.6171L40.4453 75.8072L40.7993 76.0207L41.1387 76.2552L41.4608 76.5084L41.7639 76.7785L42.0464 77.0638L42.3073 77.3627L42.5455 77.6742L42.7597 77.9971L42.9487 78.3306L43.111 78.6736L43.2448 79.0251L43.3482 79.3836L43.4194 79.7474L43.4569 80.1144L43.4593 80.482L43.4256 80.8473L43.3556 81.2072L43.2493 81.5582L43.1077 81.897L42.932 82.2202L42.7241 82.5247L42.4861 82.8074L42.2203 83.0658L41.9294 83.297L41.6161 83.4988L41.2833 83.669L40.9341 83.8056L40.5718 83.907L40.1996 83.9719L39.8211 83.9997L39.4398 83.9902L39.0589 83.9437L38.6817 83.8613L38.3108 83.7445L37.9489 83.5951L37.5977 83.4154L37.2588 83.2075L36.9332 82.9738L36.6224 82.7161L36.3268 82.4365L36.0465 82.137L35.7821 81.8191L35.5366 81.4827L35.314 81.1273L35.1161 80.754L34.9407 80.3673L34.7842 79.972L34.6449 79.5708L34.5238 79.1636L34.4246 78.7537L34.3539 78.3621L34.3124 78.0282L34.2894 77.7754L34.2771 77.5802L34.1767 77.8717L34.0755 78.1831L33.9742 78.5229L33.881 78.8868L33.8031 79.2629L33.7431 79.6438L33.7013 80.0268L33.6766 80.4112L33.6679 80.796L33.6728 81.1807L33.6868 81.5651L33.7075 81.9494L31.4176 81.2485L31.389 80.8533L31.3683 80.4578L31.3588 80.0624L31.3677 79.6677L31.3996 79.2754L31.4588 78.8877L31.5494 78.507L31.6736 78.1358L31.8302 77.7763L32.0151 77.4295L32.2232 77.0954L32.4488 76.7723L32.6864 76.4582L32.9313 76.15L33.1797 75.8451L34.1788 74.6307L34.4302 74.3279L34.6838 74.0269L34.94 73.7285L35.1991 73.4332L35.4608 73.1408L35.725 72.8511L35.9913 72.5636L36.2597 72.2779L36.5302 71.9934L36.8032 71.7102L37.0789 71.4279L37.3577 71.1464L37.6393 70.8656L37.9233 70.5852L38.2092 70.3049L38.4966 70.0249L38.7851 69.746L39.0754 69.4695L39.3687 69.1978L39.6664 68.9333L39.97 68.678L40.2798 68.4328L40.5958 68.1975L40.9179 67.9717L41.2455 67.7548L41.5769 67.5438L41.9111 67.3375L43.3545 68.386L42.9622 68.4708L42.5716 68.5637L42.1839 68.6693L41.8008 68.7953L41.424 68.9451L41.0542 69.1192L40.6921 69.3172L40.3385 69.5379L39.9941 69.7788L39.66 70.0351L39.3379 70.2986L39.0319 70.5588L38.7487 70.8073L38.4947 71.0427L38.2706 71.2727L38.0702 71.5118L37.8861 71.7747ZM39.7441 80.263L39.7798 80.2228L39.8126 80.1664L39.8424 80.0788L39.8644 79.948L39.8734 79.7685L39.8629 79.5389L39.8176 79.2626L39.7164 78.9506L39.5415 78.6211L39.2854 78.2948L38.9515 77.9907L38.5529 77.7272L38.1148 77.5234L37.6727 77.3912L37.2613 77.3217L36.8961 77.2874L36.5417 77.2716L36.5684 77.5372L36.6999 78.1214L36.8939 78.657L37.1414 79.135L37.4314 79.5469L37.7514 79.8842L38.0859 80.1412L38.4177 80.3174L38.729 80.4185L39.0036 80.4568L39.2309 80.4496L39.4081 80.4169L39.5397 80.3758L39.6337 80.3355L39.6987 80.2985L39.7441 80.263Z" fill="black"/>
<path d="M26.8669 30.5972L26.4056 30.6279L25.9445 30.6746L26.0674 30.3725L26.1786 30.0668L26.274 29.7569L26.349 29.4421L26.4034 29.1238L26.4344 28.8025L26.4387 28.4784L26.416 28.1537L26.3683 27.8307L26.2982 27.5116L26.2092 27.198L26.1053 26.8893L25.9896 26.5854L25.8627 26.2862L25.7273 25.9904L25.5857 25.6974L25.878 25.8394L26.173 25.9751L26.4714 26.1023L26.7746 26.2184L27.0824 26.3225L27.3952 26.4117L27.7134 26.482L28.0356 26.5298L28.3595 26.5526L28.6827 26.5483L29.0032 26.5172L29.3206 26.4627L29.6346 26.3874L29.9437 26.2918L30.2486 26.1803L30.5499 26.0571L30.5033 26.5194L30.4727 26.9819L30.4634 27.4434L30.4856 27.9021L30.5438 28.355L30.6424 28.7992L30.7854 29.2323L30.9732 29.6521L31.2003 30.0576L31.4578 30.4492L31.7368 30.8291L32.029 31.2003L32.3281 31.5658L32.6301 31.9283L32.9332 32.2892L33.2374 32.649L33.5434 33.0071L33.8526 33.3628L34.1655 33.7153L34.4823 34.0643L34.8029 34.4098L35.127 34.752L36.0948 35.7634L36.3733 36.0507L36.5901 36.2687L36.7469 36.4231L36.8614 36.5352L36.9539 36.626L37.0553 36.726L37.2141 36.8835L37.4561 37.1258L37.7447 37.4179L38.0304 37.7107L38.558 38.2565L38.8124 38.5155L39.0714 38.7687L39.3427 39.0175L39.6321 39.2633L39.9429 39.5066L40.2766 39.7459L40.6323 39.9786L41.0046 40.2059L41.3879 40.4268L41.3861 41.5392L40.2765 41.541L40.0563 41.1567L39.8296 40.7834L39.5974 40.4268L39.3587 40.0923L39.1161 39.7806L38.871 39.4905L38.6228 39.2184L38.3703 38.9588L38.1119 38.7037L37.5676 38.1747L37.2756 37.8882L36.9842 37.5989L36.7426 37.3563L36.5855 37.1971L36.4858 37.0954L36.3952 37.0026L36.2834 36.8879L36.1293 36.7307L35.912 36.5133L35.6254 36.234L34.6167 35.2637L34.2753 34.9388L33.9307 34.6173L33.5826 34.2997L33.231 33.9859L32.8764 33.676L32.5191 33.3691L32.1603 33.0641L31.8003 32.7602L31.4388 32.4575L31.0742 32.1576L30.704 31.8646L30.3251 31.5849L29.9345 31.3267L29.53 31.099L29.1114 30.9108L28.6794 30.7673L28.2363 30.6685L27.7847 30.6101L27.3272 30.5878L26.8715 30.5971L26.8669 30.5972Z" fill="black"/>
<path d="M14.7424 15.303L14.1335 14.2151L15.2186 14.8256L16.3037 15.424L17.3863 16.003L18.4647 16.5533L19.5355 17.0679L20.5973 17.5385L21.6478 17.9564L22.6841 18.3168L23.7014 18.6173L24.6954 18.8577L25.6613 19.0394L26.5961 19.165L27.4971 19.239L28.3644 19.2671L29.1988 19.2574L30.0037 19.2195L30.7834 19.1613L31.543 19.0873L32.2885 19.0033L33.0266 18.9122L33.6025 24.7634L33.1791 24.8894L32.7543 25.0115L32.3271 25.1275L31.897 25.2349L31.4636 25.3323L31.0267 25.417L30.5858 25.4863L30.1415 25.5386L29.6943 25.5734L29.2454 25.5908L28.7961 25.5907L28.3472 25.5731L27.9001 25.5385L27.4551 25.487L27.0128 25.4203L26.5728 25.341L26.135 25.2516L25.6992 25.1536L25.2649 25.0496L24.8317 24.9414L24.9397 25.3757L25.0434 25.8111L25.1412 26.2481L25.2303 26.6871L25.3094 27.1282L25.3759 27.5717L25.4272 28.0178L25.4618 28.4661L25.4793 28.9161L25.4794 29.3667L25.4621 29.8167L25.4273 30.265L25.3752 30.7106L25.3061 31.1526L25.2216 31.5907L25.1245 32.0252L25.0173 32.4564L24.9016 32.8847L24.7799 33.3107L24.6542 33.7352L18.8183 33.1577L18.9091 32.4177L18.993 31.6703L19.0668 30.9087L19.1248 30.127L19.1626 29.3199L19.1723 28.4833L19.1443 27.6137L19.0705 26.7104L18.9452 25.7731L18.764 24.8047L18.5242 23.8081L18.2244 22.7881L17.865 21.7491L17.4482 20.6958L16.9788 19.6313L16.4656 18.5576L15.9167 17.4764L15.3392 16.391L14.7424 15.303Z" fill="black"/>
<path fill-rule="evenodd" clip-rule="evenodd" d="M35.3167 37.9857L35.0231 37.8139L34.7012 37.6541L34.3596 37.5057L34.0068 37.3682L33.6498 37.2424L33.2979 37.1309L32.966 37.0373L32.6743 36.9639L32.4397 36.9096L32.2636 36.8705L32.125 36.8402L32.1251 37.0667L32.122 37.2975L32.1145 37.5385L32.0996 37.7973L32.0745 38.0802L32.0353 38.3894L31.9771 38.7227L31.8948 39.0755L31.7854 39.4414L31.6484 39.8138L31.4843 40.1858L31.2947 40.5516L31.0818 40.9065L30.8479 41.2468L30.5953 41.5698L30.3259 41.8737L30.0414 42.157L29.7433 42.4185L29.4326 42.6573L29.1105 42.8722L28.7779 43.0616L28.4358 43.2243L28.0853 43.3584L27.7277 43.4621L27.3648 43.5336L26.9988 43.5712L26.6321 43.5735L26.2678 43.5398L25.9089 43.4695L25.5588 43.363L25.2209 43.221L24.8985 43.0449L24.5948 42.8364L24.3128 42.5977L24.0551 42.3313L23.8245 42.0396L23.6232 41.7255L23.4535 41.3918L23.3173 41.0418L23.2161 40.6784L23.1514 40.3053L23.1236 39.9258L23.1332 39.5435L23.1795 39.1616L23.2617 38.7834L23.3782 38.4116L23.5272 38.0487L23.7065 37.6966L23.9137 37.3567L24.1468 37.0304L24.4039 36.7187L24.6827 36.4223L24.9814 36.1413L25.2985 35.8762L25.634 35.6301L25.9886 35.4069L26.3608 35.2084L26.7466 35.0326L27.1408 34.8757L27.5409 34.736L27.9471 34.6146L28.3559 34.5151L28.7465 34.4442L29.0795 34.4026L29.3316 34.3795L29.5264 34.3673L29.2356 34.2666L28.9251 34.1652L28.5861 34.0635L28.2232 33.9702L27.848 33.892L27.4682 33.8319L27.0861 33.79L26.7028 33.7652L26.319 33.7565L25.9353 33.7614L25.5518 33.7754L25.1686 33.7961L25.8676 31.5002L26.2618 31.4716L26.6563 31.4508L27.0507 31.4413L27.4443 31.4502L27.8356 31.4822L28.2223 31.5415L28.602 31.6325L28.9722 31.7569L29.3308 31.9139L29.6766 32.0993L30.0099 32.308L30.3321 32.5342L30.6455 32.7724L30.9529 33.0179L31.2569 33.267L32.4681 34.2687L32.7701 34.5208L33.0703 34.775L33.3679 35.0319L33.6626 35.2917L33.9542 35.5541L34.2431 35.819L34.5298 36.086L34.8148 36.355L35.0985 36.6263L35.381 36.8999L35.6626 37.1764L35.9433 37.4559L36.2233 37.7382L36.5031 38.023L36.7827 38.3097L37.0619 38.5978L37.3401 38.8871L37.6158 39.1781L37.8868 39.4722L38.1507 39.7707L38.4052 40.075L38.6498 40.3857L38.8846 40.7025L39.1097 41.0255L39.3261 41.3539L39.5365 41.6862L39.7423 42.0213L38.6965 43.4685L38.612 43.0752L38.5193 42.6835L38.4139 42.2948L38.2882 41.9108L38.1388 41.5329L37.9652 41.1621L37.7678 40.7991L37.5477 40.4445L37.3074 40.0992L37.0517 39.7643L36.7889 39.4414L36.5294 39.1346L36.2815 38.8506L36.0467 38.5959L35.8174 38.3713L35.5789 38.1703L35.3167 37.9857ZM26.8506 39.8487L26.8907 39.8845L26.947 39.9174L27.0343 39.9473L27.1647 39.9693L27.3438 39.9784L27.5728 39.9678L27.8484 39.9224L28.1596 39.821L28.4882 39.6456L28.8137 39.3888L29.117 39.054L29.3797 38.6544L29.583 38.2151L29.7149 37.7719L29.7842 37.3594L29.8184 36.9933L29.8342 36.6379L29.5692 36.6647L28.9866 36.7965L28.4525 36.991L27.9757 37.2392L27.5649 37.53L27.2284 37.8508L26.972 38.1861L26.7964 38.5189L26.6955 38.8309L26.6572 39.1063L26.6645 39.3341L26.6971 39.5118L26.7381 39.6438L26.7783 39.738L26.8152 39.8032L26.8506 39.8487Z" fill="black"/>
<path fill-rule="evenodd" clip-rule="evenodd" d="M37.8419 35.4538L37.6706 35.1594L37.5112 34.8367L37.3632 34.4942L37.2261 34.1404L37.1006 33.7825L36.9894 33.4297L36.896 33.097L36.8228 32.8045L36.7686 32.5692L36.7296 32.3927L36.6994 32.2538L36.9253 32.2539L37.1555 32.2507L37.3959 32.2432L37.654 32.2283L37.9362 32.2031L38.2445 32.1638L38.577 32.1054L38.9288 32.0229L39.2938 31.9133L39.6652 31.7759L40.0362 31.6113L40.4011 31.4212L40.7551 31.2078L41.0945 30.9733L41.4167 30.72L41.7198 30.4499L42.0023 30.1647L42.2632 29.8658L42.5013 29.5543L42.7156 29.2314L42.9046 28.8979L43.0668 28.5548L43.2006 28.2034L43.304 27.8449L43.3753 27.481L43.4128 27.1141L43.4152 26.7465L43.3815 26.3811L43.3114 26.0213L43.2052 25.6703L43.0635 25.3315L42.8879 25.0083L42.6799 24.7038L42.4419 24.421L42.1761 24.1627L41.8852 23.9314L41.5719 23.7296L41.2391 23.5595L40.89 23.4229L40.5276 23.3215L40.1555 23.2565L39.777 23.2287L39.3956 23.2383L39.0148 23.2848L38.6375 23.3672L38.2667 23.484L37.9048 23.6334L37.5536 23.8131L37.2146 24.0209L36.8891 24.2546L36.5782 24.5123L36.2826 24.7919L36.0023 25.0914L35.738 25.4093L35.4925 25.7457L35.2699 26.1012L35.0719 26.4744L34.8965 26.8612L34.7401 27.2564L34.6007 27.6576L34.4796 28.0648L34.3804 28.4747L34.3097 28.8664L34.2682 29.2003L34.2452 29.453L34.233 29.6483L34.1325 29.3568L34.0314 29.0454L33.93 28.7055L33.8369 28.3417L33.7589 27.9655L33.699 27.5847L33.6572 27.2016L33.6325 26.8173L33.6237 26.4325L33.6287 26.0478L33.6427 25.6633L33.6633 25.2791L31.3734 25.9799L31.3448 26.3751L31.3241 26.7707L31.3147 27.1661L31.3235 27.5607L31.3554 27.953L31.4146 28.3408L31.5053 28.7215L31.6295 29.0926L31.786 29.4522L31.971 29.7989L32.1791 30.1331L32.4047 30.4561L32.6423 30.7703L32.8871 31.0785L33.1355 31.3833L34.1347 32.5977L34.3861 32.9005L34.6397 33.2015L34.8959 33.4999L35.1549 33.7953L35.4167 34.0877L35.6809 34.3774L35.9472 34.6648L36.2155 34.9506L36.486 35.235L36.759 35.5183L37.0348 35.8006L37.3135 36.082L37.5951 36.3628L37.8792 36.6433L38.1651 36.9236L38.4524 37.2036L38.7409 37.4825L39.0312 37.7589L39.3245 38.0307L39.6222 38.2952L39.9258 38.5504L40.2356 38.7956L40.5517 39.031L40.8737 39.2567L41.2013 39.4737L41.5327 39.6846L41.8669 39.891L43.3103 38.8424L42.9181 38.7577L42.5275 38.6648L42.1397 38.5592L41.7567 38.4331L41.3799 38.2833L41.01 38.1092L40.648 37.9113L40.2943 37.6906L39.9499 37.4497L39.6158 37.1934L39.2938 36.9299L38.9878 36.6696L38.7045 36.4212L38.4505 36.1858L38.2265 35.9558L38.0261 35.7167L37.8419 35.4538ZM39.7001 26.9655L39.7358 27.0057L39.7685 27.0621L39.7983 27.1497L39.8203 27.2805L39.8294 27.46L39.8189 27.6896L39.7736 27.9659L39.6724 28.2779L39.4974 28.6073L39.2414 28.9337L38.9074 29.2378L38.5089 29.5013L38.0708 29.7051L37.6287 29.8373L37.2173 29.9068L36.8521 29.9411L36.4976 29.9569L36.5243 29.6912L36.6558 29.1071L36.8499 28.5715L37.0973 28.0935L37.3874 27.6816L37.7073 27.3443L38.0418 27.0872L38.3737 26.9111L38.6849 26.8099L38.9596 26.7716L39.1868 26.7789L39.364 26.8116L39.4957 26.8527L39.5897 26.893L39.6546 26.93L39.7001 26.9655Z" fill="black"/>
</g>
</svg>
