<svg width="509" height="511" viewBox="0 0 509 511" fill="none" xmlns="http://www.w3.org/2000/svg">
<path d="M145.157 381.7L145.303 383.9L145.524 386.099L144.091 385.513L142.641 384.982L141.171 384.528L139.677 384.17L138.167 383.91L136.643 383.762L135.105 383.742L133.565 383.85L132.032 384.078L130.519 384.412L129.031 384.837L127.566 385.332L126.125 385.884L124.705 386.489L123.302 387.135L121.912 387.81L122.585 386.416L123.229 385.009L123.833 383.586L124.383 382.14L124.877 380.672L125.301 379.18L125.634 377.663L125.861 376.126L125.969 374.582L125.948 373.04L125.801 371.512L125.542 369.998L125.185 368.5L124.732 367.027L124.203 365.572L123.618 364.135L125.812 364.357L128.006 364.504L130.195 364.548L132.371 364.442L134.52 364.165L136.627 363.695L138.682 363.012L140.673 362.117L142.597 361.034L144.455 359.805L146.257 358.475L148.018 357.081L149.752 355.655L151.472 354.215L153.184 352.769L154.891 351.319L156.59 349.859L158.277 348.385L159.95 346.892L161.605 345.382L163.244 343.852L164.868 342.307L169.666 337.692L171.029 336.363L172.063 335.329L172.796 334.581L173.328 334.036L173.759 333.594L174.233 333.111L174.98 332.353L176.13 331.199L177.515 329.823L178.904 328.46L181.494 325.944L182.723 324.731L183.924 323.496L185.104 322.202L186.27 320.822L187.424 319.34L188.56 317.748L189.664 316.052L190.742 314.276L191.79 312.448L197.067 312.457L197.076 317.748L195.253 318.799L193.482 319.88L191.79 320.987L190.203 322.125L188.725 323.283L187.348 324.452L186.057 325.635L184.826 326.839L183.615 328.072L181.106 330.668L179.747 332.06L178.374 333.45L177.223 334.602L176.468 335.351L175.985 335.827L175.545 336.259L175.001 336.792L174.255 337.527L173.224 338.563L171.899 339.93L167.295 344.741L165.754 346.369L164.229 348.012L162.722 349.672L161.234 351.349L159.763 353.04L158.307 354.744L156.861 356.455L155.419 358.172L153.982 359.896L152.56 361.635L151.17 363.401L149.843 365.208L148.618 367.071L147.538 368.999L146.645 370.996L145.964 373.056L145.495 375.169L145.218 377.323L145.113 379.505L145.157 381.678L145.157 381.7Z" fill="white"/>
<path d="M72.5986 439.522L67.4376 442.426L70.3336 437.251L73.1724 432.076L75.9193 426.913L78.53 421.77L80.9714 416.663L83.2039 411.6L85.1866 406.59L86.8962 401.648L88.3219 396.796L89.4627 392.056L90.3244 387.449L90.9206 382.991L91.2714 378.694L91.4046 374.558L91.3586 370.579L91.1789 366.74L90.9028 363.022L90.5518 359.399L90.1532 355.844L89.7207 352.324L117.48 349.577L118.078 351.596L118.657 353.622L119.207 355.659L119.717 357.711L120.179 359.777L120.581 361.861L120.909 363.964L121.157 366.083L121.323 368.216L121.405 370.356L121.405 372.499L121.322 374.64L121.157 376.772L120.913 378.894L120.596 381.004L120.22 383.102L119.796 385.19L119.331 387.268L118.838 389.339L118.324 391.405L120.385 390.891L122.451 390.396L124.524 389.93L126.606 389.505L128.699 389.127L130.803 388.81L132.919 388.565L135.046 388.4L137.181 388.317L139.319 388.317L141.453 388.399L143.58 388.565L145.694 388.814L147.791 389.143L149.87 389.546L151.931 390.009L153.977 390.52L156.009 391.072L158.029 391.652L160.043 392.252L157.304 420.084L153.793 419.651L150.247 419.251L146.634 418.899L142.926 418.622L139.097 418.442L135.128 418.396L131.002 418.529L126.717 418.881L122.27 419.479L117.676 420.343L112.948 421.487L108.109 422.916L103.18 424.63L98.1828 426.618L93.1325 428.856L88.0389 431.304L82.9097 433.922L77.7602 436.676L72.5986 439.522Z" fill="white"/>
<path d="M380.7 145.538L382.895 145.684L385.088 145.907L384.503 144.469L383.974 143.015L383.521 141.541L383.164 140.044L382.905 138.53L382.758 137.002L382.737 135.46L382.845 133.916L383.072 132.379L383.405 130.862L383.829 129.37L384.323 127.902L384.873 126.456L385.477 125.033L386.121 123.626L386.795 122.232L385.404 122.907L384.001 123.553L382.582 124.158L381.14 124.71L379.675 125.205L378.187 125.63L376.674 125.964L375.141 126.192L373.601 126.3L372.063 126.279L370.539 126.131L369.029 125.872L367.535 125.514L366.065 125.059L364.615 124.529L363.182 123.943L363.403 126.142L363.549 128.342L363.593 130.537L363.488 132.719L363.211 134.873L362.742 136.986L362.061 139.046L361.168 141.043L360.088 142.971L358.863 144.834L357.536 146.641L356.146 148.407L354.724 150.146L353.287 151.87L351.846 153.586L350.399 155.298L348.943 157.001L347.472 158.693L345.984 160.37L344.477 162.03L342.952 163.673L341.411 165.301L336.807 170.112L335.482 171.479L334.451 172.515L333.705 173.25L333.161 173.783L332.721 174.215L332.238 174.69L331.483 175.44L330.332 176.592L328.959 177.982L327.6 179.374L325.091 181.97L323.88 183.202L322.649 184.407L321.358 185.59L319.981 186.759L318.503 187.916L316.916 189.055L315.224 190.162L313.453 191.243L311.63 192.293L311.639 197.585L316.916 197.593L317.964 195.766L319.042 193.99L320.146 192.294L321.282 190.702L322.436 189.22L323.602 187.84L324.782 186.546L325.983 185.311L327.212 184.097L329.802 181.581L331.191 180.219L332.577 178.843L333.726 177.688L334.473 176.931L334.947 176.448L335.378 176.006L335.91 175.46L336.643 174.713L337.677 173.679L339.04 172.35L343.838 167.735L345.462 166.189L347.101 164.66L348.756 163.149L350.429 161.657L352.116 160.183L353.815 158.723L355.522 157.272L357.234 155.827L358.954 154.387L360.688 152.96L362.449 151.567L364.251 150.236L366.109 149.008L368.033 147.925L370.024 147.03L372.079 146.347L374.186 145.877L376.335 145.6L378.511 145.494L380.678 145.538L380.7 145.538Z" fill="white"/>
<path d="M438.372 72.7903L441.268 67.6156L436.107 70.5193L430.945 73.3656L425.796 76.1195L420.666 78.7372L415.573 81.1849L410.522 83.4232L405.525 85.4113L400.596 87.1253L395.757 88.5548L391.029 89.6985L386.435 90.5626L381.988 91.1602L377.703 91.5119L373.577 91.6455L369.609 91.5994L365.78 91.4192L362.071 91.1425L358.458 90.7905L354.912 90.3908L351.401 89.9574L348.662 117.789L350.676 118.389L352.697 118.969L354.728 119.521L356.774 120.032L358.836 120.495L360.914 120.898L363.011 121.228L365.125 121.477L367.252 121.642L369.387 121.725L371.524 121.724L373.659 121.641L375.786 121.476L377.902 121.231L380.006 120.914L382.099 120.537L384.182 120.112L386.255 119.645L388.32 119.151L390.381 118.636L389.867 120.702L389.374 122.773L388.909 124.851L388.485 126.939L388.109 129.038L387.792 131.147L387.548 133.269L387.384 135.402L387.301 137.542L387.3 139.685L387.382 141.826L387.548 143.958L387.796 146.078L388.124 148.18L388.526 150.264L388.988 152.331L389.498 154.382L390.048 156.419L390.627 158.445L391.225 160.464L418.984 157.718L418.552 154.198L418.153 150.642L417.802 147.02L417.526 143.302L417.347 139.463L417.301 135.483L417.434 131.347L417.785 127.05L418.381 122.592L419.242 117.986L420.383 113.245L421.809 108.394L423.518 103.452L425.501 98.4415L427.734 93.3779L430.175 88.271L432.786 83.1283L435.533 77.9654L438.372 72.7903Z" fill="white"/>
<path d="M380.699 364.502L382.893 364.356L385.087 364.134L384.502 365.571L383.973 367.025L383.52 368.499L383.163 369.996L382.904 371.51L382.756 373.039L382.736 374.58L382.844 376.125L383.071 377.661L383.404 379.179L383.828 380.671L384.322 382.139L384.872 383.584L385.476 385.008L386.119 386.415L386.793 387.809L385.403 387.133L384 386.487L382.58 385.883L381.138 385.331L379.674 384.835L378.186 384.411L376.673 384.077L375.14 383.849L373.6 383.741L372.062 383.761L370.538 383.909L369.028 384.168L367.534 384.526L366.064 384.981L364.614 385.512L363.181 386.098L363.402 383.898L363.548 381.698L363.592 379.503L363.487 377.322L363.21 375.168L362.741 373.055L362.06 370.995L361.167 368.998L360.087 367.069L358.862 365.206L357.535 363.399L356.145 361.634L354.722 359.895L353.286 358.171L351.845 356.454L350.398 354.743L348.942 353.039L347.471 351.348L345.983 349.671L344.476 348.011L342.951 346.368L341.41 344.739L336.806 339.929L335.481 338.562L334.45 337.526L333.704 336.791L332.72 335.826L332.238 335.35L331.482 334.601L330.331 333.449L328.958 332.059L327.6 330.667L325.09 328.071L323.88 326.839L322.648 325.634L321.357 324.451L319.981 323.282L318.502 322.124L316.915 320.986L315.224 319.879L313.452 318.798L311.629 317.747L311.638 312.456L316.915 312.448L317.963 314.275L319.041 316.051L320.146 317.747L321.281 319.339L322.435 320.821L323.601 322.201L324.782 323.495L325.983 324.73L327.212 325.943L329.801 328.46L331.19 329.822L332.576 331.198L333.725 332.352L334.472 333.11L334.947 333.593L335.909 334.58L336.642 335.328L337.676 336.362L339.039 337.691L343.837 342.306L345.461 343.851L347.1 345.38L348.756 346.891L350.428 348.384L352.115 349.858L353.814 351.318L355.521 352.768L357.233 354.214L358.953 355.654L360.687 357.08L362.448 358.474L364.25 359.804L366.108 361.033L368.032 362.115L370.023 363.011L372.078 363.693L374.185 364.163L376.334 364.441L378.51 364.547L380.699 364.502Z" fill="white"/>
<path d="M438.369 437.25L441.265 442.425L436.104 439.521L430.942 436.675L425.793 433.921L420.664 431.303L415.57 428.855L410.52 426.617L405.523 424.629L400.594 422.915L395.755 421.486L391.027 420.342L386.433 419.478L381.986 418.88L377.7 418.529L373.575 418.395L369.606 418.441L365.777 418.621L362.069 418.898L358.456 419.25L354.91 419.65L351.399 420.083L348.66 392.252L350.673 391.652L352.694 391.072L354.726 390.52L356.772 390.008L358.833 389.545L360.912 389.143L363.009 388.813L365.123 388.564L367.25 388.398L369.385 388.316L371.522 388.316L373.657 388.4L375.784 388.565L377.9 388.809L380.004 389.127L382.097 389.504L384.179 389.929L386.252 390.395L388.318 390.89L390.379 391.405L389.865 389.338L389.372 387.267L388.907 385.189L388.483 383.101L388.107 381.003L387.79 378.893L387.546 376.771L387.381 374.639L387.299 372.498L387.298 370.355L387.38 368.215L387.546 366.082L387.794 363.963L388.123 361.86L388.524 359.776L388.986 357.71L389.496 355.659L390.047 353.622L390.625 351.595L391.223 349.576L418.982 352.322L418.55 355.842L418.151 359.398L417.801 363.02L417.524 366.739L417.345 370.578L417.299 374.557L417.432 378.693L417.783 382.99L418.379 387.448L419.24 392.055L420.381 396.795L421.807 401.647L423.516 406.589L425.499 411.599L427.732 416.662L430.173 421.769L432.784 426.912L435.53 432.075L438.341 437.198L438.369 437.25Z" fill="white"/>
<path fill-rule="evenodd" clip-rule="evenodd" d="M260.035 166.989L254.353 167.033L248.67 166.989L248.672 165.228L248.667 163.374L248.626 161.388L248.498 159.309L248.229 157.209L247.782 155.14L247.126 153.142L246.233 151.251L245.083 149.509L243.682 147.95L242.063 146.602L240.276 145.47L238.371 144.538L236.391 143.774L234.375 143.14L232.349 142.618L230.307 142.191L228.212 141.813L226.063 141.364L223.933 140.686L221.916 139.685L220.074 138.382L218.441 136.863L217.036 135.196L215.852 133.409L214.862 131.522L214.028 129.568L213.316 127.577L212.681 125.572L212.106 123.556L229.221 119.496L229.195 120.651L229.186 121.817L229.21 122.998L229.307 124.186L229.519 125.359L229.882 126.488L230.419 127.54L231.133 128.489L232.006 129.31L233.008 129.983L234.108 130.483L235.275 130.79L236.483 130.891L237.711 130.786L238.933 130.492L240.12 130.033L241.247 129.435L242.288 128.714L243.224 127.874L244.036 126.923L244.719 125.871L245.275 124.734L245.717 123.529L246.066 122.275L246.337 121.024L246.549 119.858L246.719 118.831L246.866 117.904L246.753 117.718L246.513 117.363L246.003 116.662L245.088 115.562L243.768 114.167L242.13 112.647L240.204 111.15L237.971 109.764L235.425 108.518L232.578 107.415L229.448 106.452L226.046 105.628L222.389 104.936L218.512 104.371L214.454 103.929L210.25 103.596L205.947 103.332L201.597 103.113L203.374 102.377L204.984 101.609L206.381 100.842L207.613 100.057L208.777 99.2373L209.921 98.3729L211.043 97.4511L212.122 96.4547L213.132 95.3763L214.056 94.2237L214.879 93.0139L215.59 91.7674L216.185 90.5055L216.664 89.2486L217.03 88.0128L217.29 86.8094L217.452 85.6449L217.525 84.5222L217.518 83.4407L217.439 82.3985L217.293 81.3923L217.086 80.4191L216.818 79.4762L216.49 78.5624L216.102 77.6768L215.653 76.8205L215.143 75.995L214.572 75.2027L213.941 74.447L213.253 73.7315L212.51 73.0602L211.718 72.4368L210.879 71.8648L210.001 71.3463L209.087 70.8824L208.144 70.4728L207.177 70.116L206.191 69.8103L205.192 69.5539L204.185 69.3465L203.172 69.1893L202.16 69.086L201.153 69.0418L200.157 69.062L199.178 69.1522L198.222 69.3161L197.296 69.5563L196.41 69.873L195.569 70.2645L194.783 70.7272L194.058 71.2567L193.401 71.8466L192.817 72.4899L192.31 73.1791L191.883 73.9062L191.536 74.663L191.269 75.4408L191.084 76.2314L190.979 77.026L190.957 77.8156L191.016 78.5916L191.158 79.3456L191.383 80.069L191.692 80.7541L192.082 81.3925L192.553 81.9757L193.102 82.4932L193.725 82.932L194.412 83.2765L195.151 83.5091L195.922 83.613L196.699 83.5746L197.45 83.3884L198.142 83.0565L198.745 82.5906L199.237 82.0092L199.607 81.3361L199.863 80.5959L200.023 79.8101L200.1 78.9973L200.088 78.1752L199.978 77.3559L199.793 76.5405L199.544 75.7351L200.939 76.3425L202.3 77.0618L203.612 77.9165L204.834 78.9494L205.939 80.1388L206.902 81.4543L207.678 82.8951L208.198 84.4734L208.392 86.1809L208.207 87.9741L207.615 89.7807L206.618 91.5152L205.244 93.0942L203.539 94.4469L201.565 95.52L199.389 96.2808L197.075 96.7125L194.681 96.8085L192.265 96.5659L189.879 95.9854L187.577 95.0711L185.411 93.8339L183.434 92.292L181.69 90.4729L180.22 88.4124L179.054 86.1526L178.215 83.7401L177.712 81.2237L177.548 78.651L177.716 76.0674L178.202 73.5141L178.989 71.028L180.056 68.6412L181.38 66.3819L182.94 64.276L184.711 62.3465L186.67 60.6159L188.792 59.1048L191.049 57.8324L193.41 56.8151L195.842 56.0646L198.31 55.5865L200.779 55.3787L203.214 55.4315L205.585 55.7279L207.866 56.2447L210.037 56.9561L212.085 57.8352L214 58.8565L215.776 59.9985L217.408 61.2434L218.895 62.5767L220.232 63.9878L221.419 65.4667L222.453 67.0053L223.337 68.5951L224.073 70.2278L224.668 71.8952L225.13 73.5895L225.467 75.3042L225.688 77.0334L225.799 78.7711L225.802 80.5116L225.701 82.2505L225.498 83.9834L225.183 85.7018L224.736 87.3929L224.152 89.0497L223.468 90.683L222.707 92.2922L224.757 90.8116L226.834 89.1853L229.023 87.2566L231.32 84.8673L233.623 82.0465L235.826 78.9216L237.861 75.5525L239.699 71.9524L241.339 68.1435L242.796 64.1525L244.091 60.0075L245.244 55.7344L246.281 51.3525L247.229 46.882L248.109 42.3412L248.942 37.7397L249.744 33.0909L250.548 28.4076L251.366 23.6977L252.163 18.9687L252.865 14.2301L253.438 9.48803L253.916 4.74428L254.353 0L254.79 4.74415L255.269 9.4879L255.841 14.2303L256.543 18.9687L257.34 23.6976L258.158 28.4077L258.962 33.0908L259.765 37.7399L260.597 42.3411L261.477 46.882L262.425 51.3523L263.462 55.7343L264.615 60.0073L265.91 64.1525L267.367 68.1436L269.007 71.9524L270.844 75.5525L272.88 78.9217L275.082 82.0464L277.386 84.867L279.682 87.2565L281.872 89.1852L283.948 90.8115L285.998 92.2923L285.238 90.6828L284.554 89.0495L283.97 87.3928L283.523 85.7017L283.208 83.9831L283.005 82.2502L282.904 80.5114L282.907 78.7708L283.018 77.0331L283.239 75.3041L283.576 73.5893L284.037 71.895L284.632 70.2275L285.369 68.5947L286.253 67.0051L287.287 65.4667L288.474 63.9875L289.811 62.5767L291.297 61.2431L292.93 59.9984L294.706 58.8564L296.621 57.8349L298.669 56.9558L300.84 56.2444L303.121 55.7275L305.492 55.4312L307.927 55.3783L310.396 55.5861L312.864 56.0644L315.296 56.8147L317.657 57.8319L319.914 59.1043L322.036 60.6153L323.995 62.3461L325.766 64.2755L327.326 66.3816L328.65 68.6407L329.717 71.0274L330.503 73.5137L330.99 76.067L331.158 78.6504L330.994 81.2231L330.491 83.7395L329.651 86.1519L328.486 88.4119L327.016 90.4724L325.272 92.2915L323.294 93.8334L321.129 95.0707L318.827 95.985L316.441 96.5656L314.025 96.808L311.631 96.7121L309.316 96.2805L307.14 95.5197L305.167 94.4466L303.462 93.0941L302.088 91.5149L301.091 89.7803L300.498 87.9739L300.313 86.1805L300.508 84.473L301.028 82.8948L301.804 81.454L302.767 80.1387L303.872 78.949L305.093 77.9162L306.406 77.0613L307.767 76.3422L309.162 75.7346L308.913 76.5402L308.728 77.3556L308.618 78.1748L308.605 78.9969L308.682 79.8097L308.843 80.5956L309.099 81.3359L309.469 82.0087L309.96 82.59L310.564 83.0562L311.256 83.388L312.007 83.5743L312.784 83.6125L313.555 83.5087L314.294 83.2762L314.981 82.9316L315.604 82.4928L316.153 81.9753L316.624 81.3922L317.014 80.7536L317.322 80.0687L317.547 79.3452L317.69 78.5913L317.749 77.8153L317.726 77.0254L317.622 76.231L317.436 75.4405L317.17 74.6626L316.823 73.9058L316.395 73.1787L315.889 72.4896L315.305 71.8461L314.648 71.2563L313.923 70.7269L313.137 70.2641L312.296 69.8726L311.409 69.556L310.484 69.3158L309.528 69.1516L308.549 69.0617L307.552 69.0414L306.546 69.0857L305.533 69.189L304.521 69.3461L303.513 69.5535L302.514 69.81L301.529 70.1157L300.562 70.4725L299.619 70.8821L298.705 71.3459L297.827 71.8643L296.988 72.4366L296.196 73.0598L295.453 73.7313L294.765 74.4467L294.134 75.2025L293.563 75.9947L293.053 76.8202L292.604 77.6765L292.216 78.5621L291.888 79.476L291.62 80.4188L291.413 81.3919L291.267 82.3982L291.188 83.4405L291.181 84.5219L291.254 85.6447L291.416 86.809L291.676 88.0126L292.042 89.2483L292.52 90.5052L293.116 91.7671L293.827 93.0136L294.649 94.2235L295.573 95.376L296.584 96.4543L297.663 97.4507L298.785 98.3726L299.929 99.2368L301.092 100.057L302.325 100.842L303.721 101.609L305.332 102.376L307.108 103.112L302.758 103.332L298.455 103.595L294.252 103.928L290.193 104.371L286.316 104.936L282.66 105.628L279.258 106.452L276.128 107.414L273.281 108.518L270.734 109.764L268.501 111.15L266.575 112.647L264.937 114.167L263.617 115.562L262.703 116.662L262.192 117.363L261.953 117.718L261.839 117.904L261.987 118.83L262.157 119.858L262.368 121.024L262.64 122.275L262.988 123.529L263.431 124.734L263.987 125.871L264.669 126.923L265.482 127.874L266.417 128.714L267.459 129.435L268.585 130.033L269.773 130.491L270.995 130.786L272.222 130.891L273.431 130.79L274.597 130.483L275.697 129.982L276.7 129.31L277.572 128.489L278.286 127.54L278.823 126.488L279.187 125.359L279.398 124.185L279.495 122.998L279.52 121.817L279.51 120.651L279.484 119.496L296.599 123.555L296.025 125.572L295.389 127.576L294.677 129.567L293.844 131.522L292.853 133.408L291.669 135.195L290.264 136.863L288.631 138.382L286.789 139.685L284.772 140.686L282.642 141.364L280.493 141.813L278.398 142.191L276.356 142.617L274.331 143.14L272.314 143.774L270.334 144.538L268.429 145.469L266.643 146.601L265.024 147.95L263.622 149.509L262.472 151.251L261.579 153.142L260.923 155.14L260.476 157.209L260.207 159.309L260.079 161.388L260.038 163.374L260.033 165.228L260.035 166.989ZM254.755 61.9785L254.354 58.1774L254.35 58.2155L253.953 61.9785L253.576 65.4435L253.237 68.4586L252.893 71.3485L252.472 74.4054L251.925 77.4202L251.258 80.0931L250.494 82.4337L249.627 84.5812L248.635 86.6393L247.506 88.6626L246.268 90.6339L244.948 92.5056L243.523 94.2472L241.962 95.8463L240.269 97.3097L238.471 98.6596L236.6 99.9223L234.686 101.132L232.745 102.304L234.977 103.183L237.179 104.126L239.339 105.153L241.44 106.306L243.468 107.611L245.399 109.1L247.19 110.812L248.796 112.766L250.183 114.948L251.345 117.319L252.295 119.83L253.074 122.435L253.747 125.094L254.354 127.782L254.961 125.094L255.635 122.435L256.413 119.83L257.364 117.319L258.525 114.948L259.913 112.766L261.518 110.811L263.31 109.1L265.24 107.611L267.268 106.306L269.369 105.153L271.53 104.126L273.732 103.183L275.964 102.304L274.022 101.132L272.109 99.922L270.238 98.6595L268.439 97.3097L266.746 95.8461L265.185 94.2473L263.76 92.5058L262.44 90.634L261.203 88.6627L260.074 86.6394L259.082 84.5811L258.215 82.4337L257.451 80.0929L256.784 77.4202L256.237 74.4055L255.816 71.3484L255.471 68.4587L255.132 65.4435L254.755 61.9785Z" fill="white"/>
<path fill-rule="evenodd" clip-rule="evenodd" d="M342.154 249.324L342.111 255.021L342.154 260.718L343.911 260.716L345.76 260.721L347.741 260.762L349.814 260.89L351.909 261.16L353.972 261.608L355.965 262.266L357.851 263.162L359.589 264.315L361.143 265.72L362.488 267.343L363.618 269.134L364.546 271.044L365.309 273.029L365.941 275.051L366.462 277.082L366.887 279.129L367.264 281.23L367.712 283.384L368.389 285.52L369.387 287.542L370.687 289.389L372.202 291.026L373.864 292.435L375.647 293.622L377.528 294.615L379.478 295.451L381.464 296.165L383.463 296.802L385.474 297.378L389.523 280.218L388.371 280.244L387.208 280.254L386.031 280.229L384.846 280.132L383.675 279.92L382.549 279.556L381.5 279.017L380.554 278.301L379.735 277.426L379.064 276.421L378.565 275.318L378.259 274.148L378.158 272.937L378.262 271.706L378.556 270.481L379.014 269.29L379.61 268.161L380.33 267.117L381.167 266.179L382.116 265.364L383.165 264.68L384.299 264.122L385.501 263.679L386.751 263.329L387.999 263.057L389.162 262.845L390.187 262.674L391.111 262.526L391.297 262.64L391.65 262.881L392.349 263.392L393.447 264.309L394.838 265.633L396.354 267.275L397.847 269.206L399.23 271.445L400.473 273.998L401.573 276.853L402.533 279.991L403.354 283.402L404.045 287.068L404.609 290.955L405.05 295.024L405.382 299.239L405.645 303.553L405.864 307.914L406.597 306.133L407.363 304.518L408.128 303.119L408.911 301.883L409.729 300.716L410.591 299.569L411.51 298.444L412.504 297.362L413.58 296.349L414.729 295.423L415.936 294.598L417.179 293.885L418.438 293.288L419.691 292.808L420.924 292.441L422.124 292.181L423.286 292.018L424.405 291.945L425.484 291.952L426.524 292.031L427.527 292.177L428.498 292.386L429.438 292.654L430.35 292.983L431.233 293.372L432.087 293.822L432.91 294.334L433.701 294.906L434.454 295.539L435.168 296.229L435.837 296.973L436.459 297.768L437.03 298.608L437.547 299.489L438.01 300.405L438.418 301.351L438.774 302.32L439.079 303.308L439.335 304.31L439.541 305.32L439.698 306.335L439.801 307.35L439.845 308.36L439.825 309.358L439.735 310.341L439.572 311.299L439.332 312.227L439.016 313.116L438.626 313.958L438.164 314.747L437.636 315.474L437.048 316.132L436.406 316.718L435.719 317.226L434.994 317.654L434.239 318.002L433.463 318.269L432.675 318.455L431.882 318.56L431.094 318.583L430.321 318.523L429.569 318.381L428.847 318.155L428.164 317.846L427.527 317.455L426.945 316.982L426.429 316.432L425.991 315.808L425.648 315.119L425.416 314.378L425.312 313.605L425.351 312.826L425.536 312.073L425.867 311.379L426.332 310.774L426.912 310.281L427.583 309.91L428.321 309.653L429.105 309.492L429.916 309.415L430.736 309.428L431.553 309.538L432.366 309.723L433.17 309.973L432.564 308.575L431.846 307.21L430.994 305.894L429.964 304.669L428.777 303.561L427.465 302.595L426.028 301.818L424.454 301.297L422.751 301.101L420.963 301.287L419.161 301.881L417.431 302.881L415.856 304.259L414.507 305.968L413.436 307.946L412.678 310.129L412.247 312.449L412.151 314.849L412.393 317.272L412.972 319.664L413.884 321.972L415.118 324.143L416.656 326.126L418.47 327.874L420.525 329.348L422.779 330.517L425.185 331.358L427.695 331.862L430.261 332.027L432.838 331.858L435.385 331.371L437.864 330.582L440.245 329.512L442.498 328.184L444.599 326.621L446.523 324.845L448.249 322.881L449.756 320.753L451.025 318.491L452.04 316.124L452.789 313.685L453.265 311.21L453.473 308.735L453.42 306.293L453.124 303.916L452.609 301.629L451.899 299.452L451.023 297.399L450.004 295.479L448.865 293.699L447.623 292.062L446.293 290.571L444.886 289.231L443.411 288.041L441.876 287.004L440.291 286.118L438.662 285.379L436.999 284.783L435.309 284.32L433.599 283.982L431.875 283.76L430.141 283.65L428.406 283.647L426.671 283.748L424.943 283.951L423.229 284.267L421.542 284.715L419.89 285.301L418.261 285.987L416.656 286.749L418.132 284.694L419.754 282.612L421.678 280.416L424.061 278.114L426.875 275.804L429.991 273.596L433.352 271.555L436.942 269.712L440.741 268.069L444.722 266.607L448.856 265.309L453.118 264.153L457.488 263.113L461.947 262.163L466.476 261.28L471.065 260.446L475.702 259.641L480.373 258.835L485.071 258.015L489.787 257.216L494.514 256.512L499.243 255.938L503.975 255.458L508.707 255.02L503.975 254.582L499.243 254.102L494.513 253.529L489.787 252.824L485.071 252.026L480.373 251.205L475.702 250.4L471.066 249.594L466.476 248.76L461.947 247.877L457.488 246.927L453.118 245.888L448.856 244.731L444.722 243.433L440.741 241.972L436.942 240.328L433.352 238.486L429.992 236.445L426.875 234.237L424.061 231.927L421.678 229.625L419.755 227.429L418.133 225.347L416.656 223.292L418.261 224.054L419.89 224.74L421.543 225.326L423.229 225.774L424.943 226.09L426.672 226.293L428.406 226.394L430.142 226.391L431.875 226.281L433.599 226.059L435.31 225.721L437 225.258L438.663 224.662L440.291 223.923L441.877 223.037L443.411 222L444.886 220.81L446.294 219.469L447.624 217.979L448.865 216.342L450.004 214.561L451.023 212.642L451.9 210.589L452.609 208.411L453.125 206.124L453.42 203.747L453.473 201.306L453.266 198.831L452.789 196.356L452.04 193.917L451.026 191.55L449.757 189.287L448.25 187.16L446.523 185.196L444.599 183.42L442.499 181.856L440.245 180.528L437.865 179.459L435.385 178.67L432.839 178.182L430.262 178.014L427.696 178.179L425.186 178.683L422.78 179.524L420.526 180.693L418.471 182.167L416.656 183.915L415.119 185.898L413.884 188.069L412.973 190.377L412.393 192.77L412.152 195.192L412.247 197.592L412.678 199.913L413.437 202.095L414.507 204.073L415.856 205.782L417.431 207.16L419.161 208.16L420.963 208.754L422.751 208.939L424.454 208.744L426.029 208.223L427.466 207.445L428.777 206.479L429.964 205.371L430.994 204.147L431.847 202.831L432.564 201.466L433.17 200.068L432.367 200.317L431.553 200.503L430.736 200.613L429.916 200.626L429.106 200.548L428.322 200.388L427.583 200.131L426.912 199.76L426.332 199.267L425.868 198.662L425.537 197.968L425.351 197.215L425.313 196.436L425.416 195.663L425.648 194.922L425.992 194.233L426.43 193.609L426.946 193.059L427.527 192.586L428.164 192.195L428.847 191.886L429.569 191.66L430.321 191.518L431.095 191.458L431.883 191.481L432.675 191.585L433.463 191.771L434.239 192.038L434.994 192.386L435.719 192.815L436.407 193.323L437.048 193.908L437.637 194.567L438.165 195.294L438.626 196.083L439.017 196.925L439.333 197.814L439.572 198.742L439.736 199.7L439.825 200.682L439.846 201.681L439.801 202.691L439.698 203.706L439.542 204.72L439.335 205.731L439.079 206.733L438.774 207.721L438.418 208.69L438.01 209.636L437.547 210.552L437.03 211.433L436.459 212.273L435.838 213.068L435.168 213.812L434.454 214.502L433.701 215.135L432.911 215.707L432.087 216.219L431.233 216.669L430.35 217.058L429.438 217.387L428.498 217.655L427.527 217.864L426.524 218.009L425.484 218.089L424.406 218.096L423.286 218.022L422.125 217.86L420.924 217.6L419.692 217.233L418.438 216.753L417.18 216.156L415.936 215.443L414.729 214.618L413.58 213.692L412.505 212.679L411.511 211.597L410.591 210.472L409.729 209.325L408.912 208.158L408.129 206.922L407.364 205.523L406.598 203.908L405.864 202.127L405.645 206.488L405.382 210.802L405.05 215.017L404.609 219.086L404.045 222.973L403.355 226.639L402.533 230.05L401.573 233.188L400.473 236.043L399.23 238.596L397.847 240.835L396.354 242.766L394.838 244.408L393.447 245.732L392.349 246.649L391.65 247.16L391.297 247.401L391.111 247.515L390.187 247.367L389.162 247.196L387.999 246.984L386.751 246.712L385.501 246.363L384.299 245.919L383.165 245.362L382.116 244.677L381.167 243.862L380.33 242.925L379.61 241.88L379.014 240.751L378.556 239.56L378.262 238.335L378.158 237.104L378.259 235.893L378.565 234.723L379.064 233.62L379.735 232.615L380.554 231.74L381.5 231.024L382.549 230.486L383.675 230.121L384.846 229.909L386.031 229.812L387.209 229.787L388.371 229.797L389.523 229.823L385.475 212.663L383.463 213.239L381.464 213.876L379.478 214.59L377.529 215.426L375.647 216.419L373.865 217.606L372.202 219.015L370.687 220.652L369.387 222.499L368.389 224.521L367.712 226.657L367.264 228.812L366.887 230.912L366.462 232.959L365.941 234.99L365.309 237.012L364.547 238.997L363.618 240.907L362.489 242.698L361.143 244.322L359.589 245.727L357.851 246.88L355.965 247.775L353.972 248.433L351.909 248.882L349.814 249.151L347.741 249.28L345.76 249.32L343.911 249.325L342.154 249.324ZM446.89 254.618L450.681 255.02L450.643 255.024L446.89 255.422L443.434 255.8L440.427 256.14L437.544 256.486L434.495 256.907L431.489 257.456L428.823 258.124L426.488 258.891L424.346 259.76L422.294 260.755L420.276 261.887L418.309 263.127L416.443 264.451L414.706 265.88L413.111 267.444L411.651 269.142L410.305 270.945L409.045 272.821L407.839 274.739L406.67 276.686L405.793 274.448L404.852 272.241L403.828 270.075L402.678 267.968L401.377 265.935L399.892 263.999L398.185 262.203L396.235 260.593L394.059 259.202L391.694 258.038L389.19 257.084L386.591 256.304L383.939 255.629L381.259 255.02L383.939 254.411L386.592 253.736L389.19 252.956L391.694 252.003L394.059 250.838L396.236 249.447L398.185 247.838L399.892 246.041L401.377 244.105L402.678 242.072L403.829 239.966L404.852 237.799L405.793 235.592L406.67 233.354L407.839 235.301L409.046 237.219L410.305 239.095L411.651 240.898L413.111 242.596L414.706 244.16L416.443 245.589L418.309 246.913L420.275 248.154L422.293 249.286L424.346 250.28L426.488 251.149L428.823 251.916L431.488 252.584L434.495 253.133L437.544 253.555L440.427 253.9L443.434 254.24L446.89 254.618Z" fill="white"/>
<path fill-rule="evenodd" clip-rule="evenodd" d="M340.508 180.682L341.905 179.865L343.436 179.105L345.061 178.399L346.739 177.745L348.437 177.147L350.111 176.616L351.689 176.171L353.077 175.822L354.193 175.564L355.031 175.378L355.69 175.234L355.689 176.311L355.704 177.409L355.74 178.555L355.81 179.786L355.93 181.132L356.116 182.603L356.393 184.188L356.785 185.866L357.305 187.607L357.957 189.378L358.737 191.147L359.639 192.887L360.652 194.576L361.764 196.194L362.966 197.731L364.247 199.176L365.601 200.523L367.019 201.768L368.496 202.903L370.028 203.925L371.61 204.826L373.238 205.6L374.905 206.238L376.606 206.731L378.332 207.071L380.073 207.25L381.817 207.261L383.55 207.101L385.257 206.767L386.922 206.26L388.53 205.585L390.063 204.747L391.508 203.755L392.849 202.62L394.075 201.352L395.172 199.965L396.129 198.471L396.937 196.884L397.585 195.219L398.066 193.491L398.374 191.716L398.505 189.911L398.46 188.092L398.24 186.276L397.849 184.477L397.295 182.708L396.586 180.982L395.733 179.307L394.748 177.69L393.639 176.138L392.416 174.656L391.089 173.246L389.669 171.909L388.16 170.648L386.565 169.478L384.878 168.416L383.107 167.472L381.273 166.636L379.398 165.889L377.494 165.225L375.562 164.647L373.618 164.174L371.76 163.837L370.176 163.639L368.977 163.529L368.05 163.471L369.433 162.992L370.91 162.51L372.523 162.026L374.249 161.582L376.034 161.21L377.84 160.924L379.658 160.725L381.481 160.607L383.306 160.566L385.131 160.589L386.956 160.656L388.779 160.754L385.454 149.834L383.579 149.697L381.702 149.599L379.826 149.553L377.954 149.596L376.093 149.748L374.253 150.03L372.447 150.463L370.687 151.055L368.981 151.801L367.336 152.683L365.75 153.676L364.218 154.752L362.727 155.885L361.265 157.053L359.819 158.237L354.058 163.002L352.621 164.201L351.193 165.411L349.778 166.632L348.376 167.868L346.989 169.116L345.615 170.376L344.251 171.646L342.895 172.926L341.546 174.216L340.202 175.518L338.863 176.833L337.528 178.162L336.196 179.505L334.865 180.86L333.535 182.224L332.207 183.594L330.884 184.97L329.572 186.354L328.283 187.753L327.028 189.173L325.817 190.62L324.654 192.098L323.537 193.605L322.466 195.141L321.437 196.704L320.436 198.284L319.458 199.878L324.432 206.762L324.834 204.891L325.275 203.028L325.776 201.179L326.374 199.352L327.084 197.555L327.91 195.791L328.849 194.065L329.896 192.378L331.039 190.736L332.255 189.142L333.505 187.606L334.74 186.147L335.919 184.796L337.036 183.585L338.127 182.516L339.261 181.561L340.508 180.682ZM380.778 189.544L380.587 189.714L380.319 189.87L379.904 190.013L379.284 190.117L378.432 190.161L377.343 190.11L376.032 189.895L374.552 189.412L372.989 188.578L371.44 187.356L369.998 185.764L368.748 183.863L367.781 181.774L367.154 179.665L366.824 177.703L366.661 175.962L366.586 174.271L367.847 174.399L370.618 175.026L373.158 175.951L375.426 177.131L377.38 178.515L378.981 180.04L380.2 181.636L381.036 183.218L381.516 184.703L381.698 186.012L381.663 187.096L381.508 187.941L381.313 188.569L381.122 189.018L380.946 189.327L380.778 189.544Z" fill="white"/>
<path fill-rule="evenodd" clip-rule="evenodd" d="M328.497 168.639L329.312 167.239L330.07 165.704L330.774 164.075L331.426 162.392L332.023 160.69L332.552 159.011L332.996 157.429L333.344 156.037L333.602 154.918L333.788 154.079L333.931 153.418L332.857 153.418L331.762 153.403L330.618 153.368L329.391 153.297L328.048 153.177L326.582 152.99L325 152.712L323.327 152.32L321.591 151.798L319.824 151.145L318.059 150.362L316.324 149.458L314.64 148.443L313.025 147.327L311.493 146.122L310.051 144.838L308.708 143.481L307.467 142.059L306.334 140.578L305.315 139.042L304.416 137.455L303.644 135.824L303.008 134.152L302.516 132.447L302.177 130.716L301.998 128.97L301.987 127.222L302.147 125.484L302.481 123.773L302.986 122.103L303.66 120.492L304.495 118.954L305.484 117.506L306.616 116.161L307.881 114.932L309.264 113.832L310.755 112.872L312.338 112.063L313.998 111.413L315.722 110.931L317.492 110.622L319.292 110.49L321.106 110.535L322.918 110.756L324.712 111.148L326.476 111.704L328.198 112.414L329.868 113.269L331.481 114.258L333.029 115.369L334.508 116.595L335.914 117.925L337.247 119.35L338.504 120.862L339.672 122.462L340.731 124.153L341.672 125.928L342.507 127.768L343.251 129.648L343.914 131.556L344.49 133.493L344.962 135.443L345.298 137.305L345.495 138.894L345.605 140.096L345.663 141.025L346.141 139.638L346.622 138.157L347.104 136.54L347.547 134.81L347.918 133.021L348.203 131.209L348.402 129.387L348.519 127.559L348.561 125.729L348.537 123.899L348.471 122.07L348.373 120.242L359.265 123.576L359.401 125.455L359.499 127.337L359.544 129.218L359.502 131.095L359.35 132.961L359.069 134.805L358.637 136.616L358.047 138.382L357.302 140.092L356.422 141.741L355.433 143.331L354.359 144.867L353.229 146.362L352.065 147.828L350.883 149.277L346.131 155.054L344.935 156.494L343.729 157.926L342.51 159.345L341.278 160.75L340.033 162.141L338.776 163.519L337.509 164.886L336.233 166.246L334.946 167.598L333.648 168.946L332.336 170.289L331.01 171.627L329.671 172.963L328.32 174.297L326.96 175.63L325.593 176.962L324.221 178.289L322.84 179.604L321.445 180.896L320.028 182.154L318.585 183.368L317.111 184.535L315.608 185.654L314.076 186.728L312.517 187.76L310.941 188.763L309.351 189.745L302.486 184.757L304.352 184.354L306.21 183.912L308.054 183.41L309.876 182.811L311.668 182.098L313.427 181.27L315.149 180.328L316.832 179.279L318.47 178.133L320.059 176.914L321.591 175.66L323.046 174.422L324.394 173.24L325.602 172.121L326.667 171.027L327.621 169.89L328.497 168.639ZM319.658 128.264L319.488 128.455L319.333 128.723L319.191 129.14L319.086 129.762L319.043 130.616L319.093 131.708L319.309 133.022L319.79 134.506L320.622 136.073L321.84 137.626L323.429 139.072L325.324 140.325L327.408 141.295L329.511 141.924L331.468 142.254L333.205 142.417L334.891 142.493L334.764 141.229L334.139 138.45L333.216 135.903L332.038 133.629L330.659 131.67L329.137 130.065L327.546 128.843L325.967 128.005L324.487 127.524L323.18 127.342L322.1 127.376L321.257 127.532L320.631 127.727L320.183 127.919L319.874 128.095L319.658 128.264Z" fill="white"/>
<path fill-rule="evenodd" clip-rule="evenodd" d="M166.552 249.324L166.595 255.021L166.552 260.718L164.796 260.716L162.946 260.721L160.966 260.762L158.892 260.891L156.797 261.16L154.734 261.609L152.741 262.266L150.855 263.162L149.117 264.315L147.563 265.72L146.218 267.343L145.089 269.135L144.16 271.045L143.397 273.03L142.766 275.051L142.244 277.082L141.819 279.13L141.442 281.23L140.994 283.385L140.318 285.521L139.319 287.543L138.019 289.39L136.504 291.027L134.841 292.436L133.059 293.622L131.178 294.616L129.228 295.452L127.242 296.165L125.243 296.802L123.232 297.378L119.183 280.219L120.335 280.245L121.498 280.254L122.675 280.229L123.86 280.132L125.031 279.92L126.157 279.556L127.206 279.017L128.152 278.302L128.972 277.427L129.642 276.422L130.141 275.319L130.448 274.149L130.548 272.937L130.444 271.707L130.15 270.482L129.692 269.291L129.096 268.161L128.377 267.117L127.539 266.179L126.591 265.365L125.541 264.68L124.408 264.123L123.205 263.679L121.955 263.33L120.707 263.058L119.545 262.846L118.519 262.675L117.595 262.527L117.41 262.641L117.056 262.881L116.357 263.393L115.259 264.31L113.868 265.633L112.352 267.276L110.859 269.207L109.476 271.446L108.234 273.999L107.133 276.853L106.174 279.991L105.352 283.402L104.662 287.069L104.097 290.956L103.656 295.025L103.324 299.24L103.061 303.554L102.842 307.915L102.109 306.134L101.343 304.519L100.578 303.12L99.7946 301.883L98.9772 300.717L98.1151 299.57L97.1956 298.445L96.2019 297.363L95.1263 296.35L93.9768 295.424L92.7701 294.599L91.5268 293.886L90.2684 293.289L89.0147 292.809L87.782 292.442L86.5819 292.182L85.4206 292.019L84.3006 291.946L83.2222 291.953L82.1826 292.032L81.1789 292.178L80.2084 292.386L79.2679 292.655L78.3565 292.984L77.4733 293.373L76.6191 293.823L75.7958 294.334L75.0056 294.907L74.2518 295.54L73.5382 296.23L72.8686 296.974L72.2469 297.769L71.6763 298.609L71.1591 299.49L70.6965 300.406L70.2879 301.352L69.9321 302.321L69.6273 303.309L69.3715 304.311L69.1645 305.321L69.0079 306.336L68.9048 307.351L68.8607 308.36L68.8808 309.359L68.9707 310.342L69.1344 311.3L69.3737 312.228L69.6897 313.117L70.0802 313.959L70.5417 314.748L71.0698 315.475L71.6581 316.133L72.2997 316.719L72.9871 317.227L73.7123 317.655L74.4669 318.003L75.243 318.27L76.0313 318.456L76.8238 318.561L77.6114 318.584L78.3855 318.524L79.1374 318.382L79.859 318.156L80.5421 317.847L81.179 317.456L81.7608 316.983L82.2769 316.433L82.7146 315.809L83.0581 315.12L83.2902 314.378L83.3936 313.605L83.3555 312.827L83.1698 312.074L82.8388 311.38L82.3738 310.775L81.7939 310.282L81.1229 309.911L80.3847 309.654L79.6007 309.493L78.79 309.416L77.9701 309.429L77.1531 309.539L76.3399 309.724L75.5364 309.974L76.1423 308.576L76.8597 307.211L77.7122 305.895L78.7424 304.67L79.9288 303.562L81.2408 302.596L82.6779 301.819L84.2518 301.298L85.955 301.102L87.7435 301.288L89.5453 301.882L91.2753 302.882L92.8504 304.259L94.1995 305.968L95.2697 307.947L96.0285 310.129L96.459 312.45L96.5545 314.85L96.3128 317.272L95.7337 319.665L94.822 321.973L93.5878 324.144L92.05 326.126L90.2357 327.875L88.1806 329.349L85.9264 330.517L83.5204 331.359L81.0104 331.863L78.4446 332.027L75.8677 331.859L73.3211 331.372L70.8415 330.583L68.461 329.513L66.2077 328.185L64.1073 326.622L62.183 324.846L60.4567 322.882L58.9495 320.754L57.6805 318.492L56.6661 316.125L55.9175 313.686L55.4406 311.211L55.2333 308.736L55.2862 306.294L55.5816 303.917L56.0972 301.63L56.8067 299.453L57.6834 297.4L58.7021 295.48L59.8414 293.7L61.0829 292.063L62.4126 290.573L63.8199 289.232L65.2952 288.042L66.8297 287.005L68.4152 286.119L70.0437 285.38L71.7066 284.784L73.3966 284.321L75.107 283.983L76.8315 283.761L78.5647 283.65L80.3007 283.647L82.0349 283.748L83.7632 283.952L85.4773 284.268L87.1639 284.716L88.8164 285.301L90.4454 285.988L92.0505 286.75L90.5736 284.694L88.9515 282.613L87.028 280.417L84.6449 278.115L81.8316 275.805L78.7149 273.597L75.3545 271.556L71.7639 269.714L67.965 268.07L63.9844 266.609L59.8503 265.31L55.5884 264.154L51.2178 263.114L46.7593 262.165L42.2303 261.281L37.6408 260.447L33.0042 259.642L28.3331 258.837L23.6356 258.016L18.9189 257.218L14.1929 256.513L9.46304 255.939L4.73154 255.46L0 255.022L4.73166 254.584L9.46312 254.104L14.1928 253.53L18.919 252.826L23.6355 252.027L28.3331 251.206L33.0042 250.401L37.6409 249.596L42.2302 248.762L46.7593 247.878L51.218 246.928L55.5885 245.889L59.8504 244.733L63.9845 243.434L67.965 241.973L71.764 240.329L75.3547 238.486L78.715 236.446L81.8317 234.237L84.645 231.928L87.0281 229.625L88.9519 227.43L90.5738 225.348L92.0507 223.293L90.4456 224.055L88.8166 224.741L87.1642 225.327L85.4775 225.775L83.7635 226.091L82.0352 226.294L80.3008 226.395L78.5648 226.392L76.8316 226.282L75.1071 226.06L73.3969 225.722L71.707 225.259L70.0439 224.662L68.4154 223.924L66.8299 223.038L65.2953 222.001L63.8201 220.811L62.413 219.47L61.0829 217.98L59.8414 216.343L58.7024 214.563L57.6837 212.643L56.8069 210.59L56.0975 208.412L55.5819 206.126L55.2863 203.749L55.2338 201.307L55.4409 198.832L55.9177 196.357L56.6662 193.918L57.681 191.551L58.9499 189.288L60.4571 187.161L62.1833 185.197L64.1076 183.421L66.2082 181.857L68.4615 180.529L70.8419 179.46L73.3217 178.671L75.8682 178.183L78.445 178.015L81.0111 178.18L83.5209 178.684L85.927 179.525L88.181 180.694L90.2361 182.168L92.0504 183.916L93.5882 185.899L94.8223 188.07L95.7342 190.378L96.3131 192.77L96.5551 195.193L96.4594 197.593L96.0287 199.913L95.2699 202.095L94.1997 204.074L92.8506 205.783L91.2756 207.161L89.5457 208.161L87.7437 208.755L85.9552 208.94L84.2522 208.745L82.6782 208.224L81.2411 207.446L79.9291 206.48L78.7427 205.372L77.7124 204.148L76.86 202.832L76.1427 201.467L75.5367 200.069L76.3401 200.318L77.1534 200.504L77.9704 200.614L78.7904 200.626L79.6011 200.549L80.385 200.389L81.1232 200.132L81.7944 199.761L82.3743 199.268L82.839 198.663L83.17 197.969L83.3558 197.216L83.394 196.437L83.2904 195.664L83.0585 194.923L82.7148 194.234L82.2773 193.61L81.7611 193.06L81.1795 192.587L80.5426 192.196L79.8594 191.887L79.1379 191.661L78.3859 191.518L77.6119 191.459L76.8244 191.482L76.0318 191.586L75.2432 191.772L74.4675 192.039L73.7127 192.387L72.9875 192.816L72.3001 193.324L71.6585 193.909L71.0702 194.568L70.5421 195.295L70.0806 196.083L69.6901 196.926L69.3742 197.815L69.1347 198.743L68.9712 199.701L68.8812 200.683L68.8611 201.682L68.9052 202.692L69.0081 203.707L69.1649 204.721L69.3717 205.732L69.6275 206.734L69.9324 207.722L70.2882 208.691L70.6969 209.637L71.1595 210.553L71.6767 211.434L72.2472 212.274L72.869 213.069L73.5385 213.813L74.252 214.503L75.0058 215.136L75.7961 215.708L76.6195 216.22L77.4735 216.67L78.3567 217.059L79.2682 217.388L80.2085 217.656L81.1793 217.865L82.1827 218.01L83.2223 218.09L84.3008 218.097L85.4207 218.023L86.5822 217.861L87.7823 217.601L89.015 217.234L90.2686 216.754L91.5271 216.157L92.7704 215.443L93.9771 214.619L95.1266 213.693L96.2021 212.679L97.196 211.598L98.1154 210.473L98.9774 209.326L99.7948 208.159L100.578 206.923L101.343 205.523L102.109 203.908L102.843 202.127L103.062 206.488L103.324 210.803L103.656 215.018L104.098 219.087L104.662 222.974L105.352 226.64L106.174 230.051L107.133 233.189L108.234 236.043L109.476 238.597L110.859 240.836L112.352 242.767L113.868 244.409L115.259 245.732L116.357 246.65L117.056 247.161L117.41 247.401L117.595 247.515L118.52 247.367L119.545 247.196L120.707 246.985L121.955 246.713L123.205 246.363L124.408 245.919L125.541 245.362L126.591 244.678L127.539 243.863L128.377 242.925L129.096 241.881L129.693 240.751L130.15 239.561L130.444 238.336L130.548 237.105L130.448 235.893L130.141 234.723L129.642 233.621L128.972 232.616L128.152 231.741L127.207 231.025L126.157 230.486L125.031 230.122L123.86 229.91L122.676 229.813L121.498 229.788L120.335 229.798L119.183 229.824L123.232 212.664L125.243 213.24L127.243 213.877L129.228 214.591L131.178 215.427L133.06 216.42L134.842 217.607L136.505 219.016L138.02 220.652L139.319 222.5L140.318 224.522L140.994 226.657L141.442 228.812L141.819 230.913L142.244 232.96L142.766 234.991L143.397 237.013L144.16 238.998L145.089 240.908L146.218 242.699L147.563 244.322L149.117 245.727L150.855 246.88L152.741 247.776L154.734 248.433L156.797 248.882L158.892 249.151L160.966 249.28L162.946 249.321L164.796 249.326L166.552 249.324ZM61.8156 254.619L58.0246 255.021L61.8157 255.424L65.2717 255.801L68.2789 256.141L71.1612 256.487L74.2102 256.909L77.217 257.457L79.8828 258.126L82.2172 258.892L84.3591 259.761L86.412 260.756L88.43 261.888L90.3962 263.128L92.2629 264.452L93.9999 265.881L95.5947 267.445L97.0543 269.143L98.4008 270.946L99.66 272.822L100.866 274.741L102.035 276.687L102.913 274.449L103.853 272.242L104.877 270.076L106.027 267.969L107.329 265.936L108.814 264L110.521 262.204L112.47 260.594L114.647 259.203L117.011 258.039L119.516 257.085L122.114 256.305L124.767 255.63L127.447 255.021L124.766 254.413L122.114 253.737L119.516 252.957L117.011 252.004L114.647 250.839L112.47 249.448L110.521 247.839L108.814 246.042L107.329 244.107L106.027 242.073L104.877 239.967L103.853 237.801L102.913 235.593L102.036 233.355L100.867 235.302L99.6602 237.22L98.4007 239.096L97.0545 240.899L95.5948 242.597L93.9999 244.162L92.263 245.59L90.3962 246.914L88.4299 248.155L86.4119 249.287L84.3593 250.281L82.2173 251.151L79.8829 251.917L77.217 252.585L74.2102 253.134L71.1612 253.556L68.279 253.901L65.2717 254.241L61.8156 254.619Z" fill="white"/>
<path fill-rule="evenodd" clip-rule="evenodd" d="M260.035 343.053L254.352 343.009L248.67 343.053L248.672 344.814L248.667 346.668L248.626 348.654L248.498 350.733L248.229 352.833L247.782 354.901L247.126 356.9L246.233 358.79L245.082 360.533L243.681 362.091L242.062 363.44L240.276 364.572L238.371 365.504L236.391 366.268L234.374 366.902L232.349 367.424L230.307 367.85L228.212 368.229L226.062 368.678L223.933 369.356L221.916 370.357L220.073 371.66L218.441 373.179L217.036 374.846L215.852 376.633L214.861 378.52L214.027 380.475L213.315 382.466L212.68 384.47L212.106 386.487L229.221 390.546L229.195 389.391L229.185 388.225L229.21 387.044L229.307 385.856L229.518 384.683L229.881 383.553L230.419 382.502L231.132 381.553L232.005 380.732L233.008 380.059L234.108 379.559L235.274 379.252L236.483 379.151L237.71 379.256L238.932 379.55L240.12 380.009L241.246 380.607L242.288 381.328L243.223 382.168L244.036 383.119L244.718 384.171L245.274 385.308L245.717 386.513L246.065 387.767L246.337 389.018L246.548 390.183L246.718 391.211L246.866 392.138L246.752 392.324L246.513 392.678L246.002 393.379L245.087 394.48L243.768 395.875L242.13 397.395L240.204 398.892L237.971 400.278L235.424 401.524L232.577 402.627L229.447 403.589L226.045 404.413L222.388 405.105L218.512 405.671L214.453 406.113L210.25 406.447L205.946 406.71L201.597 406.93L203.373 407.665L204.984 408.433L206.38 409.2L207.613 409.985L208.776 410.805L209.92 411.669L211.042 412.591L212.121 413.587L213.132 414.666L214.055 415.818L214.878 417.028L215.589 418.275L216.185 419.536L216.663 420.793L217.029 422.029L217.289 423.233L217.451 424.397L217.524 425.52L217.517 426.601L217.438 427.643L217.292 428.65L217.085 429.623L216.816 430.566L216.489 431.48L216.101 432.365L215.652 433.222L215.142 434.047L214.571 434.839L213.94 435.595L213.252 436.311L212.509 436.982L211.717 437.605L210.878 438.177L210 438.696L209.086 439.16L208.143 439.569L207.176 439.926L206.191 440.232L205.192 440.488L204.184 440.696L203.171 440.853L202.159 440.956L201.152 441L200.156 440.98L199.177 440.89L198.221 440.726L197.295 440.486L196.409 440.169L195.568 439.778L194.782 439.315L194.057 438.785L193.4 438.196L192.816 437.552L192.309 436.863L191.882 436.136L191.535 435.379L191.268 434.601L191.083 433.811L190.979 433.016L190.956 432.227L191.015 431.451L191.157 430.697L191.383 429.973L191.691 429.288L192.081 428.65L192.552 428.066L193.101 427.549L193.724 427.11L194.411 426.766L195.15 426.533L195.921 426.429L196.698 426.468L197.449 426.654L198.141 426.986L198.745 427.452L199.236 428.033L199.606 428.706L199.862 429.446L200.022 430.232L200.099 431.045L200.087 431.867L199.977 432.686L199.792 433.502L199.543 434.307L200.938 433.7L202.299 432.98L203.612 432.126L204.833 431.093L205.938 429.903L206.901 428.588L207.677 427.147L208.197 425.569L208.392 423.861L208.206 422.068L207.614 420.261L206.617 418.527L205.243 416.948L203.538 415.595L201.565 414.522L199.388 413.761L197.074 413.33L194.68 413.234L192.264 413.476L189.878 414.057L187.576 414.971L185.411 416.208L183.433 417.75L181.689 419.569L180.219 421.63L179.053 423.89L178.214 426.302L177.711 428.819L177.547 431.391L177.715 433.975L178.201 436.528L178.988 439.014L180.055 441.401L181.379 443.66L182.939 445.766L184.71 447.696L186.669 449.426L188.791 450.938L191.047 452.21L193.409 453.227L195.841 453.977L198.309 454.456L200.778 454.663L203.213 454.61L205.584 454.314L207.865 453.797L210.036 453.086L212.084 452.207L213.999 451.185L215.775 450.043L217.408 448.799L218.894 447.465L220.231 446.054L221.418 444.575L222.452 443.037L223.336 441.447L224.073 439.814L224.668 438.147L225.129 436.452L225.466 434.738L225.687 433.009L225.798 431.271L225.801 429.53L225.7 427.792L225.497 426.059L225.182 424.34L224.735 422.649L224.151 420.992L223.467 419.359L222.706 417.75L224.757 419.23L226.833 420.857L229.022 422.785L231.319 425.175L233.622 427.995L235.825 431.12L237.861 434.489L239.698 438.089L241.338 441.898L242.795 445.889L244.09 450.034L245.243 454.307L246.28 458.69L247.228 463.16L248.108 467.701L248.94 472.302L249.743 476.951L250.547 481.634L251.365 486.344L252.162 491.073L252.864 495.811L253.436 500.554L253.915 505.298L254.352 510.042L254.789 505.298L255.267 500.554L255.84 495.812L256.542 491.073L257.339 486.344L258.157 481.634L258.96 476.951L259.763 472.302L260.595 467.701L261.476 463.16L262.424 458.689L263.461 454.307L264.614 450.034L265.909 445.889L267.366 441.898L269.006 438.089L270.844 434.489L272.879 431.12L275.082 427.995L277.385 425.175L279.682 422.785L281.871 420.856L283.947 419.23L285.998 417.749L285.237 419.359L284.553 420.992L283.969 422.649L283.522 424.34L283.207 426.058L283.004 427.791L282.903 429.53L282.906 431.271L283.017 433.008L283.238 434.737L283.575 436.452L284.037 438.147L284.631 439.814L285.368 441.447L286.252 443.036L287.286 444.575L288.473 446.054L289.81 447.465L291.296 448.798L292.929 450.043L294.705 451.185L296.62 452.207L298.667 453.086L300.839 453.797L303.12 454.314L305.491 454.61L307.926 454.663L310.395 454.455L312.863 453.977L315.295 453.227L317.656 452.209L319.913 450.937L322.035 449.426L323.994 447.695L325.765 445.766L327.325 443.66L328.649 441.4L329.716 439.014L330.503 436.528L330.989 433.974L331.157 431.391L330.993 428.818L330.49 426.302L329.65 423.889L328.485 421.629L327.015 419.569L325.271 417.75L323.293 416.208L321.128 414.971L318.826 414.056L316.44 413.476L314.024 413.233L311.63 413.329L309.316 413.761L307.139 414.522L305.166 415.595L303.461 416.947L302.087 418.527L301.09 420.261L300.497 422.068L300.312 423.861L300.507 425.568L301.027 427.147L301.803 428.587L302.766 429.903L303.871 431.092L305.092 432.125L306.405 432.98L307.766 433.699L309.161 434.307L308.912 433.501L308.727 432.686L308.617 431.867L308.605 431.045L308.681 430.232L308.842 429.446L309.098 428.706L309.468 428.033L309.959 427.451L310.563 426.985L311.255 426.653L312.006 426.467L312.783 426.429L313.554 426.533L314.293 426.765L314.98 427.11L315.603 427.548L316.152 428.066L316.623 428.649L317.013 429.288L317.321 429.973L317.547 430.696L317.689 431.45L317.748 432.226L317.725 433.016L317.621 433.81L317.435 434.601L317.169 435.379L316.822 436.136L316.395 436.863L315.888 437.552L315.304 438.195L314.647 438.785L313.922 439.314L313.136 439.777L312.295 440.169L311.408 440.485L310.483 440.726L309.527 440.89L308.548 440.98L307.552 441L306.545 440.956L305.532 440.853L304.52 440.695L303.512 440.488L302.513 440.232L301.528 439.926L300.561 439.569L299.618 439.159L298.704 438.695L297.826 438.177L296.987 437.605L296.195 436.981L295.452 436.31L294.764 435.595L294.133 434.839L293.562 434.047L293.052 433.221L292.603 432.365L292.215 431.479L291.887 430.566L291.619 429.623L291.412 428.649L291.266 427.643L291.187 426.601L291.18 425.52L291.253 424.397L291.415 423.232L291.675 422.029L292.041 420.793L292.52 419.536L293.115 418.274L293.826 417.028L294.649 415.818L295.572 414.665L296.583 413.587L297.662 412.591L298.784 411.669L299.928 410.805L301.091 409.985L302.324 409.2L303.72 408.433L305.331 407.665L307.108 406.929L302.758 406.709L298.455 406.446L294.251 406.113L290.193 405.671L286.316 405.105L282.659 404.413L279.257 403.589L276.127 402.627L273.28 401.524L270.733 400.278L268.501 398.891L266.574 397.395L264.937 395.875L263.617 394.48L262.702 393.379L262.192 392.678L261.952 392.324L261.838 392.138L261.986 391.211L262.156 390.183L262.368 389.018L262.639 387.767L262.987 386.513L263.43 385.308L263.986 384.171L264.669 383.119L265.481 382.168L266.416 381.328L267.458 380.607L268.584 380.009L269.772 379.55L270.994 379.255L272.222 379.151L273.43 379.252L274.597 379.559L275.696 380.059L276.699 380.732L277.572 381.553L278.286 382.501L278.823 383.553L279.186 384.682L279.397 385.856L279.494 387.044L279.519 388.225L279.51 389.391L279.484 390.546L296.599 386.486L296.024 384.47L295.389 382.465L294.677 380.474L293.843 378.52L292.852 376.633L291.669 374.846L290.264 373.179L288.631 371.66L286.789 370.357L284.772 369.356L282.642 368.678L280.492 368.229L278.397 367.85L276.356 367.424L274.33 366.902L272.314 366.268L270.334 365.503L268.429 364.572L266.642 363.44L265.023 362.091L263.622 360.533L262.472 358.79L261.579 356.9L260.923 354.902L260.475 352.833L260.207 350.733L260.078 348.654L260.038 346.668L260.033 344.814L260.035 343.053ZM254.754 448.064L254.353 451.864L253.951 448.063L253.575 444.598L253.236 441.583L252.891 438.693L252.47 435.636L251.923 432.622L251.256 429.949L250.492 427.608L249.625 425.461L248.633 423.403L247.504 421.379L246.267 419.408L244.946 417.536L243.521 415.795L241.961 414.196L240.268 412.732L238.469 411.382L236.598 410.12L234.685 408.91L232.743 407.738L234.975 406.859L237.177 405.916L239.338 404.889L241.439 403.736L243.467 402.431L245.397 400.942L247.189 399.231L248.794 397.276L250.182 395.094L251.343 392.723L252.294 390.212L253.072 387.607L253.746 384.948L254.353 382.26L254.96 384.948L255.633 387.607L256.412 390.212L257.362 392.723L258.524 395.094L259.911 397.276L261.517 399.23L263.308 400.942L265.239 402.431L267.267 403.736L269.368 404.889L271.528 405.916L273.73 406.859L275.962 407.738L274.021 408.91L272.107 410.12L270.236 411.382L268.438 412.732L266.744 414.196L265.184 415.795L263.759 417.536L262.439 419.408L261.201 421.379L260.072 423.403L259.08 425.461L258.213 427.608L257.449 429.949L256.782 432.622L256.235 435.636L255.814 438.693L255.47 441.583L255.131 444.598L254.754 448.064Z" fill="white"/>
<path fill-rule="evenodd" clip-rule="evenodd" d="M328.497 341.402L329.312 342.802L330.07 344.338L330.774 345.967L331.426 347.649L332.023 349.352L332.552 351.03L332.996 352.613L333.344 354.004L333.602 355.123L333.787 355.963L333.931 356.623L332.857 356.623L331.762 356.638L330.618 356.674L329.39 356.745L328.048 356.865L326.582 357.051L325 357.329L323.327 357.722L321.59 358.243L319.824 358.897L318.059 359.679L316.323 360.584L314.64 361.599L313.025 362.714L311.493 363.919L310.051 365.204L308.708 366.56L307.467 367.982L306.334 369.464L305.315 371L304.415 372.586L303.644 374.218L303.007 375.89L302.516 377.595L302.177 379.325L301.998 381.071L301.987 382.82L302.147 384.557L302.48 386.269L302.986 387.938L303.659 389.55L304.495 391.087L305.484 392.536L306.616 393.881L307.88 395.11L309.264 396.209L310.754 397.169L312.337 397.979L313.998 398.628L315.722 399.111L317.492 399.419L319.292 399.552L321.106 399.506L322.918 399.285L324.712 398.893L326.476 398.338L328.198 397.627L329.868 396.772L331.48 395.784L333.029 394.672L334.507 393.446L335.913 392.116L337.247 390.692L338.504 389.179L339.672 387.579L340.731 385.888L341.672 384.113L342.506 382.274L343.251 380.394L343.913 378.485L344.49 376.548L344.961 374.599L345.298 372.736L345.495 371.147L345.605 369.945L345.663 369.016L346.141 370.403L346.622 371.884L347.104 373.501L347.547 375.231L347.918 377.021L348.203 378.832L348.402 380.654L348.519 382.482L348.561 384.313L348.537 386.142L348.471 387.971L348.372 389.799L359.264 386.465L359.4 384.585L359.499 382.704L359.544 380.823L359.502 378.946L359.35 377.08L359.069 375.236L358.637 373.425L358.047 371.659L357.302 369.949L356.422 368.3L355.432 366.71L354.359 365.174L353.229 363.679L352.065 362.214L350.883 360.764L346.131 354.987L344.934 353.547L343.729 352.115L342.51 350.696L341.277 349.291L340.033 347.9L338.776 346.522L337.509 345.155L336.233 343.796L334.946 342.443L333.648 341.095L332.336 339.753L331.01 338.414L329.671 337.078L328.32 335.744L326.96 334.411L325.593 333.079L324.22 331.753L322.84 330.438L321.445 329.145L320.029 327.887L318.585 326.673L317.111 325.507L315.608 324.387L314.076 323.313L312.518 322.281L310.941 321.278L309.352 320.296L302.486 325.284L304.352 325.687L306.21 326.129L308.054 326.631L309.876 327.231L311.668 327.943L313.427 328.771L315.15 329.713L316.832 330.763L318.47 331.909L320.059 333.128L321.591 334.381L323.046 335.619L324.394 336.801L325.602 337.921L326.668 339.015L327.621 340.152L328.497 341.402ZM319.658 381.777L319.488 381.586L319.332 381.318L319.19 380.901L319.086 380.279L319.042 379.425L319.092 378.333L319.308 377.019L319.789 375.535L320.621 373.968L321.84 372.415L323.428 370.969L325.324 369.716L327.407 368.746L329.51 368.117L331.467 367.787L333.204 367.624L334.89 367.548L334.763 368.812L334.138 371.591L333.215 374.138L332.038 376.412L330.658 378.371L329.136 379.976L327.545 381.198L325.966 382.036L324.486 382.517L323.18 382.699L322.099 382.665L321.256 382.509L320.63 382.314L320.182 382.122L319.874 381.946L319.658 381.777Z" fill="white"/>
<path fill-rule="evenodd" clip-rule="evenodd" d="M340.508 329.358L341.904 330.176L343.436 330.936L345.06 331.641L346.739 332.295L348.437 332.894L350.11 333.424L351.689 333.869L353.077 334.219L354.193 334.477L355.03 334.663L355.689 334.807L355.689 333.73L355.704 332.632L355.74 331.486L355.81 330.254L355.93 328.909L356.116 327.438L356.393 325.853L356.785 324.175L357.305 322.434L357.957 320.663L358.737 318.893L359.639 317.153L360.652 315.465L361.764 313.846L362.966 312.31L364.247 310.865L365.6 309.517L367.019 308.273L368.496 307.137L370.028 306.116L371.61 305.214L373.238 304.44L374.905 303.802L376.606 303.309L378.332 302.969L380.073 302.79L381.817 302.779L383.55 302.94L385.257 303.274L386.922 303.781L388.53 304.456L390.063 305.294L391.508 306.285L392.849 307.421L394.075 308.688L395.172 310.075L396.129 311.569L396.936 313.157L397.584 314.822L398.065 316.55L398.374 318.325L398.505 320.13L398.46 321.948L398.24 323.765L397.849 325.564L397.295 327.332L396.586 329.059L395.733 330.733L394.747 332.35L393.638 333.902L392.416 335.385L391.089 336.794L389.668 338.131L388.16 339.392L386.564 340.563L384.878 341.624L383.107 342.568L381.272 343.405L379.397 344.151L377.494 344.816L375.562 345.393L373.617 345.866L371.76 346.204L370.175 346.401L368.976 346.511L368.05 346.57L369.433 347.049L370.91 347.531L372.523 348.014L374.249 348.459L376.033 348.83L377.84 349.116L379.657 349.316L381.481 349.433L383.306 349.475L385.131 349.451L386.955 349.385L388.778 349.286L385.453 360.207L383.578 360.343L381.702 360.442L379.826 360.487L377.953 360.445L376.092 360.293L374.253 360.01L372.447 359.578L370.686 358.986L368.98 358.239L367.336 357.357L365.75 356.365L364.217 355.289L362.727 354.156L361.265 352.988L359.819 351.803L354.057 347.039L352.621 345.839L351.193 344.63L349.777 343.408L348.376 342.173L346.989 340.925L345.614 339.665L344.251 338.395L342.895 337.115L341.546 335.825L340.202 334.523L338.863 333.208L337.528 331.879L336.195 330.535L334.865 329.181L333.535 327.817L332.207 326.447L330.884 325.071L329.572 323.687L328.283 322.288L327.028 320.868L325.817 319.42L324.654 317.943L323.537 316.436L322.466 314.9L321.437 313.337L320.436 311.757L319.458 310.163L324.432 303.279L324.834 305.15L325.275 307.013L325.776 308.862L326.374 310.689L327.084 312.486L327.91 314.25L328.85 315.976L329.896 317.663L331.039 319.305L332.255 320.899L333.505 322.434L334.74 323.894L335.919 325.245L337.036 326.456L338.127 327.525L339.261 328.48L340.508 329.358ZM380.778 320.497L380.587 320.327L380.32 320.171L379.904 320.028L379.284 319.924L378.432 319.88L377.343 319.93L376.032 320.146L374.552 320.629L372.989 321.463L371.44 322.685L369.998 324.277L368.748 326.178L367.781 328.267L367.154 330.375L366.824 332.338L366.661 334.079L366.586 335.77L367.846 335.642L370.618 335.015L373.158 334.09L375.426 332.909L377.38 331.526L378.981 330L380.2 328.405L381.036 326.823L381.516 325.338L381.697 324.028L381.663 322.945L381.508 322.1L381.313 321.472L381.122 321.023L380.946 320.714L380.778 320.497Z" fill="white"/>
<path fill-rule="evenodd" clip-rule="evenodd" d="M168.195 329.359L166.799 330.177L165.268 330.936L163.643 331.642L161.965 332.296L160.267 332.895L158.593 333.425L157.014 333.87L155.627 334.22L154.511 334.478L153.673 334.664L153.014 334.808L153.015 333.731L153 332.633L152.964 331.487L152.893 330.255L152.774 328.91L152.587 327.439L152.31 325.854L151.919 324.176L151.399 322.435L150.747 320.664L149.966 318.894L149.065 317.154L148.052 315.466L146.939 313.847L145.738 312.311L144.456 310.866L143.103 309.518L141.685 308.274L140.207 307.138L138.675 306.117L137.093 305.215L135.466 304.441L133.799 303.803L132.098 303.31L130.372 302.97L128.631 302.792L126.887 302.78L125.153 302.941L123.446 303.275L121.781 303.782L120.174 304.457L118.641 305.295L117.196 306.286L115.854 307.422L114.629 308.689L113.532 310.077L112.574 311.571L111.767 313.158L111.119 314.823L110.638 316.551L110.33 318.326L110.198 320.131L110.244 321.949L110.464 323.766L110.855 325.565L111.409 327.334L112.118 329.06L112.97 330.735L113.956 332.351L115.065 333.903L116.288 335.386L117.614 336.796L119.035 338.133L120.543 339.393L122.139 340.564L123.825 341.626L125.596 342.57L127.431 343.406L129.306 344.152L131.209 344.817L133.141 345.394L135.086 345.867L136.944 346.205L138.528 346.402L139.727 346.512L140.653 346.571L139.27 347.05L137.793 347.532L136.181 348.015L134.455 348.46L132.67 348.831L130.863 349.117L129.046 349.317L127.223 349.434L125.397 349.476L123.572 349.452L121.748 349.386L119.925 349.287L123.25 360.208L125.125 360.344L127.001 360.443L128.877 360.488L130.75 360.446L132.611 360.294L134.45 360.012L136.256 359.579L138.017 358.987L139.723 358.24L141.368 357.358L142.953 356.366L144.486 355.29L145.976 354.157L147.438 352.989L148.885 351.804L154.646 347.04L156.083 345.84L157.511 344.631L158.926 343.409L160.327 342.174L161.714 340.925L163.089 339.665L164.453 338.396L165.808 337.116L167.158 335.826L168.501 334.524L169.841 333.209L171.176 331.879L172.508 330.536L173.839 329.182L175.168 327.818L176.497 326.448L177.82 325.072L179.131 323.687L180.421 322.289L181.675 320.869L182.886 319.421L184.05 317.944L185.166 316.436L186.237 314.9L187.266 313.338L188.267 311.758L189.246 310.164L184.272 303.28L183.87 305.151L183.429 307.014L182.928 308.863L182.33 310.69L181.619 312.487L180.793 314.25L179.854 315.977L178.807 317.664L177.664 319.306L176.448 320.899L175.198 322.435L173.964 323.895L172.785 325.246L171.668 326.457L170.577 327.525L169.443 328.481L168.195 329.359ZM127.928 320.498L128.119 320.328L128.387 320.172L128.802 320.029L129.422 319.925L130.274 319.881L131.363 319.932L132.674 320.147L134.155 320.63L135.718 321.464L137.266 322.686L138.708 324.278L139.958 326.179L140.925 328.268L141.552 330.376L141.882 332.339L142.045 334.08L142.12 335.771L140.86 335.643L138.088 335.016L135.548 334.091L133.28 332.91L131.326 331.527L129.725 330.001L128.506 328.406L127.67 326.824L127.19 325.339L127.008 324.03L127.043 322.946L127.198 322.101L127.393 321.473L127.584 321.024L127.76 320.715L127.928 320.498Z" fill="white"/>
<path fill-rule="evenodd" clip-rule="evenodd" d="M180.208 341.403L179.393 342.803L178.635 344.338L177.931 345.967L177.279 347.649L176.682 349.352L176.153 351.03L175.709 352.613L175.361 354.004L175.103 355.123L174.918 355.963L174.774 356.624L175.848 356.623L176.943 356.638L178.087 356.674L179.315 356.745L180.657 356.865L182.123 357.051L183.705 357.329L185.378 357.722L187.115 358.243L188.881 358.897L190.646 359.68L192.382 360.583L194.065 361.599L195.68 362.714L197.212 363.919L198.654 365.204L199.997 366.56L201.238 367.982L202.371 369.464L203.39 371L204.289 372.586L205.061 374.218L205.697 375.89L206.189 377.595L206.528 379.325L206.707 381.071L206.718 382.82L206.558 384.557L206.225 386.269L205.719 387.938L205.045 389.55L204.21 391.087L203.221 392.536L202.089 393.881L200.824 395.11L199.441 396.209L197.95 397.169L196.368 397.979L194.707 398.628L192.983 399.111L191.213 399.42L189.413 399.552L187.599 399.506L185.787 399.285L183.993 398.894L182.229 398.338L180.507 397.627L178.837 396.772L177.225 395.784L175.676 394.672L174.198 393.446L172.792 392.116L171.458 390.692L170.201 389.18L169.033 387.58L167.974 385.889L167.033 384.113L166.198 382.274L165.454 380.394L164.791 378.486L164.215 376.548L163.744 374.599L163.407 372.736L163.21 371.148L163.1 369.946L163.042 369.017L162.564 370.403L162.083 371.884L161.601 373.501L161.158 375.232L160.787 377.021L160.502 378.833L160.303 380.654L160.186 382.483L160.144 384.313L160.168 386.143L160.234 387.972L160.332 389.799L149.44 386.466L149.305 384.586L149.206 382.705L149.161 380.824L149.203 378.946L149.355 377.08L149.636 375.236L150.068 373.425L150.658 371.66L151.403 369.95L152.283 368.3L153.272 366.711L154.346 365.174L155.476 363.68L156.64 362.214L157.822 360.764L162.574 354.987L163.77 353.547L164.977 352.115L166.195 350.696L167.427 349.291L168.672 347.9L169.929 346.522L171.196 345.155L172.472 343.796L173.759 342.443L175.057 341.096L176.369 339.753L177.695 338.414L179.034 337.078L180.385 335.745L181.745 334.411L183.112 333.079L184.485 331.753L185.866 330.438L187.26 329.145L188.677 327.887L190.121 326.673L191.594 325.507L193.097 324.387L194.629 323.313L196.188 322.281L197.764 321.278L199.354 320.297L206.219 325.284L204.353 325.687L202.496 326.129L200.651 326.631L198.829 327.231L197.037 327.943L195.278 328.772L193.556 329.713L191.873 330.763L190.235 331.909L188.646 333.128L187.114 334.381L185.659 335.619L184.311 336.801L183.103 337.921L182.038 339.015L181.084 340.152L180.208 341.403ZM189.046 381.778L189.216 381.587L189.372 381.318L189.514 380.902L189.618 380.28L189.662 379.426L189.612 378.333L189.396 377.019L188.915 375.535L188.083 373.968L186.864 372.416L185.276 370.97L183.38 369.716L181.296 368.747L179.194 368.118L177.237 367.787L175.5 367.624L173.814 367.549L173.941 368.813L174.566 371.591L175.489 374.139L176.666 376.412L178.046 378.372L179.568 379.976L181.159 381.199L182.737 382.036L184.218 382.518L185.524 382.7L186.605 382.665L187.448 382.51L188.074 382.314L188.521 382.123L188.83 381.947L189.046 381.778Z" fill="white"/>
<path d="M127.795 145.538L125.601 145.684L123.407 145.906L123.992 144.469L124.521 143.015L124.974 141.541L125.331 140.044L125.59 138.53L125.738 137.002L125.758 135.46L125.65 133.916L125.423 132.379L125.09 130.862L124.666 129.37L124.172 127.901L123.622 126.456L123.018 125.032L122.374 123.626L121.701 122.232L123.091 122.907L124.494 123.553L125.914 124.158L127.355 124.71L128.82 125.205L130.308 125.63L131.821 125.964L133.354 126.192L134.894 126.3L136.432 126.279L137.956 126.131L139.466 125.872L140.96 125.514L142.43 125.059L143.88 124.529L145.313 123.943L145.092 126.142L144.946 128.342L144.902 130.537L145.007 132.719L145.284 134.873L145.753 136.986L146.434 139.046L147.327 141.043L148.407 142.971L149.632 144.834L150.959 146.641L152.349 148.407L153.772 150.146L155.208 151.87L156.649 153.586L158.096 155.298L159.552 157.001L161.023 158.693L162.511 160.37L164.018 162.03L165.543 163.673L167.084 165.301L171.688 170.112L173.013 171.478L174.044 172.515L174.79 173.25L175.334 173.783L175.774 174.215L176.257 174.69L177.012 175.44L178.163 176.592L179.536 177.982L180.895 179.374L183.404 181.97L184.615 183.202L185.846 184.407L187.137 185.59L188.514 186.759L189.992 187.916L191.579 189.055L193.271 190.162L195.042 191.243L196.865 192.293L196.856 197.585L191.579 197.593L190.531 195.765L189.453 193.99L188.349 192.294L187.213 190.702L186.059 189.22L184.893 187.84L183.713 186.546L182.512 185.311L181.283 184.097L178.693 181.581L177.304 180.219L175.918 178.843L174.769 177.688L174.022 176.931L173.548 176.447L173.117 176.006L172.585 175.46L171.852 174.713L170.818 173.679L169.455 172.35L164.657 167.735L163.033 166.189L161.394 164.66L159.739 163.149L158.066 161.657L156.379 160.183L154.68 158.723L152.973 157.272L151.261 155.827L149.541 154.387L147.807 152.96L146.046 151.567L144.244 150.236L142.386 149.008L140.462 147.925L138.471 147.03L136.416 146.347L134.309 145.877L132.16 145.599L129.984 145.494L127.817 145.538L127.795 145.538Z" fill="white"/>
<path d="M70.1235 72.7902L67.2274 67.6155L72.3886 70.5192L77.5502 73.3655L82.6995 76.1194L87.8289 78.7372L92.9224 81.1848L97.9727 83.4232L102.97 85.4113L107.899 87.1252L112.738 88.5547L117.466 89.6984L122.06 90.5625L126.507 91.1601L130.792 91.5119L134.918 91.6454L138.886 91.5993L142.715 91.4191L146.424 91.1424L150.037 90.7904L153.583 90.3907L157.094 89.9574L159.833 117.789L157.819 118.389L155.799 118.969L153.767 119.521L151.721 120.032L149.66 120.495L147.581 120.898L145.484 121.228L143.37 121.476L141.243 121.642L139.108 121.725L136.971 121.724L134.836 121.641L132.709 121.476L130.593 121.231L128.489 120.914L126.396 120.537L124.313 120.112L122.24 119.645L120.175 119.151L118.114 118.636L118.628 120.702L119.121 122.773L119.586 124.851L120.01 126.939L120.386 129.038L120.703 131.147L120.947 133.269L121.111 135.402L121.195 137.542L121.195 139.685L121.113 141.826L120.947 143.958L120.699 146.078L120.371 148.18L119.969 150.264L119.507 152.33L118.997 154.382L118.447 156.419L117.868 158.445L117.27 160.464L89.5107 157.718L89.943 154.198L90.3417 150.642L90.6928 147.02L90.9687 143.301L91.1485 139.462L91.1945 135.483L91.0613 131.347L90.7104 127.05L90.1144 122.592L89.2526 117.986L88.1118 113.245L86.6861 108.393L84.9766 103.452L82.9938 98.4414L80.7612 93.3778L78.32 88.271L75.7091 83.1282L72.9624 77.9654L70.1235 72.7902Z" fill="white"/>
<path fill-rule="evenodd" clip-rule="evenodd" d="M167.987 180.682L166.59 179.865L165.059 179.105L163.434 178.399L161.756 177.745L160.058 177.147L158.384 176.616L156.806 176.171L155.418 175.822L154.302 175.564L153.464 175.378L152.806 175.234L152.806 176.311L152.791 177.409L152.755 178.555L152.685 179.786L152.565 181.132L152.379 182.602L152.102 184.188L151.71 185.866L151.19 187.607L150.538 189.378L149.758 191.147L148.856 192.887L147.843 194.575L146.731 196.194L145.529 197.731L144.248 199.176L142.895 200.523L141.477 201.767L139.999 202.903L138.467 203.925L136.885 204.826L135.257 205.6L133.59 206.238L131.889 206.731L130.163 207.071L128.422 207.25L126.678 207.261L124.945 207.101L123.238 206.767L121.573 206.26L119.965 205.585L118.432 204.747L116.987 203.755L115.646 202.62L114.42 201.352L113.323 199.965L112.366 198.471L111.559 196.884L110.911 195.219L110.43 193.49L110.121 191.716L109.99 189.911L110.035 188.092L110.255 186.276L110.646 184.477L111.2 182.708L111.909 180.982L112.762 179.307L113.748 177.69L114.856 176.138L116.079 174.656L117.406 173.246L118.826 171.909L120.335 170.648L121.931 169.478L123.617 168.416L125.388 167.472L127.222 166.635L129.098 165.889L131.001 165.225L132.933 164.647L134.877 164.174L136.735 163.837L138.319 163.639L139.518 163.529L140.445 163.471L139.062 162.992L137.585 162.51L135.972 162.026L134.246 161.582L132.462 161.21L130.655 160.924L128.837 160.725L127.014 160.607L125.189 160.566L123.364 160.589L121.539 160.656L119.717 160.754L123.042 149.834L124.916 149.697L126.793 149.598L128.669 149.553L130.541 149.596L132.402 149.748L134.242 150.03L136.048 150.462L137.809 151.055L139.514 151.801L141.159 152.683L142.745 153.676L144.277 154.752L145.768 155.885L147.23 157.053L148.676 158.237L154.437 163.002L155.874 164.201L157.302 165.41L158.717 166.632L160.119 167.868L161.506 169.116L162.88 170.376L164.244 171.646L165.6 172.926L166.949 174.216L168.293 175.518L169.632 176.833L170.967 178.162L172.299 179.505L173.63 180.86L174.96 182.223L176.288 183.594L177.611 184.97L178.923 186.354L180.212 187.753L181.467 189.173L182.678 190.62L183.841 192.098L184.958 193.605L186.029 195.141L187.058 196.704L188.059 198.284L189.038 199.878L184.063 206.762L183.661 204.891L183.22 203.028L182.719 201.179L182.121 199.352L181.411 197.555L180.585 195.791L179.646 194.065L178.599 192.378L177.456 190.736L176.24 189.142L174.99 187.606L173.755 186.147L172.576 184.796L171.459 183.585L170.368 182.516L169.234 181.56L167.987 180.682ZM127.717 189.544L127.908 189.714L128.176 189.87L128.591 190.013L129.211 190.117L130.063 190.161L131.152 190.11L132.463 189.894L133.944 189.412L135.506 188.578L137.055 187.356L138.497 185.764L139.747 183.863L140.714 181.774L141.341 179.665L141.671 177.703L141.834 175.962L141.909 174.271L140.649 174.399L137.877 175.026L135.337 175.951L133.069 177.131L131.115 178.515L129.514 180.04L128.295 181.636L127.459 183.218L126.979 184.703L126.797 186.012L126.832 187.096L126.987 187.941L127.182 188.569L127.373 189.017L127.549 189.327L127.717 189.544Z" fill="white"/>
<path fill-rule="evenodd" clip-rule="evenodd" d="M179.998 168.639L179.183 167.239L178.425 165.704L177.721 164.075L177.069 162.392L176.472 160.69L175.943 159.011L175.499 157.429L175.151 156.037L174.893 154.918L174.707 154.078L174.564 153.418L175.638 153.418L176.733 153.403L177.877 153.367L179.105 153.297L180.447 153.177L181.913 152.99L183.495 152.712L185.168 152.32L186.904 151.798L188.671 151.145L190.436 150.362L192.171 149.458L193.855 148.442L195.47 147.327L197.002 146.122L198.444 144.838L199.787 143.481L201.028 142.059L202.161 140.578L203.18 139.041L204.079 137.455L204.851 135.823L205.487 134.152L205.979 132.447L206.318 130.716L206.497 128.97L206.508 127.222L206.348 125.484L206.014 123.772L205.509 122.103L204.836 120.492L204 118.954L203.011 117.506L201.879 116.161L200.614 114.932L199.231 113.832L197.74 112.872L196.157 112.063L194.497 111.413L192.773 110.931L191.003 110.622L189.203 110.49L187.389 110.535L185.577 110.756L183.783 111.148L182.019 111.703L180.297 112.414L178.627 113.269L177.014 114.257L175.466 115.369L173.988 116.595L172.581 117.925L171.248 119.35L169.991 120.862L168.823 122.462L167.764 124.153L166.823 125.928L165.988 127.767L165.244 129.648L164.581 131.556L164.005 133.493L163.533 135.442L163.197 137.305L163 138.894L162.89 140.096L162.832 141.025L162.354 139.638L161.873 138.157L161.391 136.54L160.948 134.81L160.577 133.02L160.292 131.209L160.093 129.387L159.976 127.559L159.934 125.729L159.958 123.899L160.024 122.07L160.122 120.242L149.23 123.576L149.094 125.455L148.996 127.337L148.951 129.218L148.993 131.095L149.145 132.961L149.426 134.805L149.858 136.616L150.448 138.382L151.193 140.092L152.073 141.741L153.062 143.331L154.136 144.867L155.266 146.362L156.43 147.828L157.612 149.277L162.364 155.054L163.56 156.494L164.767 157.926L165.985 159.345L167.217 160.75L168.463 162.141L169.719 163.519L170.986 164.886L172.262 166.246L173.549 167.598L174.847 168.946L176.159 170.288L177.485 171.627L178.824 172.963L180.175 174.297L181.535 175.63L182.902 176.962L184.275 178.289L185.655 179.604L187.05 180.896L188.467 182.154L189.91 183.368L191.384 184.535L192.887 185.654L194.419 186.728L195.978 187.76L197.554 188.763L199.144 189.745L206.009 184.757L204.143 184.354L202.286 183.912L200.441 183.41L198.619 182.811L196.827 182.098L195.068 181.27L193.346 180.328L191.663 179.279L190.025 178.133L188.436 176.914L186.904 175.66L185.449 174.422L184.101 173.24L182.893 172.121L181.828 171.027L180.874 169.89L179.998 168.639ZM188.837 128.264L189.007 128.455L189.162 128.723L189.304 129.14L189.409 129.762L189.452 130.616L189.402 131.708L189.186 133.022L188.705 134.506L187.873 136.073L186.655 137.626L185.066 139.072L183.171 140.325L181.087 141.295L178.984 141.924L177.027 142.254L175.29 142.417L173.604 142.493L173.731 141.229L174.356 138.45L175.28 135.903L176.457 133.629L177.836 131.67L179.358 130.065L180.949 128.843L182.528 128.005L184.008 127.524L185.315 127.342L186.396 127.376L187.238 127.532L187.865 127.727L188.312 127.919L188.621 128.095L188.837 128.264Z" fill="white"/>
</svg>
