<svg width="45" height="31" viewBox="0 0 45 31" fill="none" xmlns="http://www.w3.org/2000/svg">
<path d="M44.0062 4.83514C43.7481 3.90058 43.2446 3.04858 42.5458 2.36397C41.8471 1.67936 40.9775 1.18603 40.0237 0.9331C36.5316 0 22.4772 0 22.4772 0C22.4772 0 8.42206 0.0282444 4.92999 0.961344C3.97612 1.21429 3.10652 1.70764 2.40779 2.39229C1.70906 3.07693 1.20558 3.92897 0.947495 4.86356C-0.108775 10.9427 -0.518521 20.2058 0.976499 26.0417C1.23461 26.9763 1.7381 27.8283 2.43683 28.5129C3.13556 29.1975 4.00514 29.6908 4.959 29.9438C8.45107 30.8769 22.5058 30.8769 22.5058 30.8769C22.5058 30.8769 36.5604 30.8769 40.0523 29.9438C41.0062 29.6909 41.8758 29.1975 42.5746 28.5129C43.2734 27.8283 43.7769 26.9763 44.035 26.0417C45.1491 19.954 45.4924 10.6965 44.0062 4.83514Z" fill="#FF0000"/>
</svg>
