<svg width="39" height="25" viewBox="0 0 39 25" fill="none" xmlns="http://www.w3.org/2000/svg">
<g filter="url(#filter0_d_895_49)">
<path fill-rule="evenodd" clip-rule="evenodd" d="M38.5156 12.1799L36.4289 11.9591L34.5265 11.7517L32.8712 11.5649L31.2847 11.3753L29.6064 11.1438L27.9513 10.8426L26.4839 10.4755L25.1989 10.0549L24.0199 9.57759L22.89 9.03163L21.7793 8.41022L20.6969 7.72903L19.6693 7.00223L18.7133 6.21792L17.8354 5.35895L17.0319 4.4268L16.2909 3.43704L15.5977 2.40711L14.9336 1.35388L14.2902 0.285156L13.8073 1.51371L13.2896 2.72573L12.726 3.91497L12.0929 5.07143L11.3765 6.18765L10.5592 7.2505L9.61931 8.23663L8.54654 9.12036L7.34825 9.88389L6.04672 10.5234L4.66838 11.0466L3.238 11.475L1.77804 11.8457L0.302707 12.1799L0.39068 12.1999L0.286133 12.2109L0.573941 12.2414L1.77799 12.5141L3.23808 12.8848L4.66836 13.3131L6.04679 13.8364L7.34833 14.4759L8.54651 15.2394L9.61942 16.1231L10.5592 17.1093L11.3766 18.1721L12.0929 19.2883L12.726 20.4449L13.2896 21.6341L13.8073 22.846L14.2901 24.0746L14.9336 23.0059L15.5977 21.9526L16.2908 20.9227L17.032 19.933L17.8354 19.0008L18.7133 18.1419L19.6694 17.3576L20.6969 16.6307L21.7792 15.9496L22.89 15.3282L24.02 14.7822L25.199 14.3049L26.4839 13.8842L27.9513 13.5172L29.6064 13.216L31.2847 12.9844L32.8712 12.7948L34.5265 12.6081L36.4288 12.4007L38.5156 12.1799ZM0.573941 12.2414L1.44025 12.333L2.49242 12.4478L3.40796 12.5511L4.28544 12.6559L5.21365 12.784L6.12904 12.9506L6.94067 13.1536L7.65136 13.3862L8.30345 13.6502L8.92835 13.9522L9.5427 14.2959L10.1413 14.6726L10.7097 15.0746L11.2384 15.5084L11.724 15.9835L12.1684 16.499L12.5782 17.0464L12.9616 17.6161L13.3289 18.1986L13.6848 18.7897L13.9518 18.1102L14.2382 17.4399L14.5499 16.7821L14.9001 16.1425L15.2963 15.5251L15.7483 14.9373L16.2681 14.3919L16.8615 13.9031L17.5242 13.4808L18.2441 13.1271L19.0064 12.8377L19.7975 12.6008L20.605 12.3958L21.421 12.2109L20.605 12.0261L19.7975 11.8211L19.0064 11.5842L18.244 11.2947L17.5242 10.9411L16.8615 10.5188L16.2681 10.03L15.7483 9.48458L15.2962 8.89677L14.9001 8.27942L14.5499 7.63974L14.2382 6.98201L13.9518 6.31173L13.6848 5.63222L13.3289 6.22328L12.9616 6.80584L12.5783 7.37544L12.1683 7.92285L11.724 8.43843L11.2384 8.91344L10.7097 9.34726L10.1413 9.74928L9.54274 10.126L8.9284 10.4697L8.3034 10.7716L7.65133 11.0356L6.94064 11.2683L6.12906 11.4713L5.21366 11.6379L4.28544 11.766L3.40794 11.8709L2.49244 11.9741L1.44029 12.0888L0.39068 12.1999L0.573941 12.2414ZM9.76637 12.2047L9.81918 12.1799L9.86888 12.1519L10.4839 11.8071L10.5274 11.7854L10.5693 11.759L11.1673 11.3816L11.2123 11.352L11.8227 10.9218L11.8786 10.8815L11.9314 10.838L12.461 10.4046L12.5263 10.3518L12.5868 10.2913L13.0714 9.81601L13.1304 9.7601L13.1848 9.69642L13.3758 9.47432L13.7191 10.007L13.7688 10.0723L14.2192 10.6594L14.2813 10.7401L14.3527 10.8147L14.873 11.3598L14.9522 11.4452L15.0423 11.5167L15.7257 12.082L15.8251 12.1441L15.9291 12.2109L15.8251 12.2777L15.7257 12.3398L15.0423 12.9052L14.9522 12.9766L14.873 13.062L14.3527 13.6072L14.2813 13.6817L14.2192 13.7625L13.7688 14.3496L13.7191 14.4148L13.3758 14.9475L13.1848 14.7254L13.1304 14.6617L13.0714 14.6058L12.5868 14.1306L12.5263 14.07L12.461 14.0172L11.9314 13.5839L11.8786 13.5404L11.8227 13.5L11.2123 13.0698L11.1673 13.0403L10.5693 12.6629L10.5274 12.6365L10.4839 12.6147L9.86888 12.2699L9.81918 12.242L9.76637 12.2171L9.75084 12.2109L9.76637 12.2047Z" fill="white"/>
</g>
<defs>
<filter id="filter0_d_895_49" x="0.000418514" y="-0.000558048" width="38.8009" height="24.3605" filterUnits="userSpaceOnUse" color-interpolation-filters="sRGB">
<feFlood flood-opacity="0" result="BackgroundImageFix"/>
<feColorMatrix in="SourceAlpha" type="matrix" values="0 0 0 0 0 0 0 0 0 0 0 0 0 0 0 0 0 0 127 0" result="hardAlpha"/>
<feOffset/>
<feGaussianBlur stdDeviation="0.142857"/>
<feComposite in2="hardAlpha" operator="out"/>
<feColorMatrix type="matrix" values="0 0 0 0 0 0 0 0 0 0 0 0 0 0 0 0 0 0 0.25 0"/>
<feBlend mode="normal" in2="BackgroundImageFix" result="effect1_dropShadow_895_49"/>
<feBlend mode="normal" in="SourceGraphic" in2="effect1_dropShadow_895_49" result="shape"/>
</filter>
</defs>
</svg>
