<svg width="20" height="13" viewBox="0 0 20 13" fill="none" xmlns="http://www.w3.org/2000/svg">
<g filter="url(#filter0_d_896_351)">
<path fill-rule="evenodd" clip-rule="evenodd" d="M19.7223 6.23732L18.6538 6.12427L17.6796 6.01802L16.832 5.9224L16.0196 5.82531L15.1602 5.70676L14.3127 5.55252L13.5613 5.36456L12.9033 5.14918L12.2996 4.90477L11.721 4.6252L11.1523 4.30701L10.598 3.95819L10.0719 3.58603L9.58231 3.18442L9.13276 2.74457L8.72133 2.26725L8.34189 1.76044L7.9869 1.23305L7.64686 0.693735L7.31739 0.146484L7.07015 0.775575L6.80502 1.3962L6.51643 2.00517L6.19224 2.59734L5.82542 3.16892L5.40692 3.71316L4.92563 4.21812L4.37631 4.67064L3.76271 5.06161L3.09625 5.38907L2.39046 5.65701L1.65802 5.87634L0.91043 6.0662L0.154972 6.23733L0.200019 6.24753L0.146484 6.25319L0.293859 6.26879L0.910406 6.40844L1.65806 6.59827L2.39045 6.81757L3.09628 7.08555L3.76275 7.41299L4.3763 7.80397L4.92569 8.25646L5.4069 8.76145L5.82545 9.30566L6.19224 9.87723L6.51644 10.4695L6.80504 11.0784L7.07013 11.699L7.31738 12.3281L7.64689 11.7809L7.98692 11.2415L8.34184 10.7142L8.72136 10.2074L9.13276 9.73001L9.58228 9.29023L10.0719 8.88859L10.598 8.51639L11.1522 8.1676L11.721 7.84943L12.2996 7.56985L12.9033 7.32544L13.5613 7.11L14.3127 6.92206L15.1602 6.76786L16.0196 6.64927L16.832 6.55215L17.6796 6.45656L18.6537 6.35037L19.7223 6.23732ZM0.293859 6.26879L0.737462 6.31572L1.27624 6.37448L1.74505 6.42737L2.19437 6.48107L2.66967 6.54664L3.13841 6.63194L3.55401 6.7359L3.91792 6.85502L4.25183 6.9902L4.57182 7.14483L4.8864 7.32081L5.19293 7.51374L5.48395 7.71957L5.75471 7.9417L6.00335 8.18497L6.2309 8.44896L6.44076 8.72927L6.6371 9.02096L6.82517 9.31925L7.0074 9.62192L7.14414 9.27398L7.29078 8.93072L7.45039 8.59392L7.62969 8.2664L7.83258 7.95027L8.06404 7.64926L8.33023 7.36998L8.63405 7.1197L8.97342 6.90346L9.34203 6.72234L9.73239 6.57415L10.1375 6.45284L10.551 6.34784L10.9688 6.25319L10.551 6.15855L10.1375 6.05356L9.7324 5.93227L9.34201 5.78405L8.9734 5.60295L8.63406 5.38671L8.3302 5.13644L8.06405 4.85714L7.83256 4.55615L7.6297 4.24003L7.45038 3.91247L7.29077 3.57568L7.14415 3.23245L7.0074 2.8845L6.82515 3.18716L6.63709 3.48547L6.44079 3.77713L6.23088 4.05744L6.00335 4.32145L5.75473 4.56468L5.48395 4.78683L5.19294 4.99268L4.88643 5.18559L4.57184 5.36156L4.25181 5.51619L3.91791 5.65137L3.55399 5.77053L3.13841 5.87448L2.66967 5.95976L2.19437 6.02535L1.74504 6.07907L1.27625 6.13194L0.737482 6.19067L0.200019 6.24753L0.293859 6.26879ZM5.00094 6.25001L5.02798 6.23729L5.05342 6.22297L5.36836 6.04642L5.39063 6.03528L5.4121 6.02176L5.71829 5.82851L5.74135 5.8134L6.0539 5.5931L6.08253 5.57242L6.10957 5.55015L6.38076 5.32827L6.41417 5.30123L6.44518 5.27021L6.69331 5.02685L6.72354 4.99822L6.75137 4.96562L6.84919 4.85189L7.02495 5.12467L7.0504 5.15808L7.28103 5.4587L7.31284 5.50005L7.34943 5.53823L7.61585 5.81737L7.65641 5.86111L7.70254 5.8977L8.05246 6.18718L8.10336 6.21899L8.15665 6.25319L8.10336 6.28739L8.05246 6.3192L7.70254 6.60869L7.65641 6.64527L7.61585 6.68901L7.34943 6.96816L7.31284 7.00633L7.28103 7.04769L7.0504 7.34831L7.02495 7.38171L6.84919 7.65449L6.75137 7.54077L6.72353 7.50816L6.69331 7.47953L6.44518 7.23617L6.41417 7.20515L6.38076 7.17811L6.10957 6.95623L6.08253 6.93396L6.0539 6.91328L5.74135 6.69299L5.71829 6.67788L5.4121 6.48462L5.39063 6.4711L5.36836 6.45997L5.05342 6.28341L5.02798 6.2691L5.00094 6.25637L4.99298 6.25319L5.00094 6.25001Z" fill="white"/>
</g>
<defs>
<filter id="filter0_d_896_351" x="0.000181496" y="0.000181496" width="19.8688" height="12.4742" filterUnits="userSpaceOnUse" color-interpolation-filters="sRGB">
<feFlood flood-opacity="0" result="BackgroundImageFix"/>
<feColorMatrix in="SourceAlpha" type="matrix" values="0 0 0 0 0 0 0 0 0 0 0 0 0 0 0 0 0 0 127 0" result="hardAlpha"/>
<feOffset/>
<feGaussianBlur stdDeviation="0.0731514"/>
<feComposite in2="hardAlpha" operator="out"/>
<feColorMatrix type="matrix" values="0 0 0 0 0 0 0 0 0 0 0 0 0 0 0 0 0 0 0.25 0"/>
<feBlend mode="normal" in2="BackgroundImageFix" result="effect1_dropShadow_896_351"/>
<feBlend mode="normal" in="SourceGraphic" in2="effect1_dropShadow_896_351" result="shape"/>
</filter>
</defs>
</svg>
