<svg width="166" height="167" viewBox="0 0 166 167" fill="none" xmlns="http://www.w3.org/2000/svg">
<path d="M47.2951 124.538L47.3426 125.256L47.4148 125.973L46.9478 125.782L46.4752 125.609L45.9963 125.461L45.5096 125.344L45.0177 125.259L44.521 125.211L44.02 125.204L43.5181 125.24L43.0188 125.314L42.5256 125.423L42.0409 125.562L41.5637 125.723L41.094 125.903L40.6314 126.101L40.1743 126.311L39.7213 126.532L39.9408 126.077L40.1506 125.618L40.3472 125.154L40.5266 124.682L40.6875 124.203L40.8255 123.716L40.9341 123.221L41.0081 122.72L41.0433 122.216L41.0366 121.713L40.9885 121.214L40.9042 120.72L40.7879 120.232L40.6401 119.751L40.4677 119.276L40.2773 118.807L40.992 118.88L41.7069 118.927L42.4202 118.942L43.1292 118.907L43.8292 118.817L44.5159 118.663L45.1853 118.441L45.8342 118.149L46.4609 117.795L47.0663 117.395L47.6536 116.96L48.2273 116.506L48.7923 116.04L49.3526 115.571L49.9105 115.099L50.4667 114.626L51.0203 114.149L51.57 113.668L52.1148 113.181L52.6543 112.688L53.1883 112.19L53.7174 111.685L55.2807 110.179L55.7248 109.746L56.0617 109.409L56.3005 109.165L56.4737 108.987L56.6141 108.843L56.7686 108.685L57.0121 108.438L57.3866 108.061L57.8381 107.612L58.2907 107.168L59.1343 106.347L59.5348 105.951L59.9261 105.548L60.3107 105.126L60.6906 104.675L61.0666 104.192L61.4366 103.672L61.7963 103.119L62.1476 102.54L62.489 101.943L64.2086 101.946L64.2113 103.673L63.6173 104.015L63.0403 104.368L62.4891 104.729L61.9719 105.101L61.4903 105.478L61.0417 105.86L60.6213 106.246L60.2199 106.639L59.8256 107.041L59.0079 107.888L58.5651 108.342L58.118 108.795L57.7429 109.171L57.4967 109.416L57.3396 109.571L57.1962 109.712L57.0189 109.886L56.7758 110.126L56.4399 110.464L56.0081 110.91L54.5083 112.479L54.0061 113.011L53.5092 113.547L53.0181 114.088L52.5332 114.635L52.0541 115.187L51.5797 115.743L51.1083 116.302L50.6386 116.862L50.1706 117.424L49.7071 117.992L49.2542 118.568L48.8218 119.157L48.4226 119.765L48.0708 120.394L47.7798 121.046L47.558 121.718L47.4053 122.407L47.315 123.11L47.2806 123.822L47.295 124.531L47.2951 124.538Z" fill="white"/>
<path d="M23.6541 143.404L21.9725 144.351L22.9161 142.663L23.841 140.974L24.736 139.29L25.5867 137.612L26.3821 135.946L27.1095 134.294L27.7555 132.659L28.3125 131.047L28.7771 129.464L29.1488 127.917L29.4295 126.414L29.6238 124.959L29.7381 123.557L29.7815 122.208L29.7665 120.91L29.7079 119.657L29.618 118.444L29.5036 117.262L29.3737 116.102L29.2328 114.954L38.2773 114.057L38.4722 114.716L38.6608 115.377L38.8402 116.042L39.0062 116.711L39.1567 117.385L39.2876 118.065L39.3947 118.751L39.4755 119.443L39.5294 120.139L39.5563 120.837L39.5561 121.536L39.529 122.235L39.4754 122.93L39.3958 123.623L39.2928 124.311L39.1702 124.996L39.0321 125.677L38.8806 126.355L38.7198 127.031L38.5525 127.705L39.2239 127.537L39.8969 127.375L40.5723 127.223L41.2509 127.085L41.9327 126.962L42.6182 126.858L43.3078 126.778L44.0008 126.724L44.6963 126.697L45.3928 126.697L46.0884 126.724L46.7814 126.778L47.4701 126.859L48.1533 126.967L48.8305 127.098L49.5022 127.249L50.1688 127.416L50.8308 127.596L51.4892 127.785L52.1454 127.981L51.2529 137.062L50.1089 136.92L48.9536 136.79L47.7763 136.675L46.568 136.585L45.3205 136.526L44.0274 136.511L42.6833 136.555L41.2869 136.669L39.8381 136.864L38.3412 137.146L36.8007 137.519L35.224 137.986L33.618 138.545L31.99 139.194L30.3445 139.924L28.6848 140.723L27.0137 141.577L25.3359 142.475L23.6541 143.404Z" fill="white"/>
<path d="M124.04 47.4851L124.755 47.5328L125.469 47.6053L125.279 47.1364L125.107 46.6619L124.959 46.1811L124.843 45.6925L124.758 45.1985L124.71 44.6999L124.703 44.1969L124.739 43.693L124.813 43.1916L124.921 42.6965L125.059 42.2098L125.22 41.7308L125.4 41.2591L125.596 40.7947L125.806 40.3357L126.026 39.8809L125.572 40.1013L125.115 40.3119L124.653 40.5093L124.183 40.6894L123.706 40.851L123.221 40.9895L122.728 41.0986L122.229 41.1728L121.727 41.2082L121.226 41.2015L120.729 41.1532L120.237 41.0686L119.75 40.9518L119.272 40.8034L118.799 40.6304L118.332 40.4392L118.404 41.1567L118.452 41.8745L118.466 42.5906L118.432 43.3025L118.341 44.0053L118.189 44.6948L117.967 45.3669L117.676 46.0183L117.324 46.6476L116.925 47.2554L116.493 47.845L116.04 48.4211L115.576 48.9884L115.108 49.5509L114.638 50.111L114.167 50.6694L113.693 51.2252L113.214 51.7772L112.729 52.3242L112.238 52.8658L111.741 53.402L111.239 53.9332L109.739 55.5027L109.307 55.9487L108.971 56.2869L108.728 56.5266L108.551 56.7006L108.407 56.8415L108.25 56.9967L108.004 57.2411L107.629 57.6171L107.182 58.0705L106.739 58.5248L105.921 59.3719L105.527 59.7739L105.125 60.1668L104.705 60.553L104.256 60.9344L103.775 61.3119L103.258 61.6834L102.706 62.0446L102.129 62.3973L101.535 62.7401L101.538 64.4665L103.258 64.4693L103.599 63.8729L103.95 63.2935L104.31 62.7401L104.68 62.2209L105.056 61.7373L105.436 61.287L105.821 60.8648L106.212 60.4618L106.612 60.0659L107.456 59.245L107.909 58.8004L108.36 58.3514L108.735 57.9749L108.978 57.7277L109.133 57.57L109.273 57.426L109.446 57.2479L109.685 57.0039L110.022 56.6666L110.466 56.2331L112.029 54.7272L112.558 54.223L113.092 53.7241L113.632 53.2312L114.177 52.7443L114.726 52.2632L115.28 51.787L115.836 51.3136L116.394 50.842L116.954 50.3722L117.519 49.9068L118.093 49.4521L118.68 49.018L119.286 48.6172L119.913 48.2639L120.561 47.9718L121.231 47.7491L121.918 47.5957L122.618 47.5051L123.327 47.4706L124.033 47.485L124.04 47.4851Z" fill="white"/>
<path d="M142.83 23.7495L143.774 22.0611L142.092 23.0085L140.411 23.9372L138.733 24.8357L137.062 25.6898L135.402 26.4884L133.757 27.2187L132.128 27.8674L130.522 28.4266L128.946 28.893L127.405 29.2662L125.908 29.5481L124.46 29.7431L123.063 29.8578L121.719 29.9014L120.426 29.8864L119.178 29.8276L117.97 29.7373L116.793 29.6224L115.638 29.492L114.494 29.3506L113.601 38.4314L114.257 38.627L114.916 38.8164L115.578 38.9964L116.244 39.1632L116.916 39.3143L117.593 39.4458L118.276 39.5533L118.965 39.6344L119.658 39.6885L120.354 39.7154L121.05 39.7153L121.746 39.6881L122.439 39.6343L123.128 39.5544L123.814 39.4509L124.496 39.3278L125.174 39.1891L125.85 39.037L126.523 38.8756L127.194 38.7076L127.027 39.3817L126.866 40.0574L126.714 40.7356L126.576 41.4168L126.454 42.1014L126.351 42.7897L126.271 43.482L126.217 44.1778L126.19 44.8762L126.19 45.5754L126.217 46.2738L126.271 46.9696L126.352 47.6611L126.459 48.3471L126.59 49.027L126.74 49.7013L126.906 50.3706L127.086 51.0352L127.274 51.6963L127.469 52.3551L136.514 51.459L136.373 50.3105L136.243 49.1505L136.128 47.9685L136.039 46.7553L135.98 45.5028L135.965 44.2045L136.008 42.855L136.123 41.453L136.317 39.9984L136.598 38.4955L136.969 36.9488L137.434 35.3658L137.991 33.7534L138.637 32.1187L139.364 30.4666L140.16 28.8004L141.01 27.1225L141.905 25.438L142.83 23.7495Z" fill="white"/>
<path d="M124.04 118.927L124.754 118.879L125.469 118.807L125.279 119.276L125.106 119.75L124.958 120.231L124.842 120.72L124.758 121.214L124.71 121.712L124.703 122.215L124.738 122.719L124.812 123.221L124.921 123.716L125.059 124.202L125.22 124.681L125.399 125.153L125.596 125.617L125.806 126.076L126.025 126.531L125.572 126.311L125.115 126.1L124.652 125.903L124.183 125.723L123.706 125.561L123.221 125.423L122.728 125.314L122.228 125.239L121.726 125.204L121.225 125.211L120.729 125.259L120.237 125.344L119.75 125.46L119.271 125.609L118.799 125.782L118.332 125.973L118.404 125.255L118.451 124.538L118.466 123.822L118.431 123.11L118.341 122.407L118.188 121.717L117.967 121.045L117.676 120.394L117.324 119.765L116.925 119.157L116.492 118.567L116.039 117.991L115.576 117.424L115.108 116.861L114.638 116.301L114.167 115.743L113.692 115.187L113.213 114.635L112.728 114.088L112.237 113.546L111.74 113.01L111.238 112.479L109.738 110.91L109.307 110.464L108.971 110.125L108.728 109.886L108.407 109.571L108.25 109.416L108.004 109.171L107.628 108.795L107.181 108.342L106.739 107.887L105.921 107.04L105.527 106.638L105.125 106.245L104.705 105.859L104.256 105.478L103.775 105.1L103.257 104.729L102.706 104.368L102.129 104.015L101.535 103.672L101.538 101.946L103.257 101.943L103.599 102.539L103.95 103.119L104.31 103.672L104.68 104.191L105.056 104.675L105.436 105.125L105.82 105.547L106.212 105.95L106.612 106.346L107.456 107.167L107.908 107.612L108.36 108.061L108.734 108.437L108.978 108.685L109.132 108.842L109.446 109.164L109.685 109.408L110.022 109.746L110.466 110.179L112.029 111.685L112.558 112.189L113.092 112.688L113.632 113.181L114.176 113.668L114.726 114.149L115.28 114.625L115.836 115.099L116.394 115.57L116.954 116.04L117.519 116.505L118.093 116.96L118.68 117.394L119.285 117.795L119.912 118.148L120.561 118.44L121.23 118.663L121.917 118.816L122.617 118.907L123.326 118.942L124.04 118.927Z" fill="white"/>
<path d="M142.83 142.663L143.773 144.351L142.092 143.403L140.41 142.475L138.732 141.576L137.061 140.722L135.401 139.924L133.756 139.193L132.128 138.545L130.522 137.986L128.945 137.519L127.405 137.146L125.908 136.864L124.459 136.669L123.062 136.554L121.718 136.511L120.425 136.526L119.178 136.585L117.969 136.675L116.792 136.79L115.637 136.92L114.493 137.062L113.6 127.981L114.257 127.785L114.915 127.596L115.577 127.416L116.244 127.249L116.915 127.098L117.592 126.966L118.276 126.859L118.964 126.778L119.657 126.724L120.353 126.697L121.049 126.697L121.745 126.724L122.438 126.778L123.128 126.858L123.813 126.961L124.495 127.084L125.173 127.223L125.849 127.375L126.522 127.537L127.193 127.705L127.026 127.03L126.865 126.355L126.714 125.677L126.576 124.995L126.453 124.311L126.35 123.622L126.27 122.93L126.217 122.234L126.19 121.536L126.19 120.837L126.216 120.138L126.27 119.443L126.351 118.751L126.458 118.065L126.589 117.385L126.74 116.711L126.906 116.042L127.085 115.377L127.274 114.716L127.469 114.057L136.513 114.953L136.372 116.102L136.242 117.262L136.128 118.444L136.038 119.657L135.979 120.909L135.964 122.208L136.008 123.557L136.122 124.959L136.316 126.414L136.597 127.917L136.969 129.463L137.433 131.046L137.99 132.659L138.636 134.293L139.364 135.945L140.159 137.612L141.01 139.29L141.905 140.974L142.82 142.646L142.83 142.663Z" fill="white"/>
<path fill-rule="evenodd" clip-rule="evenodd" d="M84.7246 54.484L82.8732 54.4981L81.0218 54.4839L81.0224 53.9093L81.0208 53.3043L81.0076 52.6564L80.9658 51.9782L80.8782 51.2928L80.7325 50.618L80.5188 49.966L80.2277 49.3491L79.853 48.7805L79.3964 48.2721L78.8689 47.8321L78.2868 47.4627L77.6661 47.1588L77.0211 46.9094L76.3641 46.7027L75.7041 46.5322L75.0388 46.3932L74.3562 46.2698L73.656 46.1232L72.962 45.902L72.3049 45.5753L71.7045 45.1502L71.1726 44.6545L70.7148 44.1106L70.3291 43.5276L70.0063 42.9121L69.7347 42.2743L69.5027 41.6247L69.2957 40.9707L69.1085 40.3128L74.6849 38.9882L74.6765 39.365L74.6733 39.7455L74.6814 40.1308L74.713 40.5183L74.7818 40.9013L74.9002 41.2697L75.0753 41.6129L75.3078 41.9223L75.5922 42.1903L75.9188 42.4098L76.2772 42.5729L76.6573 42.6731L77.0511 42.7061L77.451 42.672L77.8491 42.5758L78.2361 42.4262L78.6031 42.2312L78.9424 41.9957L79.2472 41.7218L79.512 41.4114L79.7344 41.0682L79.9155 40.6973L80.0597 40.304L80.1732 39.895L80.2617 39.4868L80.3305 39.1065L80.3861 38.7711L80.4341 38.4687L80.3971 38.4081L80.319 38.2925L80.1528 38.0638L79.8547 37.7046L79.4247 37.2495L78.891 36.7536L78.2635 36.2653L77.5359 35.8129L76.7062 35.4064L75.7786 35.0464L74.7588 34.7325L73.6504 34.4637L72.4589 34.2379L71.1957 34.0533L69.8735 33.909L68.5037 33.8004L67.1017 33.7145L65.6845 33.6428L66.2632 33.4028L66.7881 33.1523L67.243 32.902L67.6447 32.6458L68.0238 32.3784L68.3964 32.0964L68.7621 31.7956L69.1135 31.4705L69.4429 31.1186L69.7438 30.7426L70.0118 30.3479L70.2436 29.9412L70.4376 29.5294L70.5936 29.1194L70.7128 28.7162L70.7974 28.3235L70.8502 27.9436L70.874 27.5773L70.8717 27.2244L70.8459 26.8844L70.7986 26.5561L70.7309 26.2385L70.6436 25.9309L70.5367 25.6328L70.4103 25.3438L70.264 25.0644L70.0978 24.7951L69.9118 24.5366L69.7063 24.29L69.482 24.0565L69.2401 23.8375L68.9819 23.6341L68.7087 23.4475L68.4225 23.2783L68.1248 23.127L67.8175 22.9933L67.5025 22.8769L67.1814 22.7772L66.8559 22.6935L66.5275 22.6259L66.1977 22.5746L65.868 22.5409L65.5398 22.5264L65.2153 22.533L64.8961 22.5624L64.5846 22.6159L64.2832 22.6943L63.9943 22.7976L63.7204 22.9254L63.4642 23.0763L63.228 23.2491L63.0139 23.4416L62.8238 23.6514L62.6586 23.8763L62.5193 24.1135L62.4062 24.3605L62.3194 24.6143L62.259 24.8722L62.225 25.1315L62.2176 25.3891L62.237 25.6423L62.2832 25.8883L62.3566 26.1243L62.457 26.3478L62.5843 26.5561L62.7378 26.7464L62.9166 26.9153L63.1194 27.0584L63.3433 27.1708L63.5842 27.2467L63.8354 27.2806L64.0884 27.2681L64.3331 27.2073L64.5587 27.0991L64.7553 26.947L64.9154 26.7573L65.0361 26.5377L65.1195 26.2962L65.1717 26.0398L65.1967 25.7746L65.1927 25.5064L65.1569 25.2391L65.0966 24.9731L65.0155 24.7103L65.47 24.9085L65.9135 25.1431L66.3411 25.422L66.739 25.759L67.0991 26.1471L67.413 26.5763L67.6656 27.0464L67.8351 27.5613L67.8985 28.1185L67.8382 28.7035L67.6452 29.293L67.3203 29.8589L66.8725 30.3741L66.3172 30.8154L65.6741 31.1656L64.965 31.4138L64.2109 31.5546L63.4311 31.5859L62.6437 31.5068L61.8663 31.3174L61.1163 31.0191L60.4108 30.6154L59.7664 30.1124L59.1983 29.5188L58.7193 28.8465L58.3395 28.1092L58.066 27.3221L57.9022 26.5011L57.8488 25.6616L57.9034 24.8187L58.0619 23.9856L58.3183 23.1745L58.6658 22.3957L59.0974 21.6586L59.6055 20.9715L60.1826 20.3419L60.8209 19.7773L61.5122 19.2843L62.2475 18.8691L63.0168 18.5372L63.8092 18.2923L64.6135 18.1364L65.4179 18.0686L66.2113 18.0858L66.9838 18.1825L67.727 18.3511L68.4345 18.5832L69.1016 18.87L69.7255 19.2032L70.3041 19.5759L70.8361 19.982L71.3204 20.4171L71.7561 20.8774L72.1427 21.36L72.4797 21.862L72.7677 22.3807L73.0077 22.9134L73.2015 23.4574L73.3519 24.0102L73.4617 24.5697L73.5338 25.1339L73.5697 25.7008L73.5707 26.2687L73.5379 26.8361L73.4719 27.4015L73.3692 27.9621L73.2236 28.5139L73.0333 29.0545L72.8103 29.5874L72.5626 30.1124L73.2305 29.6293L73.9071 29.0987L74.6204 28.4694L75.3687 27.6899L76.1192 26.7695L76.8368 25.75L77.5001 24.6507L78.0989 23.4761L78.633 22.2334L79.1079 20.9312L79.5298 19.5788L79.9055 18.1846L80.2434 16.7549L80.5521 15.2963L80.8391 13.8148L81.1102 12.3134L81.3718 10.7967L81.6336 9.26862L81.9002 7.73192L82.1598 6.18897L82.3887 4.6429L82.5751 3.09568L82.731 1.54793L82.8734 0L83.0157 1.54788L83.1717 3.09564L83.3581 4.64296L83.587 6.18895L83.8465 7.73188L84.1131 9.26864L84.3749 10.7966L84.6366 12.3135L84.9077 13.8147L85.1946 15.2963L85.5033 16.7548L85.8412 18.1846L86.2169 19.5787L86.6387 20.9312L87.1137 22.2334L87.6478 23.4761L88.2466 24.6507L88.9098 25.75L89.6274 26.7695L90.378 27.6898L91.1262 28.4694L91.8395 29.0987L92.5161 29.6293L93.1841 30.1124L92.9364 29.5873L92.7134 29.0544L92.523 28.5139L92.3774 27.9621L92.2748 27.4014L92.2087 26.836L92.1759 26.2686L92.1769 25.7007L92.2129 25.1338L92.285 24.5696L92.3948 24.0102L92.5451 23.4574L92.739 22.9133L92.979 22.3806L93.2669 21.8619L93.604 21.36L93.9906 20.8774L94.4263 20.417L94.9106 19.9819L95.4426 19.5758L96.0211 19.2032L96.645 18.8699L97.3123 18.5831L98.0198 18.351L98.7629 18.1824L99.5354 18.0857L100.329 18.0684L101.133 18.1362L101.937 18.2923L102.73 18.5371L103.499 18.869L104.234 19.2841L104.926 19.7771L105.564 20.3418L106.141 20.9713L106.649 21.6585L107.081 22.3956L107.428 23.1743L107.685 23.9855L107.843 24.8186L107.898 25.6615L107.844 26.5009L107.681 27.3219L107.407 28.109L107.027 28.8464L106.548 29.5187L105.98 30.1122L105.336 30.6152L104.63 31.0189L103.88 31.3172L103.103 31.5067L102.316 31.5858L101.536 31.5545L100.782 31.4137L100.073 31.1655L99.4295 30.8153L98.8741 30.374L98.4263 29.8588L98.1015 29.2928L97.9085 28.7034L97.8482 28.1183L97.9116 27.5612L98.081 27.0463L98.3337 26.5762L98.6476 26.147L99.0077 25.7589L99.4056 25.4219L99.8332 25.143L100.277 24.9084L100.731 24.7101L100.65 24.9729L100.59 25.239L100.554 25.5063L100.55 25.7745L100.575 26.0397L100.627 26.2961L100.711 26.5377L100.831 26.7572L100.991 26.9469L101.188 27.099L101.414 27.2072L101.658 27.268L101.911 27.2805L102.162 27.2466L102.403 27.1707L102.627 27.0583L102.83 26.9151L103.009 26.7463L103.162 26.556L103.29 26.3477L103.39 26.1242L103.463 25.8881L103.51 25.6422L103.529 25.389L103.522 25.1313L103.488 24.8721L103.427 24.6141L103.34 24.3603L103.227 24.1134L103.088 23.8762L102.923 23.6514L102.733 23.4414L102.519 23.249L102.282 23.0762L102.026 22.9252L101.752 22.7975L101.464 22.6942L101.162 22.6158L100.851 22.5623L100.531 22.5329L100.207 22.5263L99.8788 22.5408L99.549 22.5745L99.2192 22.6257L98.8908 22.6934L98.5653 22.7771L98.2442 22.8768L97.9292 22.9932L97.6219 23.1269L97.3242 23.2782L97.038 23.4473L96.7648 23.6341L96.5066 23.8374L96.2647 24.0565L96.0404 24.2899L95.8348 24.5365L95.6488 24.795L95.4826 25.0643L95.3364 25.3437L95.21 25.6326L95.1031 25.9308L95.0158 26.2384L94.9481 26.5559L94.9007 26.8843L94.8749 27.2243L94.8727 27.5772L94.8965 27.9435L94.9492 28.3234L95.0338 28.7161L95.1531 29.1192L95.3091 29.5294L95.503 29.9411L95.7348 30.3478L96.0028 30.7425L96.3037 31.1185L96.6331 31.4704L96.9845 31.7955L97.3502 32.0963L97.7228 32.3782L98.102 32.6457L98.5036 32.9019L98.9585 33.1522L99.4834 33.4026L100.062 33.6427L98.6449 33.7144L97.2428 33.8003L95.8732 33.909L94.5509 34.0532L93.2877 34.2378L92.0963 34.4636L90.9878 34.7324L89.968 35.0464L89.0404 35.4064L88.2107 35.8129L87.4831 36.2652L86.8556 36.7535L86.3219 37.2495L85.8919 37.7046L85.5938 38.0637L85.4276 38.2925L85.3495 38.4082L85.3125 38.4687L85.3605 38.7711L85.416 39.1065L85.4849 39.4868L85.5734 39.895L85.6869 40.304L85.8311 40.6973L86.0122 41.0682L86.2345 41.4114L86.4994 41.7217L86.8041 41.9957L87.1434 42.2311L87.5105 42.4261L87.8975 42.5758L88.2956 42.6719L88.6955 42.706L89.0892 42.6731L89.4694 42.5729L89.8277 42.4097L90.1544 42.1903L90.4387 41.9223L90.6712 41.6129L90.8463 41.2697L90.9647 40.9012L91.0335 40.5183L91.0651 40.1307L91.0732 39.7454L91.0701 39.365L91.0616 38.9882L96.638 40.3126L96.4508 40.9706L96.2438 41.6246L96.0118 42.2742L95.7402 42.912L95.4174 43.5275L95.0318 44.1105L94.5739 44.6545L94.042 45.1501L93.4417 45.5753L92.7846 45.9019L92.0906 46.1231L91.3903 46.2697L90.7077 46.3931L90.0424 46.5321L89.3824 46.7027L88.7254 46.9093L88.0804 47.1588L87.4597 47.4626L86.8776 47.832L86.3501 48.2721L85.8935 48.7805L85.5188 49.3492L85.2277 49.966L85.0141 50.618L84.8683 51.2928L84.7807 51.9781L84.7389 52.6564L84.7257 53.3043L84.7241 53.9093L84.7246 54.484ZM83.0045 20.2219L82.8738 18.9817L82.8725 18.9941L82.7431 20.2219L82.6203 21.3524L82.5098 22.3362L82.3976 23.279L82.2605 24.2764L82.0822 25.2601L81.8649 26.1322L81.6159 26.8959L81.3334 27.5965L81.0102 28.268L80.6424 28.9282L80.2392 29.5713L79.809 30.182L79.3447 30.7503L78.8363 31.272L78.2845 31.7495L77.6986 32.1899L77.089 32.6019L76.4656 32.9965L75.833 33.3789L76.5602 33.6659L77.2776 33.9736L77.9815 34.3085L78.6661 34.6848L79.3268 35.1105L79.9559 35.5962L80.5397 36.1548L81.0627 36.7924L81.5147 37.5045L81.8932 38.278L82.203 39.0971L82.4565 39.9472L82.6759 40.8149L82.8737 41.6917L83.0716 40.8148L83.291 39.9472L83.5445 39.0972L83.8543 38.2779L84.2328 37.5044L84.6848 36.7923L85.2078 36.1547L85.7916 35.5962L86.4206 35.1104L87.0814 34.6847L87.7659 34.3085L88.4699 33.9735L89.1873 33.6658L89.9145 33.3789L89.2819 32.9965L88.6585 32.6018L88.0489 32.1899L87.4629 31.7495L86.9112 31.2719L86.4028 30.7503L85.9385 30.1821L85.5083 29.5714L85.1051 28.9282L84.7373 28.268L84.4141 27.5965L84.1316 26.8959L83.8826 26.1321L83.6653 25.2601L83.4871 24.2765L83.35 23.279L83.2377 22.3362L83.1273 21.3524L83.0045 20.2219Z" fill="white"/>
<path fill-rule="evenodd" clip-rule="evenodd" d="M111.481 81.3474L111.467 83.2063L111.481 85.0651L112.053 85.0645L112.656 85.0661L113.301 85.0794L113.977 85.1214L114.659 85.2093L115.331 85.3556L115.981 85.5702L116.595 85.8624L117.161 86.2386L117.668 86.697L118.106 87.2266L118.474 87.8111L118.777 88.4342L119.025 89.0819L119.231 89.7415L119.401 90.4042L119.539 91.0721L119.662 91.7575L119.808 92.4605L120.028 93.1573L120.354 93.817L120.777 94.4198L121.271 94.9538L121.813 95.4135L122.393 95.8008L123.006 96.1248L123.642 96.3976L124.289 96.6304L124.94 96.8383L125.595 97.0262L126.915 91.4275L126.539 91.4359L126.16 91.4391L125.777 91.4309L125.391 91.3992L125.009 91.3302L124.642 91.2113L124.3 91.0355L123.992 90.802L123.725 90.5165L123.507 90.1885L123.344 89.8288L123.244 89.4471L123.212 89.0518L123.246 88.6503L123.341 88.2506L123.49 87.862L123.685 87.4935L123.919 87.1528L124.192 86.8468L124.501 86.581L124.843 86.3577L125.212 86.1759L125.604 86.0311L126.011 85.9171L126.418 85.8283L126.797 85.7592L127.131 85.7034L127.432 85.6552L127.492 85.6923L127.608 85.7707L127.835 85.9376L128.193 86.2369L128.646 86.6687L129.14 87.2044L129.627 87.8345L130.077 88.565L130.482 89.3981L130.841 90.3294L131.153 91.3533L131.421 92.4661L131.646 93.6624L131.83 94.9306L131.973 96.2582L132.082 97.6334L132.167 99.0411L132.239 100.464L132.478 99.8829L132.727 99.356L132.976 98.8992L133.232 98.496L133.498 98.1153L133.779 97.7412L134.078 97.374L134.402 97.0212L134.753 96.6905L135.127 96.3884L135.52 96.1193L135.925 95.8866L136.336 95.6918L136.744 95.5352L137.146 95.4155L137.537 95.3305L137.915 95.2776L138.28 95.2537L138.631 95.2559L138.97 95.2818L139.297 95.3294L139.613 95.3974L139.92 95.485L140.217 95.5923L140.504 95.7192L140.783 95.8661L141.051 96.0329L141.308 96.2197L141.554 96.4261L141.787 96.6512L142.005 96.8941L142.207 97.1534L142.393 97.4276L142.562 97.715L142.712 98.0139L142.845 98.3224L142.961 98.6387L143.061 98.9611L143.144 99.2879L143.212 99.6176L143.263 99.9487L143.296 100.28L143.311 100.609L143.304 100.935L143.275 101.256L143.221 101.568L143.143 101.871L143.04 102.161L142.913 102.436L142.763 102.693L142.591 102.93L142.399 103.145L142.19 103.336L141.966 103.502L141.73 103.642L141.484 103.755L141.231 103.843L140.974 103.903L140.716 103.937L140.459 103.945L140.207 103.925L139.962 103.879L139.727 103.805L139.504 103.704L139.297 103.577L139.107 103.423L138.939 103.243L138.797 103.039L138.685 102.815L138.609 102.573L138.575 102.321L138.588 102.066L138.648 101.821L138.756 101.594L138.908 101.397L139.097 101.236L139.315 101.115L139.556 101.031L139.811 100.979L140.075 100.954L140.342 100.958L140.609 100.994L140.874 101.054L141.135 101.136L140.938 100.679L140.704 100.234L140.427 99.8048L140.091 99.4053L139.704 99.0437L139.277 98.7286L138.809 98.4749L138.296 98.3048L137.741 98.2411L137.158 98.3017L136.571 98.4954L136.007 98.8216L135.494 99.2712L135.055 99.8288L134.706 100.474L134.459 101.186L134.318 101.944L134.287 102.726L134.366 103.517L134.555 104.297L134.852 105.051L135.254 105.759L135.755 106.406L136.346 106.976L137.016 107.457L137.75 107.838L138.534 108.113L139.352 108.278L140.188 108.331L141.027 108.276L141.857 108.117L142.665 107.86L143.441 107.511L144.175 107.078L144.859 106.567L145.486 105.988L146.049 105.347L146.54 104.653L146.953 103.915L147.284 103.142L147.528 102.347L147.683 101.539L147.751 100.732L147.733 99.9351L147.637 99.1595L147.469 98.4133L147.238 97.703L146.952 97.0331L146.62 96.4067L146.249 95.8258L145.845 95.2917L145.411 94.8055L144.953 94.368L144.472 93.9799L143.972 93.6415L143.456 93.3523L142.925 93.1114L142.383 92.9168L141.833 92.7658L141.275 92.6555L140.714 92.5832L140.149 92.5471L139.583 92.5461L139.018 92.579L138.455 92.6454L137.897 92.7484L137.347 92.8947L136.809 93.0857L136.278 93.3096L135.755 93.5583L136.236 92.8877L136.765 92.2084L137.391 91.4922L138.168 90.7409L139.084 89.9873L140.1 89.2669L141.195 88.601L142.365 87.9998L143.602 87.4635L144.899 86.9867L146.246 86.5631L147.635 86.1858L149.059 85.8466L150.512 85.5366L151.987 85.2486L153.483 84.9764L154.993 84.7137L156.515 84.4509L158.046 84.1831L159.583 83.9225L161.123 83.6928L162.664 83.5056L164.205 83.349L165.747 83.2061L164.205 83.0632L162.664 82.9066L161.122 82.7194L159.583 82.4896L158.046 82.2291L156.515 81.9613L154.993 81.6985L153.483 81.4357L151.987 81.1636L150.512 80.8755L149.059 80.5656L147.635 80.2263L146.246 79.8491L144.899 79.4256L143.602 78.9487L142.365 78.4125L141.195 77.8112L140.1 77.1454L139.084 76.4249L138.168 75.6714L137.391 74.9202L136.765 74.2039L136.236 73.5246L135.755 72.8539L136.278 73.1027L136.809 73.3266L137.347 73.5176L137.897 73.6639L138.455 73.7669L139.018 73.8333L139.583 73.8662L140.149 73.8652L140.714 73.8291L141.275 73.7567L141.833 73.6464L142.383 73.4954L142.925 73.3009L143.456 73.0599L143.972 72.7708L144.472 72.4324L144.953 72.0443L145.412 71.6067L145.845 71.1205L146.249 70.5864L146.621 70.0055L146.952 69.3791L147.238 68.7092L147.469 67.9989L147.637 67.2527L147.734 66.4771L147.751 65.6805L147.683 64.8729L147.528 64.0655L147.284 63.2698L146.953 62.4974L146.54 61.7593L146.049 61.0652L145.486 60.4243L144.859 59.8448L144.175 59.3347L143.441 58.9014L142.665 58.5525L141.857 58.2951L141.028 58.136L140.188 58.0811L139.352 58.1348L138.534 58.2992L137.75 58.5739L137.016 58.9552L136.346 59.4361L135.755 60.0065L135.254 60.6534L134.852 61.3617L134.555 62.1148L134.366 62.8954L134.287 63.6858L134.319 64.4687L134.459 65.226L134.706 65.9379L135.055 66.5835L135.494 67.1411L136.007 67.5907L136.571 67.9168L137.158 68.1106L137.741 68.1712L138.296 68.1075L138.809 67.9374L139.277 67.6837L139.704 67.3686L140.091 67.007L140.427 66.6075L140.704 66.1782L140.938 65.7329L141.136 65.2766L140.874 65.3581L140.609 65.4186L140.343 65.4545L140.075 65.4586L139.811 65.4334L139.556 65.381L139.315 65.2973L139.097 65.1762L138.908 65.0154L138.756 64.818L138.648 64.5915L138.588 64.3458L138.576 64.0918L138.609 63.8395L138.685 63.5978L138.797 63.3729L138.939 63.1693L139.108 62.9897L139.297 62.8356L139.505 62.7079L139.727 62.6071L139.962 62.5334L140.207 62.4869L140.459 62.4674L140.716 62.4749L140.974 62.5091L141.231 62.5697L141.484 62.6568L141.73 62.7704L141.966 62.9102L142.19 63.076L142.399 63.267L142.591 63.4819L142.763 63.7191L142.913 63.9763L143.041 64.2512L143.143 64.5413L143.221 64.844L143.275 65.1567L143.304 65.4771L143.311 65.803L143.296 66.1324L143.263 66.4635L143.212 66.7946L143.144 67.1243L143.061 67.4512L142.962 67.7735L142.846 68.0898L142.712 68.3984L142.562 68.6972L142.393 68.9846L142.207 69.2589L142.005 69.5181L141.787 69.761L141.554 69.9862L141.308 70.1926L141.051 70.3794L140.783 70.5462L140.505 70.693L140.217 70.82L139.92 70.9272L139.613 71.0149L139.297 71.0829L138.97 71.1305L138.631 71.1564L138.28 71.1586L137.915 71.1347L137.537 71.0817L137.146 70.9968L136.744 70.8771L136.336 70.7205L135.926 70.5258L135.52 70.293L135.127 70.024L134.753 69.7218L134.402 69.3912L134.079 69.0383L133.779 68.6712L133.498 68.297L133.232 67.9164L132.977 67.513L132.727 67.0563L132.478 66.5294L132.239 65.9483L132.167 67.3712L132.082 68.7789L131.974 70.1541L131.83 71.4817L131.646 72.75L131.421 73.9462L131.153 75.0591L130.841 76.083L130.482 77.0143L130.077 77.8474L129.627 78.5778L129.14 79.2079L128.646 79.7438L128.193 80.1754L127.835 80.4747L127.608 80.6416L127.492 80.72L127.432 80.7572L127.131 80.7089L126.797 80.6532L126.418 80.584L126.011 80.4952L125.604 80.3813L125.212 80.2365L124.843 80.0547L124.501 79.8315L124.192 79.5655L123.919 79.2596L123.685 78.9189L123.49 78.5504L123.341 78.1618L123.246 77.7621L123.212 77.3606L123.244 76.9653L123.344 76.5835L123.507 76.2238L123.725 75.8959L123.992 75.6104L124.3 75.3769L124.642 75.2011L125.009 75.0822L125.391 75.0131L125.777 74.9814L126.16 74.9733L126.539 74.9764L126.915 74.985L125.595 69.3862L124.94 69.5741L124.289 69.782L123.642 70.0149L123.006 70.2876L122.393 70.6117L121.813 70.9989L121.271 71.4586L120.777 71.9927L120.354 72.5953L120.028 73.2551L119.808 73.9519L119.662 74.655L119.539 75.3403L119.401 76.0082L119.231 76.6709L119.025 77.3305L118.777 77.9782L118.474 78.6014L118.106 79.1858L117.668 79.7154L117.161 80.1738L116.595 80.5501L115.981 80.8423L115.331 81.0568L114.659 81.2032L113.977 81.2911L113.301 81.333L112.656 81.3464L112.053 81.348L111.481 81.3474ZM145.606 83.0748L146.841 83.206L146.829 83.2073L145.606 83.3372L144.48 83.4605L143.5 83.5715L142.561 83.6842L141.567 83.8217L140.588 84.0008L139.719 84.2189L138.958 84.4689L138.261 84.7525L137.592 85.0771L136.934 85.4464L136.294 85.8512L135.685 86.2831L135.119 86.7493L134.6 87.2598L134.124 87.8137L133.686 88.4019L133.275 89.014L132.882 89.6399L132.501 90.2751L132.216 89.545L131.909 88.8246L131.575 88.1179L131.201 87.4306L130.777 86.7672L130.293 86.1356L129.737 85.5495L129.102 85.0244L128.392 84.5705L127.622 84.1905L126.806 83.8795L125.959 83.625L125.095 83.4047L124.222 83.2061L125.095 83.0074L125.959 82.7872L126.806 82.5326L127.622 82.2216L128.392 81.8416L129.102 81.3877L129.737 80.8626L130.293 80.2765L130.777 79.6449L131.201 78.9815L131.576 78.2941L131.909 77.5874L132.216 76.8672L132.501 76.137L132.882 76.7722L133.275 77.3981L133.686 78.0101L134.124 78.5984L134.6 79.1524L135.12 79.6628L135.685 80.1289L136.294 80.5609L136.934 80.9657L137.592 81.335L138.261 81.6595L138.959 81.9431L139.719 82.1931L140.588 82.4113L141.567 82.5902L142.561 82.7279L143.5 82.8406L144.48 82.9515L145.606 83.0748Z" fill="white"/>
<path fill-rule="evenodd" clip-rule="evenodd" d="M110.945 58.9517L111.399 58.6851L111.898 58.4371L112.428 58.2068L112.975 57.9934L113.528 57.7981L114.073 57.6251L114.587 57.4799L115.04 57.3659L115.403 57.2816L115.676 57.2209L115.891 57.1739L115.891 57.5254L115.896 57.8836L115.907 58.2576L115.93 58.6593L115.969 59.0983L116.03 59.5782L116.12 60.0954L116.248 60.643L116.417 61.2109L116.63 61.7887L116.884 62.3661L117.178 62.9338L117.508 63.4846L117.87 64.0128L118.262 64.514L118.679 64.9856L119.12 65.4252L119.582 65.8312L120.064 66.2018L120.563 66.5352L121.078 66.8292L121.608 67.0817L122.152 67.2899L122.706 67.4508L123.268 67.5616L123.835 67.62L124.404 67.6236L124.968 67.5713L125.525 67.4623L126.067 67.297L126.591 67.0766L127.09 66.8033L127.561 66.4797L127.998 66.1093L128.398 65.6957L128.755 65.2431L129.067 64.7556L129.33 64.2378L129.541 63.6945L129.698 63.1306L129.798 62.5516L129.841 61.9627L129.826 61.3693L129.755 60.7766L129.627 60.1897L129.447 59.6126L129.216 59.0494L128.938 58.503L128.617 57.9755L128.255 57.469L127.857 56.9854L127.425 56.5254L126.962 56.0892L126.471 55.6779L125.951 55.2959L125.401 54.9495L124.824 54.6415L124.226 54.3686L123.615 54.1251L122.995 53.9084L122.366 53.7199L121.732 53.5655L121.127 53.4555L120.611 53.391L120.22 53.3551L119.918 53.3361L120.369 53.1798L120.85 53.0224L121.376 52.8647L121.938 52.7198L122.519 52.5985L123.108 52.5052L123.7 52.4402L124.294 52.4017L124.889 52.3881L125.484 52.3958L126.078 52.4176L126.672 52.4497L125.589 48.8866L124.978 48.8421L124.366 48.8099L123.755 48.7952L123.145 48.809L122.539 48.8586L121.939 48.9507L121.351 49.0918L120.777 49.285L120.221 49.5286L119.685 49.8164L119.169 50.1402L118.67 50.4912L118.184 50.8609L117.708 51.242L117.236 51.6284L115.359 53.1831L114.891 53.5743L114.426 53.9689L113.965 54.3676L113.508 54.7707L113.056 55.178L112.608 55.5891L112.164 56.0034L111.722 56.421L111.283 56.8419L110.845 57.2666L110.408 57.6957L109.973 58.1295L109.539 58.5676L109.106 59.0096L108.673 59.4545L108.24 59.9016L107.809 60.3505L107.381 60.8023L106.961 61.2586L106.552 61.7219L106.158 62.1942L105.779 62.6763L105.415 63.1681L105.066 63.6692L104.731 64.179L104.405 64.6946L104.086 65.2146L105.707 67.4606L105.837 66.8502L105.981 66.2424L106.144 65.6391L106.339 65.0431L106.571 64.4567L106.84 63.8813L107.146 63.3179L107.487 62.7676L107.859 62.2318L108.255 61.7119L108.663 61.2108L109.065 60.7346L109.449 60.2939L109.813 59.8987L110.169 59.5501L110.538 59.2382L110.945 58.9517ZM124.065 61.843L124.003 61.8986L123.916 61.9495L123.78 61.9959L123.578 62.0301L123.301 62.0442L122.946 62.0278L122.519 61.9574L122.036 61.7999L121.527 61.5277L121.023 61.1292L120.553 60.6096L120.146 59.9894L119.83 59.3077L119.626 58.6199L119.519 57.9797L119.466 57.4115L119.441 56.8599L119.852 56.9015L120.755 57.1061L121.583 57.408L122.322 57.7931L122.958 58.2444L123.48 58.7422L123.877 59.2628L124.149 59.7791L124.306 60.2634L124.365 60.6907L124.354 61.0444L124.303 61.32L124.239 61.5249L124.177 61.6712L124.12 61.7723L124.065 61.843Z" fill="white"/>
<path fill-rule="evenodd" clip-rule="evenodd" d="M107.031 55.0222L107.296 54.5654L107.543 54.0645L107.773 53.533L107.985 52.9841L108.18 52.4286L108.352 51.881L108.497 51.3646L108.61 50.9107L108.694 50.5456L108.755 50.2716L108.802 50.056L108.451 50.0562L108.095 50.0512L107.722 50.0396L107.322 50.0165L106.885 49.9773L106.407 49.9165L105.892 49.8258L105.346 49.6977L104.781 49.5276L104.205 49.3144L103.63 49.059L103.065 48.764L102.516 48.4327L101.99 48.0688L101.491 47.6757L101.021 47.2566L100.583 46.8139L100.179 46.35L99.8098 45.8666L99.4777 45.3654L99.1848 44.8478L98.9334 44.3155L98.726 43.7701L98.5658 43.2137L98.4554 42.649L98.3972 42.0795L98.3935 41.509L98.4457 40.942L98.5543 40.3836L98.719 39.8389L98.9384 39.3131L99.2107 38.8115L99.533 38.3389L99.9019 37.9L100.314 37.4991L100.765 37.1402L101.25 36.827L101.766 36.563L102.307 36.351L102.869 36.1936L103.445 36.0928L104.032 36.0497L104.623 36.0645L105.213 36.1366L105.798 36.2645L106.373 36.4458L106.934 36.6776L107.478 36.9566L108.003 37.2791L108.508 37.6418L108.989 38.0418L109.447 38.4757L109.882 38.9405L110.292 39.4339L110.672 39.9559L111.017 40.5076L111.324 41.0868L111.596 41.687L111.838 42.3005L112.054 42.9231L112.242 43.555L112.395 44.1912L112.505 44.799L112.569 45.3172L112.605 45.7094L112.624 46.0124L112.78 45.5601L112.936 45.0769L113.094 44.5494L113.238 43.9848L113.359 43.4009L113.452 42.8099L113.516 42.2154L113.555 41.6189L113.568 41.0218L113.561 40.4247L113.539 39.828L113.507 39.2317L117.056 40.3194L117.1 40.9327L117.132 41.5466L117.147 42.1602L117.133 42.7727L117.084 43.3816L116.992 43.9833L116.851 44.5741L116.659 45.1501L116.416 45.7081L116.13 46.2462L115.807 46.7648L115.457 47.2662L115.089 47.7538L114.71 48.2321L114.325 48.7051L112.776 50.5899L112.387 51.0598L111.994 51.5269L111.597 51.99L111.195 52.4484L110.79 52.9022L110.38 53.3518L109.967 53.7979L109.551 54.2414L109.132 54.6828L108.709 55.1223L108.282 55.5605L107.85 55.9972L107.413 56.433L106.973 56.8683L106.53 57.3034L106.085 57.7379L105.638 58.1707L105.188 58.5997L104.733 59.0215L104.272 59.432L103.801 59.8281L103.321 60.2086L102.831 60.5739L102.332 60.9242L101.824 61.2609L101.311 61.5883L100.793 61.9085L98.556 60.2813L99.1639 60.1498L99.7693 60.0055L100.37 59.8417L100.964 59.6461L101.548 59.4136L102.121 59.1434L102.682 58.8362L103.23 58.4937L103.764 58.1198L104.282 57.7221L104.781 57.3131L105.255 56.9092L105.694 56.5236L106.088 56.1583L106.435 55.8013L106.746 55.4303L107.031 55.0222ZM104.151 41.8489L104.096 41.9113L104.045 41.9989L103.999 42.1348L103.965 42.3378L103.951 42.6164L103.967 42.9727L104.037 43.4015L104.194 43.8857L104.465 44.397L104.862 44.9035L105.38 45.3754L105.997 45.7843L106.676 46.1006L107.361 46.3058L107.999 46.4136L108.565 46.4668L109.114 46.4914L109.073 46.0791L108.869 45.1726L108.568 44.3414L108.185 43.5996L107.735 42.9603L107.239 42.4367L106.721 42.0379L106.207 41.7646L105.724 41.6075L105.299 41.5481L104.947 41.5593L104.672 41.6101L104.468 41.6739L104.322 41.7364L104.222 41.7938L104.151 41.8489Z" fill="white"/>
<path fill-rule="evenodd" clip-rule="evenodd" d="M54.2661 81.3475L54.2801 83.2063L54.266 85.0652L53.6937 85.0646L53.0912 85.0662L52.4459 85.0795L51.7702 85.1215L51.0877 85.2094L50.4156 85.3558L49.7662 85.5703L49.1518 85.8625L48.5854 86.2388L48.0791 86.6972L47.6407 87.2267L47.2728 87.8112L46.9701 88.4344L46.7217 89.082L46.5159 89.7417L46.3461 90.4043L46.2076 91.0723L46.0846 91.7576L45.9386 92.4607L45.7183 93.1575L45.393 93.8173L44.9695 94.4199L44.4758 94.954L43.9341 95.4137L43.3535 95.8009L42.7404 96.125L42.1051 96.3977L41.4581 96.6306L40.8067 96.8385L40.1514 97.0264L38.8322 91.4276L39.2076 91.4361L39.5865 91.4393L39.9702 91.4311L40.3562 91.3995L40.7377 91.3303L41.1046 91.2115L41.4464 91.0357L41.7546 90.8022L42.0215 90.5167L42.2401 90.1887L42.4026 89.8291L42.5025 89.4472L42.5352 89.0519L42.5013 88.6505L42.4055 88.2507L42.2564 87.8622L42.0622 87.4937L41.8278 87.153L41.5549 86.847L41.2458 86.5811L40.9039 86.3579L40.5345 86.1761L40.1428 86.0313L39.7354 85.9173L39.3288 85.8286L38.9501 85.7593L38.6161 85.7036L38.3149 85.6553L38.2545 85.6926L38.1393 85.7709L37.9115 85.9379L37.5538 86.2372L37.1005 86.6689L36.6066 87.2047L36.1201 87.8348L35.6696 88.5652L35.2647 89.3983L34.9062 90.3296L34.5935 91.3535L34.3257 92.4664L34.1009 93.6626L33.9171 94.9309L33.7733 96.2585L33.6651 97.6336L33.5795 99.0414L33.5081 100.464L33.269 99.8831L33.0195 99.3562L32.7703 98.8995L32.5151 98.4962L32.2488 98.1155L31.9679 97.7414L31.6683 97.3743L31.3445 97.0214L30.9941 96.6908L30.6196 96.3886L30.2264 96.1196L29.8213 95.8868L29.4113 95.6921L29.0028 95.5355L28.6012 95.4158L28.2101 95.3308L27.8318 95.2779L27.4669 95.254L27.1155 95.2562L26.7767 95.2821L26.4497 95.3297L26.1335 95.3976L25.8271 95.4854L25.5301 95.5926L25.2424 95.7195L24.9641 95.8664L24.6958 96.0332L24.4383 96.22L24.1927 96.4264L23.9602 96.6516L23.7421 96.8944L23.5395 97.1537L23.3536 97.4279L23.1851 97.7154L23.0344 98.0142L22.9012 98.3227L22.7853 98.6391L22.686 98.9614L22.6026 99.2882L22.5352 99.618L22.4842 99.949L22.4506 100.28L22.4362 100.61L22.4428 100.935L22.472 101.256L22.5254 101.569L22.6034 101.871L22.7063 102.161L22.8335 102.436L22.9839 102.694L23.156 102.931L23.3477 103.146L23.5567 103.337L23.7807 103.502L24.017 103.642L24.2628 103.756L24.5157 103.843L24.7726 103.904L25.0308 103.938L25.2874 103.945L25.5396 103.926L25.7846 103.879L26.0197 103.806L26.2422 103.705L26.4498 103.577L26.6393 103.423L26.8075 103.243L26.9501 103.04L27.062 102.815L27.1376 102.573L27.1713 102.321L27.1589 102.067L27.0984 101.821L26.9906 101.595L26.8391 101.397L26.6501 101.236L26.4315 101.115L26.191 101.032L25.9355 100.979L25.6714 100.954L25.4043 100.958L25.138 100.994L24.8731 101.055L24.6113 101.136L24.8087 100.68L25.0424 100.234L25.3202 99.8051L25.6559 99.4055L26.0424 99.044L26.4699 98.7289L26.9381 98.4752L27.451 98.3051L28.0059 98.2414L28.5886 98.302L29.1757 98.4957L29.7393 98.8219L30.2525 99.2715L30.6921 99.8291L31.0408 100.475L31.288 101.187L31.4283 101.944L31.4594 102.727L31.3807 103.517L31.192 104.298L30.8949 105.051L30.4928 105.759L29.9917 106.406L29.4006 106.977L28.731 107.457L27.9966 107.839L27.2126 108.113L26.3948 108.278L25.5589 108.331L24.7192 108.277L23.8895 108.118L23.0816 107.86L22.306 107.511L21.5718 107.078L20.8874 106.568L20.2605 105.988L19.698 105.347L19.207 104.653L18.7935 103.915L18.463 103.143L18.2191 102.347L18.0637 101.54L17.9961 100.732L18.0134 99.9354L18.1096 99.1599L18.2776 98.4137L18.5088 97.7033L18.7944 97.0335L19.1263 96.4071L19.4975 95.8261L19.902 95.292L20.3353 94.8058L20.7938 94.3683L21.2745 93.9802L21.7745 93.6418L22.2911 93.3527L22.8217 93.1117L23.3635 92.9171L23.9141 92.7662L24.4714 92.6558L25.0333 92.5835L25.598 92.5473L26.1636 92.5463L26.7286 92.5793L27.2918 92.6457L27.8502 92.7487L28.3998 92.895L28.9382 93.086L29.4689 93.3099L29.9919 93.5586L29.5107 92.888L28.9822 92.2087L28.3555 91.4924L27.579 90.7412L26.6624 89.9876L25.6469 89.2672L24.552 88.6013L23.3821 88.0001L22.1444 87.4639L20.8474 86.987L19.5004 86.5634L18.1118 86.1862L16.6878 85.847L15.2351 85.5371L13.7595 85.2489L12.2641 84.9768L10.7534 84.7141L9.23148 84.4513L7.70094 84.1835L6.16416 83.923L4.62434 83.6932L3.08325 83.506L1.54163 83.3494L0 83.2065L1.54167 83.0636L3.08328 82.907L4.62431 82.7198L6.1642 82.49L7.70093 82.2295L9.23149 81.9617L10.7534 81.6989L12.2642 81.4362L13.7595 81.164L15.2351 80.8759L16.6879 80.566L18.1119 80.2267L19.5005 79.8495L20.8474 79.4259L22.1444 78.9491L23.3822 78.4128L24.5521 77.8116L25.647 77.1457L26.6624 76.4252L27.5791 75.6717L28.3555 74.9204L28.9823 74.2042L29.5108 73.5249L29.992 72.8543L29.469 73.103L28.9383 73.3269L28.3999 73.5179L27.8503 73.6641L27.2919 73.7672L26.7287 73.8336L26.1636 73.8665L25.598 73.8655L25.0333 73.8294L24.4714 73.757L23.9142 73.6467L23.3636 73.4958L22.8217 73.3012L22.2911 73.0603L21.7746 72.7711L21.2745 72.4327L20.7939 72.0446L20.3354 71.6071L19.9021 71.1209L19.4976 70.5868L19.1264 70.0059L18.7945 69.3794L18.5088 68.7096L18.2777 67.9993L18.1097 67.2531L18.0134 66.4775L17.9963 65.6809L18.0638 64.8733L18.2191 64.0658L18.463 63.2702L18.7936 62.4978L19.2071 61.7596L19.6982 61.0655L20.2606 60.4246L20.8875 59.8452L21.572 59.335L22.3062 58.9017L23.0817 58.5528L23.8897 58.2954L24.7194 58.1363L25.559 58.0815L26.3951 58.1351L27.2128 58.2995L27.9968 58.5742L28.7311 58.9554L29.4007 59.4363L29.9919 60.0068L30.4929 60.6538L30.895 61.362L31.1921 62.1151L31.3807 62.8956L31.4596 63.6861L31.4284 64.469L31.2881 65.2262L31.0409 65.9382L30.6922 66.5838L30.2526 67.1413L29.7395 67.591L29.1758 67.9171L28.5887 68.1109L28.0059 68.1715L27.4511 68.1078L26.9382 67.9376L26.47 67.684L26.0425 67.3689L25.656 67.0074L25.3203 66.6078L25.0425 66.1785L24.8088 65.7332L24.6114 65.2769L24.8731 65.3584L25.1381 65.4189L25.4043 65.4548L25.6715 65.4589L25.9356 65.4337L26.1911 65.3813L26.4316 65.2975L26.6503 65.1765L26.8392 65.0157L26.9906 64.8183L27.0985 64.5918L27.159 64.3461L27.1715 64.0921L27.1377 63.8398L27.0621 63.598L26.9502 63.3732L26.8076 63.1696L26.6394 62.99L26.4499 62.8359L26.2424 62.7082L26.0198 62.6073L25.7847 62.5337L25.5397 62.4872L25.2875 62.4677L25.0309 62.4752L24.7727 62.5094L24.5158 62.5701L24.263 62.6572L24.0171 62.7707L23.7808 62.9106L23.5569 63.0764L23.3478 63.2673L23.1561 63.4822L22.984 63.7194L22.8337 63.9766L22.7064 64.2516L22.6035 64.5416L22.5255 64.8443L22.4722 65.157L22.4429 65.4775L22.4363 65.8033L22.4507 66.1328L22.4842 66.4639L22.5353 66.795L22.6027 67.1247L22.686 67.4515L22.7854 67.7739L22.9013 68.0902L23.0345 68.3986L23.1852 68.6975L23.3537 68.9849L23.5396 69.2592L23.7422 69.5185L23.9603 69.7614L24.1928 69.9865L24.4384 70.1929L24.6959 70.3796L24.9642 70.5465L25.2424 70.6934L25.5302 70.8203L25.8272 70.9276L26.1336 71.0153L26.4499 71.0832L26.7768 71.1308L27.1155 71.1567L27.4669 71.1589L27.8318 71.135L28.2102 71.082L28.6013 70.9971L29.0029 70.8773L29.4113 70.7207L29.8214 70.526L30.2265 70.2933L30.6197 70.0242L30.9942 69.7221L31.3446 69.3914L31.6684 69.0386L31.968 68.6714L32.2488 68.2973L32.5152 67.9166L32.7704 67.5133L33.0196 67.0566L33.2691 66.5297L33.5082 65.9486L33.5797 67.3715L33.6651 68.7792L33.7734 70.1544L33.9171 71.4819L34.1009 72.7502L34.3258 73.9464L34.5936 75.0593L34.9063 76.0832L35.2648 77.0145L35.6696 77.8476L36.1202 78.578L36.6065 79.2082L37.1006 79.7439L37.5538 80.1757L37.9115 80.475L38.1393 80.6419L38.2545 80.7202L38.3148 80.7574L38.6161 80.7092L38.9501 80.6534L39.3288 80.5843L39.7354 80.4955L40.1428 80.3815L40.5345 80.2367L40.9039 80.0549L41.2458 79.8316L41.5549 79.5658L41.8277 79.2598L42.0622 78.9191L42.2565 78.5506L42.4056 78.162L42.5013 77.7623L42.5353 77.3608L42.5024 76.9655L42.4027 76.5838L42.2401 76.2241L42.0216 75.8961L41.7546 75.6106L41.4465 75.3771L41.1046 75.2013L40.7378 75.0824L40.3562 75.0134L39.9702 74.9817L39.5865 74.9735L39.2076 74.9767L38.8323 74.9851L40.1515 69.3864L40.8068 69.5743L41.4582 69.7821L42.1052 70.015L42.7405 70.2878L43.3535 70.6119L43.9342 70.9991L44.476 71.4587L44.9696 71.9928L45.393 72.5955L45.7184 73.2552L45.9387 73.952L46.0847 74.6552L46.2076 75.3405L46.3461 76.0084L46.5159 76.6711L46.7218 77.3307L46.9702 77.9783L47.2729 78.6015L47.6408 79.186L48.079 79.7156L48.5855 80.1739L49.1518 80.5502L49.7662 80.8424L50.4156 81.0569L51.0876 81.2033L51.7703 81.2912L52.4458 81.3332L53.0912 81.3465L53.6938 81.3481L54.2661 81.3475ZM20.1408 83.0753L18.9056 83.2065L20.1408 83.3377L21.2669 83.4609L22.2466 83.5719L23.1858 83.6846L24.1792 83.8222L25.1589 84.0012L26.0274 84.2193L26.788 84.4693L27.4859 84.753L28.1548 85.0775L28.8123 85.4468L29.4529 85.8516L30.0611 86.2835L30.6271 86.7497L31.1467 87.2601L31.6223 87.8141L32.061 88.4023L32.4712 89.0143L32.8643 89.6403L33.2452 90.2754L33.531 89.5453L33.8375 88.825L34.1711 88.1183L34.5458 87.4309L34.9698 86.7676L35.4537 86.136L36.0099 85.5499L36.645 85.0247L37.3542 84.5709L38.1247 84.1909L38.9406 83.8799L39.7872 83.6253L40.6515 83.405L41.5247 83.2064L40.6514 83.0078L39.7873 82.7875L38.9406 82.5329L38.1247 82.2219L37.3543 81.8419L36.645 81.3881L36.01 80.8629L35.4537 80.2769L34.9699 79.6452L34.5459 78.9819L34.1711 78.2946L33.8375 77.5878L33.531 76.8675L33.2452 76.1374L32.8644 76.7725L32.4713 77.3985L32.0609 78.0106L31.6223 78.5988L31.1467 79.1527L30.6271 79.6632L30.0612 80.1293L29.4529 80.5613L28.8123 80.9661L28.1548 81.3354L27.486 81.6599L26.7881 81.9436L26.0275 82.1935L25.1589 82.4117L24.1792 82.5907L23.1858 82.7283L22.2467 82.841L21.2668 82.952L20.1408 83.0753Z" fill="white"/>
<path fill-rule="evenodd" clip-rule="evenodd" d="M84.7245 111.929L82.8731 111.914L81.0217 111.929L81.0223 112.503L81.0207 113.108L81.0074 113.756L80.9656 114.434L80.8781 115.12L80.7323 115.795L80.5186 116.447L80.2276 117.063L79.8528 117.632L79.3963 118.14L78.8688 118.581L78.2866 118.95L77.666 119.254L77.0209 119.503L76.3639 119.71L75.7039 119.88L75.0387 120.019L74.3561 120.143L73.6557 120.289L72.9618 120.511L72.3046 120.837L71.7044 121.262L71.1725 121.758L70.7146 122.302L70.3289 122.885L70.0061 123.501L69.7345 124.138L69.5025 124.788L69.2955 125.442L69.1083 126.1L74.6847 127.424L74.6762 127.048L74.6731 126.667L74.6813 126.282L74.7128 125.894L74.7816 125.511L74.9 125.143L75.0751 124.8L75.3076 124.49L75.592 124.222L75.9187 124.003L76.277 123.84L76.6572 123.739L77.0509 123.707L77.4508 123.741L77.8489 123.837L78.2359 123.987L78.6029 124.181L78.9423 124.417L79.247 124.691L79.5118 125.001L79.7342 125.344L79.9153 125.715L80.0595 126.109L80.173 126.518L80.2615 126.926L80.3304 127.306L80.3859 127.641L80.4339 127.944L80.3969 128.004L80.3188 128.12L80.1525 128.349L79.8544 128.708L79.4245 129.163L78.8908 129.659L78.2632 130.147L77.5357 130.6L76.7059 131.006L75.7784 131.366L74.7586 131.68L73.6501 131.949L72.4587 132.175L71.1955 132.359L69.8732 132.504L68.5036 132.612L67.1015 132.698L65.6842 132.77L66.263 133.01L66.7879 133.26L67.2427 133.511L67.6444 133.767L68.0236 134.034L68.3962 134.316L68.7618 134.617L69.1133 134.942L69.4426 135.294L69.7436 135.67L70.0116 136.065L70.2433 136.472L70.4373 136.883L70.5933 137.293L70.7125 137.697L70.7971 138.089L70.8499 138.469L70.8737 138.835L70.8715 139.188L70.8457 139.528L70.7983 139.857L70.7306 140.174L70.6432 140.482L70.5364 140.78L70.41 141.069L70.2637 141.348L70.0976 141.618L69.9115 141.876L69.7059 142.123L69.4817 142.356L69.2398 142.575L68.9815 142.779L68.7084 142.965L68.4221 143.134L68.1245 143.286L67.8172 143.419L67.5021 143.536L67.1811 143.635L66.8556 143.719L66.5272 143.787L66.1974 143.838L65.8676 143.872L65.5396 143.886L65.2149 143.88L64.8958 143.85L64.5843 143.797L64.2829 143.718L63.9939 143.615L63.7201 143.487L63.4639 143.336L63.2277 143.164L63.0136 142.971L62.8234 142.761L62.6583 142.536L62.519 142.299L62.406 142.052L62.3191 141.798L62.2587 141.541L62.2247 141.281L62.2173 141.024L62.2366 140.77L62.2829 140.524L62.3563 140.288L62.4568 140.065L62.5839 139.857L62.7375 139.666L62.9164 139.497L63.1191 139.354L63.3431 139.242L63.5839 139.166L63.8351 139.132L64.0881 139.145L64.3328 139.205L64.5584 139.314L64.755 139.466L64.9151 139.655L65.0358 139.875L65.1192 140.116L65.1714 140.373L65.1964 140.638L65.1924 140.906L65.1566 141.174L65.0963 141.44L65.0152 141.702L65.4697 141.504L65.9132 141.27L66.3408 140.991L66.7387 140.654L67.0988 140.266L67.4127 139.836L67.6653 139.366L67.8348 138.851L67.8982 138.294L67.8379 137.709L67.6449 137.12L67.32 136.554L66.8722 136.039L66.3169 135.597L65.6738 135.247L64.9648 134.999L64.2106 134.858L63.4308 134.827L62.6435 134.906L61.8661 135.095L61.116 135.394L60.4105 135.797L59.7662 136.3L59.198 136.894L58.7191 137.566L58.3392 138.304L58.0657 139.091L57.9019 139.912L57.8485 140.751L57.9032 141.594L58.0616 142.427L58.318 143.238L58.6656 144.017L59.0971 144.754L59.6052 145.441L60.1823 146.071L60.8206 146.635L61.5119 147.128L62.2471 147.544L63.0164 147.875L63.8089 148.12L64.6132 148.276L65.4175 148.344L66.211 148.327L66.9834 148.23L67.7266 148.062L68.4341 147.829L69.1013 147.543L69.7252 147.209L70.3038 146.837L70.8358 146.431L71.3201 145.996L71.7558 145.535L72.1424 145.053L72.4794 144.551L72.7674 144.032L73.0074 143.499L73.2012 142.955L73.3515 142.402L73.4614 141.843L73.5335 141.279L73.5695 140.712L73.5705 140.144L73.5377 139.577L73.4716 139.011L73.3689 138.451L73.2233 137.899L73.033 137.358L72.81 136.825L72.5623 136.3L73.2303 136.783L73.9069 137.314L74.6202 137.943L75.3684 138.723L76.1189 139.643L76.8366 140.663L77.4998 141.762L78.0986 142.937L78.6327 144.179L79.1076 145.481L79.5295 146.834L79.9052 148.228L80.2431 149.658L80.5517 151.116L80.8387 152.598L81.1098 154.099L81.3714 155.616L81.6332 157.144L81.8999 158.681L82.1594 160.224L82.3882 161.77L82.5747 163.317L82.7306 164.865L82.8729 166.413L83.0153 164.865L83.1713 163.317L83.3577 161.77L83.5866 160.224L83.8461 158.681L84.1128 157.144L84.3745 155.616L84.6362 154.099L84.9073 152.598L85.1942 151.116L85.503 149.658L85.8408 148.228L86.2166 146.834L86.6384 145.481L87.1133 144.179L87.6475 142.936L88.2463 141.762L88.9095 140.663L89.6271 139.643L90.3777 138.723L91.1259 137.943L91.8393 137.314L92.5158 136.783L93.1838 136.3L92.9361 136.825L92.7131 137.358L92.5228 137.899L92.3772 138.45L92.2745 139.011L92.2084 139.576L92.1757 140.144L92.1766 140.712L92.2126 141.279L92.2846 141.843L92.3945 142.402L92.5449 142.955L92.7387 143.499L92.9786 144.032L93.2667 144.551L93.6037 145.053L93.9902 145.535L94.426 145.995L94.9103 146.431L95.4422 146.837L96.0208 147.209L96.6447 147.543L97.3119 147.829L98.0194 148.061L98.7626 148.23L99.535 148.327L100.329 148.344L101.133 148.276L101.937 148.12L102.73 147.875L103.499 147.543L104.234 147.128L104.925 146.635L105.564 146.071L106.141 145.441L106.649 144.754L107.081 144.017L107.428 143.238L107.684 142.427L107.843 141.594L107.898 140.751L107.844 139.911L107.68 139.09L107.407 138.303L107.027 137.566L106.548 136.894L105.98 136.3L105.336 135.797L104.63 135.393L103.88 135.095L103.103 134.906L102.315 134.827L101.536 134.858L100.781 134.999L100.072 135.247L99.4292 135.597L98.8739 136.038L98.4261 136.554L98.1012 137.12L97.9082 137.709L97.8479 138.294L97.9113 138.851L98.0808 139.366L98.3334 139.836L98.6473 140.265L99.0073 140.654L99.4053 140.991L99.8329 141.269L100.276 141.504L100.731 141.702L100.65 141.44L100.589 141.173L100.554 140.906L100.55 140.638L100.575 140.373L100.627 140.116L100.71 139.875L100.831 139.655L100.991 139.466L101.188 139.314L101.413 139.205L101.658 139.144L101.911 139.132L102.162 139.166L102.403 139.242L102.627 139.354L102.83 139.497L103.009 139.666L103.162 139.856L103.289 140.065L103.39 140.288L103.463 140.524L103.509 140.77L103.529 141.023L103.521 141.281L103.487 141.54L103.427 141.798L103.34 142.052L103.227 142.299L103.088 142.536L102.923 142.761L102.732 142.971L102.518 143.163L102.282 143.336L102.026 143.487L101.752 143.615L101.463 143.718L101.162 143.797L100.85 143.85L100.531 143.88L100.207 143.886L99.8784 143.872L99.5487 143.838L99.2189 143.787L98.8905 143.719L98.565 143.635L98.2439 143.536L97.9288 143.419L97.6216 143.286L97.3239 143.134L97.0377 142.965L96.7645 142.778L96.5063 142.575L96.2643 142.356L96.0401 142.123L95.8346 141.876L95.6486 141.617L95.4823 141.348L95.3361 141.069L95.2096 140.78L95.1028 140.482L95.0155 140.174L94.9478 139.856L94.9004 139.528L94.8746 139.188L94.8724 138.835L94.8962 138.469L94.949 138.089L95.0336 137.696L95.1528 137.293L95.3088 136.883L95.5027 136.471L95.7346 136.065L96.0026 135.67L96.3035 135.294L96.6328 134.942L96.9843 134.617L97.3499 134.316L97.7225 134.034L98.1017 133.767L98.5034 133.511L98.9583 133.26L99.4831 133.01L100.062 132.77L98.6447 132.698L97.2426 132.612L95.8729 132.504L94.5507 132.359L93.2875 132.175L92.096 131.949L90.9876 131.68L89.9678 131.366L89.0402 131.006L88.2104 130.6L87.4829 130.147L86.8553 129.659L86.3217 129.163L85.8917 128.708L85.5936 128.349L85.4274 128.12L85.3493 128.004L85.3122 127.944L85.3603 127.641L85.4159 127.306L85.4847 126.926L85.5731 126.518L85.6867 126.109L85.8309 125.715L86.012 125.344L86.2344 125.001L86.4992 124.691L86.8039 124.417L87.1432 124.181L87.5103 123.986L87.8973 123.837L88.2954 123.741L88.6953 123.706L89.089 123.739L89.4692 123.84L89.8275 124.003L90.1542 124.222L90.4385 124.49L90.6711 124.8L90.8462 125.143L90.9646 125.511L91.0333 125.894L91.0649 126.282L91.0731 126.667L91.0699 127.048L91.0614 127.424L96.6378 126.1L96.4507 125.442L96.2437 124.788L96.0117 124.138L95.74 123.5L95.4173 122.885L95.0316 122.302L94.5738 121.758L94.0418 121.262L93.4415 120.837L92.7844 120.511L92.0904 120.289L91.3901 120.143L90.7075 120.019L90.0423 119.88L89.3823 119.71L88.7253 119.503L88.0803 119.254L87.4595 118.95L86.8774 118.58L86.3499 118.14L85.8934 117.632L85.5186 117.063L85.2276 116.447L85.0139 115.795L84.8681 115.12L84.7806 114.434L84.7388 113.756L84.7255 113.108L84.7239 112.503L84.7245 111.929ZM83.0039 146.191L82.8733 147.431L82.7425 146.191L82.6198 145.06L82.5093 144.076L82.397 143.134L82.26 142.136L82.0817 141.153L81.8645 140.281L81.6155 139.517L81.3329 138.816L81.0097 138.145L80.6419 137.484L80.2387 136.841L79.8085 136.231L79.3442 135.662L78.8358 135.141L78.2841 134.663L77.6982 134.223L77.0886 133.811L76.4651 133.416L75.8325 133.034L76.5598 132.747L77.2771 132.439L77.9811 132.104L78.6656 131.728L79.3264 131.302L79.9555 130.816L80.5392 130.258L81.0623 129.62L81.5142 128.908L81.8927 128.135L82.2025 127.316L82.456 126.465L82.6755 125.598L82.8733 124.721L83.0711 125.598L83.2906 126.465L83.5441 127.316L83.8538 128.135L84.2323 128.908L84.6843 129.62L85.2074 130.258L85.7911 130.816L86.4202 131.302L87.0809 131.728L87.7655 132.104L88.4694 132.439L89.1868 132.747L89.914 133.034L89.2814 133.416L88.658 133.811L88.0484 134.223L87.4625 134.663L86.9107 135.141L86.4023 135.662L85.938 136.231L85.5078 136.841L85.1046 137.484L84.7368 138.145L84.4136 138.816L84.1311 139.517L83.8821 140.28L83.6648 141.153L83.4865 142.136L83.3495 143.134L83.2373 144.076L83.1267 145.06L83.0039 146.191Z" fill="white"/>
<path fill-rule="evenodd" clip-rule="evenodd" d="M107.031 111.39L107.296 111.847L107.543 112.348L107.773 112.879L107.985 113.428L108.18 113.984L108.352 114.531L108.497 115.048L108.61 115.502L108.694 115.867L108.755 116.141L108.802 116.356L108.451 116.356L108.095 116.361L107.722 116.373L107.322 116.396L106.885 116.435L106.407 116.496L105.892 116.587L105.346 116.715L104.781 116.885L104.205 117.098L103.63 117.353L103.065 117.648L102.516 117.98L101.99 118.344L101.491 118.737L101.021 119.156L100.583 119.599L100.179 120.062L99.8097 120.546L99.4777 121.047L99.1847 121.565L98.9333 122.097L98.726 122.642L98.5657 123.199L98.4553 123.763L98.3971 124.333L98.3935 124.904L98.4457 125.47L98.5542 126.029L98.7189 126.574L98.9383 127.099L99.2106 127.601L99.5328 128.074L99.9018 128.512L100.314 128.913L100.765 129.272L101.25 129.585L101.766 129.849L102.307 130.061L102.868 130.219L103.445 130.32L104.032 130.363L104.623 130.348L105.213 130.276L105.798 130.148L106.372 129.967L106.933 129.735L107.478 129.456L108.003 129.133L108.507 128.771L108.989 128.371L109.447 127.937L109.882 127.472L110.291 126.978L110.672 126.456L111.017 125.905L111.324 125.326L111.596 124.725L111.838 124.112L112.054 123.489L112.242 122.857L112.395 122.221L112.505 121.613L112.569 121.095L112.605 120.703L112.624 120.4L112.78 120.852L112.936 121.336L113.093 121.863L113.238 122.428L113.359 123.011L113.451 123.603L113.516 124.197L113.555 124.793L113.568 125.391L113.56 125.988L113.539 126.584L113.507 127.181L117.056 126.093L117.1 125.48L117.132 124.866L117.147 124.252L117.133 123.64L117.084 123.031L116.992 122.429L116.851 121.838L116.659 121.262L116.416 120.704L116.13 120.166L115.807 119.647L115.457 119.146L115.089 118.659L114.71 118.18L114.325 117.707L112.776 115.823L112.387 115.353L111.994 114.885L111.597 114.422L111.195 113.964L110.79 113.51L110.38 113.061L109.967 112.615L109.551 112.171L109.132 111.73L108.709 111.29L108.282 110.852L107.85 110.415L107.413 109.979L106.973 109.544L106.53 109.109L106.085 108.675L105.638 108.242L105.188 107.813L104.733 107.391L104.272 106.98L103.801 106.584L103.321 106.204L102.831 105.839L102.332 105.488L101.825 105.152L101.311 104.824L100.793 104.504L98.556 106.131L99.1639 106.263L99.7693 106.407L100.37 106.571L100.964 106.766L101.548 106.999L102.121 107.269L102.682 107.576L103.23 107.919L103.764 108.293L104.282 108.69L104.781 109.099L105.255 109.503L105.694 109.889L106.088 110.254L106.435 110.611L106.746 110.982L107.031 111.39ZM104.151 124.563L104.096 124.501L104.045 124.413L103.999 124.278L103.965 124.075L103.95 123.796L103.967 123.44L104.037 123.011L104.194 122.527L104.465 122.015L104.862 121.509L105.379 121.037L105.997 120.628L106.676 120.312L107.361 120.106L107.999 119.999L108.565 119.946L109.114 119.921L109.073 120.333L108.869 121.24L108.568 122.071L108.185 122.813L107.735 123.452L107.239 123.976L106.721 124.374L106.206 124.648L105.724 124.805L105.299 124.864L104.946 124.853L104.672 124.802L104.468 124.738L104.322 124.676L104.221 124.619L104.151 124.563Z" fill="white"/>
<path fill-rule="evenodd" clip-rule="evenodd" d="M110.944 107.461L111.399 107.727L111.898 107.975L112.428 108.205L112.974 108.419L113.528 108.614L114.073 108.787L114.587 108.932L115.04 109.046L115.403 109.131L115.676 109.191L115.891 109.238L115.891 108.887L115.896 108.529L115.907 108.155L115.93 107.753L115.969 107.314L116.03 106.834L116.12 106.317L116.248 105.769L116.417 105.201L116.629 104.624L116.884 104.046L117.178 103.478L117.508 102.928L117.87 102.399L118.262 101.898L118.679 101.427L119.12 100.987L119.582 100.581L120.064 100.21L120.563 99.8771L121.078 99.5829L121.608 99.3305L122.152 99.1223L122.706 98.9615L123.268 98.8505L123.836 98.7922L124.404 98.7885L124.968 98.8409L125.525 98.9499L126.067 99.1152L126.591 99.3356L127.09 99.6089L127.561 99.9324L127.998 100.303L128.398 100.716L128.755 101.169L129.067 101.657L129.33 102.174L129.541 102.718L129.698 103.281L129.798 103.861L129.841 104.449L129.826 105.043L129.755 105.635L129.627 106.222L129.447 106.799L129.216 107.363L128.938 107.909L128.617 108.437L128.255 108.943L127.857 109.427L127.425 109.887L126.962 110.323L126.47 110.734L125.95 111.116L125.401 111.463L124.824 111.771L124.226 112.044L123.615 112.287L122.995 112.504L122.366 112.692L121.732 112.847L121.127 112.957L120.611 113.021L120.22 113.057L119.918 113.076L120.369 113.232L120.85 113.39L121.375 113.548L121.938 113.692L122.519 113.814L123.108 113.907L123.7 113.972L124.294 114.01L124.889 114.024L125.484 114.016L126.078 113.995L126.672 113.962L125.588 117.526L124.978 117.57L124.366 117.602L123.755 117.617L123.145 117.603L122.539 117.554L121.939 117.461L121.351 117.32L120.777 117.127L120.221 116.884L119.685 116.596L119.169 116.272L118.669 115.921L118.184 115.551L117.707 115.17L117.236 114.784L115.359 113.229L114.891 112.838L114.426 112.443L113.965 112.045L113.508 111.642L113.056 111.234L112.608 110.823L112.164 110.409L111.722 109.991L111.283 109.57L110.845 109.146L110.408 108.717L109.973 108.283L109.539 107.845L109.106 107.403L108.672 106.958L108.24 106.511L107.809 106.062L107.381 105.61L106.961 105.154L106.552 104.69L106.158 104.218L105.779 103.736L105.415 103.244L105.066 102.743L104.731 102.233L104.405 101.718L104.086 101.198L105.707 98.9517L105.837 99.562L105.981 100.17L106.144 100.773L106.339 101.369L106.571 101.956L106.84 102.531L107.146 103.094L107.487 103.645L107.859 104.181L108.256 104.7L108.663 105.201L109.065 105.678L109.449 106.118L109.813 106.514L110.169 106.862L110.538 107.174L110.944 107.461ZM124.065 104.569L124.003 104.514L123.916 104.463L123.78 104.416L123.578 104.382L123.301 104.368L122.946 104.384L122.519 104.455L122.037 104.612L121.527 104.885L121.023 105.283L120.553 105.803L120.146 106.423L119.83 107.105L119.626 107.792L119.519 108.433L119.466 109.001L119.441 109.552L119.852 109.511L120.755 109.306L121.583 109.004L122.322 108.619L122.958 108.168L123.48 107.67L123.877 107.15L124.149 106.633L124.306 106.149L124.365 105.722L124.354 105.368L124.303 105.092L124.239 104.887L124.177 104.741L124.12 104.64L124.065 104.569Z" fill="white"/>
<path fill-rule="evenodd" clip-rule="evenodd" d="M54.8014 107.461L54.3465 107.728L53.8476 107.975L53.3182 108.206L52.7715 108.419L52.2182 108.614L51.6728 108.787L51.1585 108.933L50.7064 109.047L50.3427 109.131L50.0698 109.192L49.8551 109.239L49.8552 108.887L49.8504 108.529L49.8387 108.155L49.8157 107.753L49.7767 107.314L49.7161 106.834L49.6258 106.317L49.4982 105.77L49.3288 105.202L49.1164 104.624L48.862 104.046L48.5683 103.479L48.2383 102.928L47.8758 102.4L47.4843 101.898L47.0668 101.427L46.6259 100.987L46.1639 100.581L45.6824 100.211L45.1832 99.8774L44.6678 99.5833L44.1375 99.3308L43.5943 99.1227L43.0401 98.9618L42.4777 98.8509L41.9105 98.7925L41.3422 98.7889L40.7775 98.8413L40.2214 98.9502L39.6788 99.1156L39.1551 99.336L38.6555 99.6093L38.1848 99.9328L37.7477 100.303L37.3484 100.717L36.991 101.169L36.679 101.657L36.416 102.175L36.2049 102.718L36.0482 103.282L35.9478 103.861L35.9048 104.45L35.9196 105.043L35.9914 105.636L36.1187 106.223L36.2993 106.8L36.5302 107.363L36.8081 107.91L37.1292 108.437L37.4905 108.943L37.8889 109.427L38.3211 109.887L38.784 110.323L39.2755 110.735L39.7954 111.117L40.3448 111.463L40.9218 111.771L41.5196 112.044L42.1305 112.287L42.7507 112.504L43.3802 112.693L44.0137 112.847L44.6191 112.957L45.1352 113.022L45.5259 113.057L45.8277 113.076L45.3771 113.233L44.8958 113.39L44.3705 113.548L43.8081 113.693L43.2266 113.814L42.6379 113.907L42.0458 113.972L41.4517 114.011L40.857 114.024L40.2623 114.017L39.668 113.995L39.0741 113.963L40.1574 117.526L40.7683 117.57L41.3796 117.603L41.9909 117.617L42.6009 117.604L43.2073 117.554L43.8066 117.462L44.3951 117.321L44.9688 117.128L45.5246 116.884L46.0606 116.596L46.5771 116.272L47.0764 115.921L47.5621 115.552L48.0384 115.171L48.5096 114.784L50.3868 113.229L50.8549 112.838L51.3201 112.444L51.7814 112.045L52.2379 111.642L52.6899 111.235L53.1377 110.823L53.582 110.409L54.0237 109.992L54.4633 109.571L54.9012 109.146L55.3376 108.717L55.7726 108.283L56.2066 107.845L56.6401 107.403L57.0734 106.958L57.5062 106.511L57.9373 106.062L58.3647 105.61L58.7847 105.154L59.1935 104.691L59.5881 104.218L59.9671 103.736L60.3309 103.244L60.6799 102.743L61.0152 102.234L61.3413 101.718L61.6602 101.198L60.0394 98.9519L59.9085 99.5623L59.7649 100.17L59.6016 100.773L59.4068 101.369L59.1753 101.956L58.9061 102.531L58.6001 103.095L58.259 103.645L57.8866 104.181L57.4905 104.701L57.0832 105.202L56.6809 105.678L56.2968 106.119L55.9329 106.514L55.5774 106.862L55.2079 107.174L54.8014 107.461ZM41.6816 104.57L41.7437 104.514L41.831 104.463L41.9663 104.417L42.1684 104.383L42.446 104.368L42.8008 104.385L43.228 104.455L43.7103 104.613L44.2195 104.885L44.7239 105.283L45.194 105.803L45.6012 106.423L45.9163 107.105L46.1206 107.793L46.2281 108.433L46.281 109.001L46.3056 109.553L45.8949 109.511L44.992 109.307L44.1641 109.005L43.4253 108.62L42.7885 108.168L42.2671 107.67L41.8698 107.15L41.5976 106.634L41.4412 106.149L41.3819 105.722L41.3932 105.368L41.4437 105.093L41.5073 104.888L41.5695 104.741L41.6267 104.64L41.6816 104.57Z" fill="white"/>
<path fill-rule="evenodd" clip-rule="evenodd" d="M58.7156 111.39L58.45 111.847L58.203 112.348L57.9736 112.879L57.7611 113.428L57.5666 113.984L57.3943 114.531L57.2496 115.048L57.1361 115.502L57.0522 115.867L56.9917 116.141L56.9449 116.356L57.295 116.356L57.6517 116.361L58.0242 116.373L58.4243 116.396L58.8616 116.435L59.3395 116.496L59.8547 116.587L60.4 116.715L60.9657 116.885L61.5412 117.098L62.1163 117.354L62.6818 117.648L63.2304 117.98L63.7564 118.344L64.2557 118.737L64.7254 119.156L65.1632 119.599L65.5675 120.063L65.9366 120.546L66.2687 121.047L66.5616 121.565L66.8131 122.097L67.0204 122.642L67.1806 123.199L67.2911 123.763L67.3492 124.333L67.3529 124.903L67.3007 125.47L67.1921 126.029L67.0275 126.574L66.808 127.099L66.5357 127.601L66.2135 128.074L65.8446 128.512L65.4327 128.913L64.9818 129.272L64.4963 129.585L63.9805 129.85L63.4394 130.061L62.8778 130.219L62.3011 130.32L61.7145 130.363L61.1235 130.348L60.5332 130.276L59.9486 130.148L59.3738 129.967L58.8129 129.735L58.2686 129.456L57.7433 129.133L57.2389 128.771L56.7571 128.371L56.299 127.937L55.8645 127.472L55.4549 126.979L55.0744 126.457L54.7294 125.905L54.4226 125.326L54.1508 124.725L53.9083 124.112L53.6924 123.489L53.5047 122.857L53.351 122.221L53.2414 121.614L53.1771 121.095L53.1414 120.703L53.1224 120.4L52.9667 120.852L52.81 121.336L52.6529 121.863L52.5086 122.428L52.3878 123.012L52.2949 123.603L52.2301 124.197L52.1918 124.794L52.1782 125.391L52.1859 125.988L52.2076 126.584L52.2396 127.181L48.6907 126.093L48.6464 125.48L48.6143 124.866L48.5997 124.252L48.6134 123.64L48.6628 123.031L48.7545 122.429L48.8951 121.838L49.0875 121.262L49.3302 120.704L49.6168 120.166L49.9393 119.648L50.289 119.146L50.6572 118.659L51.0366 118.18L51.4216 117.707L52.97 115.823L53.3597 115.353L53.7527 114.886L54.1498 114.422L54.5512 113.964L54.9569 113.51L55.3664 113.061L55.7791 112.615L56.195 112.171L56.6142 111.73L57.0372 111.29L57.4646 110.852L57.8966 110.415L58.3331 109.979L58.7732 109.544L59.2164 109.109L59.6617 108.675L60.1088 108.242L60.5588 107.813L61.0132 107.391L61.4747 106.981L61.9451 106.584L62.4253 106.204L62.9151 105.839L63.4142 105.488L63.9219 105.152L64.4355 104.824L64.9535 104.504L67.1905 106.131L66.5825 106.263L65.9772 106.407L65.3762 106.571L64.7826 106.766L64.1986 106.999L63.6255 107.269L63.0643 107.576L62.5162 107.919L61.9825 108.293L61.4647 108.69L60.9656 109.099L60.4914 109.503L60.0524 109.889L59.6588 110.254L59.3115 110.611L59.0009 110.982L58.7156 111.39ZM61.5951 124.564L61.6505 124.501L61.7012 124.414L61.7475 124.278L61.7815 124.075L61.7956 123.796L61.7793 123.44L61.709 123.011L61.5522 122.527L61.2811 122.015L60.8842 121.509L60.3667 121.037L59.7491 120.628L59.0701 120.312L58.3849 120.107L57.7473 119.999L57.1813 119.946L56.632 119.921L56.6734 120.333L56.8772 121.24L57.1779 122.071L57.5615 122.813L58.011 123.452L58.5068 123.976L59.0253 124.375L59.5395 124.648L60.0219 124.805L60.4475 124.864L60.7998 124.853L61.0743 124.802L61.2783 124.739L61.4241 124.676L61.5247 124.619L61.5951 124.564Z" fill="white"/>
<path d="M41.6381 47.4851L40.9232 47.5328L40.2086 47.6053L40.399 47.1364L40.5714 46.6619L40.7192 46.181L40.8355 45.6924L40.9197 45.1985L40.9678 44.6999L40.9745 44.1969L40.9393 43.6929L40.8654 43.1916L40.7567 42.6965L40.6188 42.2098L40.4578 41.7307L40.2784 41.259L40.0818 40.7946L39.872 40.3357L39.6525 39.8808L40.1055 40.1013L40.5626 40.3119L41.0252 40.5093L41.495 40.6894L41.9721 40.851L42.4569 40.9895L42.95 41.0986L43.4494 41.1728L43.9513 41.2082L44.4522 41.2015L44.9489 41.1531L45.4409 41.0686L45.9275 40.9518L46.4065 40.8034L46.879 40.6303L47.346 40.4391L47.2738 41.1566L47.2264 41.8744L47.2119 42.5906L47.2463 43.3025L47.3365 44.0053L47.4893 44.6948L47.711 45.3668L48.002 46.0183L48.3539 46.6476L48.7531 47.2554L49.1855 47.845L49.6383 48.421L50.1019 48.9884L50.5698 49.5509L51.0396 50.111L51.511 50.6694L51.9854 51.2252L52.4645 51.7771L52.9494 52.3242L53.4404 52.8658L53.9373 53.402L54.4395 53.9332L55.9394 55.5027L56.3711 55.9487L56.7071 56.2869L56.9501 56.5266L57.1275 56.7006L57.2709 56.8415L57.428 56.9966L57.6741 57.2411L58.0492 57.6171L58.4964 58.0705L58.9392 58.5248L59.7569 59.3718L60.1512 59.7739L60.5525 60.1668L60.973 60.553L61.4216 60.9344L61.9032 61.3119L62.4204 61.6833L62.9716 62.0446L63.5486 62.3973L64.1426 62.74L64.1398 64.4664L62.4203 64.4692L62.0789 63.8729L61.7276 63.2935L61.3678 62.7401L60.9979 62.2209L60.6219 61.7373L60.242 61.2869L59.8573 60.8648L59.466 60.4618L59.0656 60.0659L58.2219 59.2449L57.7694 58.8004L57.3178 58.3514L56.9434 57.9748L56.6999 57.7277L56.5454 57.57L56.405 57.426L56.2317 57.2479L55.9929 57.0039L55.6561 56.6666L55.2119 56.2331L53.6487 54.7272L53.1196 54.223L52.5855 53.7241L52.0461 53.2311L51.5012 52.7442L50.9515 52.2632L50.3979 51.7869L49.8417 51.3136L49.2839 50.842L48.7236 50.3722L48.1585 49.9068L47.5848 49.4521L46.9975 49.018L46.3922 48.6172L45.7654 48.2639L45.1166 47.9717L44.4472 47.7491L43.7605 47.5957L43.0605 47.5051L42.3514 47.4706L41.6453 47.485L41.6381 47.4851Z" fill="white"/>
<path d="M22.8477 23.7494L21.9041 22.0611L23.5857 23.0085L25.2674 23.9371L26.9452 24.8357L28.6164 25.6898L30.276 26.4884L31.9215 27.2187L33.5496 27.8673L35.1556 28.4266L36.7322 28.893L38.2727 29.2661L39.7696 29.5481L41.2184 29.743L42.6148 29.8578L43.9589 29.9014L45.252 29.8863L46.4996 29.8275L47.7079 29.7373L48.8851 29.6224L50.0404 29.492L51.1844 29.3506L52.0769 38.4314L51.4207 38.627L50.7623 38.8164L50.1003 38.9964L49.4337 39.1632L48.7621 39.3143L48.0849 39.4457L47.4017 39.5533L46.713 39.6344L46.0199 39.6885L45.3243 39.7154L44.6279 39.7152L43.9323 39.6881L43.2393 39.6342L42.5498 39.5544L41.8642 39.4508L41.1824 39.3278L40.5038 39.1891L39.8284 39.037L39.1554 38.8755L38.484 38.7076L38.6513 39.3817L38.8121 40.0574L38.9636 40.7355L39.1017 41.4168L39.2243 42.1014L39.3274 42.7897L39.4069 43.482L39.4606 44.1778L39.4876 44.8762L39.4878 45.5754L39.461 46.2738L39.4071 46.9696L39.3263 47.6611L39.2192 48.347L39.0883 49.027L38.9378 49.7012L38.7717 50.3705L38.5923 51.0352L38.4037 51.6963L38.2089 52.3551L29.1644 51.4589L29.3052 50.3104L29.4352 49.1505L29.5495 47.9685L29.6395 46.7553L29.698 45.5028L29.713 44.2045L29.6696 42.8549L29.5553 41.453L29.3611 39.9984L29.0803 38.4954L28.7086 36.9488L28.2441 35.3658L27.6871 33.7534L27.041 32.1187L26.3136 30.4666L25.5182 28.8004L24.6676 27.1224L23.7726 25.438L22.8477 23.7494Z" fill="white"/>
<path fill-rule="evenodd" clip-rule="evenodd" d="M54.7335 58.9517L54.2785 58.685L53.7796 58.4371L53.2503 58.2068L52.7035 57.9934L52.1502 57.7981L51.6048 57.6251L51.0905 57.4798L50.6384 57.3658L50.2748 57.2816L50.0018 57.2209L49.7871 57.1739L49.7873 57.5254L49.7824 57.8835L49.7708 58.2576L49.7477 58.6593L49.7088 59.0983L49.6481 59.5781L49.5578 60.0954L49.4303 60.6429L49.2608 61.2108L49.0484 61.7887L48.7941 62.3661L48.5003 62.9338L48.1703 63.4846L47.8079 64.0127L47.4164 64.514L46.9989 64.9856L46.5579 65.4252L46.0959 65.8312L45.6145 66.2017L45.1153 66.5351L44.5998 66.8292L44.0696 67.0817L43.5263 67.2898L42.9722 67.4508L42.4097 67.5616L41.8425 67.62L41.2742 67.6236L40.7096 67.5713L40.1534 67.4622L39.6108 67.297L39.0872 67.0766L38.5875 66.8032L38.1168 66.4797L37.6797 66.1093L37.2804 65.6957L36.923 65.2431L36.611 64.7555L36.348 64.2378L36.1369 63.6945L35.9802 63.1306L35.8798 62.5516L35.8368 61.9626L35.8516 61.3692L35.9234 60.7766L36.0508 60.1896L36.2313 59.6126L36.4622 59.0494L36.7401 58.503L37.0613 57.9755L37.4225 57.469L37.8209 56.9853L38.2531 56.5254L38.7161 56.0892L39.2075 55.6778L39.7274 55.2959L40.2769 54.9495L40.8538 54.6415L41.4516 54.3686L42.0626 54.1251L42.6827 53.9083L43.3122 53.7198L43.9457 53.5655L44.5511 53.4555L45.0673 53.3909L45.4579 53.3551L45.7597 53.3361L45.3092 53.1798L44.8279 53.0224L44.3025 52.8647L43.7402 52.7198L43.1587 52.5985L42.57 52.5052L41.9779 52.4401L41.3838 52.4017L40.789 52.3881L40.1944 52.3958L39.6 52.4175L39.0061 52.4497L40.0894 48.8866L40.7003 48.8421L41.3117 48.8099L41.9229 48.7951L42.533 48.8089L43.1394 48.8586L43.7387 48.9507L44.3272 49.0918L44.9008 49.285L45.4566 49.5286L45.9926 49.8164L46.5091 50.1402L47.0084 50.4912L47.4941 50.8609L47.9705 51.2419L48.4416 51.6284L50.3188 53.1831L50.7869 53.5743L51.2521 53.9689L51.7134 54.3675L52.17 54.7706L52.6219 55.178L53.0697 55.589L53.514 56.0034L53.9558 56.4209L54.3954 56.8419L54.8332 57.2666L55.2696 57.6957L55.7046 58.1294L56.1386 58.5676L56.5722 59.0096L57.0055 59.4545L57.4383 59.9015L57.8694 60.3505L58.2967 60.8022L58.7167 61.2585L59.1256 61.7219L59.5201 62.1942L59.8991 62.6762L60.263 63.168L60.6119 63.6692L60.9473 64.179L61.2733 64.6945L61.5923 65.2146L59.9715 67.4606L59.8405 66.8502L59.6969 66.2424L59.5336 65.6391L59.3388 65.0431L59.1073 64.4567L58.8381 63.8813L58.5322 63.3179L58.1911 62.7676L57.8187 62.2317L57.4225 61.7119L57.0152 61.2108L56.6129 60.7346L56.2289 60.2939L55.865 59.8987L55.5095 59.5501L55.14 59.2382L54.7335 58.9517ZM41.6129 61.8429L41.675 61.8985L41.7622 61.9495L41.8976 61.9959L42.0997 62.03L42.3772 62.0442L42.7321 62.0278L43.1592 61.9573L43.6415 61.7999L44.1507 61.5277L44.6552 61.1292L45.1252 60.6096L45.5324 59.9894L45.8476 59.3077L46.0519 58.6199L46.1593 57.9797L46.2123 57.4114L46.2368 56.8599L45.8261 56.9015L44.9232 57.106L44.0954 57.408L43.3565 57.7931L42.7198 58.2444L42.1983 58.7422L41.801 59.2627L41.5289 59.7791L41.3724 60.2634L41.3132 60.6907L41.3244 61.0443L41.3749 61.32L41.4386 61.5249L41.5007 61.6712L41.558 61.7723L41.6129 61.8429Z" fill="white"/>
<path fill-rule="evenodd" clip-rule="evenodd" d="M58.6471 55.0222L58.3816 54.5654L58.1346 54.0645L57.9052 53.533L57.6927 52.984L57.4982 52.4286L57.3258 51.881L57.1812 51.3646L57.0676 50.9106L56.9837 50.5456L56.9232 50.2716L56.8764 50.056L57.2266 50.0562L57.5833 50.0512L57.9558 50.0396L58.3559 50.0164L58.7932 49.9773L59.2711 49.9164L59.7863 49.8258L60.3316 49.6977L60.8973 49.5276L61.4728 49.3143L62.0479 49.059L62.6134 48.764L63.1619 48.4327L63.688 48.0688L64.1872 47.6757L64.657 47.2566L65.0948 46.8138L65.4991 46.3499L65.8682 45.8666L66.2003 45.3654L66.4932 44.8478L66.7446 44.3155L66.952 43.7701L67.1122 43.2137L67.2226 42.649L67.2808 42.0795L67.2845 41.509L67.2323 40.942L67.1237 40.3835L66.959 39.8388L66.7396 39.3131L66.4673 38.8114L66.145 38.3388L65.7761 37.9L65.3642 37.4991L64.9134 37.1402L64.4278 36.827L63.9121 36.5629L63.371 36.351L62.8094 36.1936L62.2327 36.0928L61.6461 36.0497L61.055 36.0645L60.4648 36.1366L59.8801 36.2645L59.3054 36.4458L58.7445 36.6776L58.2002 36.9566L57.6749 37.2791L57.1704 37.6418L56.6887 38.0417L56.2305 38.4757L55.7961 38.9405L55.3864 39.4339L55.0059 39.9559L54.661 40.5076L54.3542 41.0868L54.0824 41.687L53.8399 42.3004L53.624 42.9231L53.4362 43.555L53.2825 44.1911L53.1729 44.799L53.1086 45.3172L53.0729 45.7094L53.054 46.0124L52.8983 45.5601L52.7416 45.0768L52.5845 44.5493L52.4402 43.9847L52.3193 43.4009L52.2264 42.8098L52.1616 42.2154L52.1234 41.6189L52.1098 41.0218L52.1175 40.4247L52.1391 39.828L52.1711 39.2317L48.6223 40.3194L48.578 40.9326L48.5459 41.5465L48.5312 42.1602L48.545 42.7727L48.5944 43.3815L48.6861 43.9832L48.8267 44.5741L49.0191 45.1501L49.2617 45.7081L49.5483 46.2462L49.8709 46.7648L50.2205 47.2661L50.5887 47.7537L50.9682 48.2321L51.3532 48.7051L52.9016 50.5898L53.2913 51.0597L53.6843 51.5269L54.0813 51.99L54.4828 52.4484L54.8885 52.9022L55.298 53.3518L55.7106 53.7979L56.1265 54.2413L56.5458 54.6827L56.9688 55.1223L57.3962 55.5604L57.8282 55.9972L58.2646 56.433L58.7048 56.8683L59.1479 57.3033L59.5932 57.7378L60.0404 58.1707L60.4903 58.5997L60.9448 59.0215L61.4062 59.4319L61.8767 59.828L62.3568 60.2086L62.8466 60.5739L63.3458 60.9242L63.8535 61.2609L64.367 61.5883L64.885 61.9085L67.122 60.2812L66.5141 60.1497L65.9087 60.0055L65.3078 59.8416L64.7142 59.646L64.1302 59.4136L63.557 59.1433L62.9959 58.8362L62.4478 58.4937L61.9141 58.1198L61.3963 57.722L60.8972 57.3131L60.4229 56.9092L59.984 56.5236L59.5904 56.1582L59.2431 55.8013L58.9325 55.4303L58.6471 55.0222ZM61.5268 41.8489L61.5822 41.9113L61.633 41.9989L61.6792 42.1347L61.7132 42.3377L61.7273 42.6163L61.711 42.9727L61.6408 43.4015L61.4839 43.8857L61.2128 44.397L60.816 44.9034L60.2984 45.3754L59.6808 45.7843L59.0018 46.1006L58.3167 46.3058L57.679 46.4136L57.1131 46.4668L56.5637 46.4914L56.6051 46.0791L56.8089 45.1725L57.1096 44.3414L57.4932 43.5995L57.9427 42.9603L58.4385 42.4367L58.957 42.0378L59.4713 41.7646L59.9536 41.6075L60.3793 41.5481L60.7315 41.5593L61.006 41.61L61.2101 41.6739L61.3558 41.7363L61.4565 41.7938L61.5268 41.8489Z" fill="white"/>
</svg>
