<svg width="91" height="92" viewBox="0 0 91 92" fill="none" xmlns="http://www.w3.org/2000/svg">
<g opacity="0.5">
<path d="M25.9443 68.2221L25.9703 68.6153L26.0099 69.0084L25.7537 68.9036L25.4945 68.8088L25.2318 68.7275L24.9648 68.6635L24.6949 68.6172L24.4225 68.5908L24.1477 68.5871L23.8723 68.6064L23.5984 68.6471L23.3279 68.7069L23.062 68.7827L22.8002 68.8713L22.5425 68.9699L22.2888 69.078L22.038 69.1935L21.7895 69.3142L21.91 69.065L22.0251 68.8136L22.1329 68.5592L22.2313 68.3008L22.3196 68.0384L22.3953 67.7718L22.4549 67.5005L22.4954 67.2259L22.5147 66.9499L22.5111 66.6743L22.4847 66.4012L22.4385 66.1306L22.3747 65.8629L22.2936 65.5995L22.199 65.3396L22.0946 65.0828L22.4866 65.1224L22.8788 65.1486L23.27 65.1565L23.659 65.1376L24.043 65.088L24.4197 65.004L24.7869 64.882L25.1428 64.7219L25.4867 64.5284L25.8187 64.3089L26.1409 64.0711L26.4556 63.822L26.7656 63.567L27.0729 63.3096L27.379 63.0513L27.684 62.792L27.9877 62.5311L28.2893 62.2676L28.5882 62.0009L28.8841 61.7308L29.1771 61.4575L29.4673 61.1813L30.3248 60.3564L30.5685 60.1189L30.7533 59.9341L30.8843 59.8005L30.9793 59.703L31.0563 59.6241L31.141 59.5377L31.2746 59.4023L31.48 59.196L31.7277 58.9501L31.976 58.7065L32.4388 58.2568L32.6585 58.0399L32.8731 57.8192L33.0841 57.5879L33.2925 57.3412L33.4988 57.0763L33.7017 56.7918L33.8991 56.4887L34.0917 56.1713L34.279 55.8446L35.2223 55.8462L35.2238 56.7919L34.898 56.9797L34.5814 57.1729L34.2791 57.3708L33.9954 57.5742L33.7312 57.7811L33.4851 57.99L33.2545 58.2015L33.0343 58.4168L32.818 58.637L32.3695 59.101L32.1265 59.3499L31.8813 59.5983L31.6755 59.8042L31.5405 59.9381L31.4543 60.0231L31.3756 60.1003L31.2783 60.1956L31.145 60.3269L30.9607 60.5122L30.7239 60.7565L29.9011 61.6163L29.6256 61.9073L29.353 62.201L29.0837 62.4977L28.8177 62.7974L28.5549 63.0997L28.2946 63.4042L28.036 63.7101L27.7784 64.0169L27.5216 64.3251L27.2674 64.6359L27.0189 64.9514L26.7818 65.2744L26.5628 65.6074L26.3698 65.9521L26.2101 66.309L26.0885 66.6771L26.0047 67.0548L25.9552 67.4398L25.9363 67.8298L25.9442 68.2182L25.9443 68.2221Z" fill="black"/>
<path d="M12.9757 78.5568L12.0533 79.0758L12.5709 78.1509L13.0783 77.2259L13.5692 76.3031L14.0359 75.384L14.4722 74.4712L14.8712 73.5662L15.2256 72.6707L15.5311 71.7874L15.786 70.9203L15.9899 70.073L16.1439 69.2497L16.2504 68.4529L16.3132 67.6849L16.337 66.9456L16.3287 66.2344L16.2966 65.5482L16.2473 64.8837L16.1845 64.2362L16.1133 63.6007L16.036 62.9716L20.9974 62.4807L21.1044 62.8416L21.2078 63.2037L21.3062 63.5678L21.3973 63.9345L21.4798 64.3039L21.5517 64.6763L21.6104 65.0521L21.6547 65.4309L21.6843 65.8121L21.699 66.1946L21.6989 66.5777L21.6841 66.9602L21.6546 67.3414L21.611 67.7206L21.5545 68.0977L21.4873 68.4727L21.4115 68.8459L21.3284 69.2174L21.2402 69.5875L21.1484 69.9568L21.5167 69.8648L21.8859 69.7764L22.2564 69.693L22.6286 69.617L23.0027 69.5496L23.3787 69.493L23.7569 69.4492L24.1371 69.4197L24.5187 69.4048L24.9007 69.4047L25.2823 69.4195L25.6625 69.4491L26.0403 69.4936L26.415 69.5525L26.7865 69.6245L27.155 69.7072L27.5206 69.7986L27.8838 69.8972L28.245 70.0009L28.6049 70.1081L28.1153 75.0826L27.4878 75.0051L26.854 74.9337L26.2082 74.8708L25.5454 74.8213L24.8611 74.7891L24.1517 74.7808L23.4144 74.8047L22.6484 74.8676L21.8536 74.9744L21.0325 75.1288L20.1874 75.3333L19.3225 75.5888L18.4415 75.8951L17.5484 76.2504L16.6458 76.6505L15.7354 77.088L14.8186 77.5558L13.8983 78.0481L12.9757 78.5568Z" fill="black"/>
<path d="M68.0434 26.0124L68.4356 26.0385L68.8276 26.0782L68.7232 25.8214L68.6286 25.5614L68.5475 25.298L68.4838 25.0304L68.4375 24.7598L68.4111 24.4866L68.4075 24.2111L68.4268 23.935L68.4673 23.6604L68.5269 23.3892L68.6026 23.1226L68.6909 22.8601L68.7893 22.6018L68.8972 22.3473L69.0122 22.0959L69.1327 21.8468L68.8842 21.9675L68.6334 22.0829L68.3797 22.191L68.122 22.2897L67.8602 22.3782L67.5943 22.4541L67.3238 22.5139L67.0499 22.5545L66.7745 22.5739L66.4997 22.5702L66.2273 22.5437L65.9574 22.4974L65.6905 22.4334L65.4277 22.3521L65.1685 22.2573L64.9123 22.1526L64.9519 22.5457L64.978 22.9389L64.9859 23.3312L64.967 23.7211L64.9175 24.1061L64.8337 24.4838L64.7121 24.852L64.5524 25.2089L64.3594 25.5536L64.1405 25.8865L63.9033 26.2095L63.6548 26.5251L63.4006 26.8359L63.1438 27.144L62.8862 27.4509L62.6276 27.7568L62.3673 28.0612L62.1045 28.3636L61.8385 28.6632L61.5692 28.9599L61.2966 29.2537L61.0211 29.5447L60.1983 30.4044L59.9615 30.6488L59.7772 30.834L59.6439 30.9653L59.5466 31.0606L59.4679 31.1378L59.3817 31.2228L59.2467 31.3567L59.041 31.5627L58.7957 31.8111L58.5528 32.0599L58.1042 32.524L57.8879 32.7442L57.6677 32.9594L57.4371 33.171L57.191 33.3799L56.9268 33.5867L56.6431 33.7902L56.3408 33.9881L56.0242 34.1813L55.6984 34.3691L55.6999 35.3148L56.6432 35.3163L56.8304 34.9896L57.0231 34.6722L57.2205 34.3691L57.4234 34.0847L57.6297 33.8198L57.8381 33.573L58.0491 33.3418L58.2638 33.121L58.4834 32.9042L58.9462 32.4544L59.1945 32.2109L59.4422 31.965L59.6476 31.7587L59.7812 31.6233L59.8659 31.5369L59.9429 31.458L60.038 31.3605L60.169 31.2268L60.3537 31.042L60.5974 30.8045L61.4549 29.9796L61.7452 29.7034L62.0381 29.4301L62.334 29.1601L62.6329 28.8933L62.9345 28.6298L63.2382 28.3689L63.5433 28.1097L63.8493 27.8513L64.1566 27.5939L64.4666 27.339L64.7813 27.0899L65.1035 26.8521L65.4355 26.6325L65.7794 26.439L66.1353 26.279L66.5025 26.157L66.8792 26.073L67.2632 26.0233L67.6521 26.0044L68.0395 26.0123L68.0434 26.0124Z" fill="black"/>
<path d="M78.3512 13.01L78.8688 12.0851L77.9463 12.6041L77.0238 13.1128L76.1034 13.605L75.1866 14.0729L74.2763 14.5104L73.3736 14.9104L72.4805 15.2658L71.5995 15.5721L70.7346 15.8276L69.8896 16.032L69.0684 16.1865L68.2737 16.2933L67.5077 16.3561L66.7703 16.38L66.061 16.3718L65.3766 16.3396L64.7138 16.2901L64.068 16.2272L63.4343 16.1557L62.8067 16.0783L62.3171 21.0527L62.6771 21.1599L63.0383 21.2636L63.4014 21.3623L63.7671 21.4536L64.1355 21.5364L64.507 21.6084L64.8818 21.6673L65.2596 21.7118L65.6398 21.7414L66.0213 21.7561L66.4034 21.7561L66.7849 21.7412L67.1651 21.7117L67.5434 21.6679L67.9194 21.6112L68.2934 21.5438L68.6657 21.4678L69.0362 21.3845L69.4054 21.2961L69.7737 21.2041L69.6819 21.5733L69.5937 21.9435L69.5106 22.315L69.4348 22.6882L69.3676 23.0632L69.311 23.4402L69.2674 23.8195L69.238 24.2006L69.2231 24.5832L69.223 24.9662L69.2377 25.3488L69.2673 25.73L69.3116 26.1088L69.3704 26.4846L69.4422 26.857L69.5248 27.2264L69.6159 27.593L69.7142 27.9571L69.8177 28.3193L69.9246 28.6802L74.886 28.1893L74.8088 27.5601L74.7375 26.9247L74.6748 26.2772L74.6254 25.6126L74.5933 24.9265L74.5851 24.2153L74.6089 23.476L74.6716 22.708L74.7781 21.9112L74.9322 21.0878L75.1361 20.2406L75.3909 19.3734L75.6964 18.4901L76.0508 17.5947L76.4499 16.6897L76.8862 15.7769L77.3528 14.8577L77.8438 13.9349L78.3512 13.01Z" fill="black"/>
<path d="M68.0432 65.1483L68.4354 65.1222L68.8274 65.0825L68.723 65.3394L68.6284 65.5993L68.5474 65.8627L68.4835 66.1303L68.4373 66.4009L68.4109 66.6741L68.4073 66.9496L68.4266 67.2257L68.4671 67.5003L68.5267 67.7715L68.6024 68.0382L68.6907 68.3006L68.7891 68.5589L68.8969 68.8133L69.012 69.0648L69.1325 69.3139L68.884 69.1932L68.6332 69.0778L68.3794 68.9697L68.1217 68.871L67.86 68.7825L67.5941 68.7066L67.3236 68.6469L67.0497 68.6062L66.7743 68.5868L66.4995 68.5905L66.2271 68.617L65.9572 68.6633L65.6903 68.7273L65.4275 68.8086L65.1683 68.9034L64.9121 69.0081L64.9517 68.6151L64.9777 68.2218L64.9857 67.8295L64.9668 67.4396L64.9173 67.0546L64.8335 66.6769L64.7119 66.3087L64.5523 65.9519L64.3593 65.6071L64.1403 65.2742L63.9031 64.9512L63.6547 64.6356L63.4004 64.3249L63.1437 64.0167L62.886 63.7099L62.6274 63.404L62.3672 63.0995L62.1044 62.7972L61.8383 62.4975L61.569 62.2008L61.2964 61.9071L61.0209 61.6161L60.1982 60.7563L59.9613 60.512L59.777 60.3267L59.6437 60.1954L59.4678 60.0229L59.3816 59.938L59.2466 59.804L59.0408 59.5981L58.7955 59.3497L58.5526 59.1008L58.1041 58.6368L57.8878 58.4166L57.6676 58.2014L57.4369 57.9898L57.1909 57.7809L56.9267 57.574L56.643 57.3706L56.3406 57.1727L56.0241 56.9795L55.6983 56.7917L55.6998 55.846L56.643 55.8445L56.8303 56.1711L57.023 56.4886L57.2204 56.7917L57.4233 57.0761L57.6296 57.341L57.838 57.5877L58.049 57.819L58.2636 58.0398L58.4833 58.2566L58.9461 58.7063L59.1943 58.9498L59.442 59.1958L59.6474 59.4021L59.781 59.5375L59.8658 59.6239L60.0378 59.8003L60.1688 59.934L60.3536 60.1187L60.5972 60.3562L61.4547 61.1811L61.745 61.4573L62.0379 61.7307L62.3339 62.0007L62.6327 62.2674L62.9343 62.5309L63.238 62.7918L63.5431 63.0511L63.8491 63.3094L64.1565 63.5668L64.4664 63.8218L64.7811 64.0708L65.1033 64.3086L65.4354 64.5282L65.7792 64.7217L66.1351 64.8818L66.5023 65.0037L66.879 65.0877L67.263 65.1374L67.652 65.1563L68.0432 65.1483Z" fill="black"/>
<path d="M78.3507 78.1507L78.8683 79.0756L77.9459 78.5565L77.0233 78.0479L76.103 77.5556L75.1862 77.0878L74.2758 76.6503L73.3732 76.2503L72.4801 75.8949L71.5991 75.5886L70.7342 75.3331L69.8891 75.1287L69.068 74.9743L68.2732 74.8675L67.5072 74.8046L66.7699 74.7807L66.0606 74.789L65.3762 74.8212L64.7134 74.8707L64.0676 74.9335L63.4338 75.005L62.8063 75.0825L62.3167 70.108L62.6767 70.0008L63.0379 69.8971L63.401 69.7985L63.7667 69.7071L64.1351 69.6244L64.5066 69.5523L64.8814 69.4934L65.2592 69.449L65.6394 69.4193L66.021 69.4046L66.403 69.4047L66.7846 69.4195L67.1647 69.4491L67.543 69.4928L67.919 69.5495L68.293 69.6169L68.6653 69.6929L69.0358 69.7762L69.405 69.8646L69.7733 69.9566L69.6815 69.5874L69.5933 69.2172L69.5102 68.8457L69.4344 68.4725L69.3672 68.0975L69.3106 67.7205L69.267 67.3412L69.2376 66.9601L69.2228 66.5775L69.2227 66.1945L69.2374 65.8119L69.267 65.4307L69.3113 65.0519L69.37 64.6761L69.4418 64.3037L69.5244 63.9343L69.6155 63.5677L69.7139 63.2036L69.8173 62.8414L69.9243 62.4805L74.8857 62.9714L74.8084 63.6005L74.7372 64.236L74.6745 64.8835L74.6251 65.5481L74.593 66.2342L74.5848 66.9454L74.6085 67.6847L74.6712 68.4527L74.7778 69.2495L74.9318 70.0728L75.1357 70.9201L75.3905 71.7872L75.696 72.6705L76.0504 73.566L76.4495 74.471L76.8858 75.3838L77.3524 76.303L77.8433 77.2257L78.3456 78.1414L78.3507 78.1507Z" fill="black"/>
<path fill-rule="evenodd" clip-rule="evenodd" d="M46.4766 29.8464L45.461 29.8541L44.4454 29.8463L44.4458 29.5316L44.4449 29.2001L44.4376 28.8452L44.4147 28.4737L44.3666 28.0982L44.2867 27.7286L44.1695 27.3714L44.0098 27.0335L43.8042 26.722L43.5538 26.4435L43.2644 26.2025L42.9451 26.0001L42.6046 25.8336L42.2508 25.697L41.8904 25.5838L41.5283 25.4904L41.1634 25.4142L40.7889 25.3466L40.4048 25.2663L40.0241 25.1451L39.6636 24.9662L39.3343 24.7333L39.0425 24.4618L38.7914 24.1638L38.5798 23.8445L38.4027 23.5073L38.2537 23.1579L38.1265 22.802L38.0129 22.4438L37.9102 22.0834L40.9692 21.3578L40.9646 21.5642L40.9629 21.7726L40.9673 21.9837L40.9846 22.196L41.0224 22.4058L41.0873 22.6076L41.1834 22.7956L41.3109 22.9651L41.4669 23.1119L41.6461 23.2321L41.8427 23.3215L42.0512 23.3764L42.2672 23.3944L42.4866 23.3758L42.705 23.3231L42.9173 23.2411L43.1186 23.1343L43.3047 23.0053L43.4719 22.8552L43.6172 22.6852L43.7392 22.4972L43.8385 22.294L43.9176 22.0786L43.9799 21.8545L44.0284 21.6309L44.0662 21.4226L44.0967 21.2389L44.123 21.0732L44.1027 21.04L44.0599 20.9766L43.9687 20.8514L43.8052 20.6546L43.5693 20.4053L43.2765 20.1336L42.9323 19.8661L42.5332 19.6183L42.078 19.3956L41.5692 19.1985L41.0097 19.0265L40.4017 18.8792L39.7481 18.7555L39.0552 18.6544L38.3299 18.5754L37.5785 18.5159L36.8094 18.4688L36.0319 18.4296L36.3494 18.2981L36.6373 18.1608L36.8869 18.0237L37.1072 17.8834L37.3152 17.7369L37.5196 17.5824L37.7202 17.4177L37.913 17.2396L38.0937 17.0468L38.2587 16.8408L38.4058 16.6246L38.5329 16.4018L38.6393 16.1763L38.7249 15.9516L38.7903 15.7307L38.8367 15.5156L38.8656 15.3075L38.8787 15.1068L38.8775 14.9136L38.8633 14.7273L38.8373 14.5474L38.8002 14.3735L38.7523 14.205L38.6937 14.0416L38.6244 13.8834L38.5441 13.7303L38.4529 13.5828L38.3509 13.4412L38.2381 13.3061L38.1151 13.1782L37.9824 13.0582L37.8408 12.9468L37.6909 12.8446L37.5339 12.7519L37.3706 12.669L37.202 12.5958L37.0292 12.532L36.8531 12.4774L36.6745 12.4315L36.4944 12.3945L36.3135 12.3664L36.1326 12.3479L35.9526 12.34L35.7745 12.3436L35.5995 12.3597L35.4286 12.389L35.2632 12.432L35.1048 12.4886L34.9545 12.5585L34.814 12.6412L34.6844 12.7359L34.567 12.8413L34.4627 12.9563L34.3721 13.0795L34.2957 13.2094L34.2336 13.3447L34.186 13.4837L34.1529 13.625L34.1342 13.767L34.1301 13.9082L34.1408 14.0469L34.1662 14.1816L34.2064 14.3109L34.2615 14.4334L34.3313 14.5475L34.4155 14.6517L34.5136 14.7442L34.6248 14.8226L34.7477 14.8842L34.8798 14.9258L35.0176 14.9443L35.1564 14.9375L35.2906 14.9042L35.4144 14.8449L35.5222 14.7616L35.6101 14.6577L35.6762 14.5374L35.722 14.4051L35.7506 14.2646L35.7644 14.1194L35.7622 13.9724L35.7426 13.826L35.7095 13.6803L35.665 13.5363L35.9143 13.6449L36.1576 13.7734L36.3921 13.9262L36.6104 14.1108L36.8079 14.3234L36.9801 14.5585L37.1187 14.816L37.2117 15.0981L37.2465 15.4033L37.2134 15.7238L37.1075 16.0467L36.9293 16.3567L36.6836 16.6389L36.379 16.8807L36.0263 17.0725L35.6373 17.2085L35.2236 17.2856L34.7958 17.3028L34.3639 17.2594L33.9375 17.1557L33.526 16.9923L33.139 16.7711L32.7855 16.4956L32.4739 16.1704L32.2111 15.8021L32.0028 15.3982L31.8528 14.9671L31.7629 14.5173L31.7336 14.0575L31.7636 13.5957L31.8505 13.1394L31.9911 12.695L32.1818 12.2684L32.4185 11.8646L32.6973 11.4882L33.0138 11.1433L33.364 10.834L33.7432 10.5639L34.1465 10.3365L34.5686 10.1547L35.0033 10.0206L35.4444 9.93511L35.8857 9.89797L36.3209 9.90741L36.7447 9.96038L37.1524 10.0528L37.5405 10.1799L37.9064 10.337L38.2487 10.5196L38.5661 10.7237L38.8579 10.9462L39.1236 11.1845L39.3626 11.4367L39.5747 11.701L39.7596 11.976L39.9175 12.2602L40.0492 12.552L40.1555 12.85L40.238 13.1528L40.2982 13.4593L40.3378 13.7684L40.3575 14.0789L40.358 14.39L40.3401 14.7008L40.3038 15.0105L40.2475 15.3177L40.1676 15.6199L40.0632 15.9161L39.9409 16.208L39.805 16.4956L40.1714 16.231L40.5425 15.9403L40.9339 15.5956L41.3443 15.1685L41.7561 14.6644L42.1497 14.1058L42.5135 13.5037L42.842 12.8602L43.135 12.1795L43.3955 11.4661L43.627 10.7253L43.8331 9.96154L44.0184 9.17834L44.1878 8.37933L44.3452 7.56774L44.4939 6.74531L44.6374 5.91442L44.781 5.07736L44.9273 4.23555L45.0697 3.39032L45.1952 2.54339L45.2975 1.69582L45.383 0.847956L45.4611 0L45.5392 0.847933L45.6247 1.69579L45.727 2.54342L45.8526 3.39031L45.9949 4.23553L46.1412 5.07737L46.2848 5.91439L46.4283 6.74534L46.577 7.56773L46.7345 8.37932L46.9038 9.17832L47.0891 9.96152L47.2952 10.7252L47.5266 11.4661L47.7872 12.1795L48.0802 12.8602L48.4086 13.5037L48.7724 14.1059L49.1661 14.6643L49.5778 15.1685L49.9883 15.5956L50.3796 15.9403L50.7507 16.2309L51.1171 16.4956L50.9813 16.208L50.859 15.916L50.7545 15.6199L50.6747 15.3177L50.6184 15.0105L50.5821 14.7008L50.5641 14.39L50.5646 14.0789L50.5844 13.7683L50.6239 13.4593L50.6842 13.1528L50.7666 12.85L50.873 12.5519L51.0047 12.2601L51.1626 11.976L51.3475 11.701L51.5596 11.4366L51.7986 11.1845L52.0643 10.9461L52.3561 10.7236L52.6734 10.5195L53.0157 10.337L53.3817 10.1798L53.7698 10.0527L54.1775 9.96031L54.6012 9.90735L55.0365 9.89788L55.4777 9.93504L55.9189 10.0205L56.3536 10.1546L56.7756 10.3364L57.1789 10.5638L57.5582 10.8339L57.9083 11.1433L58.2249 11.4881L58.5036 11.8645L58.7404 12.2683L58.931 12.6949L59.0716 13.1393L59.1586 13.5956L59.1886 14.0574L59.1592 14.5172L59.0694 14.967L58.9193 15.3981L58.711 15.8021L58.4483 16.1703L58.1366 16.4955L57.7831 16.7711L57.3961 16.9922L56.9847 17.1556L56.5582 17.2594L56.1263 17.3027L55.6986 17.2856L55.2848 17.2084L54.8959 17.0725L54.5432 16.8807L54.2385 16.6389L53.9928 16.3567L53.8147 16.0466L53.7088 15.7238L53.6757 15.4032L53.7105 15.0981L53.8034 14.816L53.942 14.5585L54.1142 14.3234L54.3117 14.1107L54.53 13.9262L54.7646 13.7734L55.0079 13.6448L55.2572 13.5362L55.2127 13.6802L55.1796 13.8259L55.16 13.9724L55.1578 14.1193L55.1715 14.2646L55.2002 14.405L55.2459 14.5373L55.3121 14.6576L55.3999 14.7615L55.5077 14.8448L55.6315 14.9041L55.7657 14.9374L55.9045 14.9443L56.0424 14.9257L56.1744 14.8841L56.2973 14.8226L56.4085 14.7441L56.5067 14.6516L56.5909 14.5474L56.6606 14.4333L56.7157 14.3109L56.756 14.1815L56.7814 14.0468L56.792 13.9081L56.788 13.7669L56.7693 13.6249L56.7361 13.4836L56.6885 13.3446L56.6265 13.2094L56.5501 13.0794L56.4595 12.9562L56.3552 12.8412L56.2377 12.7358L56.1082 12.6412L55.9676 12.5585L55.8174 12.4885L55.6589 12.4319L55.4936 12.389L55.3227 12.3596L55.1476 12.3435L54.9696 12.3399L54.7896 12.3479L54.6087 12.3663L54.4278 12.3944L54.2476 12.4314L54.0691 12.4773L53.8929 12.5319L53.7201 12.5957L53.5515 12.6689L53.3883 12.7518L53.2312 12.8445L53.0814 12.9468L52.9398 13.0582L52.807 13.1782L52.684 13.306L52.5713 13.4411L52.4692 13.5827L52.378 13.7303L52.2978 13.8833L52.2285 14.0416L52.1699 14.2049L52.122 14.3734L52.0848 14.5474L52.0588 14.7272L52.0447 14.9135L52.0435 15.1068L52.0565 15.3075L52.0854 15.5156L52.1318 15.7307L52.1973 15.9515L52.2828 16.1762L52.3892 16.4017L52.5164 16.6245L52.6634 16.8408L52.8285 17.0468L53.0091 17.2395L53.2019 17.4176L53.4025 17.5824L53.6069 17.7368L53.8149 17.8833L54.0352 18.0237L54.2848 18.1608L54.5727 18.298L54.8902 18.4295L54.1127 18.4688L53.3436 18.5158L52.5923 18.5754L51.8669 18.6544L51.174 18.7555L50.5204 18.8792L49.9124 19.0265L49.3529 19.1984L48.8441 19.3956L48.3889 19.6183L47.9898 19.8661L47.6456 20.1336L47.3528 20.4053L47.117 20.6546L46.9534 20.8513L46.8622 20.9767L46.8194 21.04L46.7991 21.0732L46.8255 21.2388L46.8559 21.4226L46.8937 21.6309L46.9422 21.8545L47.0045 22.0786L47.0836 22.294L47.1829 22.4972L47.3049 22.6852L47.4502 22.8552L47.6173 23.0053L47.8035 23.1342L48.0048 23.241L48.2171 23.323L48.4355 23.3757L48.6549 23.3944L48.8709 23.3764L49.0794 23.3215L49.276 23.2321L49.4552 23.1119L49.6112 22.9651L49.7387 22.7956L49.8347 22.6076L49.8997 22.4057L49.9375 22.1959L49.9548 21.9836L49.9592 21.7726L49.9575 21.5642L49.9529 21.3578L53.0119 22.0833L52.9092 22.4437L52.7956 22.802L52.6684 23.1578L52.5194 23.5072L52.3423 23.8444L52.1307 24.1638L51.8795 24.4618L51.5878 24.7333L51.2585 24.9662L50.898 25.1451L50.5173 25.2663L50.1331 25.3466L49.7587 25.4142L49.3938 25.4903L49.0317 25.5838L48.6713 25.697L48.3175 25.8336L47.977 26.0001L47.6576 26.2024L47.3683 26.4435L47.1178 26.722L46.9123 27.0335L46.7526 27.3714L46.6354 27.7286L46.5554 28.0982L46.5074 28.4736L46.4845 28.8452L46.4772 29.2002L46.4763 29.5316L46.4766 29.8464ZM45.533 11.0776L45.4614 10.3982L45.4606 10.405L45.3897 11.0776L45.3223 11.6969L45.2617 12.2358L45.2001 12.7523L45.1249 13.2987L45.0271 13.8375L44.9079 14.3152L44.7713 14.7336L44.6164 15.1174L44.4391 15.4852L44.2373 15.8469L44.0161 16.1992L43.7801 16.5337L43.5254 16.845L43.2465 17.1308L42.9438 17.3924L42.6224 17.6336L42.288 17.8593L41.9461 18.0755L41.599 18.285L41.9979 18.4422L42.3915 18.6107L42.7776 18.7942L43.1531 19.0004L43.5156 19.2336L43.8607 19.4996L44.1809 19.8056L44.4678 20.1549L44.7158 20.545L44.9234 20.9687L45.0933 21.4174L45.2324 21.8831L45.3528 22.3584L45.4613 22.8387L45.5698 22.3584L45.6902 21.8831L45.8292 21.4175L45.9992 20.9687L46.2068 20.545L46.4548 20.1549L46.7417 19.8056L47.0619 19.4996L47.407 19.2335L47.7695 19.0003L48.145 18.7942L48.5312 18.6107L48.9247 18.4422L49.3236 18.285L48.9766 18.0755L48.6346 17.8593L48.3002 17.6336L47.9788 17.3924L47.6761 17.1308L47.3972 16.845L47.1425 16.5338L46.9065 16.1992L46.6853 15.8469L46.4836 15.4853L46.3063 15.1174L46.1513 14.7336L46.0147 14.3152L45.8955 13.8375L45.7977 13.2987L45.7226 12.7523L45.661 12.2358L45.6004 11.6969L45.533 11.0776Z" fill="black"/>
<path fill-rule="evenodd" clip-rule="evenodd" d="M61.154 44.5622L61.1463 45.5805L61.154 46.5987L61.468 46.5984L61.7985 46.5993L62.1525 46.6066L62.5231 46.6296L62.8976 46.6777L63.2663 46.7579L63.6225 46.8754L63.9595 47.0355L64.2702 47.2416L64.548 47.4927L64.7884 47.7828L64.9902 48.103L65.1562 48.4444L65.2925 48.7991L65.4054 49.1605L65.4986 49.5235L65.5746 49.8894L65.642 50.2648L65.7221 50.65L65.8429 51.0316L66.0214 51.3931L66.2537 51.7232L66.5245 52.0158L66.8217 52.2676L67.1402 52.4797L67.4765 52.6572L67.825 52.8067L68.1799 52.9342L68.5372 53.0481L68.8967 53.151L69.6204 50.084L69.4145 50.0887L69.2067 50.0904L68.9961 50.0859L68.7844 50.0686L68.5751 50.0307L68.3739 49.9656L68.1863 49.8693L68.0173 49.7414L67.8708 49.585L67.751 49.4054L67.6618 49.2083L67.6071 48.9992L67.5891 48.7826L67.6077 48.5627L67.6602 48.3437L67.742 48.1309L67.8485 47.929L67.9772 47.7424L68.1268 47.5748L68.2964 47.4291L68.484 47.3068L68.6866 47.2072L68.9015 47.1279L69.125 47.0655L69.348 47.0168L69.5558 46.9789L69.739 46.9484L69.9042 46.922L69.9373 46.9423L70.0005 46.9853L70.1255 47.0767L70.3217 47.2406L70.5703 47.4772L70.8413 47.7707L71.1081 48.1158L71.3553 48.516L71.5774 48.9723L71.774 49.4825L71.9456 50.0434L72.0925 50.653L72.2158 51.3083L72.3167 52.0031L72.3955 52.7303L72.4549 53.4837L72.5018 54.2548L72.5409 55.0343L72.6721 54.7159L72.809 54.4273L72.9457 54.1771L73.0857 53.9562L73.2318 53.7476L73.3859 53.5427L73.5502 53.3416L73.7278 53.1483L73.9201 52.9671L74.1255 52.8016L74.3412 52.6542L74.5634 52.5267L74.7884 52.42L75.0124 52.3343L75.2327 52.2687L75.4472 52.2221L75.6548 52.1931L75.855 52.18L76.0477 52.1813L76.2335 52.1955L76.4129 52.2215L76.5864 52.2587L76.7545 52.3068L76.9174 52.3655L77.0752 52.4351L77.2279 52.5155L77.3751 52.6069L77.5163 52.7092L77.651 52.8223L77.7786 52.9456L77.8982 53.0787L78.0094 53.2207L78.1113 53.3709L78.2038 53.5284L78.2865 53.6921L78.3595 53.8611L78.4231 54.0344L78.4776 54.211L78.5233 54.39L78.5602 54.5706L78.5883 54.752L78.6067 54.9333L78.6146 55.1138L78.611 55.2923L78.5949 55.4679L78.5657 55.6392L78.5229 55.805L78.4664 55.9639L78.3966 56.1145L78.3141 56.2554L78.2197 56.3853L78.1146 56.5031L77.9999 56.6077L77.877 56.6985L77.7474 56.7751L77.6125 56.8373L77.4738 56.885L77.3329 56.9183L77.1913 56.937L77.0505 56.9411L76.9122 56.9304L76.7778 56.9049L76.6488 56.8646L76.5267 56.8094L76.4129 56.7394L76.3089 56.655L76.2167 56.5566L76.1384 56.4451L76.077 56.3219L76.0356 56.1894L76.017 56.0513L76.0239 55.9121L76.0571 55.7775L76.1162 55.6534L76.1993 55.5453L76.3029 55.4572L76.4229 55.3909L76.5549 55.345L76.695 55.3163L76.8399 55.3025L76.9864 55.3047L77.1325 55.3244L77.2778 55.3576L77.4214 55.4022L77.3131 55.1522L77.1849 54.9083L77.0325 54.6731L76.8484 54.4543L76.6364 54.2562L76.4018 54.0836L76.145 53.9446L75.8637 53.8514L75.5593 53.8166L75.2396 53.8497L74.9176 53.9559L74.6084 54.1346L74.3269 54.3808L74.0857 54.6863L73.8944 55.04L73.7588 55.43L73.6819 55.8447L73.6648 56.2736L73.708 56.7067L73.8115 57.1342L73.9745 57.5468L74.195 57.9348L74.4699 58.2892L74.7942 58.6017L75.1615 58.8651L75.5643 59.074L75.9944 59.2244L76.443 59.3145L76.9016 59.3439L77.3621 59.3138L77.8173 59.2267L78.2605 59.0857L78.686 58.8945L79.0887 58.6571L79.4641 58.3777L79.8081 58.0603L80.1166 57.7092L80.386 57.329L80.6128 56.9246L80.7942 56.5015L80.9279 56.0656L81.0132 55.6233L81.0502 55.1809L81.0408 54.7445L80.988 54.3196L80.8958 53.9109L80.769 53.5218L80.6123 53.1548L80.4303 52.8117L80.2267 52.4935L80.0048 52.2009L79.7671 51.9345L79.5155 51.6949L79.2519 51.4822L78.9776 51.2969L78.6942 51.1385L78.4032 51.0065L78.1059 50.8999L77.8039 50.8172L77.4982 50.7568L77.1899 50.7171L76.8802 50.6974L76.5699 50.6968L76.2599 50.7149L75.951 50.7512L75.6447 50.8077L75.3432 50.8878L75.0479 50.9924L74.7567 51.1151L74.4698 51.2513L74.7338 50.8839L75.0237 50.5118L75.3675 50.1195L75.7934 49.708L76.2963 49.2951L76.8533 48.9005L77.4539 48.5357L78.0957 48.2063L78.7747 47.9126L79.4862 47.6514L80.2251 47.4193L80.9868 47.2127L81.768 47.0268L82.5649 46.857L83.3743 46.6992L84.1946 46.5501L85.0233 46.4062L85.8582 46.2623L86.6978 46.1156L87.5408 45.9728L88.3856 45.847L89.2309 45.7444L90.0765 45.6586L90.9223 45.5803L90.0766 45.5021L89.2309 45.4163L88.3855 45.3137L87.5408 45.1879L86.6978 45.0451L85.8582 44.8984L85.0234 44.7545L84.1946 44.6106L83.3743 44.4615L82.5649 44.3037L81.768 44.1339L80.9868 43.948L80.2251 43.7414L79.4862 43.5094L78.7747 43.2482L78.0957 42.9544L77.454 42.6251L76.8534 42.2603L76.2963 41.8656L75.7935 41.4528L75.3675 41.0413L75.0237 40.649L74.7338 40.2768L74.4699 39.9094L74.7567 40.0457L75.0479 40.1683L75.3433 40.273L75.6447 40.3531L75.9511 40.4096L76.26 40.4459L76.5699 40.464L76.8802 40.4634L77.19 40.4436L77.4982 40.404L77.8039 40.3436L78.106 40.2609L78.4032 40.1543L78.6943 40.0223L78.9776 39.8639L79.2519 39.6785L79.5156 39.4659L79.7671 39.2262L80.0048 38.9599L80.2267 38.6673L80.4303 38.3491L80.6124 38.0059L80.7691 37.639L80.8959 37.2499L80.988 36.8411L81.0408 36.4162L81.0503 35.9798L81.0132 35.5374L80.928 35.0951L80.7942 34.6592L80.6129 34.2361L80.3861 33.8318L80.1167 33.4515L79.8082 33.1005L79.4642 32.783L79.0888 32.5036L78.6861 32.2663L78.2606 32.0751L77.8174 31.9341L77.3623 31.8469L76.9017 31.8169L76.4431 31.8463L75.9945 31.9363L75.5644 32.0868L75.1616 32.2957L74.7942 32.5591L74.47 32.8716L74.1951 33.226L73.9745 33.614L73.8115 34.0266L73.708 34.4541L73.6648 34.8872L73.6819 35.316L73.7589 35.7308L73.8945 36.1208L74.0858 36.4745L74.3269 36.78L74.6084 37.0262L74.9176 37.2049L75.2396 37.3111L75.5593 37.3442L75.8637 37.3093L76.1451 37.2161L76.4019 37.0772L76.6364 36.9046L76.8485 36.7065L77.0326 36.4877L77.185 36.2524L77.3132 36.0085L77.4215 35.7586L77.2779 35.8032L77.1325 35.8364L76.9865 35.856L76.8399 35.8583L76.695 35.8445L76.5549 35.8157L76.423 35.7699L76.303 35.7036L76.1994 35.6155L76.1163 35.5074L76.0571 35.3833L76.0239 35.2487L76.0171 35.1095L76.0356 34.9714L76.0771 34.8389L76.1385 34.7157L76.2167 34.6042L76.309 34.5058L76.4129 34.4214L76.5268 34.3514L76.6489 34.2962L76.7778 34.2558L76.9122 34.2304L77.0506 34.2197L77.1914 34.2238L77.333 34.2425L77.4739 34.2758L77.6126 34.3235L77.7475 34.3857L77.8771 34.4623L78 34.5531L78.1147 34.6577L78.2198 34.7755L78.3142 34.9054L78.3967 35.0463L78.4664 35.1969L78.5229 35.3558L78.5657 35.5216L78.595 35.6929L78.611 35.8684L78.6146 36.047L78.6067 36.2274L78.5883 36.4088L78.5603 36.5901L78.5234 36.7708L78.4776 36.9498L78.4231 37.1264L78.3596 37.2997L78.2865 37.4687L78.2038 37.6324L78.1114 37.7898L78.0094 37.9401L77.8983 38.0821L77.7786 38.2152L77.6511 38.3385L77.5163 38.4516L77.3751 38.5539L77.2279 38.6453L77.0753 38.7257L76.9174 38.7952L76.7545 38.854L76.5864 38.902L76.413 38.9393L76.2336 38.9653L76.0478 38.9795L75.855 38.9807L75.6549 38.9677L75.4473 38.9386L75.2328 38.8921L75.0125 38.8265L74.7884 38.7407L74.5635 38.6341L74.3412 38.5066L74.1255 38.3592L73.9201 38.1937L73.7279 38.0125L73.5503 37.8192L73.3859 37.6181L73.2318 37.4132L73.0857 37.2046L72.9458 36.9837L72.8091 36.7335L72.6722 36.4449L72.541 36.1266L72.5018 36.906L72.4549 37.6772L72.3955 38.4305L72.3167 39.1577L72.2159 39.8525L72.0925 40.5078L71.9456 41.1174L71.7741 41.6783L71.5774 42.1885L71.3553 42.6449L71.1081 43.045L70.8413 43.3902L70.5703 43.6837L70.3217 43.9202L70.1255 44.0841L70.0005 44.1756L69.9373 44.2185L69.9042 44.2389L69.739 44.2124L69.5558 44.1819L69.348 44.144L69.125 44.0953L68.9015 44.0329L68.6866 43.9536L68.484 43.854L68.2964 43.7317L68.1269 43.5861L67.9772 43.4185L67.8486 43.2318L67.742 43.03L67.6603 42.8171L67.6077 42.5981L67.5891 42.3782L67.6071 42.1617L67.6618 41.9525L67.751 41.7555L67.8709 41.5758L68.0173 41.4194L68.1864 41.2915L68.3739 41.1952L68.5752 41.1301L68.7844 41.0922L68.9962 41.0749L69.2067 41.0704L69.4145 41.0721L69.6204 41.0768L68.8968 38.0098L68.5373 38.1128L68.1799 38.2266L67.825 38.3542L67.4766 38.5036L67.1403 38.6811L66.8217 38.8932L66.5245 39.1451L66.2537 39.4376L66.0214 39.7678L65.8429 40.1292L65.7221 40.5109L65.642 40.8961L65.5746 41.2715L65.4986 41.6374L65.4055 42.0004L65.2925 42.3617L65.1563 42.7165L64.9902 43.0579L64.7884 43.3781L64.548 43.6682L64.2702 43.9193L63.9595 44.1254L63.6225 44.2855L63.2662 44.403L62.8976 44.4832L62.5231 44.5313L62.1525 44.5543L61.7985 44.5616L61.468 44.5625L61.154 44.5622ZM79.8736 45.5084L80.5513 45.5803L80.5445 45.581L79.8737 45.6522L79.256 45.7197L78.7185 45.7805L78.2033 45.8422L77.6584 45.9176L77.1209 46.0157L76.6445 46.1352L76.2272 46.2721L75.8444 46.4275L75.4775 46.6053L75.1168 46.8076L74.7654 47.0293L74.4317 47.2659L74.1213 47.5213L73.8362 47.801L73.5753 48.1044L73.3347 48.4266L73.1096 48.762L72.894 49.1048L72.6851 49.4528L72.5283 49.0528L72.3602 48.6582L72.1772 48.2711L71.9716 47.8946L71.739 47.5312L71.4736 47.1852L71.1684 46.8641L70.8201 46.5764L70.431 46.3278L70.0084 46.1196L69.5608 45.9493L69.0964 45.8098L68.6223 45.6891L68.1433 45.5804L68.6223 45.4715L69.0964 45.3509L69.5608 45.2114L70.0084 45.0411L70.431 44.8329L70.8201 44.5843L71.1685 44.2966L71.4736 43.9755L71.739 43.6295L71.9716 43.2661L72.1772 42.8896L72.3602 42.5024L72.5283 42.1079L72.6851 41.7079L72.894 42.0559L73.1097 42.3987L73.3347 42.734L73.5754 43.0563L73.8363 43.3597L74.1213 43.6393L74.4318 43.8947L74.7654 44.1313L75.1168 44.3531L75.4775 44.5554L75.8444 44.7331L76.2272 44.8885L76.6445 45.0255L77.1209 45.145L77.6584 45.243L78.2033 45.3184L78.7185 45.3801L79.256 45.4409L79.8736 45.5084Z" fill="black"/>
<path fill-rule="evenodd" clip-rule="evenodd" d="M60.8598 32.2938L61.1094 32.1477L61.3831 32.0119L61.6735 31.8857L61.9734 31.7688L62.2769 31.6619L62.5761 31.5671L62.8582 31.4875L63.1063 31.4251L63.3057 31.3789L63.4554 31.3456L63.5732 31.3199L63.5731 31.5125L63.5758 31.7087L63.5822 31.9136L63.5948 32.1336L63.6162 32.3741L63.6495 32.637L63.699 32.9203L63.769 33.2203L63.8619 33.5314L63.9784 33.8479L64.118 34.1642L64.2791 34.4752L64.4601 34.7769L64.659 35.0662L64.8737 35.3408L65.1028 35.5992L65.3446 35.84L65.5981 36.0624L65.8622 36.2654L66.136 36.448L66.4188 36.6091L66.7097 36.7474L67.0076 36.8614L67.3116 36.9496L67.6202 37.0103L67.9313 37.0423L68.2431 37.0443L68.5528 37.0156L68.8579 36.9559L69.1555 36.8653L69.4428 36.7446L69.7169 36.5949L69.9751 36.4176L70.2149 36.2147L70.4339 35.9882L70.63 35.7402L70.8011 35.4732L70.9454 35.1895L71.0612 34.8919L71.1472 34.583L71.2022 34.2658L71.2258 33.9432L71.2177 33.6181L71.1783 33.2935L71.1084 32.9719L71.0094 32.6558L70.8827 32.3473L70.7303 32.048L70.5541 31.759L70.3559 31.4816L70.1374 31.2166L69.9003 30.9647L69.6464 30.7257L69.3768 30.5004L69.0916 30.2911L68.7902 30.1014L68.4737 29.9327L68.1458 29.7832L67.8106 29.6498L67.4704 29.531L67.1251 29.4278L66.7776 29.3432L66.4455 29.283L66.1624 29.2476L65.9481 29.228L65.7825 29.2175L66.0296 29.1319L66.2937 29.0457L66.5819 28.9593L66.8904 28.88L67.2093 28.8135L67.5323 28.7624L67.8571 28.7268L68.183 28.7057L68.5092 28.6983L68.8354 28.7025L69.1615 28.7144L69.4873 28.732L68.893 26.7801L68.5579 26.7558L68.2225 26.7381L67.8872 26.73L67.5526 26.7376L67.2199 26.7648L66.8912 26.8152L66.5683 26.8925L66.2537 26.9984L65.9488 27.1318L65.6548 27.2895L65.3714 27.4668L65.0975 27.6591L64.8311 27.8617L64.5698 28.0704L64.3113 28.2821L63.2815 29.1338L63.0248 29.3481L62.7696 29.5642L62.5166 29.7826L62.2661 30.0034L62.0182 30.2265L61.7725 30.4517L61.5288 30.6787L61.2865 30.9075L61.0453 31.138L60.8051 31.3707L60.5658 31.6058L60.3271 31.8434L60.089 32.0834L59.8512 32.3255L59.6135 32.5692L59.3761 32.8141L59.1396 33.0601L58.9052 33.3075L58.6748 33.5575L58.4505 33.8113L58.2341 34.07L58.0262 34.3341L57.8266 34.6035L57.6352 34.878L57.4512 35.1573L57.2724 35.4397L57.0974 35.7246L57.9865 36.955L58.0583 36.6206L58.1371 36.2877L58.2267 35.9572L58.3335 35.6307L58.4605 35.3095L58.6082 34.9942L58.776 34.6856L58.9631 34.3842L59.1674 34.0906L59.3847 33.8058L59.6082 33.5313L59.8289 33.2705L60.0395 33.029L60.2391 32.8126L60.4342 32.6216L60.6369 32.4507L60.8598 32.2938ZM68.0573 33.8776L68.0232 33.9081L67.9754 33.936L67.9011 33.9614L67.7902 33.9801L67.638 33.9879L67.4433 33.9789L67.209 33.9403L66.9445 33.854L66.6651 33.7049L66.3884 33.4866L66.1305 33.202L65.9072 32.8622L65.7343 32.4888L65.6222 32.112L65.5633 31.7613L65.5342 31.4501L65.5208 31.1479L65.7461 31.1707L66.2414 31.2827L66.6955 31.4481L67.1008 31.6591L67.4501 31.9064L67.7361 32.1791L67.9541 32.4642L68.1034 32.747L68.1892 33.0124L68.2217 33.2464L68.2155 33.4402L68.1878 33.5912L68.1529 33.7034L68.1188 33.7835L68.0874 33.8389L68.0573 33.8776Z" fill="black"/>
<path fill-rule="evenodd" clip-rule="evenodd" d="M58.713 30.1412L58.8586 29.891L58.9941 29.6166L59.1199 29.3254L59.2365 29.0247L59.3432 28.7204L59.4378 28.4205L59.5171 28.1376L59.5794 27.8889L59.6254 27.6889L59.6586 27.5388L59.6843 27.4207L59.4922 27.4208L59.2966 27.4181L59.0922 27.4117L58.8727 27.3991L58.6328 27.3776L58.3707 27.3443L58.0881 27.2946L57.7889 27.2245L57.4786 27.1313L57.1629 27.0144L56.8475 26.8746L56.5372 26.7129L56.2363 26.5315L55.9478 26.3321L55.6739 26.1168L55.4162 25.8872L55.176 25.6447L54.9542 25.3906L54.7518 25.1258L54.5696 24.8512L54.4089 24.5677L54.271 24.2761L54.1573 23.9773L54.0693 23.6725L54.0088 23.3632L53.9769 23.0512L53.9749 22.7387L54.0035 22.4281L54.0631 22.1222L54.1534 21.8238L54.2738 21.5357L54.4231 21.261L54.5999 21.0021L54.8023 20.7617L55.0282 20.542L55.2755 20.3455L55.5419 20.1739L55.8248 20.0292L56.1217 19.9131L56.4297 19.8269L56.7461 19.7717L57.0679 19.7481L57.3921 19.7562L57.7159 19.7957L58.0366 19.8657L58.3518 19.965L58.6596 20.092L58.9581 20.2449L59.2463 20.4215L59.523 20.6202L59.7873 20.8393L60.0386 21.077L60.2769 21.3316L60.5017 21.6019L60.7104 21.8879L60.8996 22.1901L61.0679 22.5074L61.217 22.8362L61.35 23.1722L61.4685 23.5133L61.5715 23.8595L61.6558 24.208L61.7159 24.5409L61.7512 24.8248L61.7708 25.0397L61.7811 25.2056L61.8665 24.9578L61.9525 24.6931L62.0387 24.4042L62.1179 24.0949L62.1842 23.7751L62.2351 23.4513L62.2707 23.1256L62.2916 22.7989L62.2991 22.4718L62.2949 22.1447L62.283 21.8178L62.2655 21.4911L64.2122 22.087L64.2365 22.4229L64.2541 22.7592L64.2622 23.0954L64.2546 23.4309L64.2275 23.7644L64.1772 24.0941L64.1001 24.4177L63.9945 24.7333L63.8614 25.0389L63.7042 25.3337L63.5273 25.6178L63.3355 25.8924L63.1335 26.1595L62.9253 26.4216L62.7141 26.6807L61.8647 27.7132L61.651 27.9706L61.4354 28.2265L61.2176 28.4802L60.9973 28.7313L60.7748 28.9799L60.5502 29.2262L60.3238 29.4705L60.0957 29.7135L59.8657 29.9553L59.6336 30.1961L59.3992 30.4361L59.1622 30.6753L58.9228 30.9141L58.6813 31.1525L58.4382 31.3908L58.194 31.6288L57.9487 31.8659L57.7019 32.101L57.4526 32.332L57.1994 32.5569L56.9414 32.7739L56.678 32.9823L56.4093 33.1824L56.1355 33.3743L55.8569 33.5588L55.5752 33.7381L55.2911 33.9135L54.064 33.0221L54.3975 32.9501L54.7295 32.8711L55.0592 32.7813L55.3848 32.6742L55.7052 32.5468L56.0196 32.3988L56.3274 32.2305L56.6281 32.0429L56.9208 31.8381L57.2049 31.6202L57.4786 31.3962L57.7388 31.1749L57.9796 30.9637L58.1955 30.7635L58.386 30.568L58.5564 30.3648L58.713 30.1412ZM57.1333 22.9249L57.1029 22.959L57.0751 23.007L57.0497 23.0815L57.031 23.1927L57.0233 23.3453L57.0323 23.5405L57.0708 23.7754L57.1568 24.0406L57.3055 24.3207L57.5232 24.5982L57.8071 24.8567L58.1459 25.0807L58.5184 25.254L58.8942 25.3664L59.244 25.4254L59.5545 25.4546L59.8558 25.468L59.8331 25.2422L59.7214 24.7456L59.5564 24.2903L59.346 23.8839L59.0994 23.5337L58.8274 23.2469L58.543 23.0284L58.2609 22.8787L57.9963 22.7926L57.7628 22.7601L57.5696 22.7662L57.419 22.794L57.307 22.829L57.2271 22.8632L57.1719 22.8947L57.1333 22.9249Z" fill="black"/>
<path fill-rule="evenodd" clip-rule="evenodd" d="M29.7682 44.5622L29.776 45.5805L29.7682 46.5988L29.4543 46.5984L29.1238 46.5993L28.7697 46.6066L28.3991 46.6296L28.0247 46.6778L27.656 46.7579L27.2998 46.8755L26.9627 47.0356L26.6521 47.2417L26.3743 47.4928L26.1339 47.7829L25.932 48.1031L25.766 48.4444L25.6297 48.7992L25.5168 49.1606L25.4236 49.5236L25.3477 49.8895L25.2802 50.2649L25.2001 50.6501L25.0793 51.0318L24.9008 51.3932L24.6685 51.7233L24.3977 52.0159L24.1005 52.2677L23.782 52.4798L23.4457 52.6574L23.0972 52.8068L22.7423 52.9343L22.385 53.0482L22.0255 53.1511L21.3018 50.0841L21.5077 50.0888L21.7156 50.0905L21.9261 50.0861L22.1378 50.0687L22.3471 50.0308L22.5484 49.9657L22.7359 49.8694L22.9049 49.7415L23.0514 49.5851L23.1713 49.4055L23.2604 49.2084L23.3152 48.9993L23.3332 48.7827L23.3145 48.5628L23.262 48.3438L23.1802 48.131L23.0737 47.9291L22.9451 47.7425L22.7954 47.5749L22.6258 47.4292L22.4383 47.3069L22.2356 47.2073L22.0208 47.128L21.7973 47.0656L21.5742 47.0169L21.3665 46.979L21.1833 46.9485L21.018 46.9221L20.9849 46.9425L20.9218 46.9854L20.7967 47.0768L20.6006 47.2408L20.3519 47.4773L20.0809 47.7708L19.8141 48.116L19.567 48.5161L19.3449 48.9725L19.1482 49.4826L18.9767 50.0435L18.8298 50.6532L18.7064 51.3085L18.6056 52.0032L18.5267 52.7305L18.4674 53.4838L18.4204 54.2549L18.3813 55.0344L18.2501 54.7161L18.1132 54.4274L17.9765 54.1772L17.8365 53.9563L17.6904 53.7478L17.5363 53.5428L17.372 53.3417L17.1944 53.1484L17.0021 52.9673L16.7967 52.8018L16.581 52.6544L16.3588 52.5269L16.1339 52.4202L15.9098 52.3344L15.6895 52.2689L15.475 52.2223L15.2674 52.1933L15.0672 52.1802L14.8745 52.1814L14.6887 52.1956L14.5093 52.2217L14.3358 52.2589L14.1677 52.307L14.0048 52.3657L13.847 52.4352L13.6943 52.5157L13.5472 52.6071L13.4059 52.7094L13.2712 52.8225L13.1437 52.9458L13.024 53.0788L12.9129 53.2209L12.8109 53.3711L12.7184 53.5286L12.6358 53.6923L12.5627 53.8613L12.4991 54.0346L12.4446 54.2111L12.3989 54.3902L12.3619 54.5708L12.3339 54.7522L12.3155 54.9336L12.3076 55.114L12.3112 55.2925L12.3273 55.4681L12.3565 55.6394L12.3993 55.8052L12.4558 55.9641L12.5256 56.1147L12.6081 56.2556L12.7025 56.3855L12.8076 56.5032L12.9223 56.6079L13.0452 56.6987L13.1748 56.7753L13.3096 56.8375L13.4483 56.8852L13.5893 56.9184L13.7309 56.9371L13.8717 56.9412L14.01 56.9306L14.1444 56.9051L14.2734 56.8647L14.3955 56.8095L14.5093 56.7396L14.6133 56.6551L14.7055 56.5567L14.7838 56.4452L14.8452 56.322L14.8867 56.1896L14.9051 56.0514L14.8983 55.9123L14.8651 55.7777L14.806 55.6536L14.7229 55.5455L14.6192 55.4574L14.4993 55.3911L14.3673 55.3452L14.2272 55.3165L14.0823 55.3027L13.9358 55.3049L13.7897 55.3246L13.6444 55.3577L13.5008 55.4024L13.6091 55.1524L13.7373 54.9085L13.8897 54.6733L14.0738 54.4544L14.2859 54.2564L14.5204 54.0838L14.7772 53.9448L15.0585 53.8516L15.3629 53.8167L15.6826 53.8499L16.0046 53.956L16.3138 54.1347L16.5954 54.381L16.8365 54.6864L17.0278 55.0401L17.1634 55.4301L17.2403 55.8449L17.2574 56.2738L17.2142 56.7068L17.1107 57.1344L16.9477 57.5469L16.7272 57.9349L16.4523 58.2893L16.128 58.6018L15.7607 58.8652L15.3578 59.0742L14.9278 59.2246L14.4792 59.3147L14.0206 59.344L13.56 59.314L13.1048 59.2269L12.6617 59.0858L12.2362 58.8947L11.8335 58.6573L11.458 58.3779L11.1141 58.0605L10.8056 57.7094L10.5362 57.3292L10.3094 56.9248L10.1281 56.5017L9.99426 56.0658L9.90903 55.6235L9.87198 55.1811L9.88142 54.7447L9.93423 54.3199L10.0264 53.9111L10.1532 53.522L10.3099 53.155L10.492 52.8119L10.6956 52.4936L10.9175 52.201L11.1552 51.9347L11.4067 51.6951L11.6704 51.4824L11.9446 51.2971L12.228 51.1387L12.5191 51.0067L12.8163 50.9001L13.1184 50.8174L13.424 50.7569L13.7323 50.7173L14.042 50.6975L14.3523 50.697L14.6623 50.715L14.9712 50.7514L15.2775 50.8078L15.579 50.8879L15.8744 50.9926L16.1655 51.1152L16.4524 51.2515L16.1884 50.8841L15.8985 50.512L15.5547 50.1196L15.1288 49.7081L14.626 49.2953L14.0689 48.9006L13.4683 48.5359L12.8265 48.2065L12.1475 47.9128L11.4361 47.6516L10.6972 47.4195L9.93545 47.2129L9.15428 47.027L8.35739 46.8573L7.54792 46.6994L6.72763 46.5504L5.89891 46.4064L5.06403 46.2625L4.22444 46.1158L3.38142 45.9731L2.53673 45.8472L1.69135 45.7446L0.845678 45.6589L0 45.5806L0.8457 45.5023L1.69137 45.4165L2.53672 45.314L3.38144 45.1881L4.22443 45.0454L5.06403 44.8987L5.89891 44.7547L6.72765 44.6108L7.54791 44.4617L8.3574 44.3039L9.15431 44.1341L9.93546 43.9483L10.6972 43.7416L11.4361 43.5096L12.1475 43.2484L12.8266 42.9546L13.4683 42.6252L14.0689 42.2605L14.626 41.8658L15.1288 41.453L15.5547 41.0415L15.8986 40.6491L16.1885 40.277L16.4524 39.9096L16.1656 40.0459L15.8744 40.1685L15.5791 40.2732L15.2776 40.3533L14.9713 40.4097L14.6623 40.4461L14.3524 40.4641L14.0421 40.4636L13.7323 40.4438L13.4241 40.4042L13.1184 40.3437L12.8164 40.261L12.5191 40.1544L12.228 40.0225L11.9447 39.8641L11.6704 39.6787L11.4067 39.4661L11.1552 39.2264L10.9175 38.9601L10.6956 38.6675L10.492 38.3493L10.3099 38.0061L10.1532 37.6392L10.0264 37.25L9.93428 36.8413L9.88145 36.4164L9.87206 35.98L9.90908 35.5376L9.9943 35.0953L10.1281 34.6595L10.3095 34.2363L10.5363 33.832L10.8056 33.4517L11.1142 33.1007L11.4581 32.7833L11.8335 32.5038L12.2363 32.2664L12.6617 32.0753L13.105 31.9343L13.5601 31.8471L14.0207 31.8171L14.4793 31.8464L14.9279 31.9365L15.3579 32.087L15.7608 32.2958L16.1281 32.5593L16.4524 32.8718L16.7272 33.2262L16.9478 33.6142L17.1108 34.0267L17.2143 34.4543L17.2575 34.8873L17.2404 35.3162L17.1634 35.731L17.0278 36.121L16.8365 36.4746L16.5954 36.7801L16.3139 37.0264L16.0047 37.2051L15.6826 37.3112L15.363 37.3444L15.0586 37.3095L14.7773 37.2163L14.5204 37.0774L14.2859 36.9047L14.0739 36.7067L13.8897 36.4878L13.7374 36.2526L13.6092 36.0087L13.5009 35.7588L13.6444 35.8034L13.7898 35.8365L13.9358 35.8562L14.0824 35.8584L14.2273 35.8447L14.3674 35.8159L14.4993 35.77L14.6193 35.7037L14.7229 35.6156L14.806 35.5075L14.8652 35.3834L14.8984 35.2489L14.9052 35.1097L14.8867 34.9715L14.8452 34.8391L14.7838 34.7159L14.7056 34.6044L14.6133 34.506L14.5094 34.4216L14.3956 34.3516L14.2735 34.2963L14.1445 34.256L14.0101 34.2305L13.8718 34.2199L13.731 34.224L13.5893 34.2427L13.4484 34.2759L13.3097 34.3236L13.1748 34.3858L13.0452 34.4625L12.9224 34.5533L12.8077 34.6579L12.7025 34.7756L12.6082 34.9056L12.5257 35.0464L12.4559 35.1971L12.3994 35.356L12.3566 35.5217L12.3274 35.6931L12.3113 35.8686L12.3077 36.0471L12.3156 36.2276L12.334 36.409L12.362 36.5903L12.399 36.771L12.4447 36.95L12.4992 37.1266L12.5628 37.2999L12.6358 37.4688L12.7185 37.6326L12.8109 37.79L12.9129 37.9402L13.024 38.0823L13.1437 38.2153L13.2712 38.3387L13.406 38.4517L13.5472 38.554L13.6944 38.6454L13.847 38.7259L14.0049 38.7954L14.1678 38.8542L14.3359 38.9022L14.5094 38.9394L14.6887 38.9655L14.8745 38.9797L15.0673 38.9809L15.2674 38.9678L15.475 38.9388L15.6895 38.8923L15.9099 38.8267L16.1339 38.7409L16.3589 38.6342L16.5811 38.5067L16.7967 38.3593L17.0022 38.1938L17.1944 38.0127L17.3721 37.8194L17.5364 37.6183L17.6905 37.4133L17.8366 37.2048L17.9766 36.9838L18.1133 36.7337L18.2501 36.445L18.3813 36.1267L18.4205 36.9062L18.4674 37.6773L18.5268 38.4306L18.6056 39.1579L18.7064 39.8526L18.8298 40.5079L18.9767 41.1175L19.1482 41.6784L19.3449 42.1886L19.567 42.645L19.8141 43.0451L20.0809 43.3903L20.3519 43.6838L20.6006 43.9203L20.7968 44.0843L20.9217 44.1757L20.9849 44.2186L21.018 44.239L21.1833 44.2125L21.3665 44.182L21.5743 44.1441L21.7973 44.0955L22.0208 44.0331L22.2356 43.9537L22.4383 43.8541L22.6258 43.7318L22.7954 43.5862L22.9451 43.4186L23.0737 43.232L23.1802 43.0301L23.262 42.8172L23.3146 42.5983L23.3332 42.3783L23.3152 42.1618L23.2605 41.9526L23.1713 41.7556L23.0514 41.5759L22.905 41.4195L22.7359 41.2916L22.5484 41.1953L22.3471 41.1302L22.1379 41.0924L21.9261 41.075L21.7156 41.0705L21.5078 41.0723L21.3019 41.0769L22.0256 38.0099L22.385 38.1129L22.7424 38.2267L23.0973 38.3543L23.4457 38.5037L23.782 38.6812L24.1006 38.8933L24.3978 39.1451L24.6686 39.4377L24.9008 39.7679L25.0793 40.1293L25.2002 40.511L25.2803 40.8961L25.3477 41.2716L25.4237 41.6375L25.5168 42.0005L25.6297 42.3618L25.766 42.7166L25.932 43.058L26.1339 43.3782L26.3743 43.6683L26.6521 43.9193L26.9627 44.1255L27.2998 44.2855L27.656 44.4031L28.0247 44.4832L28.3992 44.5314L28.7697 44.5544L29.1237 44.5617L29.4543 44.5626L29.7682 44.5622ZM11.0484 45.5087L10.3709 45.5806L11.0485 45.6525L11.6662 45.72L12.2036 45.7807L12.7188 45.8425L13.2638 45.9179L13.8012 46.0159L14.2776 46.1354L14.6949 46.2724L15.0777 46.4278L15.4446 46.6055L15.8053 46.8078L16.1567 47.0296L16.4904 47.2662L16.8008 47.5215L17.0859 47.8011L17.3467 48.1046L17.5874 48.4269L17.8125 48.7621L18.0281 49.105L18.237 49.453L18.3938 49.053L18.5619 48.6584L18.7449 48.2713L18.9505 47.8947L19.1831 47.5313L19.4485 47.1853L19.7536 46.8643L20.102 46.5766L20.4911 46.328L20.9137 46.1198L21.3613 45.9495L21.8257 45.81L22.2998 45.6893L22.7788 45.5805L22.2998 45.4717L21.8257 45.351L21.3613 45.2116L20.9137 45.0412L20.4911 44.8331L20.102 44.5845L19.7537 44.2968L19.4485 43.9757L19.1831 43.6297L18.9505 43.2663L18.7449 42.8898L18.5619 42.5027L18.3938 42.1081L18.237 41.7081L18.0281 42.0561L17.8125 42.3989L17.5874 42.7342L17.3468 43.0565L17.0859 43.3599L16.8008 43.6396L16.4904 43.8949L16.1567 44.1315L15.8053 44.3533L15.4446 44.5556L15.0777 44.7334L14.6949 44.8887L14.2777 45.0257L13.8012 45.1452L13.2638 45.2433L12.7188 45.3186L12.2037 45.3804L11.6662 45.4412L11.0484 45.5087Z" fill="black"/>
<path fill-rule="evenodd" clip-rule="evenodd" d="M46.4766 61.3146L45.461 61.3069L44.4454 61.3146L44.4457 61.6294L44.4448 61.9608L44.4375 62.3157L44.4146 62.6873L44.3666 63.0627L44.2866 63.4323L44.1694 63.7895L44.0097 64.1274L43.8041 64.4389L43.5537 64.7174L43.2644 64.9585L42.945 65.1609L42.6045 65.3273L42.2507 65.464L41.8903 65.5772L41.5282 65.6706L41.1633 65.7468L40.7888 65.8144L40.4047 65.8947L40.024 66.0158L39.6635 66.1948L39.3342 66.4277L39.0424 66.6992L38.7913 66.9972L38.5797 67.3165L38.4026 67.6537L38.2536 68.0031L38.1264 68.3589L38.0128 68.7172L37.9101 69.0776L40.9691 69.8032L40.9645 69.5967L40.9628 69.3884L40.9672 69.1773L40.9845 68.965L41.0223 68.7552L41.0872 68.5534L41.1833 68.3654L41.3108 68.1959L41.4668 68.0491L41.646 67.9289L41.8426 67.8394L42.0511 67.7846L42.2671 67.7665L42.4865 67.7852L42.7049 67.8379L42.9172 67.9199L43.1185 68.0267L43.3047 68.1556L43.4718 68.3057L43.6171 68.4757L43.7391 68.6638L43.8384 68.8669L43.9175 69.0824L43.9798 69.3064L44.0283 69.5301L44.0661 69.7384L44.0965 69.9221L44.1229 70.0878L44.1026 70.1209L44.0598 70.1843L43.9686 70.3096L43.805 70.5063L43.5692 70.7556L43.2764 71.0273L42.9322 71.2948L42.5331 71.5426L42.0779 71.7653L41.5691 71.9625L41.0096 72.1345L40.4016 72.2818L39.748 72.4054L39.0551 72.5065L38.3297 72.5856L37.5784 72.6451L36.8093 72.6922L36.0318 72.7315L36.3493 72.863L36.6372 73.0002L36.8867 73.1373L37.1071 73.2776L37.3151 73.4241L37.5195 73.5786L37.7201 73.7434L37.9129 73.9214L38.0935 74.1142L38.2586 74.3202L38.4056 74.5364L38.5328 74.7592L38.6392 74.9847L38.7247 75.2094L38.7901 75.4303L38.8366 75.6454L38.8655 75.8535L38.8786 76.0541L38.8773 76.2474L38.8632 76.4337L38.8372 76.6136L38.8 76.7875L38.7521 76.956L38.6935 77.1193L38.6242 77.2776L38.5439 77.4307L38.4528 77.5782L38.3507 77.7198L38.238 77.8549L38.1149 77.9828L37.9822 78.1028L37.8406 78.2142L37.6908 78.3165L37.5337 78.4091L37.3704 78.492L37.2019 78.5652L37.029 78.629L36.8529 78.6836L36.6744 78.7295L36.4942 78.7665L36.3133 78.7946L36.1324 78.8131L35.9524 78.821L35.7744 78.8174L35.5993 78.8013L35.4284 78.772L35.2631 78.729L35.1046 78.6725L34.9544 78.6025L34.8138 78.5198L34.6842 78.4251L34.5668 78.3197L34.4625 78.2047L34.3719 78.0815L34.2955 77.9516L34.2335 77.8163L34.1859 77.6773L34.1527 77.536L34.1341 77.394L34.13 77.2529L34.1406 77.1142L34.166 76.9794L34.2063 76.8501L34.2614 76.7276L34.3311 76.6135L34.4153 76.5093L34.5135 76.4168L34.6247 76.3384L34.7475 76.2768L34.8797 76.2352L35.0175 76.2167L35.1562 76.2235L35.2905 76.2568L35.4142 76.3161L35.5221 76.3994L35.6099 76.5034L35.6761 76.6236L35.7218 76.7559L35.7505 76.8964L35.7642 77.0416L35.762 77.1886L35.7424 77.335L35.7093 77.4807L35.6648 77.6247L35.9141 77.5161L36.1574 77.3876L36.392 77.2348L36.6103 77.0502L36.8078 76.8376L36.98 76.6025L37.1186 76.345L37.2115 76.0629L37.2463 75.7577L37.2132 75.4372L37.1073 75.1143L36.9291 74.8043L36.6835 74.522L36.3789 74.2803L36.0261 74.0885L35.6371 73.9525L35.2234 73.8754L34.7957 73.8582L34.3638 73.9016L33.9373 74.0053L33.5259 74.1687L33.1389 74.3899L32.7854 74.6655L32.4737 74.9906L32.211 75.3589L32.0026 75.7628L31.8526 76.194L31.7627 76.6438L31.7334 77.1036L31.7634 77.5653L31.8504 78.0217L31.991 78.466L32.1816 78.8926L32.4183 79.2964L32.6971 79.6728L33.0137 80.0177L33.3638 80.327L33.743 80.5971L34.1463 80.8245L34.5684 81.0063L35.0031 81.1404L35.4443 81.2259L35.8855 81.263L36.3208 81.2536L36.7445 81.2006L37.1522 81.1082L37.5403 80.9811L37.9063 80.824L38.2485 80.6414L38.5659 80.4373L38.8578 80.2148L39.1234 79.9765L39.3624 79.7243L39.5745 79.46L39.7594 79.185L39.9173 78.9008L40.049 78.609L40.1553 78.311L40.2378 78.0082L40.2981 77.7017L40.3376 77.3926L40.3574 77.0821L40.3579 76.7709L40.3399 76.4602L40.3036 76.1505L40.2473 75.8433L40.1674 75.541L40.063 75.2449L39.9407 74.953L39.8048 74.6653L40.1713 74.93L40.5424 75.2207L40.9337 75.5654L41.3442 75.9924L41.7559 76.4966L42.1495 77.0551L42.5134 77.6573L42.8418 78.3007L43.1348 78.9815L43.3954 79.6948L43.6268 80.4357L43.8329 81.1994L44.0182 81.9826L44.1875 82.7816L44.345 83.5932L44.4937 84.4156L44.6372 85.2465L44.7808 86.0836L44.9271 86.9254L45.0694 87.7706L45.195 88.6175L45.2973 89.4651L45.3828 90.313L45.4609 91.1609L45.539 90.313L45.6245 89.4651L45.7268 88.6175L45.8523 87.7706L45.9947 86.9254L46.141 86.0836L46.2846 85.2465L46.4281 84.4156L46.5768 83.5932L46.7342 82.7816L46.9036 81.9826L47.0889 81.1994L47.295 80.4357L47.5265 79.6948L47.787 78.9815L48.08 78.3007L48.4085 77.6573L48.7723 77.0551L49.166 76.4966L49.5777 75.9924L49.9881 75.5654L50.3795 75.2206L50.7506 74.93L51.117 74.6653L50.9811 74.953L50.8588 75.2449L50.7544 75.541L50.6745 75.8432L50.6182 76.1504L50.582 76.4601L50.564 76.7709L50.5645 77.082L50.5842 77.3926L50.6238 77.7016L50.684 78.0081L50.7665 78.3109L50.8728 78.609L51.0045 78.9008L51.1625 79.1849L51.3473 79.4599L51.5594 79.7243L51.7984 79.9764L52.0641 80.2148L52.3559 80.4373L52.6733 80.6414L53.0155 80.8239L53.3815 80.9811L53.7696 81.1082L54.1773 81.2006L54.601 81.2535L55.0363 81.263L55.4776 81.2258L55.9187 81.1404L56.3534 81.0063L56.7755 80.8244L57.1788 80.597L57.558 80.3269L57.9082 80.0176L58.2247 79.6728L58.5035 79.2963L58.7402 78.8925L58.9308 78.466L59.0715 78.0216L59.1584 77.5652L59.1884 77.1035L59.1591 76.6436L59.0693 76.1939L58.9192 75.7627L58.7109 75.3588L58.4481 74.9905L58.1365 74.6654L57.783 74.3898L57.396 74.1686L56.9845 74.0052L56.5581 73.9015L56.1262 73.8581L55.6984 73.8753L55.2847 73.9525L54.8957 74.0884L54.543 74.2802L54.2384 74.522L53.9927 74.8042L53.8145 75.1142L53.7086 75.4371L53.6755 75.7576L53.7103 76.0628L53.8033 76.3449L53.9419 76.6024L54.1141 76.8375L54.3116 77.0501L54.5299 77.2348L54.7644 77.3875L55.0077 77.5161L55.257 77.6246L55.2125 77.4807L55.1794 77.3349L55.1598 77.1885L55.1576 77.0416L55.1713 76.8963L55.2 76.7558L55.2458 76.6235L55.3119 76.5033L55.3997 76.3993L55.5076 76.3161L55.6314 76.2567L55.7656 76.2235L55.9044 76.2166L56.0422 76.2352L56.1743 76.2767L56.2972 76.3383L56.4084 76.4167L56.5065 76.5092L56.5907 76.6135L56.6605 76.7276L56.7156 76.85L56.7559 76.9793L56.7812 77.1141L56.7919 77.2528L56.7878 77.3939L56.7691 77.5359L56.736 77.6772L56.6884 77.8163L56.6263 77.9515L56.5499 78.0815L56.4593 78.2046L56.355 78.3196L56.2376 78.425L56.108 78.5197L55.9675 78.6024L55.8172 78.6724L55.6587 78.729L55.4934 78.7719L55.3225 78.8012L55.1475 78.8173L54.9694 78.8209L54.7894 78.813L54.6085 78.7946L54.4276 78.7665L54.2475 78.7294L54.0689 78.6836L53.8928 78.629L53.7199 78.5652L53.5514 78.492L53.3881 78.409L53.2311 78.3164L53.0812 78.2141L52.9396 78.1027L52.8069 77.9827L52.6838 77.8549L52.5711 77.7198L52.4691 77.5782L52.3779 77.4306L52.2976 77.2776L52.2283 77.1193L52.1697 76.956L52.1218 76.7875L52.0847 76.6135L52.0587 76.4337L52.0445 76.2474L52.0433 76.0541L52.0564 75.8534L52.0853 75.6453L52.1317 75.4302L52.1971 75.2093L52.2827 74.9847L52.3891 74.7592L52.5163 74.5364L52.6633 74.3201L52.8283 74.1141L53.009 73.9214L53.2018 73.7433L53.4024 73.5785L53.6068 73.4241L53.8148 73.2776L54.0351 73.1372L54.2846 73.0001L54.5726 72.8629L54.89 72.7314L54.1126 72.6921L53.3435 72.6451L52.5921 72.5856L51.8668 72.5065L51.1739 72.4054L50.5203 72.2817L49.9123 72.1344L49.3528 71.9625L48.844 71.7653L48.3888 71.5426L47.9897 71.2948L47.6454 71.0273L47.3527 70.7556L47.1168 70.5063L46.9533 70.3096L46.8621 70.1843L46.8193 70.1209L46.799 70.0878L46.8253 69.9221L46.8558 69.7384L46.8936 69.5301L46.9421 69.3064L47.0044 69.0824L47.0835 68.8669L47.1828 68.6638L47.3048 68.4757L47.4501 68.3057L47.6172 68.1557L47.8034 68.0267L48.0047 67.9199L48.217 67.8379L48.4354 67.7852L48.6548 67.7665L48.8708 67.7846L49.0793 67.8394L49.2759 67.9289L49.4551 68.049L49.6111 68.1959L49.7386 68.3653L49.8347 68.5534L49.8996 68.7551L49.9373 68.965L49.9547 69.1773L49.9591 69.3883L49.9574 69.5967L49.9528 69.8032L53.0117 69.0776L52.9091 68.7172L52.7955 68.3589L52.6683 68.003L52.5192 67.6537L52.3422 67.3165L52.1306 66.9971L51.8795 66.6991L51.5877 66.4276L51.2584 66.1947L50.8979 66.0158L50.5172 65.8946L50.1331 65.8143L49.7586 65.7467L49.3937 65.6705L49.0316 65.5772L48.6712 65.464L48.3174 65.3273L47.9769 65.1608L47.6575 64.9585L47.3682 64.7174L47.1178 64.4389L46.9122 64.1274L46.7525 63.7895L46.6353 63.4324L46.5554 63.0627L46.5073 62.6873L46.4844 62.3157L46.4771 61.9608L46.4762 61.6293L46.4766 61.3146ZM45.5327 80.0834L45.461 80.7628L45.3893 80.0834L45.322 79.4641L45.2614 78.9252L45.1998 78.4087L45.1246 77.8623L45.0268 77.3235L44.9076 76.8458L44.7711 76.4274L44.616 76.0436L44.4388 75.6757L44.237 75.3141L44.0158 74.9618L43.7798 74.6272L43.5252 74.3159L43.2463 74.0302L42.9436 73.7686L42.6222 73.5273L42.2878 73.3017L41.9458 73.0855L41.5988 72.876L41.9977 72.7188L42.3912 72.5503L42.7774 72.3668L43.1529 72.1606L43.5154 71.9274L43.8604 71.6613L44.1807 71.3554L44.4676 71.0061L44.7155 70.616L44.9232 70.1923L45.0931 69.7435L45.2322 69.2779L45.3525 68.8026L45.4611 68.3223L45.5696 68.8026L45.6899 69.2779L45.829 69.7435L45.9989 70.1923L46.2066 70.616L46.4545 71.0061L46.7415 71.3553L47.0617 71.6613L47.4068 71.9274L47.7692 72.1606L48.1447 72.3667L48.5309 72.5502L48.9244 72.7188L49.3233 72.876L48.9763 73.0854L48.6343 73.3016L48.2999 73.5273L47.9785 73.7686L47.6758 74.0302L47.3969 74.316L47.1423 74.6272L46.9063 74.9618L46.6851 75.3141L46.4833 75.6757L46.306 76.0436L46.151 76.4274L46.0145 76.8457L45.8953 77.3235L45.7975 77.8623L45.7223 78.4087L45.6607 78.9252L45.6001 79.4641L45.5327 80.0834Z" fill="black"/>
<path fill-rule="evenodd" clip-rule="evenodd" d="M58.7129 61.0196L58.8587 61.2699L58.9941 61.5443L59.1199 61.8354L59.2365 62.1361L59.3432 62.4404L59.4378 62.7404L59.5171 63.0233L59.5794 63.2719L59.6254 63.4719L59.6586 63.622L59.6843 63.7401L59.4922 63.7401L59.2965 63.7427L59.0922 63.7491L58.8727 63.7618L58.6328 63.7832L58.3707 63.8166L58.088 63.8663L57.7889 63.9364L57.4786 64.0296L57.1629 64.1464L56.8474 64.2863L56.5372 64.4479L56.2363 64.6294L55.9477 64.8288L55.6738 65.0441L55.4162 65.2737L55.176 65.5162L54.9542 65.7703L54.7517 66.0351L54.5696 66.3097L54.4089 66.5932L54.2709 66.8848L54.1572 67.1836L54.0693 67.4884L54.0087 67.7977L53.9768 68.1097L53.9748 68.4222L54.0035 68.7328L54.063 69.0387L54.1534 69.3371L54.2737 69.6252L54.4231 69.8999L54.5998 70.1588L54.8022 70.3992L55.0281 70.6188L55.2755 70.8154L55.5418 70.987L55.8248 71.1316L56.1216 71.2478L56.4296 71.334L56.746 71.3892L57.0678 71.4128L57.392 71.4047L57.7158 71.3652L58.0365 71.2951L58.3518 71.1958L58.6595 71.0688L58.9581 70.916L59.2462 70.7393L59.523 70.5406L59.7872 70.3215L60.0386 70.0838L60.2769 69.8292L60.5016 69.5589L60.7103 69.2729L60.8996 68.9707L61.0679 68.6535L61.217 68.3247L61.35 67.9886L61.4684 67.6475L61.5714 67.3013L61.6557 66.9529L61.7159 66.6199L61.7511 66.336L61.7707 66.1212L61.7811 65.9552L61.8665 66.203L61.9525 66.4677L62.0387 66.7567L62.1179 67.0659L62.1841 67.3857L62.235 67.7096L62.2706 68.0352L62.2916 68.3619L62.299 68.6891L62.2948 69.0161L62.2829 69.343L62.2654 69.6697L64.2122 69.0738L64.2365 68.7378L64.2541 68.4016L64.2621 68.0654L64.2546 67.7299L64.2275 67.3964L64.1771 67.0668L64.1001 66.7431L63.9945 66.4276L63.8614 66.1219L63.7042 65.8271L63.5273 65.543L63.3355 65.2684L63.1334 65.0013L62.9253 64.7393L62.7141 64.4801L61.8647 63.4477L61.6509 63.1903L61.4354 62.9343L61.2176 62.6807L60.9973 62.4296L60.7748 62.181L60.5502 61.9347L60.3238 61.6903L60.0956 61.4474L59.8657 61.2056L59.6336 60.9648L59.3992 60.7248L59.1622 60.4855L58.9228 60.2468L58.6813 60.0083L58.4382 59.77L58.194 59.532L57.9487 59.2949L57.7019 59.0599L57.4525 58.8289L57.1995 58.604L56.9414 58.387L56.678 58.1786L56.4093 57.9784L56.1355 57.7865L55.857 57.6021L55.5753 57.4227L55.2911 57.2473L54.064 58.1388L54.3975 58.2108L54.7295 58.2898L55.0592 58.3796L55.3848 58.4867L55.7052 58.614L56.0196 58.7621L56.3274 58.9304L56.628 59.118L56.9208 59.3228L57.2049 59.5407L57.4787 59.7647L57.7388 59.986L57.9796 60.1972L58.1956 60.3973L58.3861 60.5929L58.5564 60.7961L58.7129 61.0196ZM57.1331 68.2359L57.1028 68.2018L57.0749 68.1538L57.0496 68.0794L57.0309 67.9682L57.0231 67.8155L57.0321 67.6203L57.0706 67.3854L57.1567 67.1202L57.3054 66.8401L57.5231 66.5627L57.807 66.3041L58.1459 66.0801L58.5183 65.9069L58.8941 65.7944L59.2439 65.7354L59.5544 65.7063L59.8557 65.6928L59.833 65.9186L59.7212 66.4152L59.5563 66.8705L59.3458 67.2769L59.0992 67.6271L58.8273 67.9139L58.5429 68.1324L58.2607 68.2822L57.9962 68.3682L57.7627 68.4007L57.5694 68.3946L57.4188 68.3668L57.3069 68.3318L57.2269 68.2976L57.1717 68.2661L57.1331 68.2359Z" fill="black"/>
<path fill-rule="evenodd" clip-rule="evenodd" d="M60.8598 58.867L61.1094 59.0131L61.3831 59.1489L61.6735 59.275L61.9734 59.3919L62.2769 59.4989L62.576 59.5937L62.8582 59.6732L63.1062 59.7357L63.3057 59.7818L63.4554 59.8151L63.5732 59.8408L63.5731 59.6483L63.5758 59.4521L63.5821 59.2472L63.5948 59.0271L63.6162 58.7866L63.6494 58.5238L63.699 58.2404L63.769 57.9405L63.8619 57.6294L63.9784 57.3129L64.118 56.9965L64.2791 56.6855L64.4601 56.3838L64.659 56.0945L64.8737 55.8199L65.1027 55.5616L65.3446 55.3207L65.5981 55.0984L65.8622 54.8954L66.136 54.7127L66.4188 54.5516L66.7096 54.4133L67.0077 54.2993L67.3116 54.2112L67.6201 54.1504L67.9314 54.1184L68.243 54.1164L68.5528 54.1451L68.8579 54.2048L69.1555 54.2954L69.4428 54.4161L69.7169 54.5658L69.975 54.7431L70.2148 54.946L70.4339 55.1725L70.63 55.4205L70.8011 55.6875L70.9454 55.9712L71.0612 56.2688L71.1471 56.5777L71.2022 56.8949L71.2258 57.2175L71.2177 57.5426L71.1783 57.8672L71.1084 58.1887L71.0094 58.5048L70.8827 58.8134L70.7303 59.1127L70.5541 59.4017L70.3559 59.6791L70.1374 59.9441L69.9003 60.196L69.6463 60.435L69.3767 60.6603L69.0915 60.8695L68.7901 61.0593L68.4737 61.228L68.1457 61.3776L67.8106 61.5109L67.4703 61.6297L67.1251 61.7329L66.7775 61.8175L66.4454 61.8778L66.1623 61.9131L65.948 61.9328L65.7824 61.9432L66.0296 62.0288L66.2936 62.115L66.5818 62.2014L66.8903 62.2808L67.2093 62.3472L67.5322 62.3983L67.857 62.434L68.1829 62.455L68.5092 62.4624L68.8354 62.4582L69.1614 62.4463L69.4872 62.4287L68.8929 64.3806L68.5578 64.405L68.2225 64.4227L67.8871 64.4307L67.5525 64.4231L67.2199 64.396L66.8911 64.3455L66.5683 64.2682L66.2536 64.1624L65.9487 64.029L65.6547 63.8713L65.3713 63.6939L65.0974 63.5016L64.831 63.299L64.5697 63.0904L64.3113 62.8786L63.2815 62.027L63.0247 61.8127L62.7695 61.5966L62.5165 61.3782L62.266 61.1573L62.0181 60.9342L61.7725 60.7091L61.5287 60.482L61.2864 60.2533L61.0453 60.0227L60.8051 59.7901L60.5657 59.555L60.3271 59.3174L60.089 59.0773L59.8511 58.8352L59.6135 58.5915L59.3761 58.3467L59.1396 58.1007L58.9052 57.8532L58.6748 57.6033L58.4505 57.3495L58.2341 57.0907L58.0262 56.8267L57.8266 56.5573L57.6352 56.2828L57.4512 56.0035L57.2723 55.7211L57.0974 55.4361L57.9865 54.2058L58.0583 54.5402L58.1371 54.8731L58.2267 55.2036L58.3335 55.5301L58.4605 55.8513L58.6082 56.1665L58.776 56.4751L58.9631 56.7766L59.1674 57.0702L59.3848 57.3549L59.6082 57.6294L59.8288 57.8903L60.0395 58.1317L60.2391 58.3482L60.4342 58.5392L60.6368 58.71L60.8598 58.867ZM68.0573 57.2832L68.0232 57.2527L67.9754 57.2248L67.9011 57.1994L67.7902 57.1807L67.638 57.1729L67.4433 57.1819L67.209 57.2205L66.9445 57.3068L66.6651 57.4559L66.3884 57.6742L66.1306 57.9588L65.9072 58.2985L65.7343 58.6719L65.6222 59.0488L65.5633 59.3995L65.5342 59.7108L65.5208 60.0129L65.746 59.9901L66.2414 59.8781L66.6955 59.7127L67.1008 59.5017L67.4501 59.2544L67.7362 58.9817L67.954 58.6966L68.1034 58.4137L68.1892 58.1484L68.2217 57.9144L68.2155 57.7206L68.1878 57.5696L68.1529 57.4574L68.1188 57.3772L68.0874 57.3219L68.0573 57.2832Z" fill="black"/>
<path fill-rule="evenodd" clip-rule="evenodd" d="M30.0619 58.8671L29.8124 59.0132L29.5387 59.149L29.2483 59.2752L28.9484 59.3921L28.6449 59.4991L28.3457 59.5938L28.0636 59.6734L27.8155 59.7358L27.616 59.782L27.4663 59.8153L27.3486 59.841L27.3486 59.6485L27.346 59.4522L27.3396 59.2474L27.3269 59.0273L27.3056 58.7868L27.2723 58.524L27.2228 58.2406L27.1528 57.9407L27.0599 57.6295L26.9433 57.313L26.8038 56.9967L26.6427 56.6857L26.4616 56.384L26.2628 56.0947L26.0481 55.8201L25.819 55.5618L25.5772 55.3209L25.3237 55.0986L25.0596 54.8955L24.7858 54.7129L24.503 54.5518L24.2121 54.4135L23.9141 54.2995L23.6101 54.2113L23.3016 54.1506L22.9904 54.1186L22.6787 54.1166L22.369 54.1453L22.0639 54.205L21.7662 54.2956L21.479 54.4163L21.2049 54.5661L20.9467 54.7433L20.7069 54.9462L20.4879 55.1727L20.2918 55.4207L20.1207 55.6878L19.9764 55.9714L19.8606 56.269L19.7746 56.5779L19.7196 56.8951L19.696 57.2177L19.7041 57.5428L19.7435 57.8674L19.8133 58.189L19.9124 58.5051L20.039 58.8136L20.1915 59.1129L20.3676 59.4019L20.5658 59.6793L20.7844 59.9443L21.0215 60.1963L21.2754 60.4352L21.545 60.6605L21.8302 60.8698L22.1316 61.0595L22.4481 61.2282L22.776 61.3777L23.1112 61.5111L23.4514 61.6299L23.7967 61.7331L24.1442 61.8177L24.4763 61.878L24.7594 61.9133L24.9737 61.9329L25.1393 61.9434L24.8921 62.029L24.6281 62.1152L24.3399 62.2016L24.0314 62.281L23.7125 62.3474L23.3895 62.3985L23.0647 62.4342L22.7388 62.4552L22.4125 62.4627L22.0863 62.4584L21.7603 62.4465L21.4345 62.4289L22.0288 64.3808L22.3639 64.4052L22.6993 64.4228L23.0346 64.4309L23.3692 64.4233L23.7019 64.3961L24.0306 64.3457L24.3534 64.2684L24.6681 64.1625L24.973 64.0291L25.267 63.8715L25.5504 63.6941L25.8243 63.5018L26.0907 63.2992L26.352 63.0905L26.6105 62.8788L27.6402 62.0272L27.897 61.8129L28.1522 61.5967L28.4052 61.3783L28.6557 61.1575L28.9036 60.9344L29.1493 60.7092L29.393 60.4822L29.6353 60.2535L29.8765 60.0229L30.1167 59.7902L30.356 59.5551L30.5947 59.3175L30.8328 59.0775L31.0706 58.8354L31.3083 58.5917L31.5457 58.3468L31.7822 58.1008L32.0166 57.8534L32.247 57.6034L32.4713 57.3496L32.6877 57.0909L32.8956 56.8268L33.0952 56.5574L33.2866 56.2829L33.4706 56.0036L33.6494 55.7212L33.8244 55.4363L32.9353 54.2059L32.8635 54.5403L32.7847 54.8732L32.6951 55.2038L32.5882 55.5303L32.4613 55.8515L32.3136 56.1667L32.1457 56.4753L31.9586 56.7768L31.7543 57.0703L31.537 57.3551L31.3136 57.6296L31.0929 57.8904L30.8822 58.1319L30.6826 58.3484L30.4876 58.5393L30.2849 58.7102L30.0619 58.8671ZM22.8649 57.2833L22.899 57.2529L22.9468 57.225L23.0211 57.1996L23.132 57.1809L23.2842 57.1731L23.4789 57.1821L23.7132 57.2207L23.9777 57.307L24.2571 57.456L24.5338 57.6743L24.7917 57.959L25.015 58.2987L25.1879 58.6721L25.3 59.049L25.3589 59.3996L25.388 59.7109L25.4014 60.0131L25.1762 59.9903L24.6808 59.8782L24.2267 59.7128L23.8214 59.5019L23.4721 59.2546L23.1861 58.9819L22.9682 58.6968L22.8188 58.4139L22.733 58.1486L22.7005 57.9145L22.7067 57.7208L22.7344 57.5698L22.7693 57.4576L22.8034 57.3774L22.8348 57.3221L22.8649 57.2833Z" fill="black"/>
<path fill-rule="evenodd" clip-rule="evenodd" d="M32.2091 61.0197L32.0634 61.2699L31.9279 61.5443L31.8021 61.8355L31.6855 62.1362L31.5788 62.4404L31.4843 62.7404L31.4049 63.0233L31.3426 63.272L31.2966 63.472L31.2634 63.6221L31.2377 63.7402L31.4298 63.7401L31.6255 63.7428L31.8298 63.7492L32.0493 63.7618L32.2892 63.7833L32.5513 63.8166L32.834 63.8663L33.1331 63.9364L33.4434 64.0296L33.7591 64.1465L34.0746 64.2863L34.3848 64.4479L34.6857 64.6294L34.9743 64.8288L35.2482 65.0441L35.5058 65.2737L35.746 65.5162L35.9678 65.7703L36.1703 66.0351L36.3524 66.3097L36.5131 66.5932L36.6511 66.8848L36.7648 67.1836L36.8527 67.4884L36.9133 67.7977L36.9451 68.1097L36.9472 68.4222L36.9185 68.7328L36.859 69.0387L36.7687 69.3371L36.6483 69.6252L36.4989 69.8999L36.3221 70.1588L36.1198 70.3992L35.8938 70.6189L35.6465 70.8154L35.3801 70.987L35.0972 71.1317L34.8004 71.2478L34.4923 71.334L34.176 71.3892L33.8542 71.4128L33.53 71.4047L33.2062 71.3652L32.8854 71.2952L32.5702 71.1959L32.2625 71.0688L31.9639 70.916L31.6757 70.7394L31.399 70.5407L31.1347 70.3216L30.8834 70.0838L30.6451 69.8293L30.4204 69.559L30.2117 69.273L30.0224 68.9708L29.8541 68.6535L29.705 68.3247L29.572 67.9887L29.4535 67.6476L29.3506 67.3014L29.2663 66.9529L29.2061 66.62L29.1709 66.3361L29.1513 66.1212L29.1409 65.9552L29.0555 66.2031L28.9695 66.4678L28.8833 66.7567L28.8042 67.066L28.7379 67.3858L28.6869 67.7096L28.6514 68.0352L28.6304 68.362L28.6229 68.6891L28.6272 69.0162L28.639 69.3431L28.6566 69.6697L26.7098 69.0739L26.6855 68.7379L26.6679 68.4017L26.6599 68.0655L26.6674 67.73L26.6945 67.3964L26.7448 67.0668L26.8219 66.7432L26.9275 66.4276L27.0606 66.1219L27.2178 65.8271L27.3947 65.5431L27.5866 65.2684L27.7886 65.0013L27.9967 64.7393L28.2079 64.4802L29.0573 63.4477L29.2711 63.1903L29.4867 62.9344L29.7045 62.6807L29.9247 62.4296L30.1472 62.181L30.3718 61.9348L30.5982 61.6904L30.8264 61.4474L31.0563 61.2056L31.2884 60.9648L31.5229 60.7248L31.7598 60.4855L31.9992 60.2468L32.2407 60.0084L32.4838 59.7701L32.7281 59.532L32.9734 59.2949L33.2202 59.0599L33.4695 58.8289L33.7226 58.604L33.9807 58.387L34.2441 58.1786L34.5127 57.9785L34.7866 57.7865L35.0651 57.6021L35.3468 57.4228L35.6309 57.2473L36.8581 58.1388L36.5246 58.2108L36.1925 58.2898L35.8628 58.3796L35.5372 58.4867L35.2169 58.6141L34.9025 58.7621L34.5946 58.9304L34.294 59.118L34.0012 59.3228L33.7172 59.5407L33.4434 59.7647L33.1832 59.986L32.9424 60.1972L32.7265 60.3974L32.536 60.5929L32.3656 60.7961L32.2091 61.0197ZM33.7887 68.236L33.819 68.2019L33.8469 68.1539L33.8723 68.0794L33.8909 67.9682L33.8986 67.8156L33.8897 67.6204L33.8512 67.3855L33.7651 67.1203L33.6164 66.8402L33.3987 66.5628L33.1148 66.3042L32.776 66.0802L32.4035 65.9069L32.0277 65.7946L31.6779 65.7355L31.3674 65.7064L31.0661 65.6929L31.0888 65.9187L31.2006 66.4153L31.3656 66.8707L31.576 67.277L31.8226 67.6272L32.0945 67.914L32.379 68.1325L32.661 68.2822L32.9257 68.3683L33.1592 68.4008L33.3524 68.3947L33.503 68.3669L33.6149 68.3319L33.6949 68.2977L33.7501 68.2663L33.7887 68.236Z" fill="black"/>
<path d="M22.8411 26.0124L22.4489 26.0385L22.0569 26.0782L22.1613 25.8213L22.2559 25.5614L22.337 25.298L22.4007 25.0304L22.447 24.7598L22.4734 24.4866L22.477 24.2111L22.4577 23.935L22.4172 23.6604L22.3576 23.3892L22.2819 23.1225L22.1936 22.8601L22.0952 22.6017L21.9873 22.3473L21.8722 22.0959L21.7518 21.8468L22.0003 21.9675L22.2511 22.0829L22.5048 22.191L22.7625 22.2897L23.0243 22.3782L23.2902 22.4541L23.5607 22.5138L23.8346 22.5545L24.11 22.5739L24.3848 22.5702L24.6572 22.5437L24.9271 22.4974L25.194 22.4334L25.4568 22.3521L25.716 22.2573L25.9722 22.1526L25.9326 22.5456L25.9065 22.9388L25.8986 23.3312L25.9175 23.7211L25.967 24.1061L26.0508 24.4838L26.1724 24.852L26.332 25.2089L26.5251 25.5536L26.744 25.8865L26.9812 26.2095L27.2297 26.5251L27.4839 26.8359L27.7406 27.144L27.9983 27.4508L28.2569 27.7567L28.5171 28.0612L28.78 28.3636L29.046 28.6632L29.3153 28.9599L29.5879 29.2536L29.8634 29.5447L30.6862 30.4044L30.923 30.6487L31.1073 30.834L31.2406 30.9653L31.3379 31.0606L31.4166 31.1378L31.5028 31.2228L31.6378 31.3567L31.8435 31.5627L32.0888 31.8111L32.3317 32.0599L32.7803 32.5239L32.9966 32.7442L33.2168 32.9594L33.4474 33.171L33.6935 33.3799L33.9577 33.5867L34.2414 33.7902L34.5437 33.9881L34.8603 34.1813L35.1861 34.369L35.1846 35.3148L34.2413 35.3163L34.0541 34.9896L33.8614 34.6722L33.664 34.3691L33.4611 34.0847L33.2548 33.8197L33.0464 33.573L32.8354 33.3418L32.6207 33.121L32.4011 32.9041L31.9383 32.4544L31.69 32.2109L31.4423 31.9649L31.2369 31.7587L31.1033 31.6233L31.0186 31.5369L30.9416 31.458L30.8465 31.3604L30.7155 31.2268L30.5308 31.042L30.2871 30.8045L29.4296 29.9796L29.1393 29.7034L28.8464 29.4301L28.5505 29.1601L28.2516 28.8933L27.95 28.6298L27.6463 28.3689L27.3412 28.1096L27.0352 27.8513L26.7279 27.5939L26.4179 27.339L26.1032 27.0899L25.781 26.8521L25.449 26.6325L25.1051 26.439L24.7492 26.279L24.382 26.157L24.0053 26.073L23.6213 26.0233L23.2323 26.0044L22.845 26.0123L22.8411 26.0124Z" fill="black"/>
<path d="M12.5333 13.01L12.0157 12.0851L12.9382 12.6041L13.8607 13.1128L14.7811 13.605L15.6979 14.0729L16.6082 14.5103L17.5109 14.9104L18.404 15.2658L19.285 15.5721L20.1499 15.8276L20.9949 16.032L21.8161 16.1864L22.6108 16.2933L23.3768 16.3561L24.1142 16.38L24.8235 16.3718L25.5078 16.3396L26.1707 16.2901L26.8165 16.2272L27.4502 16.1557L28.0778 16.0783L28.5674 21.0527L28.2074 21.1599L27.8462 21.2636L27.4831 21.3623L27.1174 21.4536L26.749 21.5364L26.3775 21.6084L26.0027 21.6673L25.6249 21.7118L25.2447 21.7414L24.8632 21.7561L24.4811 21.756L24.0996 21.7412L23.7194 21.7117L23.3411 21.6679L22.9651 21.6112L22.591 21.5438L22.2188 21.4678L21.8483 21.3845L21.4791 21.2961L21.1108 21.2041L21.2026 21.5733L21.2908 21.9435L21.3739 22.315L21.4497 22.6882L21.5169 23.0632L21.5735 23.4402L21.6171 23.8195L21.6465 24.2006L21.6614 24.5832L21.6615 24.9662L21.6467 25.3488L21.6172 25.73L21.5729 26.1088L21.5141 26.4845L21.4423 26.857L21.3597 27.2264L21.2686 27.593L21.1703 27.9571L21.0668 28.3193L20.9599 28.6802L15.9984 28.1892L16.0757 27.5601L16.147 26.9247L16.2097 26.2772L16.2591 25.6126L16.2912 24.9265L16.2994 24.2153L16.2756 23.476L16.2129 22.708L16.1063 21.9111L15.9523 21.0878L15.7484 20.2406L15.4936 19.3734L15.1881 18.4901L14.8337 17.5947L14.4346 16.6896L13.9983 15.7769L13.5317 14.8577L13.0407 13.9349L12.5333 13.01Z" fill="black"/>
<path fill-rule="evenodd" clip-rule="evenodd" d="M30.0247 32.2938L29.7751 32.1477L29.5014 32.0119L29.211 31.8857L28.9111 31.7688L28.6076 31.6618L28.3084 31.5671L28.0263 31.4875L27.7782 31.425L27.5788 31.3789L27.4291 31.3456L27.3113 31.3199L27.3114 31.5125L27.3087 31.7086L27.3023 31.9135L27.2897 32.1336L27.2683 32.3741L27.235 32.637L27.1855 32.9203L27.1155 33.2202L27.0226 33.5313L26.9061 33.8479L26.7665 34.1642L26.6054 34.4752L26.4244 34.7769L26.2255 35.0662L26.0108 35.3408L25.7817 35.5992L25.5399 35.84L25.2864 36.0624L25.0223 36.2654L24.7485 36.448L24.4657 36.6091L24.1748 36.7474L23.8769 36.8614L23.5729 36.9496L23.2643 37.0103L22.9532 37.0423L22.6414 37.0443L22.3317 37.0156L22.0266 36.9559L21.729 36.8653L21.4417 36.7446L21.1676 36.5949L20.9094 36.4176L20.6696 36.2147L20.4506 35.9882L20.2545 35.7402L20.0834 35.4731L19.9391 35.1895L19.8233 34.8919L19.7373 34.583L19.6823 34.2658L19.6587 33.9432L19.6668 33.6181L19.7062 33.2935L19.7761 32.9719L19.8751 32.6558L20.0017 32.3473L20.1542 32.048L20.3304 31.759L20.5285 31.4816L20.7471 31.2166L20.9842 30.9646L21.2381 30.7257L21.5077 30.5004L21.7929 30.2911L22.0943 30.1014L22.4108 29.9327L22.7387 29.7831L23.0739 29.6498L23.4141 29.531L23.7594 29.4278L24.1069 29.3432L24.439 29.283L24.7221 29.2476L24.9364 29.228L25.102 29.2175L24.8548 29.1319L24.5908 29.0457L24.3026 28.9593L23.9941 28.8799L23.6752 28.8135L23.3522 28.7624L23.0274 28.7267L22.7015 28.7057L22.3753 28.6982L22.0491 28.7025L21.723 28.7144L21.3972 28.732L21.9915 26.7801L22.3266 26.7557L22.662 26.7381L22.9973 26.73L23.3319 26.7376L23.6646 26.7648L23.9933 26.8152L24.3162 26.8925L24.6308 26.9984L24.9357 27.1318L25.2297 27.2894L25.5131 27.4668L25.787 27.6591L26.0534 27.8617L26.3147 28.0704L26.5732 28.2821L27.603 29.1337L27.8597 29.3481L28.1149 29.5642L28.3679 29.7826L28.6184 30.0034L28.8663 30.2265L29.112 30.4517L29.3557 30.6787L29.598 30.9074L29.8392 31.138L30.0794 31.3707L30.3187 31.6058L30.5574 31.8433L30.7955 32.0834L31.0333 32.3255L31.271 32.5692L31.5084 32.8141L31.7449 33.0601L31.9793 33.3075L32.2097 33.5575L32.434 33.8113L32.6504 34.07L32.8583 34.3341L33.0579 34.6035L33.2493 34.878L33.4333 35.1573L33.6121 35.4397L33.7871 35.7246L32.898 36.955L32.8262 36.6206L32.7474 36.2877L32.6578 35.9571L32.551 35.6307L32.424 35.3094L32.2763 34.9942L32.1085 34.6856L31.9214 34.3842L31.7171 34.0906L31.4998 33.8058L31.2763 33.5313L31.0556 33.2705L30.845 33.029L30.6453 32.8125L30.4503 32.6216L30.2476 32.4507L30.0247 32.2938ZM22.8272 33.8776L22.8613 33.9081L22.9091 33.936L22.9834 33.9614L23.0943 33.9801L23.2465 33.9879L23.4412 33.9789L23.6755 33.9403L23.94 33.854L24.2194 33.7049L24.4961 33.4866L24.7539 33.202L24.9773 32.8622L25.1502 32.4888L25.2623 32.112L25.3212 31.7613L25.3503 31.45L25.3637 31.1479L25.1384 31.1707L24.6431 31.2827L24.189 31.4481L23.7837 31.6591L23.4344 31.9063L23.1484 32.179L22.9304 32.4642L22.7811 32.747L22.6953 33.0123L22.6628 33.2464L22.669 33.4401L22.6967 33.5912L22.7316 33.7034L22.7657 33.7835L22.7971 33.8389L22.8272 33.8776Z" fill="black"/>
<path fill-rule="evenodd" clip-rule="evenodd" d="M32.1715 30.1412L32.0259 29.891L31.8904 29.6166L31.7645 29.3254L31.648 29.0247L31.5413 28.7204L31.4467 28.4204L31.3674 28.1376L31.3051 27.8889L31.2591 27.6889L31.2259 27.5388L31.2002 27.4207L31.3923 27.4208L31.5879 27.4181L31.7923 27.4117L32.0118 27.399L32.2517 27.3776L32.5138 27.3443L32.7964 27.2946L33.0956 27.2244L33.4059 27.1312L33.7216 27.0144L34.037 26.8745L34.3472 26.7129L34.6482 26.5315L34.9367 26.3321L35.2106 26.1168L35.4683 25.8872L35.7085 25.6447L35.9303 25.3905L36.1327 25.1258L36.3149 24.8512L36.4756 24.5677L36.6135 24.276L36.7272 23.9773L36.8152 23.6725L36.8757 23.3631L36.9076 23.0512L36.9096 22.7387L36.881 22.4281L36.8214 22.1221L36.7311 21.8238L36.6107 21.5357L36.4614 21.2609L36.2846 21.0021L36.0822 20.7616L35.8563 20.542L35.609 20.3454L35.3426 20.1739L35.0597 20.0292L34.7628 19.9131L34.4548 19.8269L34.1384 19.7717L33.8166 19.748L33.4924 19.7562L33.1686 19.7957L32.8479 19.8657L32.5327 19.965L32.2249 20.092L31.9264 20.2449L31.6382 20.4215L31.3615 20.6202L31.0972 20.8393L30.8459 21.077L30.6076 21.3316L30.3828 21.6019L30.1741 21.8879L29.9849 22.1901L29.8166 22.5074L29.6675 22.8362L29.5345 23.1722L29.416 23.5133L29.313 23.8595L29.2287 24.2079L29.1686 24.5409L29.1333 24.8248L29.1137 25.0396L29.1033 25.2056L29.018 24.9578L28.932 24.6931L28.8458 24.4042L28.7666 24.0949L28.7003 23.7751L28.6494 23.4513L28.6138 23.1256L28.5928 22.7989L28.5854 22.4718L28.5896 22.1447L28.6015 21.8178L28.619 21.4911L26.6723 22.087L26.648 22.4229L26.6304 22.7592L26.6223 23.0954L26.6299 23.4309L26.657 23.7644L26.7073 24.0941L26.7844 24.4177L26.89 24.7332L27.0231 25.0389L27.1803 25.3337L27.3572 25.6178L27.549 25.8924L27.751 26.1595L27.9592 26.4216L28.1703 26.6807L29.0198 27.7132L29.2335 27.9706L29.4491 28.2265L29.6669 28.4801L29.8872 28.7313L30.1097 28.9798L30.3343 29.2261L30.5607 29.4705L30.7888 29.7135L31.0188 29.9552L31.2509 30.196L31.4853 30.4361L31.7223 30.6753L31.9617 30.914L32.2032 31.1525L32.4463 31.3908L32.6905 31.6288L32.9358 31.8659L33.1826 32.101L33.4319 32.332L33.6851 32.5569L33.9431 32.7739L34.2065 32.9823L34.4752 33.1824L34.749 33.3743L35.0275 33.5588L35.3092 33.7381L35.5934 33.9135L36.8205 33.0221L36.487 32.9501L36.155 32.8711L35.8253 32.7813L35.4997 32.6742L35.1793 32.5468L34.8649 32.3988L34.5571 32.2305L34.2564 32.0429L33.9637 31.8381L33.6796 31.6202L33.4058 31.3962L33.1457 31.1749L32.9049 30.9637L32.6889 30.7635L32.4985 30.568L32.3281 30.3648L32.1715 30.1412ZM33.7512 22.9249L33.7816 22.959L33.8094 23.007L33.8348 23.0814L33.8535 23.1926L33.8612 23.3453L33.8522 23.5405L33.8137 23.7754L33.7277 24.0406L33.579 24.3207L33.3613 24.5981L33.0774 24.8567L32.7386 25.0807L32.3661 25.2539L31.9903 25.3663L31.6405 25.4254L31.33 25.4546L31.0287 25.468L31.0514 25.2422L31.1631 24.7455L31.3281 24.2903L31.5385 23.8839L31.7851 23.5337L32.0571 23.2469L32.3415 23.0284L32.6236 22.8787L32.8882 22.7926L33.1217 22.7601L33.3149 22.7662L33.4655 22.794L33.5775 22.829L33.6574 22.8632L33.7126 22.8947L33.7512 22.9249Z" fill="black"/>
</g>
</svg>
